<?xml version="1.0" encoding="UTF-8"?>
<svg id="Layer_2" data-name="Layer 2" xmlns="http://www.w3.org/2000/svg" viewBox="0 0 195.82 393.9">
  <defs>
    <style>
      .cls-1, .cls-2, .cls-3, .cls-4, .cls-5, .cls-6 {
        stroke-miterlimit: 10;
      }

      .cls-1, .cls-2, .cls-4 {
        fill: none;
      }

      .cls-1, .cls-3 {
        stroke: #d05a2d;
      }

      .cls-1, .cls-4, .cls-6 {
        stroke-width: 3px;
      }

      .cls-2 {
        stroke: #a54a2f;
        stroke-width: 2px;
      }

      .cls-3 {
        fill: #d05a2d;
      }

      .cls-4, .cls-5 {
        stroke: #fff7e7;
      }

      .cls-5 {
        stroke-width: .75px;
      }

      .cls-5, .cls-7 {
        fill: #fff7e7;
      }

      .cls-8, .cls-6 {
        fill: #eb9922;
      }

      .cls-6 {
        stroke: #fff7e8;
      }

      .cls-9 {
        fill: #f7e2df;
      }
    </style>
  </defs>
  <g id="Layer_1-2" data-name="Layer 1">
    <g>
      <g>
        <g>
          <path class="cls-8" d="M121.86,364.09c-10.85,21.07-34.09,33.17-57.41,28.99-.65-.12-1.31-.25-1.97-.39-11.49-2.47-20.07-8.13-26.34-14.37-8.94-8.88-14.5-20.6-16.34-33.06L2.18,226.37c-.3-2.05-.63-4.09-.96-6.13-1.28-7.94-5.22-41.95,13.9-77.71,0,0,55.21-108.29,55.31-108.5C86.84,1.85,126.81-12.14,155.99,12.7c11.56,9.84,18.76,23.85,20.82,38.88"/>
          <path class="cls-8" d="M20.06,346.68c3.23,23.48,21.13,42.61,44.51,46.42.66.11,1.32.2,1.99.29,11.66,1.49,21.63-1,29.62-4.8,11.38-5.4,20.52-14.61,26.4-25.75l56.11-106.28c.97-1.83,1.96-3.65,2.95-5.46,3.85-7.07,18.87-37.83,12.72-77.91,0,0-16.08-120.49-16.11-120.71-4.78-35.81-37.83-62.29-73.6-48.56-14.17,5.44-25.62,16.26-32.55,29.76"/>
        </g>
        <line class="cls-2" x1="94.28" y1="18.16" x2="161.56" y2="29.67"/>
        <line class="cls-1" x1="96.36" y1="16.58" x2="160.12" y2="27.49"/>
        <line class="cls-2" x1="104.38" y1="12.76" x2="153.27" y2="21.12"/>
        <line class="cls-1" x1="106.08" y1="11.32" x2="151.88" y2="19.15"/>
        <line class="cls-2" x1="86.49" y1="24.73" x2="166.92" y2="38.48"/>
        <line class="cls-1" x1="89.21" y1="23.18" x2="165.43" y2="36.22"/>
        <g>
          <line class="cls-2" x1="81.01" y1="31.46" x2="170.54" y2="46.77"/>
          <line class="cls-1" x1="82.72" y1="29.58" x2="168.81" y2="44.31"/>
        </g>
        <g>
          <line class="cls-2" x1="31.72" y1="353.85" x2="109.52" y2="367.16"/>
          <line class="cls-1" x1="29.99" y1="351.39" x2="112.02" y2="365.42"/>
          <line class="cls-2" x1="29.3" y1="345.76" x2="114.69" y2="360.36"/>
          <line class="cls-1" x1="28.54" y1="343.26" x2="116.68" y2="358.33"/>
        </g>
        <g>
          <line class="cls-2" x1="35.75" y1="361.39" x2="103.05" y2="372.9"/>
          <line class="cls-1" x1="32.46" y1="358.66" x2="106.33" y2="371.3"/>
        </g>
        <g>
          <line class="cls-2" x1="41.04" y1="369.15" x2="95.45" y2="378.46"/>
          <line class="cls-1" x1="37.73" y1="366.42" x2="99.02" y2="376.9"/>
        </g>
        <g>
          <line class="cls-2" x1="51.27" y1="378.53" x2="81" y2="383.62"/>
          <line class="cls-1" x1="46.94" y1="375.63" x2="87.77" y2="382.61"/>
        </g>
        <circle class="cls-6" cx="127.78" cy="25.82" r="9.13"/>
        <path class="cls-4" d="M118.07,355.75c-9.92,20.25-30.82,32.06-51.62,28.32-.58-.1-1.17-.22-1.76-.35-10.24-2.23-17.85-7.55-23.38-13.44-7.89-8.39-12.73-19.52-14.25-31.41l-14.43-113.4c-.25-1.95-.52-3.9-.79-5.85-1.06-7.58-4.21-40.03,13.27-74.4,0,0,50.52-104.08,50.61-104.27,15.02-30.94,50.89-44.74,76.69-21.32,7.56,6.86,13.76,15.36,16.93,25.13,1.93,5.95,2.49,12.22,3.19,18.41.48,4.21.96,8.42,1.43,12.63.66,5.78,1.31,11.57,1.97,17.35.75,6.61,1.5,13.21,2.25,19.82.76,6.68,1.52,13.36,2.28,20.04.68,6.01,1.36,12.01,2.05,18.02.52,4.58,1.04,9.16,1.56,13.74l.82,7.22.06.57c5.06,38.23-8.69,67.79-12.21,74.58-.9,1.75-1.81,3.49-2.69,5.25l-51.3,102.16c-5.38,10.71-13.65,19.6-23.88,24.89-7.18,3.71-16.12,6.2-26.52,4.91-.6-.07-1.19-.16-1.78-.25-20.86-3.39-36.65-21.47-39.27-43.87"/>
      </g>
      <g>
        <path class="cls-7" d="M123.69,59.25c-2.32-3.11-4.97-6.05-8.63-7.57s-7.79-1.27-11.37.26c-6.57,2.81-10.41,9.35-11.29,16.23-.78,6.15,1.11,12.95,6.76,16.23,3.52,2.05,7.38,1.82,10.74-.42,1.56-1.04,2.96-2.32,4.36-3.57.1-.09.55-.42.56-.5,0,.04-.16.11-.18.1-.23-.12-.72.04-1.04-.15-.14-.08-.3-.27-.43-.34-.23-.12-.01-.29-.02-.05,0,.08.07.26.09.33.04.2.04.12.07.49.17,2.5-.12,5.12-.34,7.61-.43,4.85-1.23,9.66-2.18,14.43-1.13,5.66-2.17,11.72-4.75,16.95-.49,1-1.09,2.07-1.75,2.89-.34.42-.72.82-1.14,1.17-.06.05-.17.13-.36.25-.1.06-.62.34-.42.26-.9.39-1.48.35-2.38-.02-1.44-.59-2.48-1.78-2.99-3.26-1.43-4.16.6-8.56,2.67-12.11s4.65-6.78,7.61-9.62,6.5-5.12,9.79-7.67,6.49-5.52,9.06-8.96c4.55-6.11,7.2-13.17,6.32-20.83-.24-2.05-.61-4.06-1.07-6.07-.54-2.35-4.15-1.36-3.62,1,.83,3.63,1.46,7.39.99,11.12s-1.99,6.83-3.83,9.85c-2.2,3.62-4.99,6.68-8.22,9.41s-6.86,4.95-10.08,7.7-6.03,5.92-8.42,9.4-4.59,7.37-5.2,11.56.38,8.71,4.08,11.14c2.21,1.45,4.9,1.81,7.27.54,4.34-2.32,6.23-8.3,7.52-12.69,2.25-7.65,3.65-15.71,4.57-23.62.35-3.03.66-6.13.66-9.19,0-2.07-.47-5.96-3.54-5.1-1.5.42-2.75,2.09-3.9,3.06-1.26,1.06-2.65,2.09-4.26,2.51-3.01.77-6.12-1.59-7.61-4.04-2.97-4.85-2.08-11.66.64-16.42,3.67-6.42,12.22-9.7,18.32-4.49,1.41,1.2,2.62,2.61,3.72,4.09.61.82,1.62,1.21,2.57.67.81-.46,1.28-1.76.67-2.57h0Z"/>
        <g>
          <path class="cls-7" d="M144.56,66.96c-4.51,4.18-10.25,8.03-16.68,7.45-5.85-.52-10.51-4.82-14-9.2-.64-.8-1.98-.65-2.65,0-.79.77-.63,1.87,0,2.65,4.19,5.24,9.75,9.71,16.66,10.3,7.42.63,14.13-3.73,19.34-8.55,1.77-1.64-.88-4.29-2.65-2.65h0Z"/>
          <g>
            <path class="cls-7" d="M119.43,67.46c1.61,0,1.61-2.5,0-2.5s-1.61,2.5,0,2.5h0Z"/>
            <path class="cls-7" d="M123.13,69.46c1.61,0,1.61-2.5,0-2.5s-1.61,2.5,0,2.5h0Z"/>
          </g>
        </g>
      </g>
      <g>
        <path class="cls-7" d="M39.26,335.03l-.45,2.65-6.72-1.15.45-2.65,1.16.2c.31.05.52-.16.57-.43l.98-5.71c.04-.24-.13-.48-.4-.53l-1.16-.2.45-2.65,7.64,1.31c1.66.28,4.05,1.34,3.61,3.93-.29,1.68-1.64,2.27-3.1,2.3.56.31.93.62,1.2.89.53.6.66,1.38.54,2.1-.02.14-.08.57.16.61.38.06.48-.53.55-.96l1.11.19-.19,1.13c-.29,1.73-1.42,2.64-3.22,2.34-.75-.13-1.45-.35-1.95-1.06-.85-1.18-.03-2.63-.69-3.76-.31-.55-1.5-.77-1.71-.8l-.12-.02-.25,1.49c-.05.29.12.55.46.61l1.09.19ZM39.93,330.32c.96.16,1.42-.27,1.5-.76s-.21-1.06-1.17-1.22l-1.04-.18c-.27-.05-.5.13-.54.37l-.26,1.54,1.5.26Z"/>
        <path class="cls-7" d="M58.98,334.97c-.54,3.13-3.17,5.69-7,5.03-3.83-.66-5.47-3.94-4.93-7.07s3.17-5.69,7-5.03c3.83.66,5.47,3.95,4.93,7.08ZM50.96,333.6c-.32,1.85-.31,3.47,1.47,3.77,1.78.3,2.35-1.41,2.64-3.07.28-1.66.31-3.47-1.47-3.77-1.78-.3-2.32,1.22-2.64,3.07Z"/>
        <path class="cls-7" d="M71.84,337.17c-.54,3.13-3.17,5.69-7,5.03-3.83-.66-5.47-3.95-4.93-7.07.54-3.13,3.17-5.69,7-5.03s5.47,3.95,4.93,7.07ZM63.82,335.8c-.32,1.85-.31,3.47,1.47,3.77,1.78.3,2.35-1.41,2.64-3.07.28-1.66.31-3.47-1.47-3.77-1.78-.3-2.32,1.22-2.64,3.07Z"/>
        <path class="cls-7" d="M85.78,342.99l-.45,2.65-6.28-1.07.45-2.65.96.16c.31.05.52-.16.57-.43l.85-4.96-3.99,7.68-.21-.04-1.23-8.57-.86,5.03c-.04.24.11.48.38.52l.92.16-.45,2.65-5.58-.95.45-2.65,1.2.21c.31.05.52-.16.57-.43l.97-5.64c.04-.26-.08-.54-.39-.59l-1.2-.21.45-2.65,6.26,1.07s.57,3.02.6,3.18l1.42-2.84,6.17,1.06-.45,2.65-.99-.17c-.29-.05-.5.18-.55.43l-.98,5.71c-.04.26.15.48.47.54l.91.16Z"/>
        <path class="cls-7" d="M96.86,347.68c-3.32-.57-4.77-3.19-4.13-6.94s2.88-5.74,6.2-5.17c3.33.57,4.77,3.19,4.13,6.94s-2.87,5.74-6.2,5.17ZM99.19,341.85c.38-2.22.62-3.73-.66-3.95s-1.56,1.28-1.94,3.51c-.38,2.22-.62,3.73.66,3.95s1.56-1.28,1.94-3.51Z"/>
        <path class="cls-7" d="M108.45,349.66c-3.32-.57-4.77-3.19-4.13-6.94.64-3.75,2.88-5.74,6.2-5.17,3.33.57,4.77,3.19,4.13,6.94-.64,3.75-2.86,5.74-6.2,5.17ZM110.78,343.83c.38-2.22.62-3.73-.66-3.95-1.28-.22-1.56,1.28-1.94,3.51s-.62,3.73.66,3.95c1.28.22,1.56-1.28,1.94-3.51Z"/>
      </g>
      <g>
        <path class="cls-9" d="M43.88,322.14l-4.1-.7,1.04-6.07,4.1.7-.18,1.08-3.01-.51-.23,1.36,2.63.45-.18,1.03-2.62-.45-.26,1.53,3.01.51-.18,1.08Z"/>
        <path class="cls-9" d="M49.33,323.07l-.9-.15-1.76-4.21-.65,3.8-1.1-.19,1.04-6.07.9.15,1.76,4.21.65-3.8,1.09.19-1.04,6.07Z"/>
        <path class="cls-9" d="M54.55,321.98c-.22,1.3-1.07,1.87-2.38,1.64-1.17-.2-1.67-.91-1.75-1.99l1.09-.11c.05.57.3.95.83,1.04.7.12,1.02-.16,1.13-.8l.7-4.1,1.09.19-.71,4.14Z"/>
        <path class="cls-9" d="M57.68,324.57c-1.83-.31-2.26-1.92-1.98-3.53.28-1.61,1.22-2.99,3.04-2.67,1.83.31,2.26,1.92,1.98,3.53-.27,1.61-1.22,2.99-3.04,2.67ZM58.56,319.45c-1.19-.2-1.6.83-1.76,1.78-.16.95-.12,2.06,1.07,2.27,1.19.2,1.59-.84,1.75-1.79.16-.95.14-2.06-1.06-2.27Z"/>
        <path class="cls-9" d="M66.48,319.76l-2.7,3.73-.34,2-1.1-.19.34-2.02-1.32-4.4,1.23.21.86,3.06,1.81-2.6,1.22.21Z"/>
        <path class="cls-9" d="M74.4,321.12l-2.7,3.72-.34,2-1.1-.19.34-2.02-1.32-4.4,1.23.21.86,3.06,1.81-2.6,1.22.21Z"/>
        <path class="cls-9" d="M75.99,327.71c-1.83-.31-2.26-1.92-1.98-3.53.28-1.61,1.22-2.99,3.04-2.67,1.83.31,2.26,1.92,1.98,3.53-.28,1.61-1.22,2.99-3.04,2.67ZM76.86,322.58c-1.19-.2-1.6.83-1.76,1.78-.16.95-.12,2.06,1.07,2.27,1.19.2,1.59-.84,1.75-1.79.16-.95.14-2.06-1.06-2.27Z"/>
        <path class="cls-9" d="M84.43,326.48c-.27,1.56-1.08,2.48-2.74,2.2-1.66-.28-2.12-1.44-1.85-2.98l.61-3.55,1.09.19-.6,3.49c-.14.84-.09,1.61.94,1.79,1.05.18,1.33-.51,1.48-1.38l.6-3.5,1.09.19-.61,3.55Z"/>
        <path class="cls-9" d="M88.59,327.09c.09.1.18.28.23.42l1.04,2.5-1.27-.22-.88-2.27c-.13-.34-.21-.5-.6-.57l-.43-.07-.43,2.51-1.1-.19,1.04-6.07,2.19.37c1.17.2,1.98.9,1.77,2.16-.13.79-.73,1.33-1.56,1.42ZM88.21,324.56l-1.1-.19-.26,1.54,1.1.19c.55.09,1,.02,1.11-.62.11-.62-.31-.83-.84-.92Z"/>
        <path class="cls-9" d="M95.29,331.02c-1.28-.22-2.03-.94-2.13-2.21l1.07-.02c.07.71.55,1.07,1.24,1.19.51.09,1.19-.06,1.3-.67.21-1.25-3.31-1-2.94-3.19.2-1.15,1.33-1.53,2.35-1.35,1.08.18,1.7.7,2,1.73l-1.02.27c-.19-.59-.52-.88-1.16-.99-.39-.07-1,0-1.08.52-.18,1.06,3.32.95,2.94,3.19-.21,1.23-1.44,1.72-2.57,1.53Z"/>
        <path class="cls-9" d="M103.3,327.17l-1.75-.3-.85,4.99-1.09-.19.85-4.99-1.75-.3.18-1.08,4.59.79-.18,1.08Z"/>
        <path class="cls-9" d="M107.68,333.05l-1.18-.2-.31-1.68-2.14-.37-.84,1.48-1.18-.2,3.37-5.67.98.17,1.31,6.47ZM106,330.15l-.39-2.08-1.05,1.83,1.43.25Z"/>
        <path class="cls-9" d="M113.19,327.75l-2.71,3.73-.34,2-1.09-.19.34-2.02-1.32-4.4,1.23.21.86,3.06,1.81-2.6,1.22.21Z"/>
      </g>
      <g>
        <path class="cls-3" d="M62.96,180.56l-2.54-11.31-7.61-1.3-.17.96c-2.21,13.25-7.1,18.27-12.51,17.34l.08-3.68c3.7.63,8.12-2.97,10.05-14.23l.14-.8-10.08-1.72.33-1.93,10.03,1.71c1.25-8.62,1.84-19.77,2.24-27.93l4.4.75,6.5,29.42,7.61,1.3-.33,1.93-6.86-1.17,2.31,10.38c.78,3.5,2.18,6.94,4.75,7.38,2.14.37,3.77-2.06,4.57-6.72l2.51.82c-1.38,8.04-4.32,10.08-8.23,9.41-3.27-.56-5.68-3.9-7.18-10.61ZM53.09,166.02l6.86,1.17-4.89-21.75c-.45,6.82-1.02,14.01-1.97,20.58Z"/>
        <path class="cls-3" d="M82.72,188.03c-1.59,2.82-3.51,4.7-5.87,4.29-3.43-.59-4.51-4.58-4.91-5.81l2.17-.73c.52,1.47,1.48,2.63,3.36,2.95,1.82.31,3.21-1,4.51-3.48-.74-3.71-1.25-8.49-1.59-14.24-.36-5.64-.81-11.4.33-18.05.82-4.77,2.66-8.15,4.92-7.77,5.9,1.01,3.91,19.43,3.11,24.1-1.28,7.51-3.19,12.53-3.86,14.18.61,4.19,1.6,6.79,3.64,7.13,3.48.6,4.19-6.13,4.02-11.56l3.24.72.02.5c.2,2.68,2.04,5.21,3.43,6.11,1.49.97,3.28,1.17,3.62-.82l2.51.82c-.58,3.38-3.6,4.3-6.65,3.06-1.19-.48-2.41-1.41-3.46-2.69-1.08,4.73-3.54,8.11-7.45,7.45-2.36-.4-3.98-2.56-5.07-6.17ZM83.76,169.99c.24,3.46.4,6.69.65,9.44.63-2.1,1.5-5.21,2.14-8.96,2.54-14.85.69-23.06-.76-23.31-1.02-.17-1.73,3.35-2.03,5.06-.96,5.63-.43,11.57,0,17.77Z"/>
        <path class="cls-3" d="M102.59,183.2c.81-4.72,3.89-8.22,8.34-7.46,3.54.61,5.78,4.3,6.72,8.49.93,2.97,2.15,5.83,3.68,6.54,1.02.51,2.34-.15,2.59-1.6l2.51.82c-.38,2.2-2.66,4.57-5.54,3.36-1.29-.55-2.25-1.38-2.95-2.43l-.06.32c-.82,4.77-4.24,7.39-8.42,6.67-5.42-.93-7.84-9.01-6.87-14.7ZM110.26,194.5c2.2.38,3.66-1.42,4.09-3.88.72-4.18-.74-12.43-4.44-13.07-2.52-.43-3.58,2.2-3.97,4.51-.72,4.24.74,11.83,4.33,12.44Z"/>
        <path class="cls-3" d="M124.05,194.21c-.3-5.02-.76-16.19-.76-16.19l3.43.59c.03,1.11.02,7.29.29,12.85.16,3.56,1.06,6.09,2.88,6.4,2.95.5,4.72-7.25,3.86-18.05l3.91.67c.03,1.11.34,7.34.61,12.91.16,3.56,1.16,6.1,2.99,6.42,3.49.6,4.59-4.24,5.03-6.81l2.51.82c-.83,4.88-3.46,10.22-8.34,9.39-3.16-.54-4.95-3.99-5.14-7.06l-.17-2.9c-1.18,5.92-3.54,8.44-6.33,7.97-2.63-.45-4.57-3.93-4.76-7Z"/>
        <path class="cls-3" d="M146.68,198.08c-.23-1.86-.62-7.67-1.04-14.25l-3.27-.56.33-1.93,2.84.49c-.67-10.6-1.26-22.29-1.26-22.29l3.7.63c.04.73.48,12.34.94,22.24l6.49,1.11-.33,1.93-6-1.03c.21,4.89.48,9.13.72,10.94.5,4.17,1.49,6.16,3.42,6.49,3.49.6,5.12-4.15,5.56-6.72l2.51.82c-.83,4.88-4,10.13-8.88,9.3-2.9-.5-5.26-3.44-5.73-7.16Z"/>
      </g>
      <g>
        <path class="cls-5" d="M100.56,234.36c-1.24-19.62-1.37-27.92-3.55-28.29-2.07-.35-3.29,6.16-4.94,15.81-2.15,12.56-3.47,26-3.68,31.25l-3.79-.65c-.4-8.05.02-12.52-.5-20.59-.97-16.13-1.42-28.27-4.38-28.78-2.06-.35-3.35,6.15-5,15.8-2.15,12.55-3.25,26.04-3.46,31.28l-3.57-.61c-.65-13.32-.92-23.19-1.7-36.76-.33-5.8-1.12-14.61-6.09-15.46-5.19-.89-6.75,8.26-5.07,15.56l-3.36.8c-2.05-9.48,1.33-19.53,8.98-18.22,7.48,1.28,8.87,11.62,9.21,19.67l.54,12.27c.35-2.41.76-4.81,1.18-7.21,2.14-12.5,4.25-19.83,8.77-19.06,6.47,1.11,7.16,18.57,7.43,28.78l1.16-6.75c2.14-12.5,4.37-19.81,8.83-19.05,5.58.95,5.96,13.83,6.91,31.16.56,10.15.57,17.16,4.64,17.85,3.63.62,4.77-4.41,5.23-7.09l2.61.85c-.87,5.08-3.6,10.64-8.62,9.78-7.42-1.27-7.05-10.8-7.78-22.35Z"/>
        <path class="cls-5" d="M113.22,248.99c.35-2.06,1.46-3.48,1.46-3.48-1.13-.77-2.08-2.94-1.65-5.45.6-3.52,3.38-6.03,7.01-5.41,4.8.82,5.4,5.69,5.4,5.69l-2.51.26c-.11-1.69-1.14-3.76-2.98-4.07-1.84-.31-3.51,1.41-3.85,3.36-.32,1.9.61,3.84,3.01,4.25,1.12.19,2.9.15,2.9.15l-.22,2.32c-1.8.09-4.48.67-4.9,3.12-.51,2.96,1.61,5.04,4.73,5.58,4.07.7,7.87-2.04,8.64-6.51l2.61.85c-.89,5.19-5.15,10.32-12.69,9.03-5.02-.86-7.81-4.72-6.96-9.69Z"/>
      </g>
    </g>
  </g>
</svg>