<?xml version="1.0" encoding="UTF-8"?>
<svg id="Layer_2" data-name="Layer 2" xmlns="http://www.w3.org/2000/svg" viewBox="0 0 196.06 392.85">
  <defs>
    <style>
      .cls-1, .cls-2 {
        stroke-width: 3px;
      }

      .cls-1, .cls-2, .cls-3, .cls-4, .cls-5, .cls-6, .cls-7 {
        stroke-miterlimit: 10;
      }

      .cls-1, .cls-2, .cls-3, .cls-7 {
        fill: none;
      }

      .cls-1, .cls-5, .cls-6 {
        stroke: #1c574e;
      }

      .cls-2 {
        stroke: #75c5b2;
      }

      .cls-3, .cls-7 {
        stroke: #6cb8a5;
      }

      .cls-8 {
        fill: #89b698;
      }

      .cls-4 {
        stroke: #fff7e7;
        stroke-width: .75px;
      }

      .cls-4, .cls-9 {
        fill: #fff7e7;
      }

      .cls-5, .cls-10 {
        fill: #99d2c6;
      }

      .cls-5, .cls-7 {
        stroke-width: 2px;
      }

      .cls-11 {
        opacity: .95;
      }

      .cls-6 {
        fill: #1c574e;
      }
    </style>
  </defs>
  <g id="Layer_1-2" data-name="Layer 1">
    <g>
      <g>
        <g>
          <path class="cls-10" d="M178.86,344.55c-2.75,23.54-20.26,43.03-43.57,47.31-.65.12-1.31.23-1.99.33-11.62,1.73-21.65-.57-29.71-4.2-11.49-5.17-20.81-14.19-26.92-25.21l-58.24-105.13c-1-1.81-2.03-3.6-3.05-5.4-3.99-6.99-19.63-37.44-14.28-77.64,0,0,13.64-120.79,13.67-121.01C18.83,17.7,51.33-9.44,87.38,3.56c14.28,5.15,25.94,15.74,33.15,29.09"/>
          <path class="cls-10" d="M77.44,364.01c11.27,20.85,34.75,32.47,57.99,27.82.65-.13,1.31-.27,1.97-.43,11.44-2.7,19.9-8.54,26.05-14.9,8.76-9.06,14.08-20.89,15.67-33.38l15.2-119.22c.26-2.05.55-4.1.84-6.15,1.12-7.97,4.38-42.05-15.47-77.41,0,0-57.38-107.16-57.49-107.36C105.14,1.14,64.9-12.04,36.23,13.38c-11.36,10.07-18.28,24.22-20.03,39.3"/>
        </g>
        <line class="cls-3" x1="31.52" y1="30.36" x2="98.56" y2="17.5"/>
        <line class="cls-2" x1="32.91" y1="28.15" x2="96.45" y2="15.96"/>
        <line class="cls-3" x1="39.08" y1="21.75" x2="87.79" y2="12.41"/>
        <line class="cls-2" x1="40.16" y1="19.81" x2="85.8" y2="11.05"/>
        <line class="cls-3" x1="26.53" y1="39.25" x2="106.67" y2="23.87"/>
        <line class="cls-2" x1="28.53" y1="36.84" x2="104.48" y2="22.27"/>
        <g>
          <line class="cls-3" x1="23.77" y1="47.47" x2="112.97" y2="30.35"/>
          <line class="cls-2" x1="24.71" y1="45.11" x2="110.49" y2="28.65"/>
        </g>
        <g>
          <line class="cls-7" x1="91.22" y1="368.4" x2="167.9" y2="353.69"/>
          <line class="cls-2" x1="89.76" y1="366.5" x2="169.04" y2="351.29"/>
          <line class="cls-7" x1="86.11" y1="361.67" x2="170.01" y2="345.57"/>
          <line class="cls-2" x1="84.51" y1="359.6" x2="171.26" y2="342.95"/>
        </g>
        <g>
          <line class="cls-7" x1="97.64" y1="374.04" x2="164.69" y2="361.18"/>
          <line class="cls-2" x1="95.8" y1="372.22" x2="165.8" y2="358.79"/>
        </g>
        <g>
          <line class="cls-7" x1="106.74" y1="379.18" x2="158.15" y2="369.31"/>
          <line class="cls-2" x1="103.4" y1="377.64" x2="160.46" y2="366.69"/>
        </g>
        <g>
          <line class="cls-7" x1="117.85" y1="382.87" x2="149.19" y2="376.86"/>
          <line class="cls-2" x1="112.77" y1="381.67" x2="153.99" y2="373.76"/>
        </g>
        <circle class="cls-5" cx="65.58" cy="25.76" r="9.13"/>
        <path class="cls-1" d="M172.39,338.07c-2.18,22.45-17.59,40.85-38.38,44.65-.58.11-1.17.2-1.77.29-10.37,1.51-19.36-.8-26.62-4.37-10.33-5.08-18.78-13.81-24.37-24.41l-53.35-101.11c-.92-1.74-1.86-3.47-2.8-5.19-3.65-6.72-18-36-13.71-74.32,0,0,10.73-115.19,10.75-115.4C25.33,23.98,54.06-1.55,86.45,11.31c9.49,3.77,18.27,9.55,24.68,17.58,3.9,4.89,6.62,10.57,9.45,16.12,1.93,3.77,3.85,7.55,5.78,11.32,2.65,5.18,5.29,10.37,7.94,15.55,3.02,5.92,6.05,11.84,9.07,17.77s6.12,11.98,9.17,17.97c2.75,5.38,5.5,10.77,8.25,16.15,2.1,4.11,4.19,8.21,6.29,12.32l3.3,6.47.26.51c18.17,34.01,15.67,66.52,14.77,74.12-.23,1.95-.47,3.9-.68,5.86l-12.14,113.67c-1.27,11.92-5.89,23.15-13.61,31.69-5.42,6-12.92,11.47-23.11,13.91-.59.14-1.17.27-1.75.39-20.72,4.16-41.85-7.23-52.18-27.28"/>
      </g>
      <g>
        <path class="cls-9" d="M73.13,58.41c-3.85-2.39-8.18-4.27-12.81-3.57-3.75.57-7.16,2.67-9.51,5.62-4.22,5.29-5.02,12.51-3.04,18.88s6.68,11.49,13.46,11.75c3.53.14,6.36-1.71,8.36-4.5.94-1.32,1.67-2.77,2.4-4.22.17-.33.35-.66.5-1,.27-.6.02-.05-.43.07l-1.02-.13-.17-.14s.23.25.21.22c-.15-.28.18.32.23.42,1.23,2.24,1.91,5.14,2.62,7.6,1.36,4.69,2.39,9.46,3.25,14.26,1.01,5.57,2.12,11.32,1.75,17.01-.12,1.92-.49,4.24-1.57,5.58-.47.58-.88.85-1.69,1.02-.02,0-.24.04-.53.04-.26,0-.53,0-.8-.04-.68-.09-1.44-.34-2.05-.73-3.55-2.27-3.9-7.32-3.56-11.08.39-4.37,1.55-8.72,3.25-12.75s4.32-7.74,6.63-11.57,4.2-7.67,5.34-11.87c1.03-3.77,1.64-7.87,1.34-11.77-.27-3.6-1.37-6.98-3.03-10.17-.92-1.76-1.99-3.43-3.11-5.07-1.35-1.98-4.6-.11-3.24,1.89,2.11,3.09,4.09,6.34,5.05,9.98.91,3.45.76,7.07.15,10.56-.75,4.32-2.25,8.32-4.36,12.16s-4.85,7.47-6.84,11.45-3.48,8.22-4.3,12.59-1.3,8.99.33,13.16c1.48,3.78,4.44,6.71,8.63,6.99,2.48.16,4.71-.97,6.09-3.01,2.62-3.87,2.25-9.52,1.83-13.94-.75-8.01-2.36-16.11-4.46-23.87-.8-2.96-1.66-6-2.84-8.84-.46-1.11-.99-2.37-2-3.1-1.28-.93-2.83-.56-3.71.72-1.64,2.42-2.3,5.57-4.79,7.37s-5.79.94-8.11-.54c-4.86-3.1-6.61-9.93-6.05-15.35.75-7.25,7.2-13.78,14.82-11.63,2.09.59,4,1.65,5.84,2.79,2.06,1.27,3.94-1.97,1.89-3.24h0Z"/>
        <g>
          <path class="cls-9" d="M95.7,57.87c-2.65,5.51-6.52,11.34-12.7,13.19-5.65,1.69-11.49-.44-16.39-3.26-2.1-1.2-3.99,2.03-1.89,3.24,4.56,2.62,9.8,4.67,15.16,4.34s9.73-2.82,13.19-6.61c2.43-2.66,4.32-5.77,5.88-9.01,1.04-2.17-2.19-4.07-3.24-1.89h0Z"/>
          <g>
            <path class="cls-9" d="M71.94,67.83c1.61,0,1.61-2.5,0-2.5s-1.61,2.5,0,2.5h0Z"/>
            <path class="cls-9" d="M76.12,68.34c1.61,0,1.61-2.5,0-2.5s-1.61,2.5,0,2.5h0Z"/>
          </g>
        </g>
      </g>
      <g>
        <path class="cls-9" d="M95.35,344.16l.51,2.64-6.7,1.29-.51-2.64,1.16-.22c.31-.06.43-.33.38-.6l-1.09-5.69c-.05-.24-.29-.4-.56-.35l-1.16.22-.51-2.64,7.62-1.46c1.65-.32,4.26-.16,4.76,2.41.32,1.67-.74,2.7-2.1,3.25.63.09,1.09.25,1.44.41.71.38,1.1,1.06,1.24,1.78.03.14.12.56.36.51.37-.07.26-.67.18-1.09l1.11-.21.22,1.12c.33,1.72-.4,2.97-2.19,3.32-.75.14-1.49.18-2.2-.3-1.22-.81-.95-2.45-1.97-3.28-.48-.4-1.68-.19-1.88-.15l-.12.02.28,1.48c.06.29.3.47.64.41l1.09-.21ZM94.32,339.52c.95-.18,1.23-.75,1.14-1.24s-.56-.92-1.52-.73l-1.04.2c-.27.05-.42.29-.38.53l.29,1.53,1.5-.29Z"/>
        <path class="cls-9" d="M113.8,337.18c.6,3.12-.97,6.44-4.79,7.17s-6.51-1.77-7.1-4.89c-.6-3.12.97-6.44,4.79-7.17,3.82-.73,6.51,1.77,7.1,4.89ZM105.81,338.71c.35,1.84.93,3.35,2.7,3.01s1.71-2.15,1.39-3.8c-.32-1.65-.93-3.35-2.7-3.01s-1.74,1.96-1.39,3.8Z"/>
        <path class="cls-9" d="M126.61,334.72c.6,3.12-.97,6.44-4.79,7.17s-6.5-1.77-7.1-4.89c-.6-3.12.97-6.44,4.79-7.17,3.82-.73,6.5,1.77,7.1,4.89ZM118.62,336.25c.35,1.84.93,3.35,2.7,3.01,1.77-.34,1.71-2.15,1.39-3.8-.32-1.65-.93-3.36-2.7-3.02-1.77.34-1.74,1.96-1.39,3.8Z"/>
        <path class="cls-9" d="M141.71,335.27l.51,2.64-6.25,1.2-.51-2.64.95-.18c.31-.06.43-.33.38-.6l-.95-4.94-1.04,8.59-.2.04-4.16-7.59.96,5.01c.05.24.27.41.54.36l.92-.18.51,2.64-5.55,1.07-.51-2.64,1.19-.23c.31-.06.43-.33.38-.6l-1.08-5.62c-.05-.26-.27-.48-.58-.42l-1.19.23-.51-2.64,6.24-1.2s1.6,2.63,1.68,2.77l.33-3.15,6.15-1.18.51,2.64-.99.19c-.29.05-.41.34-.36.6l1.09,5.69c.05.26.31.4.63.34l.9-.17Z"/>
        <path class="cls-9" d="M154.75,332.76l.51,2.64-6.7,1.29-.51-2.64,1.16-.22c.27-.05.44-.3.39-.53l-1.04-5.44-1.64.31-.5-2.59,1.06-.2c1.14-.22,1.34-.82,1.29-1.1l2.56-.49,1.71,8.89c.04.21.25.36.47.32l1.24-.24Z"/>
        <path class="cls-9" d="M162.71,331.24l.51,2.64-6.7,1.29-.51-2.64,1.16-.22c.27-.05.44-.3.39-.54l-1.04-5.44-1.64.31-.5-2.59,1.06-.2c1.14-.22,1.34-.82,1.29-1.1l2.56-.49,1.71,8.89c.04.21.25.36.47.32l1.24-.24Z"/>
      </g>
      <g>
        <path class="cls-6" d="M71.89,196.99l-3.84-6.31-4.45.85.12.62c1.67,8.52.08,12.61-3.09,13.22l-.76-2.25c2.16-.41,3.8-3.56,2.41-10.8l-.1-.52-5.89,1.13-.24-1.24,5.86-1.12c-1.18-5.5-3.29-12.39-4.84-17.43l2.57-.49,9.95,16.45,4.45-.85.24,1.24-4.01.77,3.52,5.8c1.19,1.95,2.7,3.74,4.2,3.45,1.25-.24,1.62-2.06,1.04-5.07l1.55-.05c.99,5.18-.18,7.05-2.46,7.48-1.91.37-3.96-1.14-6.23-4.89ZM63.32,190.3l4.01-.77-7.4-12.14c1.24,4.24,2.49,8.72,3.39,12.91Z"/>
        <path class="cls-6" d="M83.77,194.86l-2.14-5.24c-.67.06-1.58.09-2.57-.19.84,1.99,1.33,3.89,1.54,4.96l-1.55.05c-.44-2.31-2.02-5.12-2.95-6.59l1.77-.95c1.31,1.22,2.99,1.5,4.4,1.23.35-.07.59-.15.71-.21l.12-.06s1.46,3.69,2.36,5.84c1.09,2.65,2.14,4.06,3.12,3.87,2.04-.39,1.59-3.56,1.27-5.22l1.55-.05c.6,3.14.33,6.95-2.49,7.49-2.29.44-3.95-2.14-5.11-4.96Z"/>
        <path class="cls-6" d="M91.15,195.37c-.53-1.08-2-4.52-3.66-8.42l-1.91.37-.24-1.24,1.66-.32c-2.67-6.29-5.53-13.25-5.53-13.25l2.16-.41c.18.43,2.94,7.38,5.34,13.29l3.79-.73.24,1.24-3.51.67c1.18,2.92,2.25,5.44,2.77,6.48,1.18,2.42,2.15,3.42,3.28,3.2,2.04-.39,1.9-3.62,1.59-5.28l1.55-.05c.6,3.14.01,7.01-2.84,7.56-1.69.32-3.63-.95-4.69-3.11Z"/>
      </g>
      <g class="cls-11">
        <path class="cls-4" d="M18.68,196.95l4.24-.81,4.43,10.61c5.61,12.42,15.33,25.93,22.72,24.51,3.25-.62,4.56-3.47,4.28-7.7-10.63.82-23.25-9.49-26.51-22.92-.96-3.99.17-8.54,4.97-9.46,6.12-1.17,16.61,8.22,21.91,22.07.98,2.56,1.7,5.07,2.1,7.39,1.2-.38,2.56-1.15,3.45-2.65l1,1.39c-1.09,1.69-2.6,2.99-4.1,3.59.55,6.16-1.44,10.82-7.04,11.89-4.76.91-10.09-3.21-14.65-8.7l4.35,10.47-.09.02v.05s-3,.58-3,.58c-1.89-4.53-18.04-40.33-18.04-40.33ZM54.03,221.13c-.39-2.27-1.17-4.82-2.28-7.56-4.05-9.92-13.57-21.64-19.08-20.58-2.73.52-3.55,3.38-2.73,6.63,3.13,12.23,15.67,21.64,24.09,21.5Z"/>
        <path class="cls-4" d="M55.27,207.76c-.25-1.28.09-2.56,1.27-2.79,1.6-.31,2.74,1.56,3,2.89.23,1.18-.28,2.35-1.36,2.55-1.32.25-2.59-1.03-2.9-2.65ZM60.92,212.27c.38.95,2.61,6.22,4.59,10.93,1.26,3.02,2.89,4.89,4.49,4.59,3.06-.59,2.44-5.1,1.99-7.46l2.33-.09c.86,4.47.39,9.91-3.9,10.73-2.78.53-5.34-1.88-6.47-4.46-1.84-4.23-6.04-13.66-6.04-13.66l3.01-.58Z"/>
        <path class="cls-4" d="M79.07,220.86l-3.14-7.44c-1.01.09-2.36.15-3.85-.23,1.22,2.82,1.94,5.54,2.23,7.06l-2.33.09c-.63-3.29-2.96-7.27-4.33-9.35l2.66-1.38c1.94,1.72,4.45,2.1,6.57,1.69.52-.1.88-.22,1.06-.31l.18-.08s2.13,5.24,3.45,8.3c1.6,3.77,3.16,5.76,4.62,5.48,3.06-.59,2.44-5.1,1.99-7.46l2.33-.09c.86,4.47.39,9.91-3.85,10.72-3.44.66-5.9-2.99-7.59-7Z"/>
        <path class="cls-4" d="M88.13,219.99c-.35-1.82.09-3.33.09-3.33-1.13-.29-2.54-1.8-2.97-4.01-.59-3.09.85-6.02,3.91-6.61,4.05-.78,6.01,3.07,6.01,3.07l-1.91.98c-.6-1.36-2.04-2.76-3.6-2.47s-2.35,2.23-2.02,3.95,1.65,2.99,3.67,2.6c.94-.18,2.34-.76,2.34-.76l.53,1.99c-1.39.62-3.34,1.91-2.93,4.08.5,2.6,2.81,3.69,5.44,3.18,3.44-.66,5.61-4.08,4.86-8.01l2.33-.09c.88,4.57-.94,10.11-7.3,11.33-4.24.81-7.62-1.54-8.46-5.91Z"/>
        <path class="cls-4" d="M100.51,212.21c-.75-3.93.18-7.98,3.66-8.65,2.26-.43,4.58.96,5.71,3.28l-2.01,1c-.68-1.24-1.79-2.97-3.39-2.66-1.74.33-2.02,2.68-1.5,5.43.74,3.83,3.89,10.1,8.13,9.29s5.31-4.63,4.67-7.97l2.33-.09c1.02,5.31-1.45,10.26-6.58,11.24-5.41,1.04-9.79-4.49-11.02-10.87Z"/>
        <path class="cls-4" d="M117.72,216.19c-.78-1.53-2.94-6.41-5.37-11.95l-2.87.55-.34-1.77,2.5-.48c-3.91-8.93-8.1-18.82-8.1-18.82l3.25-.62c.26.61,4.31,10.48,7.82,18.87l5.7-1.09.34,1.77-5.27,1.01c1.72,4.15,3.29,7.72,4.06,9.2,1.73,3.44,3.17,4.84,4.87,4.51,3.06-.59,2.91-5.19,2.46-7.55l2.33-.09c.86,4.47-.08,10-4.37,10.82-2.54.49-5.42-1.3-6.99-4.36Z"/>
        <path class="cls-4" d="M119.88,195.36c-.25-1.28.09-2.56,1.27-2.79,1.6-.31,2.74,1.56,3,2.89.23,1.18-.28,2.35-1.36,2.55-1.32.25-2.59-1.03-2.9-2.65ZM125.53,199.88c.38.95,2.61,6.22,4.59,10.93,1.26,3.02,2.89,4.89,4.49,4.59,3.06-.59,2.44-5.1,1.99-7.46l2.33-.09c.86,4.47.39,9.91-3.9,10.73-2.78.53-5.34-1.88-6.47-4.46-1.84-4.23-6.04-13.66-6.04-13.66l3.01-.58Z"/>
        <path class="cls-4" d="M135.63,205.98c-.83-4.32.6-8.31,4.51-9.06,3.11-.6,6.12,1.88,8.22,5.2,1.7,2.27,3.62,4.35,5.1,4.47,1,.11,1.88-.87,1.63-2.2l2.33-.09c.39,2.01-.74,4.78-3.5,4.64-1.23-.07-2.29-.48-3.2-1.17l.06.3c.84,4.37-1.16,7.71-4.83,8.41-4.76.91-9.31-5.29-10.31-10.5ZM145.53,213.3c1.93-.37,2.57-2.38,2.14-4.64-.74-3.83-4.55-10.48-7.8-9.86-2.21.42-2.25,3.03-1.85,5.14.74,3.88,4.35,9.96,7.51,9.36Z"/>
        <path class="cls-4" d="M166.47,204.09c-2.18-5.74-3.1-10.05-5.22-9.64-1.98.38-1.28,8.6.68,18.81l-3.01.58-7.87-18.86,3.01-.58,3.98,9.52c-.61-5.74-.28-10.64,3.06-11.28,3.15-.61,5,2.15,6.76,7,2.04,5.57,3.95,8.61,5.74,8.27,2.92-.56,2.44-5.1,1.99-7.46l2.33-.09c.86,4.47.39,9.91-3.85,10.72-3.44.66-6.03-2.92-7.59-7Z"/>
      </g>
      <g>
        <path class="cls-8" d="M90.64,329.83l-4.09.78-1.16-6.05,4.09-.79.21,1.07-3,.58.26,1.35,2.62-.5.2,1.02-2.62.5.29,1.52,3-.57.21,1.07Z"/>
        <path class="cls-8" d="M96.07,328.79l-.89.17-3.13-3.32.73,3.79-1.09.21-1.16-6.05.9-.17,3.12,3.33-.73-3.79,1.08-.21,1.16,6.04Z"/>
        <path class="cls-8" d="M100.56,325.93c.25,1.3-.35,2.12-1.65,2.37-1.17.22-1.88-.27-2.34-1.25l.99-.48c.25.52.62.78,1.14.68.69-.13.9-.5.78-1.15l-.78-4.09,1.08-.21.79,4.12Z"/>
        <path class="cls-8" d="M104.41,327.26c-1.82.35-2.79-1.01-3.1-2.61-.31-1.6.09-3.22,1.91-3.57,1.82-.35,2.79,1,3.1,2.61.31,1.6-.09,3.22-1.91,3.57ZM103.43,322.15c-1.19.23-1.21,1.34-1.03,2.29.18.94.61,1.97,1.8,1.75,1.19-.23,1.2-1.34,1.02-2.29-.18-.94-.6-1.98-1.79-1.75Z"/>
        <path class="cls-8" d="M110.96,319.66l-1.22,4.44.38,1.99-1.09.21-.39-2.01-2.78-3.65,1.22-.23,1.88,2.56.79-3.07,1.21-.23Z"/>
        <path class="cls-8" d="M118.85,318.15l-1.22,4.44.38,1.99-1.09.21-.39-2.01-2.78-3.65,1.22-.23,1.88,2.56.79-3.07,1.21-.23Z"/>
        <path class="cls-8" d="M122.65,323.76c-1.82.35-2.79-1.01-3.1-2.61-.31-1.6.09-3.22,1.91-3.57s2.79,1,3.1,2.61c.31,1.6-.09,3.22-1.91,3.57ZM121.67,318.65c-1.19.23-1.21,1.35-1.02,2.29.18.95.61,1.98,1.8,1.75s1.2-1.34,1.02-2.29c-.18-.94-.6-1.98-1.79-1.75Z"/>
        <path class="cls-8" d="M130.12,319.65c.3,1.55-.14,2.7-1.79,3.02-1.65.32-2.49-.6-2.78-2.14l-.68-3.54,1.08-.21.67,3.48c.16.84.48,1.54,1.51,1.35,1.05-.2,1.07-.94.9-1.81l-.67-3.48,1.08-.21.68,3.53Z"/>
        <path class="cls-8" d="M134.23,318.76c.12.06.26.2.37.32l1.85,1.97-1.26.24-1.62-1.82c-.24-.28-.37-.39-.76-.32l-.43.08.48,2.5-1.09.21-1.16-6.05,2.18-.42c1.17-.22,2.17.15,2.42,1.4.15.79-.22,1.5-.96,1.87ZM132.99,316.53l-1.1.21.29,1.53,1.1-.21c.55-.1.94-.33.82-.97-.12-.62-.59-.67-1.11-.57Z"/>
        <path class="cls-8" d="M141.89,320.09c-1.27.24-2.23-.16-2.77-1.32l.99-.4c.31.64.89.81,1.58.68.51-.1,1.09-.48.98-1.09-.24-1.25-3.45.22-3.87-1.95-.22-1.14.71-1.9,1.73-2.09,1.07-.21,1.83.06,2.48.92l-.86.61c-.39-.48-.8-.64-1.43-.52-.39.08-.93.36-.83.87.2,1.06,3.44-.27,3.87,1.95.24,1.23-.74,2.12-1.87,2.33Z"/>
        <path class="cls-8" d="M148.03,313.67l-1.74.33.95,4.97-1.09.21-.95-4.97-1.74.33-.21-1.07,4.57-.88.21,1.07Z"/>
        <path class="cls-8" d="M154.2,317.64l-1.18.23-.88-1.46-2.13.41-.27,1.69-1.18.23,1.16-6.49.98-.19,3.5,5.6ZM151.61,315.51l-1.09-1.81-.34,2.08,1.43-.27Z"/>
        <path class="cls-8" d="M157.49,310.74l-1.22,4.44.38,1.99-1.09.21-.39-2.01-2.78-3.65,1.22-.23,1.88,2.56.79-3.07,1.21-.23Z"/>
      </g>
    </g>
  </g>
</svg>