<?xml version="1.0" encoding="UTF-8"?>
<svg id="Layer_2" data-name="Layer 2" xmlns="http://www.w3.org/2000/svg" viewBox="0 0 149.81 184.99">
  <defs>
    <style>
      .cls-1, .cls-2 {
        fill: none;
      }

      .cls-3 {
        fill: #a981a0;
        font-family: NeulisNeue-Black, 'Neulis Neue';
        font-size: 14.66px;
        font-weight: 800;
      }

      .cls-4 {
        fill: #035131;
      }

      .cls-5 {
        fill: #fff;
      }

      .cls-6 {
        fill: #e9ddc8;
      }

      .cls-2 {
        stroke: #e9ddc8;
        stroke-miterlimit: 10;
      }

      .cls-7 {
        fill: #f47423;
      }

      .cls-8 {
        letter-spacing: -.03em;
      }

      .cls-9 {
        letter-spacing: 0em;
      }

      .cls-10 {
        letter-spacing: 0em;
      }

      .cls-11 {
        fill: #333;
      }

      .cls-12 {
        letter-spacing: .02em;
      }

      .cls-13 {
        letter-spacing: .01em;
      }

      .cls-14 {
        letter-spacing: .01em;
      }

      .cls-15 {
        letter-spacing: 0em;
      }

      .cls-16 {
        letter-spacing: 0em;
      }
    </style>
  </defs>
  <g id="Layer_1-2" data-name="Layer 1">
    <rect class="cls-6" width="132.11" height="184.94"/>
    <rect class="cls-11" y="144.86" width="132.11" height="18.94"/>
    <text class="cls-3" transform="translate(29.94 24.98)"><tspan class="cls-8" x="0" y="0">W</tspan><tspan class="cls-14" x="15.13" y="0">OMEN</tspan><tspan class="cls-10" x="59.51" y="0">’</tspan><tspan class="cls-13" x="63.6" y="0">S</tspan><tspan class="cls-16" x="-9.29" y="14">B</tspan><tspan class="cls-9" x=".32" y="14">A</tspan><tspan class="cls-14" x="10.56" y="14">SK</tspan><tspan class="cls-12" x="29.14" y="14">E</tspan><tspan class="cls-14" x="37.59" y="14">T</tspan><tspan class="cls-15" x="46.1" y="14">B</tspan><tspan class="cls-14" x="55.71" y="14">ALL</tspan></text>
    <path class="cls-2" d="M132.88.71l16.4,15.12-17.17,169.1V1.05c0-.4.48-.61.77-.34Z"/>
    <g id="FINAL_do_not_edit" data-name="FINAL do not edit">
      <path class="cls-5" d="M106.56,123.04c-.14,1.31-1.08,2.28-2.08,2.6-.45.14-.4-.13-.35-.36.08-.39.07-.77,0-.98-1.34,1.82-3.7,2.02-4.69,2.02-.14,0-.27,0-.38,0-1.03.96-2.52,1.44-3.04,1.58-.7.54-1.42.99-2.15,1.36-.43,2.07-2.98,3.49-6.28,3.49h-.18c-1.63,1.62-3.57,1.95-4.47,2.01-.32.47-.99,1.19-2.24,1.57-.46.14-.93.21-1.41.21-.25,0-.51-.02-.76-.06.06.17.18.37.36.53.15.15.32.32-.1.47-.67.24-3.34.21-4.13-2.02-.67-1.87.22-3.07.62-3.49.09-.86.75-1.98,2.39-2.69.72-.31,1.5-.47,2.31-.47.25,0,.49.01.73.04.01-.11.03-.22.06-.34-.37-.35-.6-.81-.65-1.33-.45-.38-1.42-1.16-2.37-1.71l-.24-.14c-.08-.04-.13-.12-.14-.21l-.03-.28c0-.06-.15-1.46.83-3.2-4.41-4-8.17-6.75-10.66-8.5h0c-.23.1-.5.14-.82.15-.07.38-.22.77-.51,1.09-.28.3-.65.46-1.04.46-.03,0-.07,0-.1,0-.48-.02-.87-.32-1.35-.71-.16-.13-.34-.27-.53-.41-.64-.09-1.42-.41-2.03-1.08-.69-.1-1.66-.71-2.48-1.94-.36-.17-.61-.43-.77-.68-1.03-.13-1.82-1.35-1.97-1.61-.16-.26-.3-.49-.42-.67-.56.09-1.1.13-1.66.13-1.65,0-3.26-.38-4.91-1.17-.81-.38-1.57-.87-2.29-1.44-.59.65-1.34,1.22-1.88,1.48-.26.13-.53.19-.78.19-.17,0-.33-.03-.47-.08-.39.3-.89.6-1.38.63h0,0,0c1.61,3.18,3.13,5.48,4.17,6.9.32-.05.63-.07.92-.07,1.31,0,2.32.49,2.92,1.43,1,1.56,2.11,3.95,3.05,6.57.7.2,2.03.74,2.6,2,.46-.14,1.11-.28,1.89-.28.13,0,.26,0,.39.01,1.31.08,2.01.67,2.37,1.15.24.32.4.7.45,1.07.28.24.69.71.82,1.45.21,1.2-.31,2.47-1.46,3.28-.42.3-1.07.64-1.71.72-.39.05-.35-.17-.29-.39.11-.36.16-.59.17-.87-.56.34-1.28.65-2.07.65-1.2,0-2.01-.37-2.5-.71-.47.14-1.27.34-2.14.34-.33,0-.67,0-1-.03-.51.36-1.34.77-2.52.82h-.21c-.83,0-1.58-.23-2.08-.43-.31.02-.62.03-.93.03-.7,0-1.37-.06-1.99-.17-.47.24-1.53.69-2.88.75-.13,0-.25,0-.37,0-.94,0-1.66-.16-2.12-.31-.49.3-1.4.74-2.55.74-.3,0-.6-.03-.89-.09-1.37-.27-2.08-1.03-2.41-1.59-.22.13-.75.59-.53,1.74.06.22.09.49-.36.33-.9-.31-1.39-1.05-1.52-1.28-.34-.63-.66-1.65-.29-2.9.33-1.13,1.17-2.02,2.3-2.48.49-1.59,1.85-2.25,3.01-2.34.38-.32,1.04-.68,2.12-.68,1.01,0,1.82.42,2.27.7.11-.02.22-.02.32-.02.68,0,1.22.32,1.52.55.26.02.62.07.99.21.26-.21.57-.38.92-.49.03-.08.07-.16.11-.24.09-.15.2-.28.34-.4-.24-.65-.65-1.15-.82-1.33-.36-.21-1.13-.75-1.41-1.75-.29-1.04.06-2.27.95-3.31-3.33-4.37-4.94-6.88-5.66-8.09h0c-.42.16-.86.25-1.24.25-.22,0-.42-.03-.6-.1-.33-.12-.57-.38-.7-.72-.39.1-.84.18-1.24.18-.79,0-1.19-.32-1.38-.6-.57-.79-.33-1.95-.04-2.76-.15-.11-.29-.25-.37-.44-.23-.49-.07-1.14.19-1.73-.17-.2-.29-.42-.33-.68-.14-.8.41-1.72.87-2.33-.08-.19-.13-.4-.11-.64.04-.75.67-1.64,1.71-2.45.72-.56,1.55-.96,2.11-1.2.04-.34.18-.7.49-1,.76-.76,2.31-1.33,3.75-1.37.15,0,.31,0,.47,0,1.31,0,2.31.17,2.9.31.42-.7,1.06-1.22,1.82-1.49.18-.76.46-1.39.82-1.81.61-.71,1.36-1.08,1.94-1.26.28-.75.68-1.23.98-1.51-.01-2.33.44-3.98.8-4.91-.02-.04-.03-.08-.05-.11v-.02s-.03-.03-.03-.03c-.03-.04-.09-.11-.17-.19-.4-.46-1.17-1.33-1.7-2.1-.18-.02-.39-.06-.62-.15-.56.47-1.5,1.13-3.01,1.81-.16.22-.42.52-.82.78-.14.39-.38.83-.79,1.21-.04.3-.08.68-.08,1.1,0,.16,0,.35,0,.54,0,1.57.01,3.53-1.29,4.15-.62.3-1.27.39-1.81.44-.19.54-.5.94-.96,1.27-.49.35-.96.52-1.48.52-.24,0-.5-.03-.82-.11-.83-.2-1.39-.74-1.71-1.14-.28-.02-.63-.08-.99-.24-.91-.38-1.44-1.1-1.6-2.12-.1-.65-.17-.75-.42-1.07-.47-.6-.71-1.16-.75-1.74-.02-.37.1-.76.25-1.22.13-.39.27-.83.28-1.16.02-.7.25-1.75.85-2.57.48-.66,1.44-1.41,2.28-1.99.06-1.64,1.07-2.74,2.06-3.43.11-.44.28-.94.56-1.32.44-.59,1-.97,1.47-1.21.1-.24.22-.47.35-.7.91-1.57,2.42-3,4.14-3.94.84-.46,1.67-1.03,2.25-1.55.45-.4,1.04-.63,1.65-.63.05,0,.11,0,.16,0,.82.05,2.29.31,4.58,1.25,2.63,1.07,5.37,2.92,6.85,3.99,1.43.33,2.94.91,4.51,1.75,1.72.91,2.75,1.61,3.48,2.19,0-.16,0-.3.01-.44-.05-.07-.1-.15-.13-.24-.14-.32-.14-.68-.09-1-.02-.02-.05-.04-.07-.07-.3-.32-.37-.77-.36-1.19-.09-.05-.17-.12-.24-.19-.36-.39-.33-.9-.32-1.07.02-.27.06-.52.12-.75-.06-.05-.11-.1-.16-.16-.13-.16-.4-.49-.13-1.67-.13-.13-.21-.26-.26-.36-.15-.32-.15-.66-.1-.95-.02-.02-.03-.04-.04-.06-.25-.36-.33-.81-.34-1.2-.21-.11-.38-.26-.51-.45-.42-.63-.15-1.4-.06-1.65.09-.25.21-.48.32-.68-.39-.45-.72-1.07-.61-1.7.06-.37.29-.81.89-1.15-.12-.38-.06-.76.1-1.06.23-.43.63-.69,1.04-.86.01-.03.02-.06.04-.09.01-.03.03-.06.04-.08-.16-.61-.06-1.29.5-1.73.31-.25.7-.38,1.16-.39.05-.18.13-.35.24-.51.26-.38.68-.62,1.19-.67.04-.09.1-.17.16-.25.3-.36.8-.56,1.43-.57.12-.36.33-.77.69-1.11.35-.33.71-.4.95-.4.22,0,.44.05.64.16.06-.3.12-.58.14-.75.06-.47.07-.91.07-1.23-.23-.67-.22-1.38.04-1.96.19-.42.59-.99,1.47-1.31.36-.13.8-.2,1.29-.2,1.52,0,3.38.61,4.74,1.16.14,0,.27-.01.41-.01h.12c.5,0,.96.06,1.42.16.25-.07.52-.11.81-.11h.06c.51,0,1.05.15,1.55.42.85.45,1.44,1.18,1.61,1.95.49.48.89.99,1.21,1.53,2.41,1.65,3.67,3.04,3.94,4.37.23,1.11-.07,2.08-.84,2.73-.45.38-1.05.64-1.7.75-.17.12-.32.25-.45.37-.27.27-.52.63-.76.98-.13.18-.26.37-.39.54.16.29.25.61.25.94,0,.43-.17.82-.3,1.07-.04,1.23-.53,2.33-1.02,3.13,5.12,2.67,12.55,10.13,15.26,16.71,1.6,3.87,1.7,7.18.97,8.45-.31.55-.74.68-.97.71-.06,0-.13.01-.19.01-.92,0-1.31-.8-1.85-1.9-.43-.87-1.08-2.19-2.26-3.95-2.09-3.11-4.77-5.51-5.22-5.89-.58-.31-4.41-2.31-8.45-3.46-2.68-.77-4.68-1.11-6.29-1.38-.27-.04-.53-.09-.78-.13-.02.21-.06.4-.12.57.14,1.45-.16,2.38-.34,2.81,0,.24,0,.58-.06.96.1.04.19.09.3.13,1.06.47,2.5,1.12,3.92,2.1.82.57,2.3,1.78,3,2.57.89.52,2.1,1.61,3.18,2.58.64.57,1.24,1.12,1.58,1.35.23.16.51.32.81.49,1.5.85,3.55,2.01,3.83,5.82.14.63.97,4.84-1.3,7.5-.11.5-.45,1.55-1.41,2.41-.36,1.27-1.11,2.07-1.54,2.44-.22.67-.67,1.79-1.38,2.19-.3.17-.69.26-1.16.26-.34,0-.72-.04-1.12-.13,0,.5-.14,1.04-.64,1.37-.17.12-.38.18-.61.18-.34,0-.7-.13-1.3-.34-.57-.2-1.35-.48-2.39-.73-1.23-.3-2.43-.75-2.91-1.97-.14-.36-.26-.62-.33-.78-.54-.29-1.43-.88-1.46-2.38-.02-1.01.13-1.6.43-2.78.16-.63.36-1.4.62-2.54.32-1.44,1.39-2.24,2.99-2.26,0-.04.01-.07.01-.11-1.24-.38-2.35-1.14-2.96-1.6-.02-.01-.04-.03-.07-.04-.64.31-1.19.5-1.49.6-.21.07-.44.13-.7.2-.68.18-1.6.42-3.01,1.05-.41.18-.87.42-1.22,1.02-.34.58-.87,1.11-1.24,1.44.01.23-.01.42-.06.58.43.58,1.09,1.51,1.39,2.15.03.02.06.04.09.06.59.37,1.01.64,2.06.77h.03c.17.02.64.08.91.5.13.21.25.56.07,1.09-.02.06-.04.12-.06.18.05.03.1.06.15.09,1.51.89,1.24,1.87,1.06,2.25-.09.17-.22.38-.44.56.13.45.12.91-.04,1.36h0c2.29,1.75,5.76,4.56,9.64,8.22,1.09-.51,1.84-.55,1.99-.55h.29c.09,0,.17.04.22.11l.17.23s1.03,1.37,2.2,2.36c0-.76.09-1.69.5-2.3-.07-.72-.09-2.25.8-3.26.12-1.58,1.13-3.59,3.64-4.26.76-.72,1.77-1.13,2.78-1.13.41,0,.83.07,1.23.2,1.53.52,2.39,1.57,2.55,3.11.27.02.54.06.77.12.33-.09.68-.13,1.03-.13,1.13,0,2.16.45,2.89,1.26.64.71.88,1.41.92,1.88.11,1.08-.24,2.11-.59,2.59-.26.35-.43.12-.48-.1-.2-.83-.67-1.17-1.13-1.27-.11.66-.33,1.26-.68,1.79.13-.01.26-.01.39-.01,1.23,0,1.96.46,2.37.87.93.19,1.72.76,2.18,1.58.32.57.45,1.25.38,1.96"/>
      <path class="cls-5" d="M105.46,121.5c-.44-.77-1.21-1.15-1.88-1.21-.43-.59-1.36-1.01-2.88-.72-1.97.38-3.07,2.05-3.07,2.05-1.17.14-2,1.45-2,1.45-.23.01-.46.1-.68.21.09-.2.17-.41.24-.63,0,0,1.53-1.07,2.34-2.57,0,0,3.58-.52,3.62-4.03.74-.12,1.6-.05,2.11.97,0,0,.44-1.46-.68-2.7-.9-1-2.26-1.17-3.31-.82-.49-.18-1.35-.34-2.36.16-.63.31-1.13.9-1.5,1.47.29-1.35-.1-2.29-.27-2.61.55-.48,1.33-.92,2.46-.47,0,0-.3-1.33-1.91-1.87-1.28-.43-2.55.07-3.32.89-3.33.75-3.24,3.86-3.24,3.86-1.17.99-.75,3.19-.75,3.19-.64.39-.53,2.36-.53,2.36-.16.36-.28.7-.35,1.02-1.67-.95-3.36-3.22-3.36-3.22,0,0-.88.01-2.14.73-4.29-4.09-8.14-7.17-10.56-8.99.26-.34.68-1.09,0-1.97.44-.1.69-.3.81-.55.19-.38-.05-.77-.73-1.18-.38-.22-.63-.44-.78-.59.15-.22.26-.44.33-.66.04-.11.08-.29.02-.38s-.22-.1-.33-.12c-1.44-.18-1.96-.63-2.72-1.09h0c-.19-.64-1.69-2.6-1.69-2.6.11-.19.3-.44.12-1.02,0,0,.96-.74,1.42-1.53s1.09-1.13,1.59-1.35c2-.89,3.08-1.04,3.79-1.27.49-.16,1.18-.44,1.87-.81.17.16.47.44.26.24-.29-.27,1.68,1.54,3.64,1.77-.22.66-.24,1.27-.23,1.63-1.31-.18-2.63.05-2.97,1.56-.75,3.31-1.06,3.75-1.03,5.12.03,1.24.8,1.55,1.25,1.79,0,0,.18.33.48,1.08.29.73.97,1.13,2.34,1.46,2.29.57,3.34,1.21,3.64,1.01.56-.38.08-1.61.08-1.61.18,0,.42-.04.57-.06.96.31,1.89.39,2.33.14.61-.35,1.07-1.96,1.07-1.96.53-.4,1.25-1.23,1.52-2.42,1.23-.97,1.37-2.32,1.37-2.32,2.35-2.51,1.25-7,1.25-7-.28-4.19-2.86-4.75-4.3-5.76-.97-.68-3.5-3.25-4.82-3.96-.55-.67-2.07-1.94-2.93-2.54-1.81-1.25-3.72-1.96-4.68-2.44.16-.58.18-1.2.16-1.63,0,0,.56-.9.33-2.74.17-.33.21-.86.09-1.46,1.97.4,4.38.65,8.18,1.73,4.51,1.29,8.7,3.57,8.7,3.57,0,0,3.06,2.59,5.43,6.12,2.6,3.87,2.66,5.59,3.51,5.47.84-.12,1.21-3.51-.65-8.02-2.92-7.07-11.11-14.71-15.72-16.69.47-.61,1.44-2.07,1.42-3.7,0,0,.3-.41.3-.83,0-.45-.28-.76-.51-.94.55-.51,1.01-1.44,1.65-2.1.24-.25.51-.44.74-.59.61-.07,1.12-.3,1.46-.59.5-.42.74-1.08.56-1.93-.26-1.28-1.83-2.66-3.75-3.96-.35-.63-.83-1.2-1.37-1.7-.03-.6-.47-1.23-1.22-1.62-.39-.21-.79-.32-1.17-.32-.29,0-.58.04-.82.14-.47-.12-.95-.19-1.48-.2-.22,0-.43,0-.65.02-2.33-.96-4.48-1.43-5.61-1.02-1.22.44-1.29,1.54-.97,2.33.01.33,0,.89-.07,1.5-.06.48-.32,1.62-.48,2.11-.25-.15-.43-.35-.64-.57-.21-.21-.53-.38-.86-.07-.58.56-.6,1.4-.6,1.4-.78-.15-1.29,0-1.46.22-.17.21-.1.6-.1.6-.37-.1-.93-.13-1.2.26-.23.34-.15.75-.08.98-.36-.1-1.07-.23-1.49.1-.55.43-.04,1.29-.04,1.29,0,0-.44.13-.25.59-.29.06-.9.22-1.12.62-.22.41.13.8.57,1.06-.57.11-1.39.36-1.48.9-.09.52.56,1.22.89,1.43,0,0-.44.52-.63,1.08-.25.72-.14,1.15.67,1.19,0,0-.26,1.45.5,1.57,0,0-.6,1.06.35,1.23,0,0-.42,1.29-.21,1.54.21.26.59.12.59.12,0,0-.31.68-.36,1.38-.04.52.2.6.68.54,0,0-.28.99.01,1.3.13.14.47.12.47.12,0,0-.53,1.2.1,1.43-.05.27-.11.69-.02,1.16.11.58.31.89.31.89,0,.06,0,.38-.04.8-1.01-.82-1.64-1.75-5.01-3.54-1.8-.95-3.29-1.45-4.47-1.71-1.45-1.06-4.19-2.93-6.81-4-2.19-.89-3.55-1.14-4.32-1.19-.44-.03-.87.12-1.2.41-.71.63-1.6,1.22-2.4,1.66-1.57.86-2.98,2.19-3.82,3.63-.18.31-.31.61-.41.89-.42.17-1.02.51-1.46,1.1-.22.29-.38.77-.48,1.33-1.51.94-2.06,2.11-1.96,3.36-.63.42-1.93,1.34-2.44,2.05-.47.64-.67,1.5-.69,2.11-.02.82-.56,1.85-.53,2.3.03.45.25.87.58,1.29.33.42.47.65.59,1.46.12.81.53,1.24,1.1,1.48.57.24,1.1.17,1.1.17,0,0,.51.93,1.46,1.16.66.16,1.08.12,1.62-.27.46-.33.67-.73.8-1.39.58-.04,1.38-.05,2.1-.4.96-.46.8-2.72.82-3.96.01-.64.08-1.18.14-1.52.54-.39.77-.93.86-1.33.69-.33.95-.87.95-.87,2.08-.9,3.05-1.74,3.43-2.14.66.41,1.24.32,1.24.32.58,1,2.02,2.53,2.08,2.63.06.1.08.12.1.16.08.16.14.32.21.49-.34.79-.94,2.56-.87,5.31,0,0-.81.46-1.17,1.81-.49.1-1.33.36-1.95,1.1-.33.39-.6,1.07-.74,1.94-.51.1-1.31.4-1.84,1.28-.1.16-.18.35-.25.54-.19-.05-.39-.11-.39-.12-.54-.14-1.72-.39-3.4-.34-1.35.04-2.64.58-3.19,1.13-.32.32-.29.73-.17.95,0,0-1.42.48-2.51,1.32-1.03.79-1.37,1.49-1.39,1.84-.02.41.38.57.38.57,0,0-1.29,1.38-1.15,2.21.04.25.29.44.59.55,0,0-.72,1.2-.51,1.64.12.26.73.31.73.31,0,0-.99,1.91-.39,2.76.48.67,2.73-.22,2.73-.22,0,0-.22.91.21,1.06.37.14,1.27-.05,1.89-.48.43.8,1.99,3.49,6.42,9.25-.98.89-1.51,2.06-1.24,3.03.25.91,1.12,1.3,1.12,1.3,0,0,1.04,1.03,1.28,2.42,0,0-.84.2-.64.91,0,0-1.05.03-1.49.82-.67-.44-1.42-.41-1.52-.41,0,0-.77-.81-1.69-.44,0,0-.89-.77-2.09-.77-1.35,0-1.77.66-1.77.66,0,0-2.29-.12-2.68,2.16-.97.27-1.87.93-2.21,2.07-.48,1.63.56,2.77.56,2.77.02-1.7,1.8-1.92,1.8-1.92,0,0,.26,1.44,2.11,1.8s3.17-.77,3.17-.77c0,0,.94.48,2.57.41,1.63-.07,2.78-.79,2.78-.79,1.2.26,2.4.24,3.19.17.51.23,1.27.49,2.11.45,1.13-.05,1.87-.49,2.29-.84.34.02.76.04,1.25.04,1.21,0,2.31-.45,2.31-.45.3.3,1.02.82,2.33.82s2.48-1.17,2.48-1.17c.69.45.37,1.56.37,1.56,1.31-.64,1.85-1.84,1.68-2.81-.15-.87-.83-1.15-.83-1.15.12-.52-.32-1.74-2.03-1.83-1.71-.1-2.8.57-2.8.57-.12-2.03-2.66-2.43-2.66-2.43-.97-2.78-2.11-5.24-3.12-6.83-.7-1.09-2.1-1.21-3.49-.89-1.28-1.69-3.14-4.48-5.07-8.47.19-.11.4-.26.61-.48,0,0,.09.34.61.31.56-.03,1.39-.87,1.39-.87,0,0,.23.55.93.21.65-.31,1.67-1.18,2.11-1.93.81.75,1.73,1.41,2.77,1.9,2.5,1.19,4.67,1.27,6.6.88.16.24.42.63.74,1.16.35.59,1.17,1.51,1.72,1.12.19.45.38.78.87.92.99,1.6,2.14,1.97,2.29,1.74.56.82,1.39,1.13,1.97,1.15.77.53,1.3,1.09,1.62,1.09.62.06.89-.79.83-1.63.69.15,1.24.1,1.42-.09l.12-.19c2.2,1.53,6.66,4.7,11.79,9.41-1.25,1.78-1.08,3.25-1.08,3.25,1.39.81,2.78,2.04,2.78,2.04-.1,1.08.82,1.37.82,1.37-.29.62-.27,1.08-.17,1.38-.13.07-.26.14-.4.23,0,0-1.52-.47-3.19.25-1.67.72-1.99,1.83-1.88,2.29,0,0-1.34.9-.67,2.85.58,1.7,2.33,1.59,2.33,1.59,0,0-.53-.69-.18-1.45,0,0,1.27.68,2.86.2s1.99-1.59,1.99-1.59c0,0,2.67.16,4.63-2.04.14.01.29.02.44.02,3.15.02,5.54-1.32,5.6-3.22.62-.27,1.52-.76,2.54-1.56,0,0,2.05-.49,3.1-1.68,0,0,3.86.52,5.13-2.35,1.28.23,1.03,1.44,1.03,1.44.63-.39,1.22-1.88.55-3.07h-.01Z"/>
      <path class="cls-4" d="M74.18,58.51c.4-.14.99.11.99.11-.22-.39-.89-.74-1.28-.52-.39.21-.12.71-.12.71,0,0,.1-.19.41-.3h0Z"/>
      <path class="cls-4" d="M70.73,58.48c.04-.53.72-.58,1.17-.56-.15.24.11.53.11.53,0,0,.07-.24.33-.4.31-.19.72-.11.72-.11,0,0-.4-.29-.78-.24-.08-.14-.13-.34,0-.47.17-.18.54-.18,1.25-.01,0,0-.82-.77-1.58-.47-.42.17-.4.61-.29.86-.46-.12-.96-.07-1.11.1-.35.39.18.77.18.77h0Z"/>
      <path class="cls-4" d="M68.18,59.64c-.08.27.19.58.52.59,0,0-.12-.31.18-.51.25-.16.5-.18.9-.17,0,0-.25-.2-.13-.38.1-.16.39-.23.86-.13,0,0-.39-.31-.85-.34-.78-.05-.82.37-.72.61-.33-.04-.66.01-.76.34h0Z"/>
      <path class="cls-4" d="M69.49,60.6c-.29.41.3.74.3.74-.1-.69.66-1.02.66-1.02,0,0-.72-.07-.96.28Z"/>
      <path class="cls-4" d="M67.23,59.21c.14-.32,1.18-.45,1.18-.45,0,0-.53-.23-.74-.62,0,0-.58.1-.47.44,0,0-1.12.21-.99.71.13.52,1.58.27,1.58.27,0,0-.65-.12-.55-.35Z"/>
      <path class="cls-4" d="M83.82,70.5c1.64.83,3.2,1.79,4.62,2.74.54.36.43.15-.16-.39s-2.65-2.23-4.49-3.08c-.35-.16-.82-.29-.9-.04-.07.23.2.41.93.77h0Z"/>
      <path class="cls-4" d="M84.89,100.89c-.37-.22-.76-.2-1.13-.19-.41.01-.92.1-.92.1.65.26,1.4-.04,2.01,1.08,0,0,.44-.74.04-.98Z"/>
      <path class="cls-4" d="M69.61,81.4c-.39.6-.21,1.2.39,1.09.75-.14,1.05-.81,1.05-.81-.31.2-.62.3-.99.29-.46,0-.45-.57-.45-.57Z"/>
      <path class="cls-4" d="M68.35,61.83s-.31-.22-.17-.56c.11-.26.51-.53.51-.53-.82,0-1.18.41-1.2.6-.04.33.34.59.86.49h0Z"/>
      <path class="cls-4" d="M68.44,66.25s-.3.3-.15.52c.13.2.58.04.89-.15.24-.15.45-.4.45-.4-1.15.42-1.19.03-1.19.03h0Z"/>
      <path class="cls-4" d="M62.02,109.66c-.49,0-1.15-.75-1.15-.75,0,0,0,.55.51,1.09.34.35.84.46,1.13.27.35-.22.41-.8.15-1.25,0,0-.21.64-.65.64h0Z"/>
      <path class="cls-4" d="M61.76,107.03c-.27.22-1.19.54-1.98-.35,0,0,.11.66.6,1.03.45.34,1.32.21,1.38-.68h0Z"/>
      <path class="cls-4" d="M42.16,103.52c-.35-.1-.28-.89-.28-.89-1.33,1.9-2.22,1.59-2.22,1.59.07.33.62.36,1.06.17.41-.18.72-.49.72-.49.03.38.3.59.9.35.6-.24.97-.85.97-.85-.39.13-.8.21-1.15.11h0Z"/>
      <path class="cls-4" d="M37.54,104.38c-.69-.13-.3-.95-.3-.95,0,0-1.12,1.35-.23,1.71.8.32,2.13-1.1,2.47-1.54,0,0-1.27.91-1.95.78h0Z"/>
      <path class="cls-4" d="M65.99,107.03c.68-.12.34-.9.34-.9,0,0-.07.34-.46.44-.43.1-1.19-.08-1.19-.08,0,0,.53.68,1.3.54Z"/>
      <path class="cls-4" d="M51.2,74.13c-.08-.32-1.32.68-1.61,2.37-.25,1.47.53,2.86.76,2.89.22.03-.25-.82-.03-2.45.26-1.91.94-2.61.89-2.82h0Z"/>
      <path class="cls-4" d="M73.52,85.68c-.07,0-.07.16-.08.25-.03.21-.1.8-.48,1.3-.41.55-1.5,1.28-3.09,1.59-.28.06-.36.16-.11.16,2.5.01,4.1-1.31,3.88-3.05,0-.05-.04-.25-.11-.25h0Z"/>
      <path class="cls-4" d="M86.1,93.18c1.49.44,1.57.89,1.74.73.22-.22-.45-1.06-1.51-1.34-1.64-.44-2.75.34-2.75.34,0,0,.97-.17,2.52.28h0Z"/>
      <path class="cls-4" d="M33.29,85.71s-.55.9-.05,1.26c.45.32,1.17-.18,1.17-.18,0,0-.61,0-.82-.19-.35-.31-.3-.9-.3-.9h0Z"/>
      <path class="cls-4" d="M69.72,76.11s-.2.2-.59.09c-.38-.11-.68-.77-.68-.77,0,0,0,1.16.59,1.3.51.12.68-.62.68-.62h0Z"/>
      <path class="cls-4" d="M70.32,79.19s-.5.18-.84,0c-.36-.18-.47-.85-.47-.85,0,0-.4,1.12.27,1.37.52.19,1.05-.53,1.05-.53h0Z"/>
      <path class="cls-4" d="M67.19,83.56c.76.09,1.32-.6,1.32-.6,0,0-.84.17-1.25-.12-.35-.24-.16-.88-.16-.88-.8.79-.45,1.54.1,1.6h0Z"/>
      <path class="cls-4" d="M68.77,63.78c-1.37.33-1.57.03-1.57.03,0,0-.25.25-.13.48.14.28.69.16,1.08-.05.36-.18.61-.46.61-.46h0Z"/>
      <path class="cls-4" d="M68.79,73.93s-.76.41-1.06-.39c0,0-.3.71.17.93.36.16.75-.21.89-.53h0Z"/>
      <path class="cls-4" d="M46.59,126.54c.2.2.78.74,1.9.72,1.17-.03,1.86-.87,2.43-1.23.07-.05.13-.11.01-.11-.22,0-.5.1-1.01.31-.54.23-1.61.68-3.21.13-.19-.06-.32-.02-.12.18h0Z"/>
      <path class="cls-4" d="M66.75,65.38c-.37-.08-.36-.3-.36-.3,0,0-.56.44-.29.83.26.38,1.37-.15,1.78-.73,0,0-.83.27-1.13.21h0Z"/>
      <path class="cls-4" d="M36.85,101.68c.3.48,1.54.02,1.54.02,0,0-.72-.08-.9-.39-.14-.25.12-.92.12-.92,0,0-1.01.89-.75,1.3h0Z"/>
      <path class="cls-4" d="M37.65,99.59s-.56-.25-.55-.62c.02-.55.95-1.04.95-1.04,0,0-1.93.53-1.66,1.33.18.52,1.26.34,1.26.34Z"/>
      <path class="cls-4" d="M34.95,102.35c-.22-.53.84-1.72.84-1.72,0,0-.41.18-.7.34-.23.13-.86.1-.97-.16-.14-.33.34-1.08.34-1.08,0,0-.5.33-.84.82-.69.98.09,1.25.74,1.15,0,0-.61,1.1-.28,1.53.33.42,1.84.06,2.48-.65,0,0-1.39.3-1.61-.22h0Z"/>
      <path class="cls-4" d="M38.49,96.53c.63-.78,2.38-.48,2.38-.48,0,0-.88-.53-1.94-.41-.99.11-1.41.66-1.49.85.53-.04,1.06.04,1.06.04Z"/>
      <path class="cls-4" d="M73.1,61.85l-.07-.18c-.13-.16-.31-.18-.5-.15-.18.03-.36.04-.53.11l-.16-.02.02-.14c.1-.21.21-.41.3-.62.14-.36.07-.57-.37-.61-.25-.02-.51-.01-.76,0-.23.01-.41.12-.51.34-.16.34-.3.69-.44,1.03-.04.1-.11.15-.22.15-.22,0-.43,0-.65,0h0c-.22,0-.44,0-.66,0-.19,0-.32.13-.33.31-.01.4,0,.8.02,1.19.02.23.09.28.32.29.26,0,.51-.02.76-.06.17-.03.21,0,.18.17-.05.31-.11.62-.17.93-.02.09-.01.17.02.25.09.22.28.26.47.29.31.05.63.03.95.04.14,0,.23-.06.3-.16.15-.21.16-.47.19-.71.03-.25.03-.51.1-.75.04-.13.11-.2.25-.2.37,0,.74,0,1.11.01.13,0,.23-.05.27-.17.03-.09.06-.19.08-.29.05-.35.02-.7.03-1.05h0ZM69.48,63.15c-.24,0-.48.02-.72.01-.17,0-.23-.09-.23-.26v-.24c.02-.16-.06-.32.06-.47.05-.07.11-.11.19-.11.3,0,.59.01.89.02.12,0,.14.06.12.17-.05.25-.14.5-.17.76-.01.09-.07.13-.15.13h0ZM72.68,62.95l-.15.1h-.72v.02h-.62c-.15,0-.22.07-.22.24,0,.44-.15.87-.15,1.31,0,.12-.11.21-.25.22-.24.01-.47-.02-.7-.06-.17-.03-.21-.1-.18-.26.07-.39.16-.78.22-1.17.04-.24.08-.48.12-.72.05-.33.19-.63.28-.94.1-.34.29-.63.42-.95.05-.12.13-.23.3-.22.21.01.42,0,.63,0,.14,0,.23.11.2.25l-.07.2c-.13.21-.19.45-.35.65-.07.08-.1.19-.13.3-.03.11.03.18.15.15.32-.09.65-.1.97-.17.23-.05.34.04.34.28,0,.27.04.54-.1.79h0Z"/>
      <path class="cls-4" d="M105.46,121.5c-.44-.77-1.21-1.15-1.88-1.21-.43-.59-1.36-1.01-2.88-.72-1.97.38-3.07,2.05-3.07,2.05-1.17.14-2,1.45-2,1.45-.23.01-.46.1-.68.21.09-.2.17-.41.24-.63,0,0,1.53-1.07,2.34-2.57,0,0,3.58-.52,3.62-4.03.74-.12,1.6-.05,2.11.97,0,0,.44-1.46-.68-2.7-.9-1-2.26-1.17-3.31-.82-.49-.18-1.35-.34-2.36.16-.63.31-1.13.9-1.5,1.47.29-1.35-.1-2.29-.27-2.61.55-.48,1.33-.92,2.46-.47,0,0-.3-1.33-1.91-1.87-1.28-.43-2.55.07-3.32.89-3.33.75-3.24,3.86-3.24,3.86-1.17.99-.75,3.19-.75,3.19-.64.39-.53,2.36-.53,2.36-.16.36-.28.7-.35,1.02-1.67-.95-3.36-3.22-3.36-3.22,0,0-.88.01-2.14.73-4.29-4.09-8.14-7.17-10.56-8.99.26-.34.68-1.09,0-1.97.44-.1.69-.3.81-.55.19-.38-.05-.77-.73-1.18-.38-.22-.63-.44-.78-.59.15-.22.26-.44.33-.66.04-.11.08-.29.02-.38s-.22-.1-.33-.12c-1.44-.18-1.96-.63-2.72-1.09h0c-.19-.64-1.69-2.6-1.69-2.6.11-.19.3-.44.12-1.02,0,0,.96-.74,1.42-1.53s1.09-1.13,1.59-1.35c2-.89,3.08-1.04,3.79-1.27.49-.16,1.18-.44,1.87-.81.17.16.47.44.26.24-.29-.27,1.68,1.54,3.64,1.77-.22.66-.24,1.27-.23,1.63-1.31-.18-2.63.05-2.97,1.56-.75,3.31-1.06,3.75-1.03,5.12.03,1.24.8,1.55,1.25,1.79,0,0,.18.33.48,1.08.29.73.97,1.13,2.34,1.46,2.29.57,3.34,1.21,3.64,1.01.56-.38.08-1.61.08-1.61.18,0,.42-.04.57-.06.96.31,1.89.39,2.33.14.61-.35,1.07-1.96,1.07-1.96.53-.4,1.25-1.23,1.52-2.42,1.23-.97,1.37-2.32,1.37-2.32,2.35-2.51,1.25-7,1.25-7-.28-4.19-2.86-4.75-4.3-5.76-.97-.68-3.5-3.25-4.82-3.96-.55-.67-2.07-1.94-2.93-2.54-1.81-1.25-3.72-1.96-4.68-2.44.16-.58.18-1.2.16-1.63,0,0,.56-.9.33-2.74.17-.33.21-.86.09-1.46,1.97.4,4.38.65,8.18,1.73,4.51,1.29,8.7,3.57,8.7,3.57,0,0,3.06,2.59,5.43,6.12,2.6,3.87,2.66,5.59,3.51,5.47.84-.12,1.21-3.51-.65-8.02-2.92-7.07-11.11-14.71-15.72-16.69.47-.61,1.44-2.07,1.42-3.7,0,0,.3-.41.3-.83,0-.45-.28-.76-.51-.94.55-.51,1.01-1.44,1.65-2.1.24-.25.51-.44.74-.59.61-.07,1.12-.3,1.46-.59.5-.42.74-1.08.56-1.93-.26-1.28-1.83-2.66-3.75-3.96-.35-.63-.83-1.2-1.37-1.7-.03-.6-.47-1.23-1.22-1.62-.39-.21-.79-.32-1.17-.32-.29,0-.58.04-.82.14-.47-.12-.95-.19-1.48-.2-.22,0-.43,0-.65.02-2.33-.96-4.48-1.43-5.61-1.02-1.22.44-1.29,1.54-.97,2.33.01.33,0,.89-.07,1.5-.06.48-.32,1.62-.48,2.11-.25-.15-.43-.35-.64-.57-.21-.21-.53-.38-.86-.07-.58.56-.6,1.4-.6,1.4-.78-.15-1.29,0-1.46.22-.17.21-.1.6-.1.6-.37-.1-.93-.13-1.2.26-.23.34-.15.75-.08.98-.36-.1-1.07-.23-1.49.1-.55.43-.04,1.29-.04,1.29,0,0-.44.13-.25.59-.29.06-.9.22-1.12.62-.22.41.13.8.57,1.06-.57.11-1.39.36-1.48.9-.09.52.56,1.22.89,1.43,0,0-.44.52-.63,1.08-.25.72-.14,1.15.67,1.19,0,0-.26,1.45.5,1.57,0,0-.6,1.06.35,1.23,0,0-.42,1.29-.21,1.54.21.26.59.12.59.12,0,0-.31.68-.36,1.38-.04.52.2.6.68.54,0,0-.28.99.01,1.3.13.14.47.12.47.12,0,0-.53,1.2.1,1.43-.05.27-.11.69-.02,1.16.11.58.31.89.31.89,0,.06,0,.38-.04.8-1.01-.82-1.64-1.75-5.01-3.54-1.8-.95-3.29-1.45-4.47-1.71-1.45-1.06-4.19-2.93-6.81-4-2.19-.89-3.55-1.14-4.32-1.19-.44-.03-.87.12-1.2.41-.71.63-1.6,1.22-2.4,1.66-1.57.86-2.98,2.19-3.82,3.63-.18.31-.31.61-.41.89-.42.17-1.02.51-1.46,1.1-.22.29-.38.77-.48,1.33-1.51.94-2.06,2.11-1.96,3.36-.63.42-1.93,1.34-2.44,2.05-.47.64-.67,1.5-.69,2.11-.02.82-.56,1.85-.53,2.3.03.45.25.87.58,1.29.33.42.47.65.59,1.46.12.81.53,1.24,1.1,1.48.57.24,1.1.17,1.1.17,0,0,.51.93,1.46,1.16.66.16,1.08.12,1.62-.27.46-.33.67-.73.8-1.39.58-.04,1.38-.05,2.1-.4.96-.46.8-2.72.82-3.96.01-.64.08-1.18.14-1.52.54-.39.77-.93.86-1.33.69-.33.95-.87.95-.87,2.08-.9,3.05-1.74,3.43-2.14.66.41,1.24.32,1.24.32.58,1,2.02,2.53,2.08,2.63.06.1.08.12.1.16.08.16.14.32.21.49-.34.79-.94,2.56-.87,5.31,0,0-.81.46-1.17,1.81-.49.1-1.33.36-1.95,1.1-.33.39-.6,1.07-.74,1.94-.51.1-1.31.4-1.84,1.28-.1.16-.18.35-.25.54-.19-.05-.39-.11-.39-.12-.54-.14-1.72-.39-3.4-.34-1.35.04-2.64.58-3.19,1.13-.32.32-.29.73-.17.95,0,0-1.42.48-2.51,1.32-1.03.79-1.37,1.49-1.39,1.84-.02.41.38.57.38.57,0,0-1.29,1.38-1.15,2.21.04.25.29.44.59.55,0,0-.72,1.2-.51,1.64.12.26.73.31.73.31,0,0-.99,1.91-.39,2.76.48.67,2.73-.22,2.73-.22,0,0-.22.91.21,1.06.37.14,1.27-.05,1.89-.48.43.8,1.99,3.49,6.42,9.25-.98.89-1.51,2.06-1.24,3.03.25.91,1.12,1.3,1.12,1.3,0,0,1.04,1.03,1.28,2.42,0,0-.84.2-.64.91,0,0-1.05.03-1.49.82-.67-.44-1.42-.41-1.52-.41,0,0-.77-.81-1.69-.44,0,0-.89-.77-2.09-.77-1.35,0-1.77.66-1.77.66,0,0-2.29-.12-2.68,2.16-.97.27-1.87.93-2.21,2.07-.48,1.63.56,2.77.56,2.77.02-1.7,1.8-1.92,1.8-1.92,0,0,.26,1.44,2.11,1.8s3.17-.77,3.17-.77c0,0,.94.48,2.57.41,1.63-.07,2.78-.79,2.78-.79,1.2.26,2.4.24,3.19.17.51.23,1.27.49,2.11.45,1.13-.05,1.87-.49,2.29-.84.34.02.76.04,1.25.04,1.21,0,2.31-.45,2.31-.45.3.3,1.02.82,2.33.82s2.48-1.17,2.48-1.17c.69.45.37,1.56.37,1.56,1.31-.64,1.85-1.84,1.68-2.81-.15-.87-.83-1.15-.83-1.15.12-.52-.32-1.74-2.03-1.83-1.71-.1-2.8.57-2.8.57-.12-2.03-2.66-2.43-2.66-2.43-.97-2.78-2.11-5.24-3.12-6.83-.7-1.09-2.1-1.21-3.49-.89-1.28-1.69-3.14-4.48-5.07-8.47.19-.11.4-.26.61-.48,0,0,.09.34.61.31.56-.03,1.39-.87,1.39-.87,0,0,.23.55.93.21.65-.31,1.67-1.18,2.11-1.93.81.75,1.73,1.41,2.77,1.9,2.5,1.19,4.67,1.27,6.6.88.16.24.42.63.74,1.16.35.59,1.17,1.51,1.72,1.12.19.45.38.78.87.92.99,1.6,2.14,1.97,2.29,1.74.56.82,1.39,1.13,1.97,1.15.77.53,1.3,1.09,1.62,1.09.62.06.89-.79.83-1.63.69.15,1.24.1,1.42-.09l.12-.19c2.2,1.53,6.66,4.7,11.79,9.41-1.25,1.78-1.08,3.25-1.08,3.25,1.39.81,2.78,2.04,2.78,2.04-.1,1.08.82,1.37.82,1.37-.29.62-.27,1.08-.17,1.38-.13.07-.26.14-.4.23,0,0-1.52-.47-3.19.25-1.67.72-1.99,1.83-1.88,2.29,0,0-1.34.9-.67,2.85.58,1.7,2.33,1.59,2.33,1.59,0,0-.53-.69-.18-1.45,0,0,1.27.68,2.86.2s1.99-1.59,1.99-1.59c0,0,2.67.16,4.63-2.04.14.01.29.02.44.02,3.15.02,5.54-1.32,5.6-3.22.62-.27,1.52-.76,2.54-1.56,0,0,2.05-.49,3.1-1.68,0,0,3.86.52,5.13-2.35,1.28.23,1.03,1.44,1.03,1.44.63-.39,1.22-1.88.55-3.07h-.01ZM99.29,114.54c.15-.47,2.31-.83,3,.77,0,0-.92-.52-2.25.17,0,0-.15.03-.34-.04-.3-.11-.53-.54-.41-.9h0ZM95.93,111.2s-1.04.05-1.91,1.26c0,0-.14.11-.32.13-.32.04-.77-.14-.83-.52-.09-.57,1.65-1.95,3.06-.87h0ZM88.01,124.37c.07.09.15.17.22.21.08.05.11.02.1-.04,0-.09-.02-.22-.03-.39,0-.75-.13-1.93.19-2.92.12.1.24.17.31.21.13.07.22.08.18-.05-.04-.13-.15-.48-.21-.79-.13-.7,0-1.29.21-1.67.16.15.32.25.43.27l.05-.09c-.03-.13-.06-.31-.09-.58-.2-1.75-.07-2.41.18-2.78.1.14.21.26.3.32.29.22.36.18.33.01s-.08-.42-.11-.81c0-.16-.22-2.27,1.9-3.09.04.14.11.27.19.39-.19.15-.43.36-.62.66-.4.64-.36,1.18-.36,1.29,0,.13.07.17.17-.06.12-.3.5-.97,1.33-1.4.54.35,1.23.44,1.68.17l.04-.03c.15.42.33,1.29-.17,2.48-.34.8-.95,1.51-2.41,2.2,0,.16.01,1.79-.71,3.17,0,1.26-.31,2.87-1.34,4.65-.98.07-1.74.54-2.04.98-.21.31-.03.3.11.19.61-.52,2.1-.73,3.16-.24,1.44.67.7,1.53-.04,1.86-.13.05-.25.09-.35.12-1.13.34-3.99.04-4.33-1.35-.19-.81.54-2.01,1.73-2.92h0ZM93.78,117.76c-.23.42-.43.96-.5,1.61,0,0-.5.27-1.03,1.21.34-1.09.34-2.14.34-2.14,0,0,.57-.2,1.19-.68h0ZM71.15,106.99c.23.15.28.34-.06.39-.45.07-.85.01-1.11-.05-.04-.18-.18-.38-.45-.59.26-.12.48-.26.67-.42.35.3.73.53.95.67h0ZM70.79,109.53c-.96-.71-1.61-1.16-1.86-1.34.23-.05.43-.12.6-.21.42.08.78.12,1.1.13.25.35.63,1.02.16,1.41h0ZM81.47,109.39c-.12.15-.82-.28-1.9-.54-1.21-.3-1.58-.52-1.76-.87-.18-.36-.13-.73-.13-.73,0,0,.75.85,2.45.88,0,0,1.65.87,1.34,1.26h0ZM86.6,105.58c-.03-.28-.22-.66-.33-.65-.03,0-.08.04-.12.18-.17.66-.8,2.85-1.05,3.04-.33.24-1.3-.02-1.35-.37-.11-.78.23-2.22.35-3.25.02-.23.02-.32-.07-.32-.37,0-.86,2.73-.96,3.32-.12.69-1.99.25-2.05-.39-.07-.82.18-2.4.47-3.8.03-.14.06-.37-.05-.36-.18.01-.44.23-1.24,3.95-.1.47-1.97.21-2.04-.96-.06-1.05.42-2.76.67-3.81.02-.1.08-.25-.02-.26-.24,0-.54.77-.67,1.16-.52,1.54-.66,2.52-.67,2.97,0,.12-.09.28-.32.26-.23-.03-.82-.26-1.06-.44-.23-.18-.32-.49-.31-.86.03-1.06.73-3.17.94-4.3.18-.94.75-1.38,2.02-1.15,1.13.2,1.64-.1,2.17-.04.95.1.81.67,1.59,1.1-.19-.57.08-.91-.45-1.17.52.01,2.68.24,2.24,1,.42.03.84.09,1.2.21.87.28,1.2.71.74,1.08.48.18.84.42.88.74.02.18-.12.31-.25.39-.09-.3-.79-.87-1.66-.58,0,0,.73.16.96.53.25.39.19.75.19.75,0,0,.35-.15.48-.41.75.71.25,1.78-.24,2.45h0ZM98.85,84.04c.96,2.34,1.25,4.17,1.27,5.36,0,.24,0,.52-.13.24-5.25-10.69-16.8-17.19-19.46-18.44-5.58-2.62-8.55-1.71-8.61-.58-.05,1.13,1.6,1.62,4.08,2.15,2.48.52,5.07.73,8.41,2.23,1.65.74,3.08,1.73,4.24,2.65-5.74-2.52-10.59-3.22-12.1-3.47-.52-.09-6.65-.83-6.29-3.52.27-2.01,3.73-2.28,6.76-2.14,2.86-1.35,3.76-1.41,4.99-1.32,3.53.28,13.68,9.18,16.84,16.85h0ZM82.83,73.55h-.22c-.25-.09-.31-.11-.82-.26l-.12-.16v-.17l.06-.1h.11c.44.25.6.36.86.52l.14.17h0ZM81.16,72.58v.39l-.04.09-.1.02c-.29-.08-.59-.15-.89-.22-.08-.02-.13-.08-.13-.16v-.62l.05-.1h.11c.3.13.6.29.91.45l.09.15h0ZM79.48,71.77v.8l-.04.09-.09.02c-.3-.06-.6-.12-.89-.18-.08-.01-.13-.08-.13-.16v-.97l.05-.09h.1c.29.09.6.21.9.34l.1.15h0ZM77.81,71.15v1.1l-.04.09-.09.02c-.33-.06-.63-.11-.89-.15-.08-.01-.14-.08-.14-.16v-1.2l.04-.09.1-.02c.29.07.59.16.9.26l.12.16h0ZM76.14,70.72v1.25l-.04.09-.09.02-.14-.03c-.27-.06-.52-.11-.76-.17-.07-.02-.13-.09-.13-.16v-1.19l.04-.08.09-.03c.28.03.58.08.9.14.08.02.13.08.13.16h0ZM74.47,70.52v1.03l-.05.09-.1.02-.14-.05c-.74-.26-1.18-.53-1.07-.89.06-.21.46-.37,1.19-.36.09,0,.16.08.16.16ZM83.4,66.74c-.13-.04-.26-.08-.38-.12-.02-.1-.05-.2-.09-.31.54-.67.56-1.37.56-1.37-.38.23-.82.32-1.12.35.08-.06.15-.13.23-.21.51-.54,1.17-1.62,1.96-1.93,0,0,.14,1.83-1.17,3.59h0ZM80.83,49.57c.03.31.25.68.85.96.14.06.18.01.11-.07-.22-.25-.31-.51-.21-.7h0s.08-.1.08-.1c.07-.06.16-.1.26-.12.11-.02.23-.02.36,0,.2.03.42.1.63.21.57.3.91.8.74,1.11-.05.1-.15.17-.28.2-.06.02-.01.07.07.08.2.02.35,0,.47-.03,1.34,1.24,2.05,3,1.98,4.79-.02.48-1.23,1.16-5.05-.99-2.52-1.41-5.41-3.89-4.49-4.48,1.31-.84,2.91-1.16,4.46-.87h0ZM73.01,53.67c.34-1.12.43-2.07.45-2.63.17.13.32.23.44.28.26.12.14-.07.07-.17-.64-.89-1.17-2.25-.03-2.84.67-.35,1.98-.12,3.41.34.25.09.42.16.53.23-.11.03-.22.06-.33.1-.12.04-.25.04-.37.01l-.16-.04c-.55-.13-2.2-.53-2.68-.03-.55.56.66,3.05,5.7,5.93,5.49,3.14,7.4,2.38,7.84,2.02.43-.35.03-1.31-1.11-2.46-.09-.09-.15-.21-.18-.33-.03-.13-.07-.27-.11-.4l.1.07c1.32,1.09,2.36,2.26,2.24,3.12-.04.31-.18.55-.38.74-.48.45-1.77.68-3.02.47-.4-.07-.32.16.16.38.25.11.49.19.72.26-.9.75-1.09,1.67-1.83,2.15-.6.38-1.19.52-2.09.41-2.52-.32-8.17-4.29-9.36-6.64-.16-.32-.06-.69.01-.95h0ZM67.55,80.08s-.57,1.22.25,1.34c.66.1,1.39-.69,1.39-.69,0,0-.73.35-1.17.08-.48-.28-.03-1.34-.03-1.34,0,0-.59.31-.85-.01-.24-.3.06-.91.23-1.19,1.06,0,1.29-.96,1.29-.96,0,0-.57.44-.92.17-.24-.18-.15-.8-.13-.98.57-.11.7-.66.7-.66-1.24.2-1.02-1.17-.92-1.5h0c-.07,0-.6-.03,0-1.2,0,0-.41.14-.32-.5.01-.11.04-.21.08-.32.2.16.56.13.72-.2-.63.05-.39-.53-.39-.53,0,0-.42.17-.67.1-.17-.05-.19-.4-.06-.91.22.11.61-.01.9-.32,0,0-.87.12-.45-.98,0,0-.34.28-.51.62-.2.07-.41.1-.49-.05-.11-.21.02-.8.34-1.44.01.13.07.23.21.27.61.18,1.33-.6,1.33-.6,0,0-.55.19-.86.05-.15-.07-.21-.28-.08-.56.34-.06.74-.34.91-.65-1.21.49-1.22-.27-1.22-.27,0,0-.43.56-.14.83l.13.08c-.15.18-.43.48-.64.56-.19.07-.31,0-.31-.23,0-.61.42-1.44.42-1.44,0,0-.4.3-.76.17-.5-.18.21-1.12.21-1.12-.56.1-.72-.34-.65-.88.02-.14.05-.28.09-.41.02.12.1.23.31.27.6.1,1.01-.34,1.01-.34-.22,0-.45-.04-.53-.18-.15-.29.26-.74.26-.74,0,0-.38.18-.77.3,0,0-.23.09-.63.11-.33.01-.31-.16-.16-.48.13-.26.3-.49.46-.67v.03c.05.34.78.42,1.59.11-.01.1,0,.22.11.32.17.18.61.17,1.02-.1,0,0-.71-.13-.3-.7,0,0-1.01.25-1.49-.11-.17-.13-.06-.46-.06-.46,0,0-.36.15-.62.4-.95-.43-1.17-.95-.82-1.18.27-.18.6-.28.88-.33-.15.18-.14.36-.09.45.2.39,1.31.45,1.86.21,0,0-.71-.12-.72-.55,0-.35.45-.59.45-.59-.39.02-.7.07-.93.15-.11-.08-.25-.25.01-.48,0,0-.53-.03-.8-.34-.41-.47,1.17-.78,1.17-.78,0,0-.53-.51.23-.67,0,0-.62-.57-.36-.93.13-.17.59-.09.98.01-.23.17-.15.43.02.6.14.15.37.22.37.22,0,0-.03-.29.29-.36.61-.14,1.71.32,1.71.32,0,0-.24-.36-.04-.64.21-.29,1.19-.05,1.19-.05-.47-.48-1.28-.57-1.61-.52-.41.06-.34.45-.34.45,0,0-.36-.12-.76-.15-.09-.15-.23-.42-.27-.63-.06-.3.14-.77,1.55-.22,0,0-.42-.64-.13-1,.27-.34,1.13-.11,1.46.04,0,0-.09-.5.13-1.08.13-.33.31-.29.51-.1.21.2.42.35.64.45.02.13.05.27.11.42l.04.08c-.17-.03-.34-.04-.46.02-.31.15-.37.43-.34.7-.32-.26-.93-.41-1.08.02-.14.4.26.73.26.73,0,0,0-.17.23-.25.32-.12.86.26.86.26,0,0-.02-.57.29-.75.42-.24,1.11.31,1.62.82,1.77,1.73,4.69,3.96,7.55,5.08,1.18.46,1.88.49,2.75.29.4-.09.65-.13.84-.07-.45.34-1.11.91-1.63,1.65-.87,1.23-1.23,1.29-1.67,1.27,0-.31-.1-.54-.1-.54-1.26,1.12-2.57.02-3.99-1.96-.99-1.37-1.73-2.91-2.55-2.81-.82.1-1.18,1.27-1.18,1.27.43-.26.87-.31,1.27-.12-.21.44-.51,1.24-.59,2.27-.1,1.19.15,2.08.29,2.48-1.18.12-1.69.93-1.69.93,1.76-.62,2.96.02,4.57.02.15,0,.3-.01.45-.04-.43.42-.87.69-.87.69,1.95-.3,2.94-1.65,4.09-1.38.78.21,1.14.67,1.3.99-3.28-.26-3.08,1.2-7.44,1.31-3.85.1-5.31,1.24-5.56,2.67-.21,1.2.38,2.41,2.39,3.39.57.28,1.14.48,1.73.65.19.65.24,1.32-.03,1.53.34,1.59.02,2.88-.41,2.58.3,1.01.03,2.34-.29,2.41-.27.06-.58-.22-.58-.22,0,0,.06.41.06,1.09-.04.52-.17.87-.33.96-.15.09-.46-.17-.49-.36,0,0-.22.84.27,1.08-.02.24-.11,1.02-.64.99-.62-.04-.9-.83-.9-.83-.47,1.11.43,1.62.43,1.62,0,0-.55.61-1.15.52-.23-.04-.33-.24-.34-.48-.51.35-1.15.52-1.58.41-.33-.08-.41-.3-.35-.56.52-.15,1.07-.51,1.37-.9,0,0-1.04.37-1.59.27-.53-.1-.42-.8-.42-.8,0,0-.44.44-.53.86-.32,0-.67-.05-.82-.17-.96-.73,1.04-1.5,1.04-1.5,0,0-.69.03-.97-.34-.23-.31.01-.63.26-.84.85-.08,1.52-.7,1.52-.7,0,0-1.2.23-1.45-.25-.17-.31.2-.66.78-.81.01.12.05.22.13.27.39.25,1.13-.27,1.13-.27h0ZM76.64,65.45c-.59-.05-1.06-.16-1.59-.19-.51-1.8.24-3.26.58-3.8.71,1.19,1.55,2.34,2.28,3.09-.87-.11-1.35-.59-1.35-.59-.1.9.08,1.47.08,1.48h0ZM63.42,80.82c.37-.75,1.83-.35,1.83-.35,0,0-.71.16-.77.67-.05.43.47.67.47.67,0,0-1.02.49-.6,1.05.22.3.76.42.76.42,0,0-.88.21-1.39-.22-.5-.42-.14-.95.48-1.16-.48-.19-.96-.72-.78-1.09h0ZM33.36,80.37c-.37.78.52.98.52.98,0,0-1.24.72-1.43.41-.25-.42.91-1.39.91-1.39ZM39.34,87.7c-.39.19-.93.21-1.26.19.18-.53.44-.96.66-1.25,0,0-1.44.46-1.94,1.16-.27.38-.17,1.28-.27,1.52-.1.24-.63.29-1,.14-.37-.15-1.1-.59-1.49-1.86,0,0-.24.42-.22.81,0,0-.59.27-.95-.27-.45-.67-.23-1.66-.23-1.66,0,0-1.01-.34-1.06-1.12-.03-.46.34-1.02.69-1.46,0,0-.25-.06-.37-.23-.21-.28.06-1.04.94-1.54,0,0-.63.93-.22,1.46-.26.36-.67,1.07-.45,1.74.17.52,1.2.08,1.2.08,0,0-.62,0-.66-.51-.01-.17.01-.55.4-1.02.4.06.77-.16.77-.16,0,0-.51-.04-.71-.28-.2-.24-.1-.72.36-1.2,0,0-.03.91,1.15.43,0,0-.67-.16-.67-.7,0-.36.24-.78.6-1.21,0,0-.53,0-.69-.25-.13-.2.05-.5.5-.9.15.49.37.98.65,1.47,1.05,1.82,3.25,2.6,4.69,2.46-.35,1.14.11,3.84-.44,4.12h0ZM33.81,106.13c-.56.32-1.22.44-1.46.27-.27-.19.62-1.82.62-1.82,0,0-.03.46.47.54.52.08,1.21.01,1.21.01,0,0-.26.66-.84.99h0ZM35.19,125.15c.47-.81,2.1-.89,3.08.19.1.12.18.24.21.31.04.09.12.13.17-.12.02-.08.02-.17.01-.26.39-.03.96,0,1.26.45.08.14.12.23.16.31.03.07.08.15.17-.08.03-.07.04-.15.05-.23.35.03.88.18,1.32.66-.79-.23-1.5.22-1.5.22-1.01-.84-2.83-.31-2.83-.31-.88-.43-1.65-.54-2.26-.5,0-.19.03-.44.16-.65h0ZM34.42,125.17s-.09.32-.08.75c-.66.17-1.04.49-1.04.49-.16-.01-.33-.01-.49,0,.12-.46.49-1.15,1.6-1.23h0ZM32.68,128.54c-1.51-.05-2.13.84-2.13.84-.06-1.92,2.16-2.32,2.67-2,.28.91-.54,1.17-.54,1.17h0ZM46.25,129.02c-.03.11-.07.21-.29.24-1.56.2-2.9-.14-3.3-.23-.25.17-1.07.79-2.65.86-1.51.06-2.16-.3-2.66-.58-.44.42-1.11,1.01-2.3,1.01s-1.73-.6-1.84-1.06c.89-.46.83-1.71.52-2.1,1.28-1,2.93-.37,3.47.19.17.18.27.32.33.43.04.08.12.09.13-.1,0-.11-.01-.29-.05-.47,1.2-.33,2.09.12,2.34.54.1.16.13.27.18.46.02.08.09.11.14-.06.05-.13.09-.45.09-.67.23-.12.53-.24,1.01-.31.35-.05.92.21,1.13.57.11.18.2-.02.12-.33l-.05-.15c.02-.12.18-.14.38-.11.16.03.34.07.54.11.93.22,1.69.7,2.69,1.25.18.1.11.34.06.52h0ZM59.94,127.51c.36.39.41,1.19-.09,1.81,0,0,.06-.97-1.18-1.29,0,0-.1-.08-.11-.21-.04-.28.17-.69.84-.66,0,0,.3.08.54.34h0ZM54.71,126.38c-.09.19-.16.41-.17.59-.03.3.1.27.19.11.1-.16.26-.37.62-.59,1.68-1.03,3.72-.77,3.78.09-1.23.11-1.61,1.48-1.07,1.88-.81.93-2.76,1.2-3.83-.18-2.05.84-3.67.73-3.74.57-.08-.21.02-.21.27-.35.57-.32,1.29-.79,1.85-1.33.03.13.08.25.15.34.14.17.19-.03.26-.37.05-.29.34-.6.62-.7.29-.08.65-.11,1.07-.06h0ZM48.6,116.62c.25.3.35.75.32,1.09,0,.08,0,.22.15.2.08-.01.17-.04.26-.11.53,1.02,1.34,2.85,2.47,6.06,1.45.3,2.12.85,2.34,1.52-.72.05-1.48.31-1.97.87-.74.84-2.18,1.56-2.6,1.86-.27.19-.17.81-.05,1.25-.28.18-.7.36-1.25.4-.46.03-.87-.04-1.18-.13.11-.28.2-.65.21-1.13,0-.4-.15-.55-.45-.68-1.69-.75-2.38-1.41-3.73-1.65-.16-.03-.35-.01-.53.04.05-.73.69-.9,1.57-.84,0,0-.27-.5.12-.72.79-.45,2,.27,3.18.34.13,0,.24-.06.06-.14-1.19-.55-1.33-.96-2.57-1.27-.11-.58-.37-1.42-.91-2.24,1.5-.16,2.38-.75,2.81-1.14.21-.19.22-.31.04-.22-2.43,1.17-4.21.53-4.45-.41-.22-.84.27-1.53.87-2.04.18.24.37.48.56.72-.26.31-.54.67-.32.94.35.45,1.54.44,2.62-.07,1.3-.62,1.53-1.41,1.44-1.8,0,0-.4-.4-1.06-1.23.83-.09,1.6.05,2.08.53h0ZM46.55,117.63c-.11.15-.41.46-.8.55-.3.08-.66.08-1.14-.54l-.08-.1c.23-.05.41-.21.47-.29.07-.1.05-.13-.07-.09-.46.17-.7-.01-.79-.12-.21-.27-.41-.53-.61-.79.26-.06.47-.2.57-.31.1-.11.06-.15-.08-.1-.52.19-.81,0-.91-.13-.24-.31-.47-.62-.69-.91.32-.05.57-.2.7-.32.11-.11.07-.15-.09-.1-.6.2-.93,0-1.03-.14-.21-.29-.42-.57-.62-.84.36-.05.64-.22.78-.35.13-.11.07-.16-.1-.11-.65.22-1.03-.02-1.13-.15-.21-.29-.41-.57-.61-.84.39-.05.69-.23.85-.37.13-.12.08-.17-.1-.11-.69.23-1.1-.02-1.2-.15-.19-.28-.38-.54-.56-.81.4-.04.73-.24.89-.38.14-.12.08-.17-.1-.11-.71.23-1.13-.02-1.23-.16-.19-.28-.37-.55-.54-.82.46-.04.82-.25,1-.41.15-.13.09-.18-.11-.12-.78.25-1.23-.02-1.34-.17-.11-.18-.23-.36-.34-.53.55-.16,1.29-.54,2.05-1.21.91,1.82,3.5,7.2,6.91,11.01h0ZM43.99,104.96c-.29-.05-.26-.62-.26-.62-.68.79-1.49,1.31-1.85,1.22-.29-.06-.35-.55-.35-.55-.27.4-.9.88-1.17.78-.34-.13-.19-.78-.19-.78-.87.88-2.22,1.9-2.77,1.81-.37-.06-.13-1.09-.13-1.09-.82.87-1.73,1.4-2.02,1.33-.23-.05-.23-.68.13-1.53.36-.84.98-1.59.98-1.59-.53.39-1.74.64-2.26.43-.4-.16-.32-.71-.32-.71-.57.12-1.35.11-1.43-.18-.1-.38.78-1.37.78-1.37-.95-.05-1.01-.38-.78-.84.38-.75,1.27-1.59,1.27-1.59,0,0-.72-.21-.55-.7.28-.84,2.29-1.75,2.29-1.75-.48.28-1.24,1-1.14,1.57.1.58,1.2.37,1.2.37-.59-.31-.45-.8,0-1.19.3-.26.68-.44.99-.55-.48-.12-.32-.47.03-.64.25-.12.51-.2.75-.25-.84-.6-.21-1.51,2.26-1.64,1.12-.06,2.86.25,3.01.29.11.03.2.05.29.07-.02.15-.04.33-.05.45-.3-.08-.69-.14-1.1-.08,0,0,.57.37.81.8,0,0-.71-.1-1.81.94,0,0,1.03-.32,2.18-.15.03.24.06.48.1.66.23,1.44.67,2.21,1.29,3.25h0c.47.8,1.04,1.58,1.7,2.29-.55.8-1.52,1.59-1.85,1.53h0ZM49.68,105.1c-2.91-1.38-5.18-4.37-5.77-6.85h0c-.04-.21-.08-.42-.16-.8,0-.03-.01-.06-.01-.09-.3-1.84.07-3.33,1.21-3.74-.02.88.09,1.86.39,2.88.26.87.96,2.43,1.22,2.43.12,0,.03-.31,0-.38-.4-1.23-.89-3.33-.58-5.57.26-1.87,1.1-2.33,1.58-2.44-.03.67.02,2.32.38,2.19.1-.04.06-.19.09-.46.15-1.36.55-3.31,1.84-3.77,0,0-.3-2.35.49-3.98.07.19.15.37.22.52.05.11.27.52.41.5.13-.02.06-.51.06-.63-.04-.68-.06-1.31-.06-1.81,0-.45-.15-1.06-.37-1.42h0c-.13-.36-.35-.69-.65-.98-2.08-2.05-3.26-3.94-3.71-4.68l-.14-.11c-.17.04-.05.62.02.89.12.46.29.8.29.8-.9.1-1.59-2.44-1.87-3.66-.01-.06-.04-.15-.12-.15-.26,0-.21,1.48-.02,2.26.18.77.5,1.47.92,2.03-1.46,1.55-3.44,2.11-3.44,2.11-.24,1.15-1.83,1.35-2.75,1.37l-.21.07.17.17c.58.21,1.08.28,1.5.29-.81,1.18-3.58.45-4.59-1.29-1.39-2.41-.59-3.58.08-4.17.02.85.23,1.71.45,1.66l.06-.18c0-.76.11-2.3.79-3.3.15-.22.32-.36.47-.46v.19c.02.14.08.36.19.33.09-.02.12-.14.15-.22,1.24-3.79,4.25-5.2,4.63-5.41,1.29-.71,2.13-1.37,2.53-1.71.19-.16.44-.24.69-.21.66.09,2.06.35,3.88,1.08,1.81.74,3.69,1.88,5.14,2.86-.39,0-.63.05-.65.16-.03.12.35.24.45.28.94.32,3.82,1.06,6.28,2.44,3.06,1.72,3.9,2.83,5.25,3.78-.05.19-.1.37-.17.54-.62-.35-3.16-1.62-5.34-.53-1.76.87-1.87,4.15.43,6.55.28.29.49.28.24-.07-.37-.49-.68-1.1-.88-1.62-.06-.18.02-.26.15-.29.24-.06.67-.14,1-.19.25-.04.2-.16.02-.16-.22,0-.92.02-1.1.01-.18,0-.28,0-.33-.18-.07-.29-.15-.68-.16-1.12,0-.12.06-.2.18-.18.36.06,1.09.21,1.37.26.16.03.16-.09.03-.14-.15-.06-1.27-.48-1.39-.51-.11-.04-.16-.09-.14-.21.05-.32.15-.61.29-.85.08-.13.17-.15.31-.09.17.07,1.21.62,1.3.66.15.08.28,0,.03-.17-.28-.19-1.07-.77-1.16-.84l.03-.15c.28-.19.56-.29.77-.35.09-.02.17,0,.24.07l.92.87c.08.08.21.06.11-.08-.06-.08-.57-.78-.64-.87-.05-.07.03-.1.11-.11h.04c.26-.02.53-.01.8,0,.13.01.17.1.22.19.08.14.31.56.37.67.07.12.17.13.13,0-.08-.25-.15-.45-.2-.66-.02-.1.03-.13.14-.12.29.05.56.11.82.18l.1.11c.03.11.09.51.11.58.03.13.09.14.11.01,0-.08,0-.35.02-.5l.09-.08c.29.09.53.17.71.24-.17.31-.39.55-.68.63-.94-.17-2.1-.24-2.79.44-.95.92-.83,4.39,3.45,6.37,2.75,1.27,4.87.73,5.68-.27.48-.58.72-1.39.81-2.09.2-.29.59-1.03.58-1.99.14-.07.26-.17.37-.29,1.07.49,3,1.14,4.62,2.26.83.57,2.21,1.71,2.77,2.48.64.33,1.36.92,1.99,1.48,2.72,2.42,3.03,2.67,4.52,3.42.92.47,2.22,1.58,2.33,4,.28,1.12.57,4.2-.59,5.71-.25-.65-.77-.96-.85-.8-.02.04.6,1.44-.18,2.53-.1-.53-.3-1.03-.66-1.27.15-.17-.05-1.09-1.88-1.64-.01-.41-.6-.79-1.45-.99-2.22-.52-2.91-.19-4.02-.16,1.07-1.32,3.31-1.07,3.4-1.3.07-.17-1.17-.44-2.28-.26-.46.08-.87.19-1.22.38.19-1.55,1.82-2.75,3.78-3.03,1.5-.21,2.83.36,2.91.32.21-.1-1-1-2.89-1-1.5,0-3.26.81-4.2,2.08-.79-.12-2.78-1.15-3.12-1.44-.11-.09-.17-.16-.2-.21.71-.52,1.3-1.15,1.53-1.87.12-.38-.37.12-.37.12,0,0-2.29,1.72-3.24,2.1-.95.37-1.86.75-3.28.97-.22.03-.31-.16-.28-.32.11-.44-.1-.35-.41-.07s-1.83,1.25-2.29,1.8-1.01,1.6-1.41,1.91c-.4.32-.84.27-1.4.6s.9.33.62.68c-.28.35-2.04-.14-3.52.24s-4.71,1.74-5.16,1.88-1.73.58-.39.5,4.93-1.55,6.07-1.69c.82-.09,1.41-.03,2.33.27.82.27,1.22.87,1.38,1.5-5.2-1.45-9.24,5.84-16.76,2.27v.02ZM63.11,110.66s.55.86.43,1.25c-.07.24-.77-.01-1.25-.49s-.63-.84-.63-.84c0,0-.03.31-.25.29-.23-.03-.89-.48-1.32-1.18,0,0,.34-.49-.05-1.09,0,0-.13.62-.75.54,0,0,.01-1.21-.49-2.1,0,0-.11,1.05-.47,1.14-.34.09-.58-.09-.91-.66-.24-.4-.44-.7-.58-.91,4.25-1.25,7.41-4.46,10.77-2.22.58.34,1.23.85,2.02.95.21.02.15.11.06.22-.14.18-.39.41-.8.49-.68.13-1.63-.44-1.63-.44.58,1.33,1.76,1.51,1.55,1.8-.14.2-1.32.42-2.21-.16,0,0-.03.72-.33.87-.27.13-1.26-.03-2.49-.62,0,0,.94,1.27.75,1.71-.11.24-.7.04-.7.04,0,0,.52,1.35.32,1.7-.18.31-.73,0-1.06-.28h0ZM64.98,113.05c-.21-.12-.61-.45-.78-.59.06-.28,0-.6-.05-.75.34.2.67.36.99.48.1.51.05.99-.17.86h0ZM66.56,111.62c-.33.18-1.42-.41-1.69-.57.02-.27-.01-.63-.12-1.11.39.06.53-.12.55-.36.71.53,1.58,1.87,1.26,2.05h0ZM78.92,119.96c-.32-.28-.62-.55-.92-.81-.14-.13-.26-.56.09-1.12.13-.21-.04-.18-.13-.12-.07.04-.4.28-.56.71-.31-.27-.62-.54-.92-.79h0c-.14-.13-.26-.56.08-1.12.13-.21-.04-.18-.13-.12-.07.04-.4.29-.57.72-.31-.26-.62-.52-.91-.76-.14-.13-.26-.56.09-1.12.13-.21-.04-.18-.13-.12-.07.04-.41.29-.57.73-.31-.25-.62-.5-.91-.73-.14-.13-.27-.55.05-1.12.12-.22-.05-.18-.14-.11-.07.05-.39.3-.54.74-.31-.24-.62-.47-.91-.7-.14-.14-.27-.55.02-1.11.12-.22-.05-.17-.14-.11-.06.05-.38.31-.51.75-.3-.23-.6-.44-.89-.65-.15-.13-.3-.55-.02-1.14.11-.23-.06-.17-.14-.11-.06.05-.37.33-.49.78-.29-.21-.58-.41-.87-.61h0c-.16-.11-.34-.54-.07-1.17.1-.24-.06-.18-.15-.1-.06.05-.35.35-.46.8-.25-.18-.5-.35-.75-.53-.16-.12-.33-.57-.06-1.23.1-.26-.06-.19-.15-.11-.04.04-.18.18-.3.42-.25-.41-.55-.79-.89-1.07.26.04.51.06.66.02.34-.08.44-.42.46-.71,1.23.74,5.52,3.4,14.04,11.33-.35.26-.71.57-1.08.94-.09.09-.17.18-.26.27-.11-.1-.21-.19-.32-.28-.14-.13-.26-.56.09-1.12.13-.21-.04-.18-.13-.12-.07.04-.39.28-.56.7h0ZM76.83,134.76c-.22.58-.07,1.05-.07,1.05-.88-.63-1.03-2.55.02-3,.34-.14.74.23.74.55.02.58-.49.84-.69,1.4h0ZM81.8,132.87c-.2.64-.55,1.34-1.66,1.66-1.04.29-1.97.02-2.17-.1,0,0,.37-.66.27-1.31,0,0,.42-.77,1.64-.91.31-.04.26-.14.03-.21-.38-.12-1.24-.15-1.94.33,0,0-.3-.3-.91-.16.04-.69,1.87-2.02,4.27-1.29.27.08.43.17.47.11.02-.05.01-.19-.1-.35.29-.18.61-.36,1.06-.46.59-.13,1.08-.06,1.39.05,0,0-.62.22-.87.44-.15.13-.11.23.05.2.29-.05.79-.12,1.34-.1.44.42.87.7,1.31.88-1.47,1.45-3.46,1.36-4.18,1.22h0ZM85.44,130.19c-1.25-.89-1.15-1.69-1.59-1.54-.12.04-.25.28-.33.45-.14,0-.35,0-.62.04-.08-.31-.14-.75-.03-1.26.15-.71.46-1.39.8-1.91.18-.27.09-.33-.22-.1-.34.26-.79.68-1.14,1.29,0,0-.61-.15-.45-1.62.01-.13.01-.33-.11-.21-.11.1-.23.3-.39.59-.39-.33-1.27-1.05-2.24-1.67.07-.61.39-1.79,1.66-3.06,1.28-1.28,2.38-1.71,2.96-1.86.68.84,2.11,2.47,3.62,3.3-1.07.43-1.72,1.03-2.01,1.42-.17.24-.11.3.05.22,1.42-.75,2.05-.72,2.05-.72-1.37.84-2.5,2.94-2.15,4,.97,2.91,5.69,2.31,6.54,1.63-.32,1.36-4.31,2.51-6.39,1.02h0ZM91.8,126.17c-.38-.2-.76-.32-1.12-.39.86-1.34,1.18-2.46,1.29-3.25.12-.15.24-.3.37-.45.06.1.13.17.18.23.11.11.19.13.17.01-.03-.15-.04-.37,0-.58,0,0,.09-.89.88-1.53.1.15.21.26.27.31.09.06.15.08.14-.06-.02-.14-.03-.32-.01-.51,0,0,.07-1.34.93-2.24.05.1.11.17.14.21.14.16.21.11.21-.01,0-.15,0-.32.04-.54,0,0,.41-1.71,1.65-2.68.6-.47,1.16-.53,1.51-.5-.06.22-.06.45-.02.68-.23.11-.57.31-.88.66-.5.58-.54,1.13-.54,1.24-.01.13.05.18.17-.03.16-.28.63-.9,1.51-1.21.29.46.74.8,1.2.81.09,0,.21-.02.35-.06-.03.45-.18,1.06-.64,1.6-.87,1.02-2.58,1.3-2.58,1.3,0,0-.34,1.33-2.35,2.92,0,0-.92,2.42-2.85,4.06h0ZM98.41,124.47s-.77,1.12-3.08,1.79c0,0-.91.84-2.47,1.5.06-.38-.03-.78-.4-1.14.42-.37,1.19-1.12,1.85-2.15.46-.26.84-.39,1.09-.46,0,.11,0,.21,0,.26.02.16.09.16.13.07.06-.13.13-.27.24-.4.71-.98,1.39-1.29,1.79-1.39.01.1.03.18.05.26.05.2.14.19.18.1.03-.1.09-.25.17-.4,0,0,.76-1.47,2.74-2.05.95-.28,1.49-.13,1.8.1-.13.11-.22.25-.29.4-.25-.02-.63-.03-1.02.1-.66.21-.96.62-1.03.7-.07.1-.05.16.15.06.26-.14.93-.4,1.76-.2,0,.1,0,.19.03.27.1.46.44.78.85.99-.43.65-1.56,1.6-4.54,1.6h0ZM105.05,122.92c-.18-.46-.76-.56-1.16-.64-.59-.12-.94-.36-.93-.72.01-.57.74-.67,1.46-.15.84.61.63,1.52.63,1.52h0Z"/>
      <path class="cls-4" d="M61.46,94.45l3.14-4.28,3.5,1.77s-4.53,5.31-4.68,5.5c-.8,1.05-3.98-.24-6.63-2.11.1-.14.33-.47.49-.69,1.33.94,2.83,1.64,4.18-.2h0Z"/>
      <path class="cls-7" d="M98.41,124.47s-.77,1.12-3.08,1.79c0,0-.91.84-2.47,1.5.06-.38-.03-.78-.4-1.14.42-.37,1.19-1.12,1.85-2.15.46-.26.84-.39,1.09-.46,0,.11,0,.21,0,.26.02.16.09.16.13.07.06-.13.13-.27.24-.4.71-.98,1.39-1.29,1.79-1.39.01.1.03.18.05.26.05.2.14.19.18.1.03-.1.09-.25.17-.4,0,0,.76-1.47,2.74-2.05.95-.28,1.49-.13,1.8.1-.13.11-.22.25-.29.4-.25-.02-.63-.03-1.02.1-.66.21-.96.62-1.03.7-.07.1-.05.16.15.06.26-.14.93-.4,1.76-.2,0,.1,0,.19.03.27.1.46.44.78.85.99-.43.65-1.56,1.6-4.54,1.6"/>
      <path class="cls-7" d="M81.8,132.87c-.2.64-.55,1.34-1.66,1.66-1.04.29-1.97.02-2.17-.1,0,0,.37-.66.27-1.31,0,0,.42-.77,1.64-.91.31-.04.26-.14.03-.21-.38-.12-1.24-.15-1.94.33,0,0-.3-.3-.91-.16.04-.69,1.87-2.02,4.27-1.29.27.08.43.17.47.11.02-.05.01-.19-.1-.35.29-.18.61-.36,1.06-.46.59-.13,1.08-.06,1.39.05,0,0-.62.22-.87.44-.15.13-.11.23.05.2.29-.05.79-.12,1.34-.1.44.42.87.7,1.31.88-1.47,1.45-3.46,1.36-4.18,1.22"/>
      <path class="cls-7" d="M91.97,112.2c.04.14.11.27.19.39-.19.15-.43.36-.62.66-.4.64-.36,1.18-.36,1.29,0,.13.07.17.17-.06.12-.29.5-.97,1.33-1.4.54.35,1.23.44,1.68.17l.04-.03c.15.42.33,1.29-.17,2.48-.34.8-.95,1.51-2.41,2.2,0,.16.01,1.79-.71,3.17,0,1.26-.31,2.87-1.34,4.65-.98.07-1.74.54-2.04.98-.21.31-.03.3.11.19.61-.52,2.1-.73,3.16-.24,1.44.67.7,1.53-.04,1.86-.13.05-.25.09-.35.12-1.13.34-3.99.04-4.33-1.35-.19-.81.54-2.01,1.73-2.92.07.09.15.17.22.21.08.05.11.02.1-.04,0-.09-.02-.22-.03-.39,0-.75-.13-1.93.19-2.92.12.1.24.17.31.21.13.07.22.08.18-.05-.04-.13-.14-.48-.21-.79-.13-.7,0-1.29.21-1.67.16.15.32.25.43.27l.05-.09c-.03-.13-.06-.31-.09-.58-.2-1.75-.07-2.41.18-2.78.1.14.21.26.3.32.29.22.36.18.33.01s-.08-.42-.11-.81c0-.16-.22-2.27,1.9-3.09"/>
      <path class="cls-7" d="M96.92,114.69c.6-.47,1.16-.53,1.51-.5-.06.22-.06.45-.02.68-.23.11-.57.31-.88.66-.5.58-.54,1.13-.54,1.24-.01.13.05.18.17-.03.16-.28.63-.9,1.51-1.21.29.46.74.8,1.2.81.09,0,.21-.02.35-.06-.03.45-.18,1.06-.64,1.6-.87,1.02-2.58,1.3-2.58,1.3,0,0-.34,1.33-2.35,2.92,0,0-.92,2.42-2.85,4.06-.38-.2-.76-.32-1.12-.39.86-1.34,1.18-2.46,1.29-3.25.12-.15.24-.3.37-.45.06.1.13.17.18.23.11.11.19.13.17.01-.03-.15-.04-.37,0-.58,0,0,.09-.89.88-1.53.1.15.21.26.27.31.09.06.15.08.14-.06-.02-.14-.03-.32-.01-.51,0,0,.07-1.34.93-2.24.05.1.11.17.14.21.14.16.21.11.21-.01,0-.15,0-.32.04-.54,0,0,.41-1.71,1.65-2.68"/>
      <path class="cls-7" d="M79.52,120.49c-.14-.13-.26-.56.09-1.12.13-.21-.04-.18-.13-.12-.07.04-.39.28-.56.7-.32-.28-.62-.55-.92-.81-.14-.13-.26-.56.09-1.12.13-.21-.04-.18-.13-.12-.07.04-.4.28-.56.71-.31-.27-.62-.54-.92-.79h0c-.14-.13-.26-.56.08-1.12.13-.21-.04-.18-.13-.12-.07.04-.4.29-.57.72-.31-.26-.62-.52-.91-.76-.14-.13-.26-.56.09-1.12.13-.21-.04-.18-.13-.12-.07.04-.41.29-.57.73-.31-.25-.62-.5-.91-.73-.14-.13-.27-.55.05-1.12.12-.22-.05-.18-.14-.11-.07.05-.39.3-.54.74-.31-.24-.62-.47-.91-.7-.14-.14-.27-.55.02-1.11.12-.22-.05-.17-.14-.11-.06.05-.38.31-.51.75-.3-.23-.6-.44-.89-.65-.15-.13-.3-.55-.02-1.14.11-.23-.06-.17-.14-.11-.06.05-.37.33-.49.78-.29-.21-.58-.41-.87-.61h0c-.16-.11-.34-.54-.07-1.17.1-.24-.06-.18-.15-.1-.06.05-.35.35-.46.8-.25-.18-.5-.35-.75-.53-.16-.12-.33-.57-.06-1.23.1-.26-.06-.19-.15-.11-.04.04-.18.18-.3.42-.25-.41-.55-.79-.89-1.07.27.04.51.06.66.02.34-.08.44-.42.46-.71,1.23.74,5.52,3.4,14.04,11.33-.35.26-.71.57-1.08.94-.09.09-.17.18-.26.28-.11-.1-.21-.19-.32-.28"/>
      <path class="cls-7" d="M59.13,126.58c-1.23.11-1.61,1.48-1.07,1.88-.81.93-2.76,1.2-3.83-.18-2.05.84-3.67.73-3.74.57-.08-.21.02-.21.27-.35.57-.32,1.29-.79,1.85-1.33.03.13.08.25.15.34.14.17.19-.03.26-.37.05-.29.34-.6.62-.7.29-.08.65-.11,1.07-.06-.09.19-.16.41-.17.59-.03.3.1.27.19.11.1-.16.26-.37.62-.59,1.68-1.03,3.72-.77,3.78.09"/>
      <path class="cls-7" d="M42.66,129.03c-.25.17-1.07.79-2.65.86-1.51.07-2.16-.3-2.66-.58-.44.42-1.11,1.01-2.3,1.01s-1.73-.6-1.84-1.06c.89-.46.83-1.71.52-2.1,1.28-1,2.93-.37,3.47.19.17.18.27.32.33.43.04.08.12.09.13-.1,0-.11-.01-.29-.05-.47,1.2-.33,2.09.12,2.34.54.1.16.13.27.18.46.02.08.09.11.14-.06.05-.13.09-.45.09-.67.23-.12.53-.24,1.01-.31.35-.05.92.21,1.13.57.11.18.2-.02.12-.33l-.05-.15c.02-.12.18-.13.38-.11.16.03.34.07.54.11.93.22,1.69.7,2.69,1.25.18.1.11.34.06.52-.03.11-.07.21-.29.24-1.56.2-2.9-.14-3.3-.23"/>
      <path class="cls-7" d="M35.19,125.15c.47-.81,2.1-.89,3.08.19.1.12.18.24.21.31.04.09.12.13.17-.12.02-.08.02-.17.01-.26.39-.03.96,0,1.26.45.08.14.12.23.16.31.03.07.08.15.17-.08.03-.07.04-.15.05-.23.35.03.88.18,1.32.66-.79-.23-1.5.22-1.5.22-1.01-.84-2.83-.31-2.83-.31-.88-.43-1.65-.54-2.26-.5,0-.19.03-.44.16-.66"/>
      <path class="cls-7" d="M39.64,106.62c.91,1.82,3.5,7.2,6.91,11.01-.11.15-.41.46-.8.55-.3.08-.66.08-1.14-.54l-.08-.1c.23-.05.41-.21.47-.29.07-.1.05-.13-.07-.09-.46.17-.7-.01-.79-.12-.21-.27-.41-.53-.61-.79.26-.06.47-.2.57-.31.1-.11.06-.15-.08-.1-.52.19-.81,0-.91-.13-.24-.31-.47-.62-.69-.91.32-.05.57-.2.7-.32.11-.11.07-.15-.09-.1-.6.2-.93,0-1.03-.14-.21-.29-.42-.57-.62-.84.36-.05.64-.22.78-.35.13-.11.07-.16-.1-.11-.65.22-1.03-.02-1.13-.15-.21-.29-.41-.57-.61-.84.39-.05.69-.23.85-.37.13-.12.08-.17-.1-.11-.69.23-1.1-.02-1.2-.15-.19-.28-.38-.54-.56-.81.4-.04.73-.24.89-.38.14-.12.08-.17-.1-.11-.71.23-1.13-.02-1.23-.16-.19-.28-.37-.55-.54-.82.46-.04.82-.25,1-.41.15-.13.09-.18-.11-.12-.78.25-1.23-.02-1.34-.17-.11-.18-.23-.36-.34-.53.55-.16,1.29-.54,2.05-1.21"/>
      <path class="cls-7" d="M82.29,59.32c.52-.18.82-.56.74-.61-.14-.05-.56.35-.74.61M80,58.6c.08-.06.15-.13.23-.26h0c.13-.19.27-.37.38-.5-.13,0-.35.12-.58.37-.3.31-.29.43-.24.45.04.02.12,0,.21-.06M83.94,60.6h-.04c-.11-.02-.37-.06-.69-.1-.36.27-.74.34-.98.26-.25-.08-.18-.29.01-.42.22-.15.51-.21.86-.22.12-.12.24-.3.32-.55-.48.42-1.29.78-1.72.62-.1-.03-.17-.14-.15-.32-.24.06-.49.08-.61.03-.14-.06-.1-.26.06-.53.18-.28.45-.63.67-.91.05-.06.03-.1-.05-.1-.08,0-.18.07-.23.13-.49.57-.77.97-.89,1.14l-.04.02h-.04c-.11-.13-.15-.29-.16-.33-.13.06-.25.09-.33.06-.1-.04-.13-.19-.08-.39-.2.13-.43.22-.57.15-.16-.09-.13-.32,0-.6-.34.18-.69.23-.9.1-.13-.07-.21-.29-.08-.63-.22.14-.5.27-.67.17-.12-.08-.09-.27,0-.49-.2.12-.44.21-.58.11-.13-.09-.09-.31.04-.56.09-.18.3-.5.46-.72l-.07-.11s-.14.22-.34.44c-.26.28-.68.54-.93.34-.12-.1-.09-.32.03-.57.09-.18.28-.5.44-.72l-.06-.11s-.13.21-.32.43c-.24.28-.57.5-.82.28-.09-.08-.11-.23-.07-.42-.17.09-.35.13-.47.02-.21-.19-.05-.69.17-1.16.18-.39.36-.69.44-.83h.11s.11.09.11.09l.09.09.02.14c-.07.11-.22.35-.37.62-.27.51-.19.57-.15.6.06.04.19-.03.3-.25.17-.35.36-.66.44-.8h.12s.17.18.17.18v.13c-.07.12-.24.4-.35.58-.24.43-.25.61-.2.65h.04c.06,0,.17-.07.39-.37.21-.28.37-.56.46-.74l.08-.05.08.09c.14.4.29.61.34.71v.11c-.07.08-.2.21-.36.44-.19.29-.24.42-.19.46h.02c.05.01.17-.04.42-.38.22-.29.38-.57.48-.74l.08-.05.08.08c.14.39.3.59.35.69v.11c-.08.09-.21.21-.37.45-.2.29-.25.43-.21.46.04.03.25,0,.45-.3.03-.04.25-.38.55-.73h.13c.08.06.14.14.17.23v.09c-.1.1-.37.44-.49.61-.25.37-.27.45-.22.48.04.02.3-.04.54-.34.48-.57.92-.65,1.13-.54.32.17.14.58.06.72l-.09.09c-.13.06-.31.1-.41.11l-.07-.03.02-.06c.11-.14.3-.4.24-.44-.11-.07-.44.22-.61.47-.17.25-.2.4-.13.48.13.14.66-.02.93-.27.1-.1.75-.71,1.21-.51.16.07.26.25.17.36,0,0-.37.41-.54.66-.27.39-.28.47-.23.5.05.02.2-.05.37-.25.57-.69.67-.78.77-.9l.14-.03c.1.06.16.13.2.17.24-.03.46-.03.51.09.07.14-.2.4-.59.9-.29.38-.34.47-.24.5.04.01.11.01.19,0,.06-.1.14-.21.24-.34.58-.69,1.11-.87,1.36-.79.24.08.21.29.09.47-.37.56-1.21.87-1.27.89.06.19.8.02,1.43-.61.08-.23.14-.32.23-.43.13-.17.36-.3.51-.27.16.04.16.29-.18.63,0,0-.21.67-.56,1.14.11.01.23.03.35.04l.05.03c.02.09.01.26-.01.35l-.02.04M78.89,56.29c.09.08.25.05.35-.07s.1-.27,0-.35c-.1-.08-.25-.05-.35.07-.1.12-.1.27,0,.35M75.91,53.06v.04c-.13.15-.52.67-.85,1.41-.32.72-.51,1.32-.56,1.5l-.02.03-.03-.02-.13-.17-.11-.2v-.09c0-.11.09-.43.37-1.11-.1-.06-.18-.12-.27-.17-.21.53-.33.94-.37,1.09l-.02.02-.03-.02-.12-.18c-.05-.08-.09-.16-.11-.21v-.1c0-.1.07-.35.26-.87l-.08-.05-.06-.13c0-.17.03-.31.1-.47l.07-.03c.06.02.13.05.21.09.33-.77.64-1.19.75-1.32h.09c.08.07.16.14.28.28l.02.04v.04c-.1.12-.42.54-.72,1.18.11.06.21.11.29.15.28-.59.51-.88.58-.97l.07-.02c.11.04.26.11.39.19l.03.04"/>
      <path class="cls-7" d="M71.81,63.07v-.02h.72l.15-.1c.14-.25.11-.52.1-.79,0-.23-.11-.33-.34-.28-.32.07-.65.08-.97.17-.11.03-.18-.04-.15-.15.03-.1.06-.22.13-.3.16-.19.21-.44.35-.65l.07-.2c.03-.14-.06-.25-.2-.25-.21,0-.42.02-.63,0-.18-.01-.25.1-.3.22-.13.32-.32.62-.42.95-.1.31-.23.61-.28.94-.04.24-.08.48-.12.72-.06.39-.15.78-.22,1.17-.03.16.01.23.18.26.23.04.46.07.7.06.13,0,.25-.1.25-.22,0-.44.15-.87.15-1.31,0-.17.07-.24.22-.24h.62ZM68.53,62.65v.24c0,.17.05.26.23.26.24.01.48,0,.72-.01.08,0,.14-.04.15-.13.03-.26.12-.5.17-.76.02-.11,0-.17-.12-.17-.3,0-.59-.01-.89-.02-.08,0-.13.04-.19.11-.12.15-.04.31-.06.47h0Z"/>
      <path class="cls-7" d="M100.11,89.4c-.02-1.19-.3-3.03-1.27-5.36-3.17-7.67-13.31-16.57-16.84-16.85-1.23-.1-2.13-.03-4.99,1.32-3.03-.13-6.49.13-6.76,2.14-.36,2.69,5.77,3.43,6.29,3.52,1.5.26,6.36.96,12.1,3.47-1.16-.92-2.6-1.91-4.24-2.65-3.34-1.51-5.92-1.71-8.41-2.23-2.48-.52-4.14-1.01-4.08-2.15.05-1.13,3.03-2.04,8.61.58,2.67,1.26,14.22,7.76,19.46,18.44.14.29.14,0,.13-.24h0ZM88.43,73.25c-1.42-.95-2.98-1.91-4.62-2.74-.72-.37-1-.54-.93-.77.08-.26.55-.12.9.04,1.83.85,3.9,2.53,4.49,3.08.59.55.7.76.16.39h0Z"/>
      <path class="cls-7" d="M55.59,90.31l2.96-4.41-2.85-2.7s-3.45,6.07-3.59,6.27c-.71,1.11,1.58,3.67,4.23,5.54.1-.14.33-.47.48-.69-1.33-.94-2.5-2.11-1.23-4.01h0Z"/>
      <path class="cls-7" d="M89.72,95.25c-.1-2.42-1.4-3.53-2.33-4-1.48-.75-1.8-1-4.52-3.42-.63-.56-1.35-1.15-1.99-1.48-.55-.77-1.94-1.91-2.77-2.48-1.62-1.12-3.55-1.77-4.62-2.26-.11.12-.23.22-.37.29.01.95-.38,1.7-.58,1.99-.09.71-.33,1.51-.81,2.09-.82,1-2.94,1.54-5.68.27-4.27-1.98-4.39-5.45-3.45-6.37.69-.68,1.85-.62,2.79-.44.29-.08.51-.32.68-.63-.18-.07-.42-.15-.71-.24l-.09.08c-.01.14-.01.42-.02.5-.01.13-.07.12-.11-.01-.02-.07-.08-.47-.11-.58l-.1-.11c-.26-.07-.53-.13-.82-.18-.11-.02-.16.02-.14.12.04.21.12.42.2.66.04.13-.06.11-.13,0-.07-.12-.3-.53-.37-.67-.05-.09-.09-.17-.22-.19-.27-.02-.53-.03-.8-.01h-.04c-.09.01-.16.05-.11.12.06.09.58.79.64.87.1.14-.03.16-.11.08l-.92-.87c-.06-.07-.14-.1-.24-.07-.21.06-.49.16-.77.35l-.03.15c.09.07.88.65,1.16.84.25.17.11.25-.03.17-.09-.04-1.12-.6-1.3-.66-.15-.06-.24-.04-.31.09-.14.24-.23.53-.29.85-.02.11.03.17.14.21.11.04,1.23.45,1.39.51.13.05.12.16-.03.14-.28-.05-1.02-.2-1.37-.26-.11-.02-.18.06-.18.18.01.44.09.83.16,1.12.05.18.15.18.33.18.18,0,.88,0,1.1-.01.18,0,.23.12-.02.16-.32.05-.76.13-1,.19-.13.03-.21.12-.15.29.2.52.51,1.13.88,1.62.26.34.05.36-.24.07-2.3-2.4-2.2-5.68-.43-6.55,2.19-1.08,4.73.19,5.34.53.07-.17.12-.36.17-.54-1.35-.96-2.19-2.07-5.25-3.78-2.46-1.38-5.34-2.12-6.28-2.44-.1-.03-.48-.16-.45-.28.02-.1.26-.16.65-.16-1.44-.97-3.33-2.12-5.14-2.86-1.82-.74-3.22-1-3.88-1.08-.25-.03-.5.04-.69.21-.4.35-1.24,1.01-2.53,1.71-.38.21-3.39,1.62-4.63,5.41-.02.08-.06.19-.15.22-.12.03-.18-.18-.19-.33v-.19c-.16.1-.32.24-.47.46-.68,1-.78,2.54-.79,3.3l-.06.18c-.22.04-.43-.81-.45-1.66-.67.59-1.48,1.76-.08,4.17,1.01,1.74,3.77,2.47,4.59,1.29-.42,0-.92-.08-1.5-.29l-.17-.17.21-.07c.92-.02,2.51-.23,2.75-1.37,0,0,1.98-.55,3.44-2.11-.42-.56-.74-1.26-.92-2.03-.18-.79-.24-2.26.02-2.26.08,0,.11.09.12.15.28,1.22.98,3.76,1.87,3.66,0,0-.17-.34-.29-.8-.07-.27-.19-.84-.02-.89l.14.11c.45.74,1.62,2.62,3.71,4.68.3.29.52.62.65.98h0c.22.36.37.97.37,1.42,0,.5.01,1.13.06,1.81,0,.12.08.61-.06.63-.14.02-.36-.39-.41-.5-.07-.15-.15-.32-.22-.52-.79,1.63-.49,3.98-.49,3.98-1.29.46-1.69,2.41-1.84,3.77-.03.27.01.42-.09.46-.36.13-.41-1.53-.38-2.19-.48.11-1.33.56-1.58,2.44-.31,2.23.18,4.34.58,5.57.02.07.12.38,0,.38-.26,0-.96-1.56-1.22-2.43-.3-1.01-.41-2-.39-2.88-1.14.41-1.51,1.91-1.21,3.74,0,.03,0,.06.01.09.08.37.12.59.16.8h0c.59,2.48,2.86,5.47,5.77,6.85,7.52,3.57,11.56-3.72,16.76-2.27-.15-.63-.55-1.23-1.38-1.5-.92-.3-1.52-.36-2.33-.27-1.14.13-4.74,1.6-6.07,1.69-1.33.08-.06-.35.39-.5s3.61-1.48,5.16-1.88c1.48-.39,3.24.11,3.52-.24s-1.18-.35-.62-.68,1-.28,1.4-.6c.4-.32.95-1.36,1.41-1.91.46-.55,1.98-1.53,2.29-1.8s.52-.37.41.07c-.04.16.06.35.28.32,1.42-.23,2.34-.6,3.28-.97s3.24-2.1,3.24-2.1c0,0,.49-.49.37-.12-.23.72-.82,1.34-1.53,1.87.03.05.09.12.2.21.34.28,2.33,1.32,3.12,1.44.94-1.27,2.7-2.08,4.2-2.08,1.89,0,3.1.9,2.89,1-.08.04-1.41-.53-2.91-.32-1.96.27-3.59,1.48-3.78,3.03.36-.19.77-.31,1.22-.38,1.1-.19,2.35.09,2.28.26-.1.22-2.34-.02-3.4,1.3,1.11-.03,1.79-.36,4.02.16.84.2,1.44.58,1.45.99,1.83.55,2.03,1.47,1.88,1.64.36.24.56.74.66,1.27.78-1.09.16-2.49.18-2.53.08-.16.6.15.85.8,1.16-1.51.87-4.59.59-5.71v-.02ZM50.31,76.95c-.22,1.62.25,2.48.03,2.45-.23-.03-1.01-1.42-.76-2.89.29-1.69,1.53-2.7,1.61-2.37.05.21-.63.91-.89,2.82h0ZM68.57,92.34c-1.79,2.1-4.51,5.3-4.65,5.48-1.28,1.67-5.24-.42-7.42-1.94h0l-.05-.04-.45-.32-.05-.04h0c-2.17-1.54-5.47-4.57-4.34-6.34.12-.2,2.2-3.84,3.57-6.25l.39-.68.57.54,2.85,2.7.38.36-.29.43-2.96,4.41c-.82,1.22-.55,2.02,1.07,3.16l.23.16.23.16c1.62,1.14,2.46,1.13,3.33-.06l3.14-4.28.31-.42.47.24,3.5,1.77.7.35-.51.6h0ZM69.75,88.98c-.25,0-.17-.11.11-.16,1.59-.31,2.69-1.04,3.09-1.59.38-.5.45-1.09.48-1.3.01-.09.01-.25.08-.25.08,0,.11.2.11.25.22,1.74-1.38,3.06-3.88,3.05h0ZM87.84,93.9c-.17.17-.24-.29-1.74-.73-1.55-.46-2.52-.28-2.52-.28,0,0,1.11-.78,2.75-.34,1.06.28,1.73,1.12,1.51,1.34h0Z"/>
      <path class="cls-1" d="M98.89,137.21c-.76,0-1.37-.64-1.37-1.42s.62-1.42,1.37-1.42,1.37.64,1.37,1.42-.61,1.42-1.37,1.42M98.89,133.98c-.96,0-1.75.81-1.75,1.81s.78,1.81,1.75,1.81,1.75-.81,1.75-1.81-.78-1.81-1.75-1.81"/>
      <path class="cls-1" d="M99.02,135.6h-.47v-.45h.47c.12,0,.22.1.22.22s-.1.23-.22.23M99.61,135.37c0-.34-.27-.61-.59-.61h-.84v2.07h.37v-.84h.27l.38.84h.41l-.39-.88c.23-.08.39-.31.39-.58"/>
    </g>
  </g>
</svg>