<?xml version="1.0" encoding="UTF-8"?>
<svg id="Layer_2" data-name="Layer 2" xmlns="http://www.w3.org/2000/svg" viewBox="0 0 195.64 394.71">
  <defs>
    <style>
      .cls-1, .cls-2, .cls-3, .cls-4, .cls-5, .cls-6 {
        stroke-miterlimit: 10;
      }

      .cls-1, .cls-2, .cls-5 {
        stroke: #a981a0;
      }

      .cls-1, .cls-2, .cls-6 {
        stroke-width: 3px;
      }

      .cls-1, .cls-3, .cls-6 {
        fill: none;
      }

      .cls-2 {
        fill: #d4c1c5;
      }

      .cls-3 {
        stroke: #735d70;
        stroke-width: 2px;
      }

      .cls-4 {
        stroke: #fff7e7;
      }

      .cls-4, .cls-7 {
        fill: #fff7e7;
      }

      .cls-4, .cls-5 {
        stroke-width: .75px;
      }

      .cls-5 {
        fill: #a981a0;
      }

      .cls-6 {
        stroke: #84647e;
      }

      .cls-8 {
        fill: #f0c6cd;
      }

      .cls-9 {
        fill: #f7e2df;
      }
    </style>
  </defs>
  <g id="Layer_1-2" data-name="Layer 1">
    <g>
      <g>
        <path class="cls-8" d="M124.7,364.05c-10.47,21.26-33.49,33.77-56.89,30-.66-.11-1.32-.22-1.98-.35-11.53-2.26-20.21-7.78-26.59-13.9-9.09-8.72-14.86-20.34-16.93-32.77L2.61,228.47c-.34-2.04-.7-4.08-1.07-6.11-1.42-7.92-5.96-41.85,12.52-77.94,0,0,53.28-109.25,53.38-109.46C83.29,2.49,123-12.21,152.61,12.11c11.73,9.63,19.18,23.51,21.5,38.51"/>
        <path class="cls-8" d="M22.61,348.44c3.64,23.42,21.87,42.23,45.33,45.63.66.1,1.32.18,2,.25,11.68,1.28,21.61-1.38,29.53-5.32,11.28-5.6,20.26-14.97,25.94-26.21l54.22-107.26c.93-1.85,1.89-3.68,2.85-5.51,3.73-7.13,18.2-38.16,11.34-78.12,0,0-18.21-120.18-18.24-120.41-5.41-35.72-38.92-61.61-74.45-47.25-14.07,5.69-25.33,16.71-32.02,30.33"/>
      </g>
      <line class="cls-3" x1="91.01" y1="18.67" x2="158.49" y2="28.98"/>
      <line class="cls-6" x1="93.06" y1="17.05" x2="157.01" y2="26.83"/>
      <line class="cls-3" x1="101.01" y1="13.08" x2="150.04" y2="20.58"/>
      <line class="cls-6" x1="102.69" y1="11.62" x2="148.62" y2="18.64"/>
      <line class="cls-3" x1="83.34" y1="25.37" x2="164" y2="37.7"/>
      <line class="cls-6" x1="86.03" y1="23.77" x2="162.47" y2="35.46"/>
      <g>
        <line class="cls-3" x1="77.98" y1="32.19" x2="167.76" y2="45.92"/>
        <line class="cls-6" x1="79.65" y1="30.29" x2="165.99" y2="43.49"/>
      </g>
      <g>
        <line class="cls-3" x1="34.4" y1="355.41" x2="112.41" y2="367.34"/>
        <line class="cls-6" x1="32.62" y1="352.98" x2="114.89" y2="365.55"/>
        <line class="cls-3" x1="31.83" y1="347.36" x2="117.47" y2="360.46"/>
        <line class="cls-6" x1="31.02" y1="344.87" x2="119.42" y2="358.39"/>
      </g>
      <g>
        <line class="cls-3" x1="38.56" y1="362.88" x2="106.05" y2="373.2"/>
        <line class="cls-6" x1="35.22" y1="360.21" x2="109.3" y2="371.53"/>
      </g>
      <g>
        <line class="cls-3" x1="43.98" y1="370.54" x2="98.55" y2="378.88"/>
        <line class="cls-6" x1="40.62" y1="367.87" x2="102.09" y2="377.26"/>
      </g>
      <g>
        <line class="cls-3" x1="54.37" y1="379.74" x2="84.2" y2="384.3"/>
        <line class="cls-6" x1="49.99" y1="376.91" x2="90.95" y2="383.17"/>
      </g>
      <circle class="cls-2" cx="124.64" cy="25.73" r="9.13"/>
      <path class="cls-1" d="M120.76,355.78c-9.56,20.42-30.25,32.6-51.11,29.23-.58-.09-1.17-.2-1.77-.32-10.28-2.05-17.98-7.24-23.62-13.03-8.04-8.25-13.08-19.3-14.8-31.16l-16.43-113.13c-.28-1.95-.59-3.89-.9-5.83-1.19-7.56-4.92-39.95,11.95-74.62,0,0,48.67-104.95,48.76-105.15,14.47-31.2,50.09-45.63,76.3-22.68,7.68,6.73,14.02,15.11,17.37,24.83,2.04,5.92,2.7,12.18,3.51,18.35.55,4.2,1.11,8.4,1.66,12.6.76,5.77,1.52,11.54,2.28,17.31.87,6.59,1.73,13.19,2.6,19.78s1.75,13.33,2.63,20c.79,5.99,1.58,11.98,2.36,17.98.6,4.57,1.2,9.14,1.8,13.71.32,2.4.63,4.8.95,7.2l.07.57c5.74,38.13-7.49,67.93-10.89,74.79-.87,1.76-1.75,3.52-2.6,5.3l-49.49,103.05c-5.19,10.8-13.3,19.84-23.43,25.31-7.11,3.84-16.01,6.49-26.43,5.37-.6-.06-1.19-.14-1.78-.22-20.92-3.02-37.02-20.82-40.04-43.17"/>
    </g>
    <g>
      <path class="cls-7" d="M123.79,60.24c-2.41-3.01-5.25-5.78-8.96-7.07s-7.87-.77-11.35.93c-6.33,3.08-9.8,9.8-10.41,16.59-.55,6.13,1.65,12.92,7.41,15.91,3.49,1.8,7.19,1.56,10.41-.68,1.51-1.05,2.84-2.31,4.16-3.58.18-.17.35-.34.53-.51.94-.91.17-.15.17-.19l.07-.04c.24-.14.07-.1-.53.12-.31-.03-.79-.33-1.02-.48-.05-.03-.06-.19-.03.01s.14.62.15.69c.32,2.26.05,5.19-.08,7.57-.26,4.78-.86,9.54-1.63,14.26-.93,5.71-1.77,11.78-4.1,17.13-.84,1.94-2,4.11-3.72,4.99-.55.28-1.22.36-2.04.11-1.4-.42-2.5-1.42-3.14-2.73-1.91-3.89-.12-8.54,1.72-12.09s4.38-7.12,7.27-10.14,6.26-5.39,9.48-8.03,6.36-5.69,8.84-9.17c2.29-3.21,4.23-6.9,5.31-10.7,1-3.51,1.07-7.12.56-10.72-.28-2.02-.74-4.01-1.26-5.98-.61-2.33-4.23-1.34-3.62,1,.97,3.67,1.71,7.42,1.37,11.23s-1.85,7.05-3.65,10.18c-2.15,3.74-4.93,6.9-8.15,9.75s-6.71,5.15-9.79,8.04-5.77,6.2-7.98,9.78-4.29,7.77-4.6,12.14c-.29,4.03,1.21,8.39,4.96,10.35,2.27,1.19,4.91,1.36,7.11-.09,4.15-2.74,5.78-8.54,6.92-13.09,1.99-7.91,3.17-16.22,3.75-24.35.21-2.87.42-5.84.26-8.72-.12-2.13-1.17-6.08-4.2-4.36-1.4.8-2.51,2.29-3.72,3.35s-2.64,2.12-4.27,2.39c-2.94.5-5.91-1.77-7.38-4.15-2.97-4.8-2.28-11.59.35-16.39,3.6-6.57,12.07-9.86,18.29-4.72,1.45,1.2,2.71,2.63,3.88,4.1.64.8,1.98.65,2.65,0,.79-.77.63-1.87,0-2.65h0Z"/>
      <g>
        <path class="cls-7" d="M145.23,67.5c-4.37,4.33-9.94,8.39-16.4,8.06-5.88-.3-10.68-4.41-14.33-8.67-1.57-1.84-4.21.83-2.65,2.65,4.35,5.07,10.07,9.42,16.98,9.77,7.44.38,14-4.16,19.05-9.16,1.72-1.7-.94-4.35-2.65-2.65h0Z"/>
        <g>
          <path class="cls-7" d="M120.04,68.91c1.61,0,1.61-2.5,0-2.5s-1.61,2.5,0,2.5h0Z"/>
          <path class="cls-7" d="M123.81,70.79c1.61,0,1.61-2.5,0-2.5s-1.61,2.5,0,2.5h0Z"/>
        </g>
      </g>
    </g>
    <g>
      <g>
        <path class="cls-5" d="M62.44,186.11c.55-3.6,2.76-6.54,5.59-6.1,1.56.24,2.76,1.68,3.61,3.53l-.3-2.69,2.62.4c.48,4.56,1.63,11.53,2.25,16.02,1.57-1.77,3.19-3.83,3.67-6.73l1.92.59c-.57,3.73-3.45,6.1-5.35,8.11-.01.08.02.17,0,.25.62,6.64.18,13.07-3.63,12.48-2.13-.33-2.79-3.15-1.88-6.33.8-2.77,1.91-4.28,3.17-5.93l-.02-.13c-.11-1.44-.57-4.2-1.09-7.38-.61,3.43-2.05,5.47-5.12,5-4.14-.63-6.09-6.76-5.43-11.1ZM68.43,194.62c1.68.26,2.77-1.13,3.06-3.01.43-2.79-1.11-9.73-3.61-10.11-1.93-.29-2.64,1.94-2.91,3.71-.49,3.24.72,9,3.47,9.42ZM72.96,209.69c1.31.2,1.47-3.84,1.28-7.56-.72,1.15-1.37,2.35-1.82,3.7-.71,2.2-.15,3.75.54,3.86Z"/>
        <path class="cls-5" d="M85.5,192.95l-.44-6.69c-.85-.21-1.97-.55-3.08-1.27.2,2.55.01,4.87-.18,6.14l-1.92-.59c.42-2.74-.35-6.51-.88-8.52l2.56-.32c1.1,1.89,3.04,2.9,4.88,3.18.45.07.78.08.95.06l.17-.02s.25,4.69.45,7.45c.24,3.39.94,5.38,2.21,5.58,2.66.41,3.44-3.29,3.74-5.26l1.92.59c-.57,3.73-2.5,7.83-6.18,7.27-2.99-.46-3.96-4-4.2-7.6Z"/>
        <path class="cls-5" d="M103.71,199.17c-.78,2.06-2.16,3.19-4.54,2.83-4.14-.63-6.09-6.76-5.43-11.1.55-3.6,2.89-6.31,5.84-5.86,1.23.19,2.27,1.06,3.04,2.35l-.15-1.78,2.62.4c.04.84.36,5.59.64,9.82.17,2.71.97,4.63,2.36,4.85,2.66.41,3.44-3.29,3.74-5.26l1.92.59c-.57,3.73-2.5,7.83-6.23,7.26-2.01-.31-3.32-2.14-3.82-4.1ZM99.73,199.4c1.68.26,2.77-1.13,3.06-3.01.49-3.2-.73-9.46-3.56-9.89-1.93-.29-2.7,1.73-2.97,3.49-.49,3.24.72,9,3.47,9.42Z"/>
        <path class="cls-5" d="M111.16,186.94l2.62.4.18,2.92c.83-1.84,2.2-2.89,4.37-2.56,4.14.63,6.06,6.96,5.4,11.31-.25,1.64-.85,3.1-1.76,4.13,3.78-.05,5.7-1.9,6.21-5.21l1.92.59c-.88,5.78-5.38,7.52-11.41,6.6-2.09-.32-3.29-1.51-4.06-2.8l.92,15.36-2.17-.33c-.3-3.82-2.23-30.4-2.23-30.4ZM115.08,197.72c.45,1.7,1.03,2.88,1.71,3.66.43.48.89.76,1.46.85,1.68.26,2.77-1.13,3.06-3.01.49-3.2-.7-9.67-3.53-10.1-1.93-.29-2.73,1.93-3,3.69-.21,1.39-.11,3.21.3,4.91Z"/>
        <path class="cls-5" d="M137.9,200.96c-.14-5.09.33-8.71-1.52-8.99-1.72-.26-3.49,6.34-4.79,14.86l-2.58-.39c-.41-1.99-1.95-10.57-2.45-16.89-.34-4.33-1.02-8.71-.24-13.79.56-3.65,1.92-6.25,3.64-5.98,4.51.69,3.15,14.74,2.61,18.3-.69,4.51-1.76,7.95-2.42,9.82.13,1.07.29,1.97.41,2.79,1.1-5.57,2.85-10.67,6.21-10.16,2.74.42,3.47,3.09,3.53,7.37.09,4.92.77,7.83,2.33,8.07,2.54.39,3.44-3.29,3.74-5.26l1.92.59c-.57,3.73-2.5,7.83-6.18,7.27-2.99-.46-4.09-3.98-4.2-7.6ZM129.12,188.72c.19,2.29.37,4.17.59,5.75.44-1.48.93-3.34,1.26-5.47,1.73-11.35.25-17.57-.85-17.74-.78-.12-1.27,2.57-1.47,3.88-.66,4.3.07,8.86.48,13.57Z"/>
        <path class="cls-5" d="M144.86,187.48c.16-1.06.8-1.97,1.83-1.82,1.39.21,1.79,1.99,1.62,3.1-.15.98-.9,1.75-1.84,1.6-1.15-.18-1.82-1.54-1.61-2.89ZM148.19,192.6c.04.84.36,5.59.64,9.82.17,2.71.97,4.63,2.36,4.85,2.66.41,3.44-3.29,3.74-5.26l1.92.59c-.57,3.73-2.5,7.83-6.23,7.26-2.42-.37-3.82-2.97-4.01-5.31-.3-3.82-1.04-12.36-1.04-12.36l2.62.4Z"/>
        <path class="cls-5" d="M154.76,199.81c.5-3.28,2.41-6.17,5.44-5.71,1.97.3,3.46,2.04,3.72,4.17l-1.92.21c-.2-1.16-.62-2.82-2.01-3.03-1.52-.23-2.41,1.52-2.76,3.81-.49,3.2.3,8.98,3.99,9.54s5.65-2.11,6.07-4.9l1.92.59c-.68,4.42-4.1,7.59-8.56,6.91-4.71-.72-6.71-6.27-5.9-11.59Z"/>
      </g>
      <g>
        <path class="cls-4" d="M28.84,171.27l4.32.66.7,11.16c1.22,13.2,6.01,28.77,13.55,29.92,3.31.51,5.51-1.66,6.65-5.61-10.43-2.77-19.06-16.37-17.71-29.72.41-3.97,3-7.74,7.9-7,6.24.95,13.14,13.01,13.59,27.42.08,2.66-.06,5.2-.45,7.45,1.27.05,2.83-.21,4.17-1.28l.49,1.6c-1.6,1.18-3.48,1.87-5.11,1.92-1.53,5.81-4.97,9.41-10.69,8.53-4.85-.74-8.57-6.27-11.11-12.8l.67,11.01h-.1s0,.03,0,.03l-3.07-.47c-.3-4.76-3.82-42.82-3.82-42.82ZM54.57,205.06c.39-2.2.49-4.79.34-7.66-.57-10.4-5.77-24.26-11.39-25.12-2.78-.43-4.52,1.91-4.82,5.16-1.08,12.21,7.78,24.96,15.87,27.62Z"/>
        <path class="cls-4" d="M61.76,211.37c.27-1.78,1.2-3.01,1.2-3.01-.98-.64-1.83-2.49-1.5-4.65.46-3.02,2.81-5.22,5.93-4.74,4.13.63,4.72,4.8,4.72,4.8l-2.15.26c-.12-1.44-1.03-3.2-2.62-3.44s-2.99,1.26-3.25,2.94.58,3.28,2.64,3.6c.96.15,2.49.09,2.49.09l-.16,1.99c-1.54.11-3.83.64-4.15,2.75-.39,2.54,1.45,4.3,4.14,4.71,3.5.54,6.72-1.87,7.31-5.71l2.25.69c-.68,4.46-4.26,8.93-10.74,7.94-4.32-.66-6.77-3.93-6.11-8.2Z"/>
        <path class="cls-4" d="M75.58,214.46l.89-1.34c.38.06,4.36,1.7,8.34,2.94l.07-.43c.54-3.55-3.02-6.9-5.17-10.81-.35,2.94-.82,5.38-1.09,6.81l-2.25-.69c.43-2.83.84-6.45.97-10.17l2.78.43c.41,3.11,8.52,8.52,7.57,14.72-.04.29-.1.62-.19.9l.76.17c2.85.63,4.26-1.17,4.62-3.52l2.25.69c-.63,4.13-3.01,5.24-7.14,4.61l-1.14-.22c-1.13,2.23-3.19,3.49-5.49,3.14-4.22-.65-5.79-4.86-5.77-7.22ZM81.59,218.53c1.1.17,1.9-.2,2.38-.77-2.29-.74-4.65-1.69-6.31-2.39.87,1.36,2.26,2.9,3.94,3.16Z"/>
        <path class="cls-4" d="M91.12,197.98c.19-1.25.94-2.31,2.14-2.13,1.63.25,2.1,2.33,1.9,3.63-.18,1.15-1.05,2.05-2.15,1.88-1.34-.21-2.13-1.8-1.89-3.38ZM95.01,203.98c.05.99.42,6.55.75,11.51.2,3.17,1.13,5.43,2.77,5.68,3.12.48,4.03-3.85,4.38-6.16l2.25.69c-.67,4.37-2.93,9.18-7.29,8.51-2.83-.43-4.48-3.48-4.7-6.22-.35-4.47-1.22-14.48-1.22-14.48l3.07.47Z"/>
        <path class="cls-4" d="M102.64,212.9c.65-4.22,3.23-7.66,6.55-7.15,1.82.28,3.24,1.97,4.23,4.13l-.35-3.15,3.07.47c.56,5.34,1.91,13.51,2.63,18.77,1.84-2.08,3.73-4.49,4.3-7.89l2.25.69c-.67,4.37-4.04,7.14-6.27,9.5-.01.1.02.2,0,.3.73,7.77.21,15.31-4.25,14.63-2.5-.38-3.27-3.69-2.21-7.41.94-3.25,2.24-5.01,3.71-6.95l-.03-.15c-.13-1.69-.67-4.92-1.28-8.64-.71,4.02-2.4,6.41-6,5.86-4.85-.74-7.14-7.92-6.36-13.01ZM109.66,222.87c1.97.3,3.25-1.32,3.58-3.53.5-3.26-1.3-11.4-4.23-11.84-2.26-.34-3.1,2.28-3.41,4.34-.58,3.79.84,10.54,4.06,11.03ZM114.96,240.53c1.54.23,1.72-4.5,1.5-8.86-.84,1.34-1.6,2.75-2.14,4.34-.84,2.57-.18,4.39.64,4.52Z"/>
        <path class="cls-4" d="M134.02,221.58c-.17-5.97.38-10.21-1.78-10.54-2.02-.31-4.08,7.43-5.61,17.41l-3.07-.47-1.24-19.84,3.07.47.63,10.02c1.32-5.45,3.27-9.81,6.68-9.29,3.22.49,4.06,3.62,4.13,8.64.1,5.76.91,9.18,2.73,9.45,2.98.45,4.03-3.85,4.38-6.16l2.25.69c-.67,4.37-2.93,9.18-7.25,8.52-3.5-.54-4.79-4.66-4.93-8.91Z"/>
      </g>
    </g>
    <g>
      <path class="cls-7" d="M45.91,333.02l-.41,2.66-6.74-1.03.41-2.66,1.17.18c.31.05.52-.17.56-.44l.88-5.73c.04-.24-.14-.48-.41-.52l-1.17-.18.41-2.66,7.67,1.17c1.66.25,4.07,1.27,3.67,3.86-.26,1.68-1.6,2.3-3.06,2.36.57.3.94.6,1.22.87.54.59.69,1.37.58,2.09-.02.14-.07.57.17.61.38.06.47-.54.53-.97l1.11.17-.17,1.13c-.26,1.73-1.37,2.67-3.17,2.39-.75-.12-1.46-.33-1.97-1.02-.87-1.17-.07-2.63-.76-3.75-.32-.54-1.52-.74-1.73-.77l-.12-.02-.23,1.49c-.04.29.13.55.47.6l1.1.17ZM46.49,328.3c.96.15,1.41-.29,1.49-.79.08-.5-.23-1.05-1.19-1.2l-1.05-.16c-.27-.04-.49.14-.53.38l-.24,1.54,1.51.23Z"/>
      <path class="cls-7" d="M65.62,332.61c-.48,3.14-3.07,5.74-6.91,5.16-3.84-.59-5.54-3.85-5.06-6.99.48-3.14,3.07-5.74,6.91-5.16,3.84.59,5.54,3.85,5.06,6.99ZM57.58,331.38c-.28,1.85-.25,3.47,1.53,3.74,1.78.27,2.33-1.45,2.58-3.12.25-1.66.25-3.47-1.53-3.75-1.78-.27-2.3,1.26-2.58,3.12Z"/>
      <path class="cls-7" d="M78.52,334.58c-.48,3.14-3.07,5.74-6.91,5.16-3.84-.59-5.54-3.85-5.06-6.99.48-3.14,3.07-5.74,6.91-5.16,3.84.59,5.54,3.85,5.06,6.99ZM70.47,333.35c-.28,1.85-.25,3.47,1.53,3.75,1.78.27,2.33-1.45,2.58-3.12.25-1.66.25-3.47-1.53-3.75-1.78-.27-2.3,1.26-2.58,3.12Z"/>
      <path class="cls-7" d="M92.56,340.15l-.41,2.66-6.29-.96.41-2.66.96.15c.31.05.52-.17.56-.44l.76-4.97-3.85,7.75-.21-.03-1.38-8.55-.77,5.04c-.04.24.12.47.39.52l.93.14-.41,2.66-5.59-.85.41-2.66,1.2.18c.31.05.52-.17.56-.44l.87-5.66c.04-.26-.09-.54-.4-.59l-1.2-.18.41-2.66,6.28.96s.63,3.01.66,3.17l1.37-2.86,6.19.95-.41,2.66-1-.15c-.29-.04-.5.19-.54.44l-.88,5.73c-.04.26.15.48.48.53l.91.14Z"/>
      <path class="cls-7" d="M105.69,342.16l-.41,2.66-6.74-1.03.41-2.66,1.17.18c.27.04.51-.13.55-.37l.84-5.47-1.65-.25.4-2.61,1.06.16c1.15.18,1.54-.33,1.58-.6l2.57.39-1.37,8.95c-.03.21.11.42.33.45l1.25.19Z"/>
      <path class="cls-7" d="M114.47,340.08c1.34.63,2.06,1.56,1.82,3.14-.35,2.3-2.74,2.9-5.01,2.55-2.33-.36-4.58-1.74-4.19-4.26.15-.98.75-1.89,1.93-1.71.74.11,1.41.79,1.29,1.55s-.34.74-.4,1.12c-.07.45.65.8,1.01.86.81.12,1.57-.16,1.71-1.09.17-1.1-.63-1.87-1.5-2l.2-1.3c.87.13,1.86-.37,2.03-1.46.14-.92-.5-1.43-1.31-1.55-.36-.05-1.15.07-1.22.52-.06.38.16.43.05,1.18-.12.76-.96,1.21-1.69,1.09-1.13-.17-1.36-1.35-1.23-2.19.38-2.49,2.84-3.18,5.17-2.83,2.26.35,4.37,1.63,4.01,3.93-.24,1.58-1.21,2.26-2.67,2.45Z"/>
    </g>
    <g>
      <path class="cls-9" d="M46.88,321.55l-4.12-.63.93-6.09,4.12.63-.17,1.08-3.02-.46-.21,1.36,2.63.4-.16,1.03-2.63-.4-.23,1.53,3.02.46-.17,1.08Z"/>
      <path class="cls-9" d="M52.35,322.39l-.9-.14-1.83-4.18-.58,3.81-1.1-.17.93-6.08.91.14,1.83,4.18.58-3.81,1.09.17-.93,6.09Z"/>
      <path class="cls-9" d="M57.54,321.2c-.2,1.31-1.04,1.88-2.35,1.68-1.18-.18-1.69-.88-1.79-1.96l1.09-.13c.06.57.32.94.85,1.02.7.11,1.02-.17,1.12-.82l.63-4.12,1.09.17-.63,4.15Z"/>
      <path class="cls-9" d="M60.72,323.74c-1.83-.28-2.29-1.89-2.04-3.5.25-1.61,1.16-3.01,3-2.73,1.83.28,2.29,1.88,2.04,3.5-.25,1.61-1.17,3.01-3,2.73ZM61.51,318.59c-1.2-.18-1.59.86-1.73,1.81-.15.95-.08,2.07,1.11,2.25,1.19.18,1.58-.86,1.72-1.82.15-.95.1-2.06-1.1-2.25Z"/>
      <path class="cls-9" d="M69.44,318.77l-2.64,3.77-.31,2-1.1-.17.31-2.02-1.4-4.37,1.23.19.92,3.04,1.77-2.63,1.22.19Z"/>
      <path class="cls-9" d="M77.38,319.99l-2.64,3.77-.31,2-1.1-.17.31-2.02-1.4-4.37,1.23.19.92,3.04,1.77-2.63,1.22.19Z"/>
      <path class="cls-9" d="M79.08,326.55c-1.83-.28-2.29-1.89-2.04-3.5.25-1.61,1.16-3.01,3-2.73,1.83.28,2.29,1.88,2.04,3.5-.25,1.61-1.17,3.01-3,2.73ZM79.87,321.4c-1.2-.18-1.59.86-1.73,1.81-.15.95-.08,2.07,1.11,2.25,1.19.18,1.58-.87,1.72-1.82.15-.95.1-2.06-1.1-2.25Z"/>
      <path class="cls-9" d="M87.5,325.17c-.24,1.56-1.03,2.5-2.7,2.25-1.67-.25-2.14-1.4-1.9-2.95l.54-3.56,1.09.17-.54,3.5c-.13.85-.06,1.62.97,1.77,1.05.16,1.32-.53,1.45-1.4l.54-3.51,1.09.17-.54,3.56Z"/>
      <path class="cls-9" d="M91.67,325.7c.09.09.18.28.24.42l1.08,2.48-1.27-.2-.92-2.25c-.13-.34-.22-.5-.61-.56l-.44-.07-.38,2.52-1.1-.17.93-6.09,2.2.34c1.18.18,2,.87,1.81,2.13-.12.79-.7,1.34-1.53,1.44ZM91.24,323.18l-1.11-.17-.24,1.54,1.11.17c.55.08,1,0,1.1-.63.09-.62-.33-.83-.86-.91Z"/>
      <path class="cls-9" d="M98.44,329.52c-1.28-.2-2.05-.9-2.17-2.17l1.07-.04c.08.71.57,1.06,1.26,1.17.51.08,1.19-.09,1.28-.7.19-1.26-3.33-.95-2.99-3.13.18-1.15,1.3-1.55,2.33-1.39,1.08.17,1.71.67,2.03,1.69l-1.02.29c-.21-.58-.54-.87-1.17-.96-.39-.06-.99.03-1.07.54-.16,1.06,3.33.89,2.99,3.13-.19,1.24-1.41,1.75-2.54,1.57Z"/>
      <path class="cls-9" d="M106.38,325.53l-1.75-.27-.76,5-1.1-.17.76-5-1.75-.27.17-1.08,4.6.7-.17,1.08Z"/>
      <path class="cls-9" d="M110.86,331.33l-1.19-.18-.34-1.68-2.14-.33-.82,1.5-1.19-.18,3.27-5.73.99.15,1.42,6.45ZM109.13,328.46l-.42-2.07-1.01,1.85,1.44.22Z"/>
      <path class="cls-9" d="M116.27,325.93l-2.64,3.77-.31,2-1.1-.17.31-2.02-1.4-4.37,1.23.19.92,3.04,1.77-2.63,1.22.19Z"/>
    </g>
  </g>
</svg>