<?xml version="1.0" encoding="UTF-8"?>
<svg id="Layer_2" data-name="Layer 2" xmlns="http://www.w3.org/2000/svg" viewBox="0 0 926.06 582.6">
  <defs>
    <style>
      .cls-1 {
        fill: #1c574e;
      }

      .cls-2 {
        fill: #89b698;
      }

      .cls-3 {
        stroke: #fff7e7;
        stroke-miterlimit: 10;
        stroke-width: .75px;
      }

      .cls-3, .cls-4 {
        fill: #fff7e7;
      }

      .cls-5 {
        isolation: isolate;
      }

      .cls-6 {
        fill: #eb9922;
      }

      .cls-7 {
        fill: #99d2c6;
      }

      .cls-8 {
        fill: #eaddc7;
      }
    </style>
  </defs>
  <g id="Layer_1-2" data-name="Layer 1">
    <rect class="cls-8" width="926.06" height="582.6"/>
    <rect class="cls-1" x="41.65" y="26.2" width="842.76" height="530.2" rx="42.68" ry="42.68"/>
    <g>
      <path class="cls-3" d="M77.19,519.75l3.16-37.03h5.04l-2.72,30.04,13.2-30.04h5.2l-1.68,30.04,12.16-30.04h3.72l-15.64,37.03h-5.48l1.44-28.28-12.92,28.28h-5.48Z"/>
      <path class="cls-3" d="M106.9,516.35c0-2.44,1.2-4.96,3.72-13.16h4.56c-1.16,3.32-3.84,10.48-3.84,11.88,0,.8.4,1.28,1.04,1.28,2.08,0,4.6-3.76,5.64-5.4l2.48,1.28c-3.12,5.16-5.96,7.64-9.32,7.64-2.36,0-4.28-1.48-4.28-3.52ZM114.45,496.35c1.16,0,2.08.88,2.08,2.08-.04,1.64-1.4,3-2.96,3-1.16,0-2.08-.92-2.08-2.12.04-1.64,1.4-2.96,2.96-2.96Z"/>
      <path class="cls-3" d="M117.49,512.51c2.08-3.16,3.96-6.64,5.36-9.76h6.12c-1.72,2.12-.84,4.2-.12,5.8.64,1.4,1.6,3.08,1.6,5.32v.44c1.96-.36,3.04-1.68,4.08-3.36l2.48,1.28c-1.44,2.6-3.68,4.72-7.12,4.72h-.4c-1.12,1.68-3.24,2.8-5.88,2.8-4.84,0-6.6-4.04-6.12-7.24ZM123.09,516.79c.72,0,1.36-.24,1.84-.6-1.88-.64-3.4-1.52-4.52-2.28.2,1.76,1.16,2.88,2.68,2.88ZM126.21,514.03c.04-.16.04-.32.04-.48,0-2.08-1.4-4.32-1.8-6.64-1.2,1.88-2.44,3.72-3.12,4.76,1.32.96,2.88,1.88,4.88,2.36Z"/>
      <path class="cls-3" d="M142.29,487.99h4.88l-5.92,16.76c-.4,1.08-.76,2.2-1.16,3.28,2.32-3.16,4.76-5.12,7.36-5.12,3.16,0,4.24,2.32,2.84,5.88-2.28,5.8-2.44,7.56-.96,7.56s3.24-2.32,5.2-5.4l2.48,1.28c-2.8,4.68-6.16,7.64-9.48,7.64-3.76,0-4.76-3.24-2.68-8.76,1.56-4.12,1.8-5.32.88-5.32-1.12,0-3.16,2.28-5.16,5.6-1.44,2.4-2.88,5.36-3.92,8.36h-4.56l10.2-31.75Z"/>
      <path class="cls-3" d="M165.88,530.19c0-1.48,1.04-3.88,3.36-6.16,1.16-1.16,3.24-2.36,5.6-3.68.28-.88.56-1.84.84-2.84-1.32,1.56-2.68,2.36-4.12,2.36-2.76,0-4.4-1.48-4.4-3.52,0-2.44,1-4.96,3.52-13.16h4.36c-1.16,3.36-3.52,10-3.52,11.88,0,.8.4,1.28,1.04,1.28,2.44,0,4.8-4.8,7.28-13.16h4.48c-.2.8-1.32,4.04-3.44,11.24l-.84,2.88c1.08-.68,2.08-1.4,3.04-2.16,1.68-1.32,2.88-3,3.64-4.2l2.48,1.28c-.92,1.64-2.52,3.56-4.16,4.88-1.76,1.4-3.92,2.56-6.04,3.68-2.68,8.6-4.8,12.8-9.44,12.8-2.08,0-3.68-1.44-3.68-3.4ZM170,530.47c1.16,0,2.16-1.68,3.88-7-1.24.76-2.32,1.56-3.12,2.4-1.2,1.32-1.76,2.44-1.8,3.36-.04.56.36,1.24,1.04,1.24Z"/>
      <path class="cls-3" d="M186.79,513.43c0-5.16,4.04-10.36,9.04-10.36,3.84,0,6.28,2.2,6.28,5.96,0,.96-.12,1.92-.36,2.84.04.92.6,1.52,1.56,1.52,1.08,0,2.36-1.76,2.76-2.44l2.48,1.28c-1.32,2.24-3.24,4.28-5.36,4.28-1.24,0-2.24-.44-2.92-1.16-1.64,2.64-4.24,4.52-7.2,4.52-3.8,0-6.28-2.4-6.28-6.44ZM193.19,516.35c2.4,0,4.28-5.16,4.28-8.6,0-1.36-.44-2.28-1.52-2.28-2.44,0-4.44,5.48-4.44,8.48,0,1.32.6,2.4,1.68,2.4Z"/>
      <path class="cls-3" d="M205.39,516.35c0-2.44,1-4.96,3.52-13.16h4.44c-1.16,3.36-3.52,10-3.52,11.88,0,.8.4,1.28,1.04,1.28,2.24,0,5-4.8,7.48-13.16h4.36c-1.04,3.32-3.88,10.48-3.88,11.88,0,.8.4,1.28,1.04,1.28,2.36,0,4.88-3.76,5.92-5.36l2.48,1.24c-3.12,5.16-5.96,7.64-9.56,7.64-1.92,0-3.8-1.2-4.16-2.88-1.52,1.92-3.12,2.88-4.88,2.88-2.56,0-4.28-1.48-4.28-3.52Z"/>
      <path class="cls-3" d="M247.45,516.67c-1.52,2.16-3.08,3.2-4.76,3.2-2.56,0-4.28-1.48-4.28-3.52,0-2.44,1-4.96,3.52-13.16h4.44c-1.16,3.36-3.52,10-3.52,11.88,0,.8.4,1.28,1.04,1.28,2,0,4.08-3.76,6.24-10.48.28-.8.56-1.72.84-2.68h4.44c-1.16,3.36-3.52,10-3.52,11.88,0,.8.4,1.28,1.04,1.28,1.84,0,4.6-4.8,7.08-13.16h3.68c-.12.4-.28.8-.4,1.2-.76,2.32-1.12,4.36-1.08,5.92,0,1.92.6,3.08,2.04,3.08,1.08,0,1.84-1.16,2.64-2.44l2.48,1.28c-1.68,2.88-3.56,4.28-5.52,4.28-1.84,0-3.48-.92-4.32-2.92-2.24,4.24-4.52,6.28-7.4,6.28s-4.52-1.32-4.68-3.2Z"/>
      <path class="cls-3" d="M266.97,513.91c0-6.68,4.72-10.84,8.6-10.84,2.88,0,4.56,1.4,4.56,3.76,0,1.64-.8,3.56-2.32,4.84-2.08,1.72-4.16,2.56-6.04,2.76.36,1.4,1.32,1.92,2.76,1.92,3,0,6.36-1.64,8.72-5.4l2.48,1.28c-3.76,5.72-7.92,7.64-12.12,7.64s-6.64-2.2-6.64-5.96ZM275.53,510.03c1.12-1,1.64-2.36,1.6-3.52-.04-.6-.44-1.04-1.08-1.04-2.08,0-3.88,3.36-4.32,6.4,1.32-.24,2.68-.84,3.8-1.84Z"/>
      <path class="cls-3" d="M289.68,515.95c0-2.08.72-5.04,2.64-9.36-1.24-.12-2.36-.4-3.28-.76-.68,2.52-2.04,5.08-2.8,6.4-.16.28-1.4,2.2-2.64,3.16l-1.84-1.6c.72-.84,1.32-1.76,2.04-3.16,1.24-2.36,1.6-4.64,1.56-8.4l4.28-.96c1.12,1.6,3.44,2.72,6.68,2.72.64,0,1.2-.04,1.84-.08-3.36,6.08-4.04,9.88-4.04,11.12,0,.68.36,1.32,1.12,1.32,1.44,0,3.4-2.32,5.36-5.4l2.48,1.28c-3.12,5.16-6.04,7.64-8.88,7.64-2.52,0-4.52-1.4-4.52-3.92Z"/>
      <path class="cls-3" d="M300.68,513.91c0-6.68,4.72-10.84,8.6-10.84,2.88,0,4.56,1.4,4.56,3.76,0,1.64-.8,3.56-2.32,4.84-2.08,1.72-4.16,2.56-6.04,2.76.36,1.4,1.32,1.92,2.76,1.92,3,0,6.36-1.64,8.72-5.4l2.48,1.28c-3.76,5.72-7.92,7.64-12.12,7.64s-6.64-2.2-6.64-5.96ZM309.24,510.03c1.12-1,1.64-2.36,1.6-3.52-.04-.6-.44-1.04-1.08-1.04-2.08,0-3.88,3.36-4.32,6.4,1.32-.24,2.68-.84,3.8-1.84Z"/>
      <path class="cls-3" d="M338.03,487.99h4.88l-5.92,16.76c-.4,1.08-.76,2.2-1.16,3.28,2.32-3.16,4.76-5.12,7.36-5.12,3.16,0,4.24,2.32,2.84,5.88-2.28,5.8-2.44,7.56-.96,7.56s3.24-2.32,5.2-5.4l2.48,1.28c-2.8,4.68-6.16,7.64-9.48,7.64-3.76,0-4.76-3.24-2.68-8.76,1.56-4.12,1.8-5.32.88-5.32-1.12,0-3.16,2.28-5.16,5.6-1.44,2.4-2.88,5.36-3.92,8.36h-4.56l10.2-31.75Z"/>
      <path class="cls-3" d="M350.34,513.91c0-6.68,4.72-10.84,8.6-10.84,2.88,0,4.56,1.4,4.56,3.76,0,1.64-.8,3.56-2.32,4.84-2.08,1.72-4.16,2.56-6.04,2.76.36,1.4,1.32,1.92,2.76,1.92,3,0,6.36-1.64,8.72-5.4l2.48,1.28c-3.76,5.72-7.92,7.64-12.12,7.64s-6.64-2.2-6.64-5.96ZM358.9,510.03c1.12-1,1.64-2.36,1.6-3.52-.04-.6-.44-1.04-1.08-1.04-2.08,0-3.88,3.36-4.32,6.4,1.32-.24,2.68-.84,3.8-1.84Z"/>
      <path class="cls-3" d="M373.06,515.95c0-2.08.72-5.04,2.64-9.36-1.24-.12-2.36-.4-3.28-.76-.68,2.52-2.04,5.08-2.8,6.4-.16.28-1.4,2.2-2.64,3.16l-1.84-1.6c.72-.84,1.32-1.76,2.04-3.16,1.24-2.36,1.6-4.64,1.56-8.4l4.28-.96c1.12,1.6,3.44,2.72,6.68,2.72.64,0,1.2-.04,1.84-.08-3.36,6.08-4.04,9.88-4.04,11.12,0,.68.36,1.32,1.12,1.32,1.44,0,3.4-2.32,5.36-5.4l2.48,1.28c-3.12,5.16-6.04,7.64-8.88,7.64-2.52,0-4.52-1.4-4.52-3.92Z"/>
      <path class="cls-3" d="M384.05,513.91c0-6.68,4.72-10.84,8.6-10.84,2.88,0,4.56,1.4,4.56,3.76,0,1.64-.8,3.56-2.32,4.84-2.08,1.72-4.16,2.56-6.04,2.76.36,1.4,1.32,1.92,2.76,1.92,3,0,6.36-1.64,8.72-5.4l2.48,1.28c-3.76,5.72-7.92,7.64-12.12,7.64s-6.64-2.2-6.64-5.96ZM392.61,510.03c1.12-1,1.64-2.36,1.6-3.52-.04-.6-.44-1.04-1.08-1.04-2.08,0-3.88,3.36-4.32,6.4,1.32-.24,2.68-.84,3.8-1.84Z"/>
      <path class="cls-3" d="M418.68,514.79c1.16,0,2.08.88,2.08,2.08-.04,1.64-1.28,3-2.96,3-1.16,0-2.08-.92-2.08-2.12.04-1.64,1.28-2.96,2.96-2.96ZM426.6,483.71h5.24l-10.32,28.24h-3.48l8.56-28.24Z"/>
    </g>
    <polygon class="cls-2" points="11.03 84.6 310.68 84.6 290.43 164.74 48.42 164.74 11.03 84.6"/>
    <g>
      <path class="cls-3" d="M57.4,137.4c-.95,0-1.57.95-1.97,1.93l-.13.39h-4.23l9.76-26.67h4.23l-8.03,21.92c.26-.1.49-.16.75-.16,2.56,0,2.16,2.36,4.16,2.36,3.9,0,8.98-8.58,9.14-17.82.1-5.24-1.87-8.19-6.03-8.19-3.47,0-6.55,2-8.22,4.06-2.55,3.18-3.47,6.39-2.92,9.99l-3.01,1.57c-2.16-3.77-.82-8.91,2.98-13.1,2.13-2.36,6.19-4.55,11.43-4.55,6.78,0,10.09,4.36,9.93,11.47-.2,8.09-5.54,19.56-12.78,19.56-3.87,0-3.41-2.75-5.08-2.75Z"/>
      <path class="cls-3" d="M74.53,133.96c0-3.15,1.97-5.83,5.11-7.17-1.11-.66-1.67-1.67-1.67-2.92,0-2.78,2.72-4.88,6.52-4.88,4,0,5.21,2.26,4.91,3.31l-2.79.33c.07-.59-.26-1.61-1.64-1.61-1.87,0-3.18,1.54-3.18,3.08,0,1.05.79,1.74,2.13,1.77h.46c.13,0,.23-.03.33-.03l-.13,1.93c-3.54.13-6,2.26-6,5.57,0,2.03,1.44,3.47,4.23,3.47,3.5,0,6-2.72,5.96-6.45-.75.1-1.44.26-2.03.62-1.54.98-1.7,2.39-1.11,3.08l-1.54.95c-1.83-2.46-.92-5.44.79-6.49,1.9-1.15,4.75-1.08,5.9-2.03,1.18-1.02.88-2.36.29-3.18l1.7-.85c1.34,1.87,1.97,5.34-.23,6.95-.43.29-.92.49-1.47.62.46,5.7-3.24,9.8-8.98,9.8-5.01,0-7.57-2.36-7.57-5.86Z"/>
      <path class="cls-3" d="M106.74,128.32h-4.29c-.26.39-.46.75-.69,1.08-5.24,8.26-8.52,10.88-11.4,10.88l-.59-3.11c1.87-.07,5.24-1.87,9.79-8.85h-3.8v-2.16h5.21c2.78-4.36,5.7-9.11,9.37-16.58h4.65c-.26,1.47-.85,3.21-1.28,4.98-.75,3.01-1.77,7.27-2.59,11.6h5.27v2.16h-5.67c-.82,4.62-1.34,9.11-1.05,12.06h-4.23c-.13-3.21.43-7.57,1.28-12.06ZM107.16,126.16c.75-3.57,1.61-7.14,2.39-10.12-1.87,3.41-4,7.11-5.8,10.12h3.41Z"/>
      <path class="cls-3" d="M123.54,137.4c-.95,0-1.57.95-1.97,1.93l-.13.39h-4.23l9.76-26.67h4.23l-8.03,21.92c.26-.1.49-.16.75-.16,2.56,0,2.16,2.36,4.16,2.36,3.9,0,8.98-8.58,9.14-17.82.1-5.24-1.87-8.19-6.03-8.19-3.47,0-6.55,2-8.22,4.06-2.55,3.18-3.47,6.39-2.92,9.99l-3.01,1.57c-2.16-3.77-.82-8.91,2.98-13.1,2.13-2.36,6.19-4.55,11.43-4.55,6.78,0,10.09,4.36,9.93,11.47-.2,8.09-5.54,19.56-12.78,19.56-3.87,0-3.41-2.75-5.08-2.75Z"/>
      <path class="cls-3" d="M153.45,133.63l2.82-.03c-.1,2.36,1.34,3.64,3.67,3.64s3.96-1.34,3.96-3.7c0-1.9-.98-3.21-2.56-5.21-1.54-1.97-4.52-4.68-4.52-8.98,0-5.54,4.23-10.22,9.96-10.22,3.77,0,6,2.19,6,5.73,0,1.97-.49,3.87-1.57,5.63l-2.75-1.47c.72-1.21,1.38-2.82,1.38-4.52,0-2.33-1.18-3.34-2.88-3.34-2.29,0-5.9,3.01-5.9,7.8,0,3.41,2.69,5.96,4.26,7.93,1.54,1.93,2.82,3.96,2.82,6.39,0,3.77-3.34,7.04-7.86,7.04s-7.34-2.88-6.81-6.68Z"/>
      <path class="cls-3" d="M177.37,113.71h4l-4.85,13.73c-.33.88-.62,1.8-.95,2.69,1.9-2.59,3.9-4.19,6.03-4.19,2.59,0,3.47,1.9,2.33,4.82-1.87,4.75-2,6.19-.79,6.19s2.65-1.9,4.26-4.42l2.03,1.05c-2.29,3.83-5.04,6.26-7.76,6.26-3.08,0-3.9-2.65-2.19-7.17,1.28-3.37,1.47-4.36.72-4.36-.92,0-2.59,1.87-4.23,4.59-1.18,1.97-2.36,4.39-3.21,6.85h-3.74l8.35-26.01Z"/>
      <path class="cls-3" d="M187.46,134.55c0-4.23,3.31-8.48,7.4-8.48,3.15,0,5.14,1.8,5.14,4.88,0,.79-.1,1.57-.29,2.33.03.75.49,1.25,1.28,1.25.88,0,1.93-1.44,2.26-2l2.03,1.05c-1.08,1.83-2.65,3.51-4.39,3.51-1.02,0-1.83-.36-2.39-.95-1.34,2.16-3.47,3.7-5.9,3.7-3.11,0-5.14-1.97-5.14-5.27ZM192.7,136.94c1.97,0,3.51-4.23,3.51-7.04,0-1.11-.36-1.87-1.25-1.87-2,0-3.64,4.49-3.64,6.95,0,1.08.49,1.97,1.38,1.97Z"/>
      <path class="cls-3" d="M208.52,136.61c0-1.7.59-4.13,2.16-7.67-1.02-.1-1.93-.33-2.69-.62-.56,2.06-1.67,4.16-2.29,5.24-.13.23-1.15,1.8-2.16,2.59l-1.51-1.31c.59-.69,1.08-1.44,1.67-2.59,1.02-1.93,1.31-3.8,1.28-6.88l3.5-.79c.92,1.31,2.82,2.23,5.47,2.23.52,0,.98-.03,1.51-.07-2.75,4.98-3.31,8.09-3.31,9.11,0,.56.29,1.08.92,1.08,1.18,0,2.78-1.9,4.39-4.42l2.03,1.05c-2.56,4.23-4.95,6.26-7.27,6.26-2.06,0-3.7-1.15-3.7-3.21Z"/>
      <path class="cls-3" d="M217.07,136.35c0-1.38.88-4.32,2.23-8.42h-1.7v-1.77h2.29c1.18-3.54,2.62-7.73,4.09-12.45h3.74c-1.18,3.57-2.85,8.26-4.29,12.45h3.9v1.77h-4.49c-1.28,3.83-2.26,6.98-2.26,7.96,0,.66.33,1.05,1.02,1.05,2.75,0,5.18-3.08,6.03-4.42l2.03,1.05c-2.56,4.23-5.57,6.26-8.81,6.26-2.26,0-3.77-1.02-3.77-3.47Z"/>
      <path class="cls-3" d="M227.82,131.83c.52-3.47,2.29-11.86,5.14-16.97,1.64-2.92,3.31-4.32,5.08-4.32,1.31,0,2.46.98,2.46,2.46,0,2.85-1.54,7.47-4.23,12.61-1.74,3.34-3.9,6.42-5.14,8.42-.03,1.83.59,2.82,1.67,2.82,2.06,0,3.57-1.8,5.18-4.32l2.03,1.05c-2.26,3.7-4.23,6.26-7.7,6.26s-5.27-2.72-4.49-7.99ZM235.45,123.11c2-3.9,3.15-8.29,3.15-9.93,0-.23-.13-.39-.36-.39-.69,0-3.83,5.34-6.36,16.74,1.05-1.74,2.33-4,3.57-6.42Z"/>
      <path class="cls-3" d="M237.29,136.94c0-2,.98-4.06,3.05-10.78h3.73c-.95,2.72-3.14,8.58-3.14,9.73,0,.66.33,1.05.85,1.05,1.7,0,3.77-3.08,4.62-4.42l2.03,1.05c-2.56,4.23-4.88,6.26-7.63,6.26-1.93,0-3.51-1.21-3.51-2.88ZM243.48,120.56c.95,0,1.7.72,1.7,1.7-.03,1.34-1.15,2.46-2.42,2.46-.95,0-1.7-.75-1.7-1.74.03-1.34,1.15-2.42,2.42-2.42Z"/>
      <path class="cls-3" d="M245.97,133.79c1.7-2.59,3.24-5.44,4.39-7.99h5.01c-1.41,1.74-.69,3.44-.1,4.75.52,1.15,1.31,2.52,1.31,4.36v.36c1.61-.29,2.49-1.38,3.34-2.75l2.03,1.05c-1.18,2.13-3.01,3.87-5.83,3.87h-.33c-.92,1.38-2.65,2.29-4.82,2.29-3.96,0-5.41-3.31-5.01-5.93ZM250.55,137.3c.59,0,1.11-.2,1.51-.49-1.54-.52-2.78-1.24-3.7-1.87.16,1.44.95,2.36,2.2,2.36ZM253.11,135.04c.03-.13.03-.26.03-.39,0-1.7-1.15-3.54-1.47-5.44-.98,1.54-2,3.05-2.56,3.9,1.08.79,2.36,1.54,4,1.93Z"/>
      <path class="cls-3" d="M259.53,136.35c0-1.38.88-4.32,2.23-8.42h-1.7v-1.77h2.29c1.18-3.54,2.62-7.73,4.09-12.45h3.74c-1.18,3.57-2.85,8.26-4.29,12.45h3.9v1.77h-4.49c-1.28,3.83-2.26,6.98-2.26,7.96,0,.66.33,1.05,1.02,1.05,2.75,0,5.18-3.08,6.03-4.42l2.03,1.05c-2.56,4.23-5.57,6.26-8.81,6.26-2.26,0-3.77-1.02-3.77-3.47Z"/>
      <path class="cls-3" d="M274.21,135.66c.95,0,1.7.72,1.7,1.7-.03,1.34-1.05,2.46-2.42,2.46-.95,0-1.7-.75-1.7-1.74.03-1.34,1.05-2.42,2.42-2.42ZM280.69,110.2h4.29l-8.45,23.13h-2.85l7.01-23.13Z"/>
    </g>
    <g>
      <path class="cls-7" d="M855.23,331.72c.55-1.1,1.14-1.88,1.57-2.77.39-.8-.5-2.16,1.48-2.53,2.76-.52,4.09,1.26,4.38,3.74,2.36,20.34-8.63,54.53-15.63,74.09-12.91,36.06-30.29,70.33-60.52,94.74-6.56,5.3-6.8,6.7-12,12.74-27.01,31.36-87.65,43-124.87,25.88-9.95-4.57-20.4-13.08-23.29-24.04-16.72,7.4-35.15,10.6-53.07,14.04-7.54,1.44-17.12,3.99-24.56,4.51-15.72,1.1-3.87-13.27.43-19.36,20.46-28.96,57.97-50.56,60.5-88.58,1.39-20.89-4.54-46.5,10.51-63.72,7.9-9.04,21.3-13,32.81-9.27,21.77,7.04,33.47,12.37,57.63,8.16,21.75-3.79,56.48-26.11,71.75-.22,5.13,8.71,4.46,18.52,3.91,28.25,19.36-9.9,35.93-24.48,51.66-39.27,4.08-3.84,11.83-13.33,15.76-15.82.57-.36.85-.52,1.55-.58-2.71,5.46-8.9,11.98-13.29,16.71-13.42,14.47-34.55,34.92-51.86,44.02-2.61,1.37-10.17,6.39-11.23,1.21.46-13.49,4.56-31.38-11.04-37.92-6.22-2.61-10.3-1.69-16.63-.33-27.66,5.96-40.52,16.53-71.64,9.41-15.7-3.59-26.22-13.69-42.68-8.67-28.99,8.83-20.13,45.26-21.65,68.04-2.84,42.58-40.87,62.3-62.97,94.15-.62.9-5.03,7.1-4.44,7.61,17.6-2.04,35.28-5.59,52.58-9.58,4.19-.96,31.48-8.85,32.77-7.74.62,2.18-5.67,4.27-5.56,4.63,17.19,25.96,52.33,28.33,80.52,23.63,22.39-3.74,48.08-15.48,63-32.88,1.46-1.71,6.27-9.61,6.78-9.92,2.25-1.38,6.42-.24,6.5,2.79,29.24-26,46.49-63.71,58.63-100.35,6.83-20.62,13.2-42.97,13.44-64.81-.41.02-.83-.03-1.23,0Z"/>
      <path class="cls-7" d="M745.14,371.32c.43.32,7.27-3.12,10.19.62,2.47,3.17-.81,7.43-.04,8.66.28.46,7.22,4.24,8.95,5.94,25.53,25.17,9.76,85.51-32.34,80.59-6.97-.81-18.7-7.83-20.8-14.78-1.01.26-1.04,1.81-1.84,2.79-7.66,9.39-17.05,3.44-22.58-4.63-10.46,17.08-30.64,24.53-47.62,11.11-24.5-19.38-27.09-60.81-2.48-81.62,1.42-1.2,4.61-2.58,5.51-3.77.79-1.04,1.36-4.17,2.64-4.94,2.56-1.52,6.24-.48,7.92,1.88,9.3-20.97,19.48,1.98,29.43,8.31,11.88,7.55,27.12,5.16,37.39-3.95,5.38-4.77,13.14-19.77,21.65-13.64,2.53,1.83,3.68,7.18,4.02,7.44ZM725.11,380.38c-15.49,15.3-37.97,15.05-53-.69-2.46-2.58-7.4-10.43-10.92-10.74-2.96-.26-5.1,10.18-8.04,10.96-2.3.61-2.9-3.77-4.52-4.59-3.24-1.63-4.48,3.35-5.92,5.23-6.25,8.14-13.42,14.6-16.52,24.92-9.18,30.55,22.27,79.76,53.07,46.27,2.61-2.83,4.87-9.28,9.93-6.23,1.23.74,3.31,4.88,5.21,6.54,5.37,4.69,9.71,3.9,14.89-.6,1.24-1.08.64-2.47,2.67-2.18,3.29.46,8.46,6.69,12.35,8.76,19.01,10.1,40.41-7.44,44.77-25.96,4-17.01.34-33.11-10.93-46.23-1.11-1.29-4.31-3.51-4.78-4.19-.69-.99-.94-4.93-1.49-5.31-2.1-1.46-8.57,4.7-10.93.1-1.47-2.87-.51-8.53-5.24-7.45-2.31.53-8.34,9.17-10.58,11.39Z"/>
      <path class="cls-7" d="M635.76,421.86c-1.45-1.06-.87-9.59-.59-11.73,2.67-19.97,26.06-27.97,40.99-14.71,10.38,9.22,11.68,28.26,7.27,40.71-.7,1.97-3.84,7.41-6.02,7.53-2.23.12-16.56-10.11-20.12-12.04-6.36-3.46-13.14-6.26-19.62-9.53-.77-.39-1.79-.12-1.92-.22ZM677.08,406.57c-4.92-11.99-18.39-14.97-29.26-8.53-7.55,4.47-10,13.44-11.57,21.52,7.1.46,13.75,3.35,20.41,5.57-.05-1.6-1.11-3.1-1.17-4.69-.22-5.94,3.51-5.73,5.78-9.57s.98-8.09,6.67-7.87c3.63.14,6.05,2.21,9.15,3.58Z"/>
      <path class="cls-7" d="M722.24,438.12c-.09-.08-.86.15-1.25-.42-4.61-6.84-5.04-23.1-2.48-30.84,8.41-25.46,48.51-24.24,48.94,6.21.01.85-.93,7.56-1.23,8.05-.52.85-2.86,2.56-3.83,3.02-4.47,2.12-12.05,2.97-17.41,4.86-2.41.85-5.15,1.98-7.49,3.02-2.32,1.03-13.83,7.57-14.86,7.38-.66-.12-.3-1.21-.38-1.28l6.24-5.82,13.92-8.39c.43-.68-2.41-6.76-2.27-8.99.12-2.01,3.31-4.61,3.65-7.57.33-2.82-2.66-7.93-.06-10.08l5.12-1.82c-10.6-1.33-23.58,4.25-26.56,15.19-2.55,9.35.21,18.11-.04,27.49Z"/>
    </g>
    <g>
      <g class="cls-5">
        <path class="cls-6" d="M788.18,131.28l1.13,14.36c.35,4.4-2.58,8.68-7.12,9.79l-1.13-14.36c4.54-1.11,7.46-5.39,7.12-9.79Z"/>
        <path class="cls-4" d="M781.06,141.07c-.37.09-.75.16-1.12.2-4.65.55-9.12-2.49-10.23-6.99-1.27-5.1,1.82-10.12,6.85-11.35.39-.09.77-.16,1.16-.21,4.64-.55,9.06,2.4,10.23,7.11,1.2,4.87-1.85,10.01-6.88,11.24Z"/>
        <path class="cls-6" d="M770.57,147.07l-1.13-14.36c.04.52.13,1.05.26,1.57,1.11,4.5,5.58,7.54,10.23,6.99.37-.04.75-.11,1.12-.2l1.13,14.36c-.37.09-.75.16-1.12.2-4.65.55-9.12-2.49-10.23-6.99-.13-.53-.22-1.05-.26-1.57Z"/>
      </g>
      <g class="cls-5">
        <path class="cls-6" d="M736.32,145.22l1.13,14.36c-.25-3.23-.93-6.62-1.74-9.91-2.69-10.84-7.23-21.88-18.17-20.59-.68.08-1.38.21-2.11.39-8.88,2.17-11.05,8.56-10.41,16.69l-1.13-14.36c-.64-8.13,1.53-14.52,10.41-16.69.73-.18,1.43-.31,2.11-.39,10.94-1.29,15.48,9.76,18.17,20.59.82,3.29,1.49,6.68,1.74,9.91Z"/>
        <path class="cls-6" d="M763.32,136.39l1.13,14.36c1.52,19.35-9.03,38.64-32.73,44.43-2.11.51-4.18.89-6.2,1.13-23.74,2.8-41.14-12.89-46.1-32.89-.64-2.57-1.06-5.17-1.26-7.77l-1.13-14.36c.2,2.6.63,5.2,1.26,7.77,4.96,20,22.36,35.69,46.1,32.89,2.02-.24,4.09-.61,6.2-1.13,23.69-5.79,34.25-25.08,32.73-44.43Z"/>
        <path class="cls-4" d="M762.06,128.6c5.39,21.7-4.58,45.64-31.46,52.21-2.11.51-4.18.89-6.2,1.13-23.74,2.8-41.14-12.89-46.1-32.89-5.38-21.7,4.58-45.65,31.46-52.21,2.11-.52,4.18-.89,6.2-1.13,23.74-2.8,41.14,12.88,46.1,32.89ZM726.06,162.55c12.48-3.05,11.37-15.73,8.52-27.24-2.69-10.84-7.23-21.88-18.17-20.59-.68.08-1.38.21-2.11.39-12.48,3.05-11.7,14.43-8.52,27.24,2.98,11.98,7.21,21.9,17.97,20.63.74-.09,1.51-.23,2.32-.42"/>
      </g>
      <g class="cls-5">
        <polygon class="cls-6" points="659.78 147.79 660.91 162.15 642.56 166.63 641.43 152.27 659.78 147.79"/>
        <path class="cls-6" d="M607.69,172.9l-1.13-14.36c-.88-11.25,3.81-17.06,10.17-18.61,1.36-.33,2.64-.56,3.86-.71,12.02-1.42,17.44,5.88,20.84,13.04l1.13,14.36c-3.4-7.17-8.82-14.46-20.84-13.04-1.22.14-2.5.38-3.86.71-6.35,1.55-11.05,7.36-10.17,18.61Z"/>
        <polygon class="cls-6" points="676.18 165.67 677.31 180.03 670.23 181.76 669.1 167.41 676.18 165.67"/>
        <path class="cls-6" d="M667.11,185.45l-1.13-14.36c-.13-1.68.98-3.17,3.12-3.69l1.13,14.36c-2.13.52-3.25,2.01-3.12,3.69Z"/>
        <polygon class="cls-6" points="630.82 176.75 631.95 191.11 626.91 192.34 625.79 177.98 630.82 176.75"/>
        <polygon class="cls-6" points="625.79 177.98 626.91 192.34 622.71 175.38 621.58 161.02 625.79 177.98"/>
        <path class="cls-6" d="M636.52,178.85l1.13,14.36c-.01-.15-.04-.3-.07-.45-.39-1.57-1.76-2.21-4.05-1.94-.48.06-1.01.15-1.57.29l-1.13-14.36c.56-.14,1.09-.24,1.57-.29,2.29-.27,3.66.37,4.05,1.94.04.15.06.3.07.45Z"/>
        <path class="cls-6" d="M653.42,196.52l1.13,14.36c-1.07-.82-2.11-1.09-3.14-.97-.17.02-.35.05-.52.09-.96.24-1.85.71-2.82,1.44l-1.13-14.36c.96-.73,1.86-1.2,2.82-1.44.17-.04.35-.07.52-.09,1.03-.12,2.06.16,3.14.97Z"/>
        <polygon class="cls-6" points="671.8 194.67 672.93 209.03 656.97 212.92 655.84 198.56 671.8 194.67"/>
        <polygon class="cls-6" points="655.84 198.56 656.97 212.92 654.55 210.88 653.42 196.52 655.84 198.56"/>
        <path class="cls-6" d="M580.87,180.31l-1.13-14.36c.18,2.32.55,4.62,1.12,6.9,5.31,21.39,23.71,35.49,44.86,32.99,1.72-.2,3.46-.52,5.21-.94,7.68-1.87,11.44-4.17,16.01-7.81l1.13,14.36c-4.57,3.64-8.33,5.94-16.01,7.81-1.75.43-3.49.74-5.21.94-21.15,2.49-39.56-11.6-44.86-32.99-.56-2.28-.93-4.58-1.12-6.9Z"/>
        <path class="cls-4" d="M650.84,111.73l8.94,36.06-18.35,4.49c-3.4-7.17-8.83-14.46-20.84-13.04-1.22.14-2.5.38-3.86.71-7.67,1.87-12.93,9.95-8.86,26.32,2.82,11.4,9.23,20.81,18.9,19.67.59-.07,1.19-.18,1.81-.33,3.12-.76,8.71-3.89,7.88-7.2-.39-1.57-1.76-2.21-4.05-1.94-.48.06-1.01.15-1.57.29l-5.04,1.23-4.21-16.96,50.4-12.31,4.21,16.97-7.08,1.73c-2.27.55-3.39,2.21-3.08,4.02l5.77,23.24-15.96,3.9-2.42-2.04c-1.07-.82-2.11-1.09-3.14-.97-.17.02-.35.05-.52.09-.96.24-1.85.71-2.82,1.44-4.57,3.64-8.33,5.94-16.01,7.81-1.75.43-3.49.74-5.21.94-21.15,2.49-39.56-11.6-44.86-32.99-5.32-21.47,6.68-45.91,30.2-51.65,2.79-.68,5.13-1.1,7.13-1.33,3.42-.4,5.8-.28,7.6-.09,1.79.19,3.01.45,4.09.32.17-.02.33-.05.49-.09,1.67-.41,2.73-1.8,2.59-3.91l17.88-4.37Z"/>
      </g>
      <g class="cls-5">
        <polygon class="cls-6" points="573.44 150.13 574.56 164.49 567.25 166.28 566.12 151.92 573.44 150.13"/>
        <path class="cls-6" d="M564.69,169.68l-1.13-14.36c-.12-1.51.92-3.01,2.55-3.4l1.13,14.36c-1.63.39-2.67,1.89-2.55,3.4Z"/>
        <polygon class="cls-6" points="532.64 160.1 533.77 174.45 529.21 156.07 528.08 141.71 532.64 160.1"/>
        <polygon class="cls-6" points="540.68 158.13 541.81 172.48 533.77 174.45 532.64 160.1 540.68 158.13"/>
        <path class="cls-6" d="M544.92,160.87l1.13,14.36c-.41-1.66-1.85-3.05-3.79-2.83-.15.02-.3.04-.45.08l-1.13-14.36c.15-.04.31-.06.45-.08,1.93-.23,3.38,1.17,3.79,2.83Z"/>
        <polygon class="cls-6" points="480.08 172.92 481.2 187.28 476.65 168.91 475.52 154.55 480.08 172.92"/>
        <polygon class="cls-6" points="488.48 170.88 489.61 185.24 481.2 187.28 480.08 172.92 488.48 170.88"/>
        <path class="cls-6" d="M492.6,173.14l1.13,14.36c-.37-1.53-1.92-2.55-3.65-2.35-.15.02-.31.05-.47.08l-1.13-14.36c.16-.04.31-.07.47-.08,1.74-.2,3.28.82,3.65,2.35Z"/>
        <polygon class="cls-6" points="474.8 174.22 475.93 188.58 467.65 190.59 466.52 176.23 474.8 174.22"/>
        <path class="cls-6" d="M465.18,194.27l-1.13-14.36c-.13-1.6.68-3.24,2.47-3.67l1.13,14.36c-1.79.44-2.59,2.08-2.47,3.67Z"/>
        <polygon class="cls-6" points="427.64 185.73 428.76 200.09 424.2 181.7 423.08 167.34 427.64 185.73"/>
        <polygon class="cls-6" points="435.8 183.74 436.93 198.1 428.76 200.09 427.64 185.73 435.8 183.74"/>
        <path class="cls-6" d="M439.92,186l1.13,14.36c-.37-1.53-1.92-2.55-3.65-2.35-.15.02-.31.05-.47.08l-1.13-14.36c.16-.04.31-.07.47-.08,1.74-.2,3.28.82,3.65,2.35Z"/>
        <polygon class="cls-6" points="550.33 182.69 551.46 197.05 546.05 175.23 544.92 160.87 550.33 182.69"/>
        <polygon class="cls-6" points="393.56 194.06 394.69 208.42 387.61 210.14 386.48 195.78 393.56 194.06"/>
        <path class="cls-6" d="M384.45,213.68l-1.13-14.36c-.13-1.6,1.09-3.04,3.15-3.54l1.13,14.36c-2.07.5-3.28,1.94-3.15,3.54Z"/>
        <polygon class="cls-6" points="346.52 205.54 347.65 219.9 343.09 201.51 341.96 187.15 346.52 205.54"/>
        <polygon class="cls-6" points="354.68 203.54 355.81 217.9 347.65 219.9 346.52 205.54 354.68 203.54"/>
        <path class="cls-6" d="M358.8,205.81l1.13,14.36c-.37-1.52-1.92-2.55-3.66-2.35-.15.02-.31.05-.47.08l-1.13-14.36c.16-.04.31-.07.47-.08,1.74-.2,3.28.83,3.66,2.35Z"/>
        <polygon class="cls-6" points="502.43 212.76 503.56 227.12 493.73 187.5 492.6 173.14 502.43 212.76"/>
        <path class="cls-6" d="M502.55,213.48l1.13,14.36c-.02-.24-.06-.48-.12-.73l-1.13-14.36c.06.24.1.48.12.73Z"/>
        <path class="cls-6" d="M412.9,222.86l1.13,14.36c-.08-1.07-.26-2.14-.52-3.21l-1.13-14.36c.27,1.07.44,2.15.52,3.21Z"/>
        <polygon class="cls-6" points="449.75 225.62 450.88 239.98 441.05 200.36 439.92 186 449.75 225.62"/>
        <path class="cls-6" d="M449.87,226.35l1.13,14.36c-.02-.24-.06-.48-.12-.73l-1.13-14.36c.06.24.1.49.12.73Z"/>
        <polygon class="cls-6" points="578.91 217.35 580.04 231.71 558.09 237.07 556.96 222.72 578.91 217.35"/>
        <polygon class="cls-6" points="556.96 222.72 558.09 237.07 515.32 196.57 514.2 182.21 556.96 222.72"/>
        <path class="cls-6" d="M326.05,245.4l1.13,14.36c-.25-3.23-.93-6.62-1.74-9.91-2.69-10.83-7.24-21.88-18.17-20.59-.68.08-1.38.21-2.11.39-8.88,2.17-11.05,8.57-10.41,16.69l-1.13-14.36c-.64-8.12,1.53-14.52,10.41-16.69.73-.18,1.43-.31,2.11-.39,10.93-1.29,15.49,9.76,18.17,20.59.82,3.29,1.49,6.68,1.74,9.91Z"/>
        <polygon class="cls-6" points="368.75 245.91 369.88 260.26 359.93 220.17 358.8 205.81 368.75 245.91"/>
        <path class="cls-6" d="M368.83,246.37l1.13,14.36c-.01-.16-.04-.31-.08-.47l-1.13-14.36c.04.16.06.31.08.47Z"/>
        <polygon class="cls-6" points="496.11 237.57 497.24 251.93 492.68 233.54 491.55 219.18 496.11 237.57"/>
        <path class="cls-4" d="M568.88,131.75l4.56,18.39-7.32,1.79c-1.8.44-2.88,2.21-2.48,3.88l15.27,61.55-21.96,5.37-42.76-40.51,6.59,26.57c.39,1.59,1.95,2.5,3.92,2.27.22-.03.46-.07.69-.13l8.16-1.99,4.56,18.39-41.99,10.26-4.56-18.39,8.39-2.05c2.17-.53,2.95-2.48,2.48-4.38l-9.83-39.62c-.37-1.53-1.92-2.55-3.65-2.35-.15.02-.31.05-.47.08l-8.4,2.05-4.56-18.38,35.88-8.77,38.94,36.91-5.41-21.82c-.41-1.66-1.85-3.05-3.79-2.83-.15.02-.3.04-.45.08l-8.04,1.97-4.56-18.39,40.8-9.96Z"/>
        <polygon class="cls-6" points="538.11 227.31 539.24 241.67 497.24 251.93 496.11 237.57 538.11 227.31"/>
        <path class="cls-4" d="M470.24,155.83l4.56,18.39-8.28,2.02c-2.04.5-2.8,2.57-2.36,4.35l9.83,39.62c.37,1.52,1.82,2.57,3.54,2.37.15-.02.3-.05.46-.08l8.29-2.02,4.56,18.38-47.16,11.52-4.56-18.39,8.16-1.99c2.17-.52,2.95-2.48,2.48-4.38l-9.83-39.62c-.37-1.53-1.92-2.55-3.65-2.35-.15.02-.31.05-.47.08l-8.16,1.99-4.56-18.39,47.17-11.51Z"/>
        <polygon class="cls-6" points="490.84 238.86 491.97 253.21 444.8 264.73 443.67 250.38 490.84 238.86"/>
        <polygon class="cls-6" points="443.67 250.38 444.8 264.73 440.24 246.35 439.11 231.99 443.67 250.38"/>
        <polygon class="cls-6" points="362.56 270.18 363.68 284.54 359.12 266.16 358 251.8 362.56 270.18"/>
        <polygon class="cls-6" points="438.4 251.66 439.53 266.02 363.68 284.54 362.56 270.18 438.4 251.66"/>
        <path class="cls-4" d="M389,175.67l4.56,18.39-7.08,1.72c-2.27.55-3.51,2.24-3.07,4.03l9.95,40.09c.39,1.59,1.95,2.5,3.92,2.27.22-.03.46-.07.69-.13l3.12-.76c8.53-2.08,13.69-12.03,11.31-21.63l17.04-4.16,8.98,36.17-75.84,18.52-4.56-18.39,8.16-1.99c1.92-.47,3.01-2.24,2.6-3.9l-9.95-40.1c-.37-1.52-1.92-2.55-3.66-2.35-.15.02-.31.05-.47.08l-8.16,1.99-4.56-18.39,47.04-11.48Z"/>
        <path class="cls-6" d="M353.04,236.55l1.13,14.36c1.52,19.36-9.03,38.66-32.73,44.44-2.11.52-4.18.89-6.2,1.13-23.74,2.8-41.13-12.88-46.09-32.89-.64-2.57-1.06-5.18-1.27-7.78l-1.13-14.36c.2,2.6.63,5.21,1.27,7.78,4.96,20.01,22.35,35.69,46.09,32.89,2.02-.24,4.09-.61,6.2-1.13,23.7-5.78,34.25-25.08,32.73-44.44Z"/>
        <path class="cls-4" d="M351.78,228.79c5.38,21.7-4.59,45.65-31.47,52.21-2.11.52-4.18.89-6.2,1.13-23.74,2.8-41.13-12.88-46.09-32.89-5.39-21.7,4.58-45.64,31.46-52.21,2.11-.51,4.18-.89,6.2-1.13,23.74-2.8,41.13,12.89,46.1,32.89ZM315.78,262.73c12.48-3.05,11.37-15.73,8.52-27.24-2.69-10.83-7.24-21.88-18.17-20.59-.68.08-1.38.21-2.11.39-12.48,3.05-11.7,14.43-8.52,27.24,2.97,11.99,7.21,21.9,17.96,20.63.74-.09,1.51-.23,2.32-.42"/>
      </g>
      <g class="cls-5">
        <polygon class="cls-6" points="260.6 226.52 261.73 240.88 255.61 242.37 254.48 228.01 260.6 226.52"/>
        <path class="cls-6" d="M252.54,246.2l-1.13-14.36c-.14-1.75.94-3.31,3.07-3.83l1.13,14.36c-2.13.52-3.2,2.08-3.07,3.83Z"/>
        <polygon class="cls-6" points="222.68 235.78 223.81 250.14 219.25 231.76 218.12 217.4 222.68 235.78"/>
        <polygon class="cls-6" points="228.21 234.44 229.33 248.79 223.81 250.14 222.68 235.78 228.21 234.44"/>
        <polygon class="cls-6" points="220.53 236.31 221.65 250.67 217.57 251.66 216.44 237.3 220.53 236.31"/>
        <path class="cls-6" d="M232.92,237.05l1.13,14.36c-.45-1.83-2-2.98-4.07-2.73-.21.02-.42.06-.64.12l-1.13-14.36c.22-.05.43-.09.64-.12,2.08-.24,3.62.91,4.07,2.73Z"/>
        <path class="cls-6" d="M214.41,255.2l-1.13-14.36c-.13-1.6,1.08-3.04,3.15-3.54l1.13,14.36c-2.07.5-3.28,1.94-3.15,3.54Z"/>
        <polygon class="cls-6" points="176.72 247 177.84 261.36 173.28 242.98 172.16 228.62 176.72 247"/>
        <polygon class="cls-6" points="185.24 244.92 186.37 259.28 177.84 261.36 176.72 247 185.24 244.92"/>
        <path class="cls-6" d="M189.36,247.19l1.13,14.36c-.37-1.53-1.92-2.55-3.65-2.35-.15.02-.31.05-.47.08l-1.13-14.36c.16-.04.31-.07.47-.08,1.74-.2,3.28.82,3.65,2.35Z"/>
        <polygon class="cls-6" points="96.44 266.6 97.57 280.96 89.65 282.9 88.52 268.54 96.44 266.6"/>
        <polygon class="cls-6" points="88.52 268.54 89.65 282.9 85.09 264.52 83.96 250.16 88.52 268.54"/>
        <path class="cls-6" d="M100.57,268.87l1.13,14.36c-.38-1.53-1.92-2.55-3.65-2.35-.15.02-.31.05-.47.08l-1.13-14.36c.16-.04.31-.07.47-.08,1.74-.2,3.27.82,3.65,2.35Z"/>
        <polygon class="cls-6" points="241.48 271.57 242.61 285.93 234.05 251.41 232.92 237.05 241.48 271.57"/>
        <path class="cls-6" d="M241.88,273.9l1.13,14.36c-.06-.71-.18-1.49-.39-2.33l-1.13-14.36c.21.84.34,1.61.39,2.33Z"/>
        <polygon class="cls-6" points="198.02 282.06 199.15 296.42 190.49 261.55 189.36 247.19 198.02 282.06"/>
        <path class="cls-6" d="M151.6,289.34l1.13,14.36c-.24-3.07-.92-6.75-2.02-11.18-4.09-16.47-8.43-21.08-17.55-20-1.32.16-2.73.43-4.27.8-2.07.5-3.28,1.94-3.16,3.52l-1.13-14.36c-.12-1.59,1.09-3.02,3.16-3.52,1.53-.37,2.95-.65,4.27-.8,9.11-1.07,13.46,3.53,17.55,20,1.1,4.43,1.78,8.11,2.02,11.18Z"/>
        <polygon class="cls-6" points="110.39 308.49 111.52 322.85 101.69 283.23 100.57 268.87 110.39 308.49"/>
        <path class="cls-6" d="M110.51,309.21l1.13,14.36c-.02-.24-.06-.48-.12-.72l-1.13-14.36c.06.24.1.48.12.72Z"/>
        <path class="cls-6" d="M261.18,273.64l1.13,14.36c1.16,14.76-7.61,23.91-23.96,27.9-2.38.58-4.75,1.02-7.09,1.3-14.54,1.71-27.7-3-32.11-20.78l-1.13-14.36c4.41,17.77,17.57,22.49,32.11,20.78,2.34-.28,4.71-.72,7.09-1.3,16.36-3.99,25.12-13.15,23.96-27.9Z"/>
        <path class="cls-4" d="M256.04,208.14l4.56,18.39-6.12,1.49c-2.4.59-3.46,2.49-2.95,4.5l8.53,34.39c4.66,18.74-4.12,30.07-22.84,34.64-2.38.58-4.75,1.02-7.09,1.3-14.54,1.71-27.7-3-32.11-20.78l-8.66-34.87c-.37-1.53-1.92-2.55-3.65-2.35-.15.02-.31.05-.47.08l-8.53,2.08-4.56-18.39,43.8-10.69,4.57,18.38-4.09.99c-2.28.56-3.51,2.24-3.07,4.03l8.68,34.99c1.49,6.01,4.52,7.25,8.71,6.76,1.02-.12,2.1-.34,3.25-.62,4.8-1.17,9.34-3.4,7.48-10.88l-8.56-34.52c-.45-1.83-2-2.98-4.07-2.73-.21.02-.42.06-.64.12l-5.52,1.34-4.56-18.38,37.92-9.27Z"/>
        <path class="cls-6" d="M178.21,281.38l1.13,14.36c1.86,23.63-13.07,37.01-28.77,40.84l-1.13-14.36c15.7-3.83,30.63-17.21,28.77-40.84Z"/>
        <polygon class="cls-6" points="149.44 322.22 150.57 336.58 105.45 347.6 104.32 333.24 149.44 322.22"/>
        <path class="cls-4" d="M176.58,271.57c7.38,29.77-9.39,46.32-27.14,50.65l-45.12,11.02-4.56-18.39,8.16-1.99c2.16-.52,2.95-2.48,2.48-4.38l-9.83-39.62c-.38-1.53-1.92-2.55-3.65-2.35-.15.02-.31.05-.47.08l-7.93,1.94-4.56-18.39,44.88-10.96c1.63-.4,3.29-.7,4.99-.9,16.78-1.98,36.04,6.22,42.75,33.27ZM139.23,305.22c12.12-2.96,15.02-8.2,10.34-27.06-4.09-16.47-8.43-21.08-17.55-20-1.32.16-2.73.43-4.27.8-2.28.56-3.52,2.24-3.08,4.02l9.82,39.62c.46,1.83,2.01,2.99,4.08,2.74.21-.02.42-.06.64-.12"/>
        <polygon class="cls-6" points="104.32 333.24 105.45 347.6 100.89 329.22 99.76 314.86 104.32 333.24"/>
      </g>
      <g class="cls-5">
        <path class="cls-6" d="M794.53,156.91l1.13,14.36c.35,4.39-2.58,8.67-7.12,9.78-.37.09-.75.16-1.12.2-4.65.55-9.11-2.49-10.23-6.99-.13-.52-.21-1.04-.25-1.56l-1.13-14.36c.04.52.12,1.04.25,1.56,1.12,4.5,5.58,7.54,10.23,6.99.37-.04.75-.11,1.12-.2,4.54-1.11,7.47-5.39,7.12-9.78Z"/>
        <path class="cls-4" d="M794.29,155.45c1.21,4.87-1.84,10.01-6.88,11.24-.37.09-.75.16-1.12.2-4.65.55-9.11-2.49-10.23-6.99-1.26-5.1,1.81-10.12,6.86-11.36.38-.09.77-.16,1.15-.21,4.64-.55,9.06,2.4,10.23,7.11Z"/>
      </g>
    </g>
    <g>
      <g class="cls-5">
        <polygon class="cls-6" points="369.71 308.44 370.84 322.8 365.01 324.22 363.88 309.86 369.71 308.44"/>
        <path class="cls-6" d="M363.12,326.7l-1.13-14.36c-.09-1.1.61-2.17,1.89-2.48l1.13,14.36c-1.27.31-1.97,1.38-1.89,2.48Z"/>
        <polygon class="cls-6" points="337.18 316.38 338.31 330.74 334.95 317.2 333.82 302.84 337.18 316.38"/>
        <polygon class="cls-6" points="341.07 315.44 342.2 329.8 338.31 330.74 337.18 316.38 341.07 315.44"/>
        <polygon class="cls-6" points="335.77 316.73 336.9 331.08 332.56 332.14 331.44 317.78 335.77 316.73"/>
        <path class="cls-6" d="M344.56,317.37l1.13,14.36c-.34-1.35-1.48-2.2-3.01-2.01-.15.02-.31.05-.48.09l-1.13-14.36c.16-.04.32-.07.48-.09,1.53-.18,2.66.66,3.01,2.01Z"/>
        <path class="cls-6" d="M330.75,334.86l-1.13-14.36c-.09-1.18.5-2.39,1.82-2.72l1.13,14.36c-1.32.33-1.91,1.54-1.82,2.72Z"/>
        <polygon class="cls-6" points="303.24 324.68 304.36 339.03 301 325.49 299.88 311.13 303.24 324.68"/>
        <polygon class="cls-6" points="308.98 323.27 310.11 337.63 304.36 339.03 303.24 324.68 308.98 323.27"/>
        <path class="cls-6" d="M312.02,324.94l1.13,14.36c-.28-1.13-1.42-1.88-2.7-1.73-.11.01-.23.03-.35.06l-1.13-14.36c.12-.03.23-.05.35-.06,1.28-.15,2.41.6,2.7,1.73Z"/>
        <polygon class="cls-6" points="346.42 324.88 347.55 339.24 345.68 331.72 344.56 317.37 346.42 324.88"/>
        <polygon class="cls-6" points="349.84 338.68 350.97 353.04 336.11 356.67 334.99 342.31 349.84 338.68"/>
        <polygon class="cls-6" points="351.71 346.2 352.84 360.56 350.97 353.04 349.84 338.68 351.71 346.2"/>
        <path class="cls-6" d="M351.79,346.73l1.13,14.36c-.01-.18-.04-.36-.09-.54l-1.13-14.36c.04.18.07.36.09.54Z"/>
        <polygon class="cls-6" points="319.26 354.13 320.39 368.49 313.15 339.3 312.02 324.94 319.26 354.13"/>
        <path class="cls-6" d="M319.35,354.66l1.13,14.36c-.01-.18-.04-.35-.09-.53l-1.13-14.36c.04.18.07.36.09.53Z"/>
        <polygon class="cls-6" points="348.99 364.01 350.12 378.37 346.76 364.82 345.63 350.46 348.99 364.01"/>
        <polygon class="cls-6" points="381.53 356.06 382.66 370.42 350.12 378.37 348.99 364.01 381.53 356.06"/>
        <path class="cls-4" d="M366.36,294.89l3.36,13.55-5.83,1.42c-1.42.35-2.13,1.63-1.83,2.86l7.24,29.18c.32,1.3,1.37,2.26,2.72,2.1.11-.01.21-.03.32-.06l5.83-1.42,3.36,13.54-32.53,7.95-3.36-13.55,4.25-1.04c1.59-.39,2.18-1.82,1.83-3.23l-1.86-7.51-14.86,3.62,1.86,7.52c.32,1.29,1.37,2.25,2.72,2.09.11-.01.21-.03.32-.06l4.33-1.06,3.36,13.55-32.54,7.94-3.36-13.54,5.74-1.41c1.59-.39,2.18-1.82,1.83-3.22l-7.24-29.19c-.28-1.13-1.42-1.88-2.7-1.73-.11.01-.23.03-.35.06l-5.74,1.4-3.36-13.55,32.53-7.95,3.36,13.55-4.33,1.06c-1.51.37-2.06,1.89-1.74,3.21l1.86,7.51,14.86-3.62-1.86-7.51c-.34-1.35-1.48-2.2-3.01-2.01-.15.02-.31.05-.48.09l-3.89.94-3.36-13.54,32.53-7.95Z"/>
        <polygon class="cls-6" points="315.05 372.29 316.18 386.65 312.82 373.12 311.69 358.76 315.05 372.29"/>
        <polygon class="cls-6" points="347.58 364.35 348.71 378.71 316.18 386.65 315.05 372.29 347.58 364.35"/>
      </g>
      <g class="cls-5">
        <polygon class="cls-6" points="302.64 338.9 303.77 353.26 290.86 356.41 289.73 342.06 302.64 338.9"/>
        <path class="cls-6" d="M280.55,347.47l-1.13-14.36c-.13-1.6.76-2.16,1.59-2.36.14-.03.28-.06.43-.08,4.62-.54,7.59,8.59,8.29,11.39l1.13,14.36c-.69-2.8-3.67-11.93-8.29-11.39-.14.02-.28.04-.43.08-.83.21-1.72.76-1.59,2.36Z"/>
        <path class="cls-6" d="M256.9,359.44l-1.13-14.36c-.3-3.8.11-8.2,3.23-8.96.11-.03.22-.05.34-.06.91-.11,1.95.24,2.45,2.26l1.13,14.36c-.5-2.01-1.54-2.37-2.45-2.26-.12.01-.23.03-.34.06-3.13.77-3.53,5.16-3.23,8.96Z"/>
        <polygon class="cls-6" points="243.68 353.3 244.8 367.66 238.14 340.84 237.02 326.48 243.68 353.3"/>
        <polygon class="cls-6" points="256.58 350.15 257.71 364.51 244.8 367.66 243.68 353.3 256.58 350.15"/>
        <polygon class="cls-6" points="220.38 364.46 221.51 378.82 215.37 369.94 214.24 355.58 220.38 364.46"/>
        <polygon class="cls-6" points="214.24 355.58 215.37 369.94 213.99 380.66 212.86 366.3 214.24 355.58"/>
        <polygon class="cls-6" points="268.78 366.45 269.91 380.81 262.93 352.67 261.8 338.32 268.78 366.45"/>
        <path class="cls-6" d="M268.87,366.96l1.13,14.36c-.01-.17-.04-.34-.08-.51l-1.13-14.36c.04.17.07.34.08.51Z"/>
        <polygon class="cls-6" points="228.67 376.33 229.8 390.69 228.46 388.71 227.33 374.35 228.67 376.33"/>
        <polygon class="cls-6" points="227.33 374.35 228.46 388.71 212.46 392.61 211.33 378.25 227.33 374.35"/>
        <path class="cls-6" d="M229.04,377.08l1.13,14.36c-.04-.17-.19-.42-.37-.74l-1.13-14.36c.18.33.33.57.37.74Z"/>
        <path class="cls-6" d="M229.1,377.44l1.13,14.36c0-.12-.03-.24-.06-.37l-1.13-14.36c.03.12.05.25.06.37Z"/>
        <polygon class="cls-6" points="211.33 378.25 212.46 392.61 212.2 394.99 211.07 380.63 211.33 378.25"/>
        <path class="cls-6" d="M212.2,395.23l-1.13-14.36c0-.08,0-.16,0-.24l1.13,14.36c0,.08,0,.17,0,.24Z"/>
        <path class="cls-4" d="M295.98,312.08l6.66,26.82-12.91,3.15c-.69-2.8-3.67-11.93-8.29-11.39-.14.02-.28.04-.43.08-.97.24-2.01.95-1.45,3.23l7.06,28.48c.38,1.15,1.42,1.88,2.76,1.72l6.3-1.52,3.36,13.55-34.75,8.48-3.36-13.55,6.02-1.46c1.55-.57,2.17-1.83,1.83-3.23l-6.99-28.13c-.5-2.01-1.54-2.37-2.45-2.26-.12.01-.23.03-.34.06-4.86,1.19-3.14,11.15-2.43,14.03l-12.9,3.15-6.66-26.82,58.97-14.4Z"/>
        <polygon class="cls-6" points="299.05 376.21 300.17 390.56 265.43 399.04 264.3 384.68 299.05 376.21"/>
        <polygon class="cls-6" points="264.3 384.68 265.43 399.04 262.07 385.5 260.94 371.14 264.3 384.68"/>
        <polygon class="cls-6" points="259.8 385.79 260.93 400.15 226.62 408.52 225.49 394.16 259.8 385.79"/>
        <polygon class="cls-6" points="225.49 394.16 226.62 408.52 223.26 394.98 222.13 380.62 225.49 394.16"/>
        <polygon class="cls-6" points="192.96 402.11 194.09 416.47 190.73 402.92 189.6 388.57 192.96 402.11"/>
        <path class="cls-4" d="M256.44,372.24l3.36,13.55-34.31,8.37-3.36-13.55,5.74-1.4c.98-.23,1.4-1.17,1.16-2.13-.04-.17-.19-.42-.37-.74l-1.33-1.98-16,3.9-.26,2.38c-.02.29.05.55.09.72.23.9,1.14,1.56,1.91,1.47l5.89-1.43,3.36,13.55-29.36,7.17-3.36-13.55,4.24-1.04c2.21-.54,2.53-2.29,2.73-4.09l6.14-48.58,16.18-3.95,27.88,39.81c1.46,2.09,2.56,3.04,4.09,2.86.15-.02.29-.04.45-.08l5.13-1.25ZM212.86,366.3l7.51-1.84-6.14-8.88-1.37,10.72"/>
        <polygon class="cls-6" points="222.31 394.94 223.44 409.3 194.09 416.47 192.96 402.11 222.31 394.94"/>
      </g>
      <g class="cls-5">
        <polygon class="cls-6" points="177.26 355.44 178.39 369.79 173.26 371.04 172.13 356.69 177.26 355.44"/>
        <path class="cls-6" d="M171.44,373.76l-1.13-14.36c-.09-1.18.49-2.4,1.82-2.72l1.13,14.36c-1.32.32-1.91,1.54-1.82,2.72Z"/>
        <polygon class="cls-6" points="102.55 373.67 103.68 388.03 100.32 374.49 99.2 360.14 102.55 373.67"/>
        <polygon class="cls-6" points="108.75 372.16 109.87 386.52 103.68 388.03 102.55 373.67 108.75 372.16"/>
        <path class="cls-6" d="M111.87,374.18l1.13,14.36c-.3-1.21-1.37-2.24-2.79-2.08-.11.01-.22.03-.33.06l-1.13-14.36c.11-.03.22-.05.33-.06,1.42-.17,2.49.86,2.79,2.08Z"/>
        <polygon class="cls-6" points="160.05 393 161.17 407.36 154.88 382.02 153.75 367.66 160.05 393"/>
        <path class="cls-6" d="M160.13,393.54l1.13,14.36c-.01-.18-.04-.36-.09-.54l-1.13-14.36c.04.18.07.36.09.54Z"/>
        <polygon class="cls-6" points="119.02 403.02 120.15 417.38 113 388.54 111.87 374.18 119.02 403.02"/>
        <path class="cls-6" d="M119.11,403.55l1.13,14.36c-.01-.18-.04-.36-.09-.54l-1.13-14.36c.04.18.07.36.09.54Z"/>
        <polygon class="cls-6" points="153.75 367.66 154.88 382.02 151.75 426.8 150.62 412.44 153.75 367.66"/>
        <polygon class="cls-6" points="156.63 410.98 157.76 425.34 154.4 411.8 153.27 397.44 156.63 410.98"/>
        <polygon class="cls-6" points="189.07 403.05 190.2 417.41 157.76 425.34 156.63 410.98 189.07 403.05"/>
        <polygon class="cls-6" points="150.62 412.44 151.75 426.8 150.68 427.06 149.55 412.7 150.62 412.44"/>
        <polygon class="cls-6" points="149.55 412.7 150.68 427.06 126.86 388.86 125.74 374.5 149.55 412.7"/>
        <polygon class="cls-6" points="114.37 421.3 115.5 435.66 112.14 422.11 111.01 407.75 114.37 421.3"/>
        <polygon class="cls-6" points="143.19 414.26 144.31 428.62 115.5 435.66 114.37 421.3 143.19 414.26"/>
        <path class="cls-4" d="M173.9,341.89l3.36,13.55-5.13,1.25c-1.51.37-2.06,1.89-1.74,3.21l7.24,29.18c.3,1.18,1.45,1.85,2.9,1.68.16-.02.33-.05.5-.09l4.69-1.14,3.36,13.54-32.45,7.93-3.36-13.55,4.95-1.21c1.59-.39,2.18-1.82,1.83-3.23l-6.29-25.34-3.13,44.78-1.07.26-23.82-38.2,6.37,25.69c.27,1.12,1.34,1.9,2.61,1.75.11-.01.22-.03.34-.06l4.77-1.16,3.36,13.55-28.82,7.04-3.36-13.55,6.19-1.51c1.59-.38,2.17-1.82,1.82-3.23l-7.15-28.84c-.3-1.21-1.37-2.24-2.79-2.08-.11.01-.22.03-.33.06l-6.19,1.51-3.36-13.54,32.36-7.9c.45.66,9.08,13.17,9.53,13.88l.89-16.43,31.92-7.8Z"/>
      </g>
      <g class="cls-5">
        <polygon class="cls-6" points="737.39 218.66 738.52 233.02 735.15 219.47 734.02 205.11 737.39 218.66"/>
        <polygon class="cls-6" points="743.22 217.24 744.35 231.59 738.52 233.02 737.39 218.66 743.22 217.24"/>
        <path class="cls-6" d="M746.25,218.9l1.13,14.36c-.28-1.13-1.41-1.88-2.69-1.73-.12.01-.23.03-.35.06l-1.13-14.36c.12-.03.23-.05.35-.06,1.28-.15,2.41.6,2.69,1.73Z"/>
        <path class="cls-6" d="M783.85,233.98l1.13,14.36c-.18-2.26-.68-4.97-1.49-8.23-3.01-12.14-6.21-15.53-12.93-14.74-.97.11-2.02.32-3.15.59-1.53.37-2.42,1.43-2.33,2.59l-1.13-14.36c-.09-1.17.8-2.23,2.33-2.59,1.13-.28,2.17-.48,3.15-.59,6.72-.79,9.92,2.6,12.93,14.74.81,3.26,1.31,5.97,1.49,8.23Z"/>
        <polygon class="cls-6" points="753.49 248.09 754.62 262.45 747.38 233.26 746.25 218.9 753.49 248.09"/>
        <path class="cls-6" d="M753.58,248.62l1.13,14.36c-.01-.18-.04-.36-.09-.53l-1.13-14.36c.04.18.07.36.09.53Z"/>
        <path class="cls-6" d="M803.46,228.13l1.13,14.36c1.37,17.4-9.63,27.26-21.19,30.08l-1.13-14.36c11.56-2.83,22.56-12.69,21.19-30.08Z"/>
        <path class="cls-4" d="M802.25,220.89c5.44,21.93-6.91,34.12-19.99,37.32l-33.25,8.11-3.36-13.55,6.02-1.46c1.58-.39,2.17-1.83,1.82-3.23l-7.24-29.19c-.28-1.13-1.41-1.88-2.69-1.73-.12.01-.23.03-.35.06l-5.83,1.42-3.37-13.54,33.07-8.08c1.19-.29,2.42-.51,3.66-.66,12.37-1.46,26.56,4.58,31.5,24.51ZM774.75,245.67c8.92-2.17,11.06-6.04,7.62-19.93-3.01-12.14-6.21-15.53-12.93-14.74-.97.11-2.02.32-3.15.59-1.68.4-2.6,1.65-2.27,2.96l7.24,29.19c.33,1.35,1.47,2.2,3.01,2.01.16-.02.31-.05.48-.09"/>
        <polygon class="cls-6" points="749.02 266.32 750.14 280.68 746.78 267.14 745.66 252.78 749.02 266.32"/>
        <polygon class="cls-6" points="782.26 258.21 783.39 272.57 750.14 280.68 749.02 266.32 782.26 258.21"/>
      </g>
      <g class="cls-5">
        <polygon class="cls-6" points="733.32 219.65 734.45 234.01 729.06 235.32 727.93 220.97 733.32 219.65"/>
        <path class="cls-6" d="M727.17,237.83l-1.13-14.36c-.09-1.12.68-2.21,1.88-2.51l1.13,14.36c-1.2.3-1.97,1.39-1.88,2.51Z"/>
        <polygon class="cls-6" points="709.18 225.54 710.31 239.9 704.39 241.35 703.26 226.99 709.18 225.54"/>
        <polygon class="cls-6" points="703.26 226.99 704.39 241.35 701.03 227.81 699.9 213.45 703.26 226.99"/>
        <path class="cls-6" d="M712.31,227.57l1.13,14.36c-.3-1.22-1.37-2.25-2.79-2.08-.11.01-.22.03-.33.06l-1.13-14.36c.11-.03.22-.05.33-.06,1.42-.17,2.49.86,2.79,2.08Z"/>
        <polygon class="cls-6" points="670.72 234.93 671.85 249.29 665.67 250.81 664.54 236.45 670.72 234.93"/>
        <polygon class="cls-6" points="664.54 236.45 665.67 250.81 662.3 237.27 661.17 222.91 664.54 236.45"/>
        <path class="cls-6" d="M673.77,236.6l1.13,14.36c-.28-1.12-1.42-1.88-2.7-1.73-.11.01-.23.03-.35.06l-1.13-14.36c.12-.03.23-.05.35-.06,1.28-.15,2.42.61,2.7,1.73Z"/>
        <polygon class="cls-6" points="660.65 237.39 661.77 251.75 655.68 253.24 654.55 238.88 660.65 237.39"/>
        <path class="cls-6" d="M653.86,255.95l-1.13-14.36c-.09-1.18.5-2.39,1.82-2.71l1.13,14.36c-1.32.32-1.91,1.53-1.82,2.71Z"/>
        <polygon class="cls-6" points="631.92 244.41 633.04 258.77 627.03 260.24 625.9 245.88 631.92 244.41"/>
        <polygon class="cls-6" points="625.9 245.88 627.03 260.24 623.67 246.7 622.54 232.34 625.9 245.88"/>
        <path class="cls-6" d="M634.95,246.08l1.13,14.36c-.27-1.12-1.41-1.88-2.69-1.73-.11.01-.23.03-.35.06l-1.13-14.36c.12-.03.23-.05.35-.06,1.28-.15,2.41.61,2.69,1.73Z"/>
        <polygon class="cls-6" points="716.29 243.64 717.42 258 713.44 241.92 712.31 227.57 716.29 243.64"/>
        <polygon class="cls-6" points="681.01 265.79 682.13 280.15 674.89 250.96 673.77 236.6 681.01 265.79"/>
        <path class="cls-6" d="M681.09,266.32l1.13,14.36c-.01-.18-.04-.36-.09-.54l-1.13-14.36c.04.18.07.36.09.54Z"/>
        <polygon class="cls-6" points="642.2 275.27 643.33 289.62 636.08 260.44 634.95 246.08 642.2 275.27"/>
        <path class="cls-6" d="M642.29,275.8l1.13,14.36c-.01-.18-.04-.35-.09-.53l-1.13-14.36c.04.18.07.36.09.53Z"/>
        <polygon class="cls-6" points="737.35 269.18 738.48 283.54 722.3 287.49 721.18 273.13 737.35 269.18"/>
        <polygon class="cls-6" points="721.18 273.13 722.3 287.49 690.81 257.64 689.68 243.28 721.18 273.13"/>
        <polygon class="cls-6" points="676.35 284.07 677.48 298.43 674.11 284.88 672.99 270.52 676.35 284.07"/>
        <polygon class="cls-6" points="707.29 276.51 708.42 290.87 677.48 298.43 676.35 284.07 707.29 276.51"/>
        <path class="cls-4" d="M729.96,206.1l3.36,13.55-5.39,1.32c-1.33.33-2.13,1.63-1.83,2.86l11.25,45.35-16.18,3.95-31.5-29.85,4.86,19.58c.29,1.18,1.43,1.85,2.87,1.68.17-.02.34-.05.52-.09l6.02-1.47,3.36,13.55-30.94,7.56-3.37-13.54,6.19-1.51c1.59-.39,2.18-1.82,1.83-3.23l-7.24-29.19c-.28-1.12-1.42-1.88-2.7-1.73-.11.01-.23.03-.35.06l-6.18,1.52-3.37-13.54,26.44-6.46,28.68,27.2-3.99-16.08c-.3-1.22-1.37-2.25-2.79-2.08-.11.01-.22.03-.33.06l-5.93,1.45-3.36-13.55,30.06-7.34Z"/>
        <path class="cls-4" d="M657.29,223.85l3.36,13.55-6.09,1.49c-1.51.37-2.07,1.89-1.74,3.21l7.24,29.19c.28,1.12,1.34,1.9,2.61,1.75.11-.01.22-.03.34-.06l6.1-1.49,3.36,13.55-34.75,8.49-3.36-13.55,6.02-1.47c1.58-.39,2.18-1.82,1.83-3.23l-7.25-29.19c-.27-1.12-1.41-1.88-2.69-1.73-.11.01-.23.03-.35.06l-6.02,1.47-3.36-13.55,34.75-8.49Z"/>
        <polygon class="cls-6" points="637.71 293.51 638.84 307.87 635.48 294.32 634.36 279.96 637.71 293.51"/>
        <polygon class="cls-6" points="672.46 285.02 673.59 299.38 638.84 307.87 637.71 293.51 672.46 285.02"/>
      </g>
      <g class="cls-5">
        <polygon class="cls-6" points="622.03 246.83 623.15 261.19 621.47 261.6 620.34 247.24 622.03 246.83"/>
        <polygon class="cls-6" points="596.3 253.11 597.43 267.47 594.06 253.92 592.93 239.56 596.3 253.11"/>
        <polygon class="cls-6" points="599.48 252.33 600.61 266.69 597.43 267.47 596.3 253.11 599.48 252.33"/>
        <polygon class="cls-6" points="594.88 253.46 596.01 267.81 593.71 268.38 592.58 254.02 594.88 253.46"/>
        <path class="cls-6" d="M602.09,253.87l1.13,14.36c0-.08-.02-.15-.04-.22-.25-1.02-1.21-1.5-2.24-1.38-.11.01-.22.03-.33.06l-1.13-14.36c.11-.03.22-.05.33-.06,1.03-.12,1.99.36,2.24,1.38.02.07.03.15.04.22Z"/>
        <path class="cls-6" d="M620.34,247.24l1.13,14.36c-3,.74-4.13,3.42-4.34,5.97l-1.13-14.36c.21-2.55,1.34-5.23,4.34-5.97Z"/>
        <path class="cls-6" d="M592.07,270.37l-1.13-14.36c-.08-.98.6-1.74,1.64-1.99l1.13,14.36c-1.04.25-1.71,1.01-1.64,1.99Z"/>
        <polygon class="cls-6" points="568.35 259.94 569.48 274.29 566.12 260.75 564.99 246.39 568.35 259.94"/>
        <polygon class="cls-6" points="571.01 259.28 572.14 273.64 569.48 274.29 568.35 259.94 571.01 259.28"/>
        <polygon class="cls-6" points="566.94 260.28 568.07 274.64 565.24 275.33 564.12 260.97 566.94 260.28"/>
        <path class="cls-6" d="M573.59,260.6l1.13,14.36c-.25-1.02-1.21-1.5-2.24-1.38-.11.01-.22.03-.33.06l-1.13-14.36c.11-.03.22-.05.33-.06,1.03-.12,1.99.36,2.24,1.38Z"/>
        <path class="cls-6" d="M573.62,260.82l1.13,14.36c0-.07-.02-.15-.03-.22l-1.13-14.36c.02.07.03.14.03.22Z"/>
        <path class="cls-6" d="M563.61,277.32l-1.13-14.36c-.08-.97.6-1.74,1.64-1.99l1.13,14.36c-1.04.25-1.71,1.02-1.64,1.99Z"/>
        <polygon class="cls-6" points="536.79 267.64 537.92 282 534.56 268.46 533.44 254.1 536.79 267.64"/>
        <polygon class="cls-6" points="538.92 267.13 540.05 281.48 537.92 282 536.79 267.64 538.92 267.13"/>
        <path class="cls-6" d="M545.37,270.46l1.13,14.36c-1.25-1.93-3.22-3.76-5.82-3.45-.21.02-.42.06-.63.11l-1.13-14.36c.21-.05.43-.09.63-.11,2.6-.31,4.57,1.52,5.82,3.45Z"/>
        <polygon class="cls-6" points="508.77 274.48 509.9 288.84 502.74 290.59 501.61 276.23 508.77 274.48"/>
        <path class="cls-6" d="M500.92,293.3l-1.13-14.36c-.09-1.18.5-2.38,1.81-2.71l1.13,14.36c-1.31.33-1.9,1.53-1.81,2.71Z"/>
        <polygon class="cls-6" points="472.97 283.23 474.09 297.59 470.73 284.04 469.61 269.68 472.97 283.23"/>
        <polygon class="cls-6" points="478.98 281.76 480.11 296.11 474.09 297.59 472.97 283.23 478.98 281.76"/>
        <path class="cls-6" d="M482.02,283.42l1.13,14.36c-.27-1.12-1.42-1.88-2.69-1.73-.11.01-.23.03-.34.06l-1.13-14.36c.12-.03.23-.05.34-.06,1.28-.15,2.42.61,2.69,1.73Z"/>
        <path class="cls-6" d="M523.6,284.76l1.13,14.36c-1.64-6.63-7.71-11.2-13.63-10.5-.4.05-.81.12-1.21.22l-1.13-14.36c.4-.1.8-.17,1.21-.22,5.92-.7,11.98,3.88,13.63,10.5Z"/>
        <polygon class="cls-6" points="536.16 281.7 537.29 296.06 524.73 299.12 523.6 284.76 536.16 281.7"/>
        <polygon class="cls-6" points="435.4 292.4 436.53 306.76 431.13 308.07 430 293.71 435.4 292.4"/>
        <path class="cls-6" d="M429.25,310.54l-1.13-14.36c-.09-1.1.62-2.16,1.88-2.47l1.13,14.36c-1.26.31-1.97,1.37-1.88,2.47Z"/>
        <path class="cls-6" d="M443.68,296.58l1.13,14.36c-.02-.27-.07-.54-.13-.8-.56-2.26-2.66-4.13-6.61-3.67-.49.06-1,.15-1.54.28l-1.13-14.36c.54-.13,1.05-.22,1.54-.28,3.95-.47,6.05,1.41,6.61,3.67.07.26.11.53.13.8Z"/>
        <polygon class="cls-6" points="407.38 299.24 408.5 313.6 402.49 315.07 401.36 300.71 407.38 299.24"/>
        <polygon class="cls-6" points="401.36 300.71 402.49 315.07 399.13 301.53 398 287.17 401.36 300.71"/>
        <path class="cls-6" d="M410.41,300.91l1.13,14.36c-.28-1.12-1.42-1.88-2.69-1.73-.11.01-.23.03-.34.06l-1.13-14.36c.12-.03.23-.05.34-.06,1.27-.15,2.41.61,2.69,1.73Z"/>
        <path class="cls-6" d="M525.94,294.99l1.13,14.36c-.06-.79-.19-1.58-.38-2.37l-1.13-14.36c.2.79.32,1.58.38,2.37Z"/>
        <polygon class="cls-6" points="516.66 298.32 517.79 312.68 506.38 315.46 505.25 301.1 516.66 298.32"/>
        <path class="cls-6" d="M463.51,291.32l1.13,14.36c.56,7.11-4.31,11.92-10.56,14.77l-1.13-14.36c6.25-2.85,11.11-7.67,10.56-14.77Z"/>
        <polygon class="cls-6" points="616 253.2 617.13 267.56 613.3 314.1 612.17 299.74 616 253.2"/>
        <polygon class="cls-6" points="612.17 299.74 613.3 314.1 600.13 317.32 599 302.96 612.17 299.74"/>
        <polygon class="cls-6" points="599 302.96 600.13 317.32 586.83 296.57 585.7 282.21 599 302.96"/>
        <polygon class="cls-6" points="489.26 312.61 490.38 326.97 483.14 297.78 482.02 283.42 489.26 312.61"/>
        <path class="cls-6" d="M489.34,313.15l1.13,14.36c-.01-.18-.04-.36-.09-.54l-1.13-14.36c.04.18.07.36.09.54Z"/>
        <polygon class="cls-6" points="434.16 318.01 435.29 332.37 434.66 332.51 433.53 318.15 434.16 318.01"/>
        <polygon class="cls-6" points="585.7 282.21 586.83 296.57 584.83 321.06 583.71 306.7 585.7 282.21"/>
        <path class="cls-6" d="M470.84,316.53l1.13,14.36c-.08-.98-.35-2.06-.57-2.98l-1.13-14.36c.23.93.5,2.01.57,2.98Z"/>
        <polygon class="cls-6" points="583.71 306.7 584.83 321.06 571.66 324.27 570.53 309.91 583.71 306.7"/>
        <polygon class="cls-6" points="570.53 309.91 571.66 324.27 546.5 284.82 545.37 270.46 570.53 309.91"/>
        <path class="cls-4" d="M618.66,233.29l3.37,13.54-1.68.4c-3,.74-4.13,3.42-4.34,5.97l-3.83,46.53-13.17,3.22-13.31-20.75-1.99,24.49-13.18,3.21-25.16-39.45c-1.25-1.93-3.22-3.76-5.82-3.45-.21.02-.42.06-.63.11l-2.12.52-3.36-13.55,30.15-7.36,3.36,13.55-2.83.69c-1.15.28-1.86,1.2-1.58,2.33.07.26.22.5.37.74l9.23,14.52,1.47-17.13c.02-.28.04-.57-.02-.83-.25-1.02-1.21-1.5-2.24-1.38-.11.01-.22.03-.33.06l-2.66.65-3.36-13.55,26.53-6.48,3.36,13.55-2.3.57c-1.15.28-1.86,1.19-1.58,2.33.07.26.22.5.38.74l9.22,14.52,1.47-17.13c.02-.28.05-.57-.02-.83-.25-1.02-1.21-1.5-2.24-1.38-.11.01-.22.03-.33.06l-3.18.78-3.37-13.54,25.73-6.28Z"/>
        <polygon class="cls-6" points="417.65 330.1 418.78 344.46 411.54 315.27 410.41 300.91 417.65 330.1"/>
        <path class="cls-6" d="M417.74,330.63l1.13,14.36c-.01-.18-.04-.36-.09-.54l-1.13-14.36c.04.18.07.36.09.54Z"/>
        <polygon class="cls-6" points="544.72 316.21 545.85 330.57 485.91 345.21 484.78 330.85 544.72 316.21"/>
        <polygon class="cls-6" points="484.78 330.85 485.91 345.21 482.55 331.67 481.42 317.31 484.78 330.85"/>
        <path class="cls-4" d="M529.55,255.04l6.61,26.66-12.56,3.07c-1.64-6.63-7.71-11.2-13.63-10.5-.4.05-.81.12-1.21.22l-7.16,1.75c-1.5.37-2.06,1.89-1.73,3.21l1.78,7.16,11.41-2.79,3.6,14.51-11.41,2.78,1.86,7.52c.27,1.12,1.34,1.9,2.61,1.75.11-.01.22-.03.34-.06l7.16-1.75c6.28-1.53,10.09-8.86,8.33-15.94l12.56-3.07,6.61,26.66-59.94,14.64-3.36-13.55,6.01-1.47c1.59-.39,2.18-1.82,1.83-3.23l-7.24-29.19c-.27-1.12-1.42-1.88-2.69-1.73-.11.01-.23.03-.34.06l-6.02,1.47-3.36-13.55,59.94-14.64Z"/>
        <path class="cls-6" d="M478.03,321.37l1.13,14.36c.56,7.09-3.15,12.36-11.17,14.32-1.11.27-2.21.5-3.31.63-2.77.33-5.52.05-8.28-1.6-6.58-3.86-5.61-12.44-11.2-16.45-1.56-1.15-4.35-1.12-6.61-.86-1.57.18-2.87.49-3.3.59l-1.13-14.36c.43-.11,1.74-.41,3.3-.59,2.25-.27,5.05-.29,6.61.86,5.59,4.01,4.62,12.59,11.2,16.45,2.76,1.65,5.51,1.92,8.28,1.6,1.1-.13,2.2-.35,3.31-.63,8.02-1.96,11.73-7.23,11.17-14.32Z"/>
        <polygon class="cls-6" points="413.17 348.34 414.3 362.7 410.94 349.15 409.82 334.79 413.17 348.34"/>
        <polygon class="cls-6" points="447.92 339.85 449.05 354.21 414.3 362.7 413.17 348.34 447.92 339.85"/>
        <path class="cls-4" d="M477.45,317.9c2.19,8.83-1.31,15.52-10.59,17.79-1.11.27-2.21.5-3.31.63-2.77.33-5.52.05-8.28-1.6-6.58-3.86-5.61-12.44-11.2-16.45-1.56-1.15-4.35-1.12-6.61-.86-1.57.18-2.87.49-3.3.59l-.63.15,1.89,7.61c.33,1.34,1.48,2.19,3,2.01.15-.02.31-.05.47-.09l5.66-1.38,3.36,13.55-34.75,8.49-3.36-13.55,6.01-1.47c1.59-.39,2.18-1.82,1.83-3.23l-7.24-29.19c-.28-1.12-1.42-1.88-2.69-1.73-.11.01-.23.03-.34.06l-6.02,1.47-3.36-13.55,39.52-9.65c1.33-.33,2.78-.6,4.3-.78,8.27-.98,18.49.82,21.25,11.96,2.12,8.56-3.13,14.2-10.12,17.39,3.35.29,5.78.99,7.65,1.74,3.82,1.75,6.07,5.19,6.99,8.86.16.67.76,2.72,1.92,2.59,2.07-.5,1.3-3.56.76-5.74l5.75-1.4,1.43,5.76ZM437.91,302.54c4.95-1.21,6.27-4.22,5.64-6.76-.56-2.26-2.66-4.13-6.61-3.67-.49.06-1,.15-1.54.28l-5.4,1.32c-1.41.35-2.13,1.63-1.82,2.86l1.95,7.86,7.78-1.89"/>
      </g>
    </g>
  </g>
</svg>