<?xml version="1.0" encoding="UTF-8"?>
<svg id="Layer_2" data-name="Layer 2" xmlns="http://www.w3.org/2000/svg" viewBox="0 0 334.64 334.64">
  <defs>
    <style>
      .cls-1 {
        fill: #fbf4e4;
      }

      .cls-2 {
        fill: #79a87e;
      }

      .cls-3 {
        fill: #d1b4d4;
      }
    </style>
  </defs>
  <g id="Layer_1-2" data-name="Layer 1">
    <circle class="cls-1" cx="167.32" cy="167.32" r="167.32"/>
    <path class="cls-2" d="M190.13,58.34c-10.21-9.39-22.03-18.25-36.09-20.42-13.43-2.07-27.47,1.4-38.48,9.38-19.16,13.89-28.37,37.07-27.35,60.37.93,21.17,10.43,43.36,30.89,52.24,11.49,4.98,24.2,5.09,34.63-2.43,4.76-3.43,8.73-7.63,12.39-12.18,1.96-2.43,3.85-4.92,5.75-7.4.62-.81,1.17-1.57,1.14-1.61.68,1.02-7.69-.58-7.02-1.06,0,0,.27.41.53,1.22s.49,1.65.7,2.48c.52,2.08.89,4.2,1.22,6.32.38,2.41.9,6.92,1.31,10.35,1.98,16.66,2.64,33.45,2.66,50.22.02,20.95.36,42.89-4.1,63.08-1.53,6.95-3.9,15.14-7.92,19.78-2.14,2.47-3.25,3.32-6.09,3.83.67-.12-2.85-.1-2.94-.12-1.99-.36-3.97-1.05-5.73-2.05-12.67-7.22-11.31-26.38-8.16-38.27,3.82-14.38,10.1-28,18.06-40.55,15.55-24.48,39.39-42.13,53.89-67.5,14.29-25.01,20.93-53.94,12.7-82-2.18-7.44-5.14-14.62-8.22-21.73-1.62-3.75-7.05-4.52-10.26-2.69-3.86,2.2-4.29,6.57-2.69,10.26,5.57,12.85,10.25,26.49,10.11,40.65s-4.73,28.09-10.73,40.58c-12.87,26.81-36.7,44.59-53.51,68.51-8.5,12.09-15.3,25.34-20.29,39.25s-8.67,30.44-4.03,45.48c3.76,12.18,12.82,22.38,25.74,24.69,8.57,1.53,16.93-1.16,22.75-7.73,11.23-12.68,13.48-31.98,14.97-48.16,2.57-28.01,2.3-56.95-.12-84.95-.85-9.86-1.69-20.2-3.84-29.9-1.8-8.12-8.58-19.36-18.07-11.82-4.2,3.33-7.05,8.74-10.54,12.82-3.28,3.83-6.91,7.8-11.58,9.93-9.23,4.23-20.37-1.38-26.82-8.13-13.33-13.94-14.39-37.31-8.73-54.8,7.55-23.3,33.3-40.16,56.78-27.6,6.1,3.26,11.41,7.61,16.48,12.28,7.1,6.53,17.73-4.06,10.61-10.61h0Z"/>
    <path class="cls-3" d="M269.22,75.64c-15.77,14.14-34.13,26.77-55.3,30.79-20.85,3.96-40.57-3.19-57.16-15.65-5.15-3.87-10.14,4.81-5.05,8.63,18.44,13.85,40.37,20.82,63.37,16.93s43.88-18.09,61.21-33.63c4.8-4.31-2.29-11.36-7.07-7.07h0Z"/>
    <g>
      <path class="cls-3" d="M178.25,91.88c3.22,0,3.22-5,0-5s-3.22,5,0,5h0Z"/>
      <path class="cls-3" d="M192.61,96.5c3.22,0,3.22-5,0-5s-3.22,5,0,5h0Z"/>
    </g>
  </g>
</svg>