<?xml version="1.0" encoding="UTF-8"?>
<svg id="Layer_2" data-name="Layer 2" xmlns="http://www.w3.org/2000/svg" viewBox="0 0 149.81 184.99">
  <defs>
    <style>
      .cls-1 {
        fill: #a981a0;
        font-family: NeulisNeue-Black, 'Neulis Neue';
        font-size: 14.66px;
        font-weight: 800;
      }

      .cls-2 {
        fill: #e9ddc8;
      }

      .cls-3 {
        fill: #79a87e;
      }

      .cls-4 {
        fill: none;
        stroke: #e9ddc8;
        stroke-miterlimit: 10;
      }

      .cls-5 {
        fill: #d1b4d4;
      }

      .cls-6 {
        fill: #333;
      }

      .cls-7 {
        letter-spacing: .01em;
      }

      .cls-8 {
        letter-spacing: 0em;
      }

      .cls-9 {
        letter-spacing: 0em;
      }
    </style>
  </defs>
  <g id="Layer_1-2" data-name="Layer 1">
    <rect class="cls-2" width="132.11" height="184.94"/>
    <rect class="cls-6" y="144.86" width="132.11" height="18.94"/>
    <text class="cls-1" transform="translate(15.92 24.98)"><tspan class="cls-7" x="0" y="0">JU</tspan><tspan class="cls-8" x="18.43" y="0">S</tspan><tspan class="cls-7" x="27.15" y="0">T </tspan><tspan class="cls-9" x="38.88" y="0">F</tspan><tspan class="cls-7" x="46.74" y="0">OR FUN</tspan></text>
    <path class="cls-4" d="M132.88.71l16.4,15.12-17.17,169.1V1.05c0-.4.48-.61.77-.34Z"/>
    <path class="cls-3" d="M75.68,56.98c-3.26-3.01-7.03-5.8-11.53-6.46s-8.76.55-12.26,3.14c-6.08,4.51-8.92,12.08-8.4,19.52.49,7.01,3.91,13.83,10.82,16.35,4.01,1.47,8,.54,11.19-2.21,1.41-1.22,2.56-2.71,3.69-4.18.27-.35.54-.71.82-1.06.16-.21.44-.61.48-.58.03.02-1.08.45-1.2.45-.65,0-.88-.19-1.28-.51-.29-.23-.3-.39-.14-.17.08.11.27.61.04.03.43,1.09.6,2.29.77,3.44.07.49,0,.04,0-.05.02.12.03.25.05.37.02.21.05.42.07.63.1.86.22,1.72.32,2.59.6,5.37.78,10.78.76,16.17-.02,4.05-.05,8.12-.37,12.15-.04.54-.09,1.08-.14,1.62-.03.29-.06.58-.09.87-.02.18-.15,1.18-.08.7-.18,1.28-.4,2.55-.7,3.8-.15.63-.31,1.25-.5,1.87-.16.51-.51,1.48-.59,1.67.07-.16-.24.49-.3.61-.13.26-.27.51-.42.75s-.3.47-.46.69.07-.09.09-.11c-.13.15-.25.3-.39.44-.18.18-.36.35-.56.52.42-.35-.09.03-.26.13-.1.06-.22.11-.33.17.08-.04.51-.17.09-.05-.16.04-.87.19-.59.16.33-.03-.33,0-.46,0s-.28-.02-.42-.03c.51.05.12.01.01-.02-.91-.24-1.19-.27-1.94-.75-3.47-2.22-3.28-7.6-2.44-11.08,1.07-4.45,2.98-8.69,5.36-12.59,4.8-7.85,12.36-13.44,17.06-21.39,2.41-4.07,4.27-8.74,5.08-13.41.76-4.35.46-8.68-.78-12.92-.69-2.36-1.62-4.63-2.6-6.88-.54-1.24-2.35-1.52-3.42-.9-1.28.75-1.44,2.18-.9,3.42,1.71,3.95,3.17,8.15,3.16,12.5s-1.42,8.79-3.28,12.71-4.67,7.69-7.68,11.04-6.49,6.76-9.22,10.64-4.88,8.14-6.45,12.6-2.65,9.69-1.04,14.4c1.33,3.89,4.34,6.97,8.52,7.54,2.73.38,5.3-.68,7.05-2.79,3.44-4.17,4.12-10.25,4.56-15.45.33-3.87.37-7.76.4-11.64.05-5.32-.09-10.66-.62-15.96-.29-2.86-.48-5.95-1.26-8.74-.37-1.32-.96-2.73-2.23-3.41-1.92-1.03-3.52.23-4.65,1.7-1.85,2.4-3.98,5.72-7.06,6.21-2.88.46-5.89-1.52-7.62-3.7-1.63-2.05-2.65-5.25-2.89-7.91-.29-3.24.02-6.1,1.15-9.12s3.66-6.18,6.86-7.87c3.43-1.81,7.41-1.66,10.78.22,1.79,1,3.35,2.29,4.85,3.67,2.36,2.18,5.91-1.35,3.54-3.54h0Z"/>
    <path class="cls-5" d="M100.18,62.3c-4.92,4.42-10.65,8.35-17.26,9.59s-12.54-1.03-17.65-4.89c-.81-.61-2.09-.12-2.57.67-.57.95-.13,1.96.67,2.57,5.86,4.42,12.86,6.59,20.17,5.33,7.37-1.26,13.84-5.72,19.29-10.62,1.8-1.62-.86-4.26-2.65-2.65h0Z"/>
    <g>
      <path class="cls-5" d="M71.85,68.7c2.41,0,2.42-3.75,0-3.75s-2.42,3.75,0,3.75h0Z"/>
      <path class="cls-5" d="M76.36,70.15c2.41,0,2.42-3.75,0-3.75s-2.42,3.75,0,3.75h0Z"/>
    </g>
  </g>
</svg>