<?xml version="1.0" encoding="UTF-8"?>
<svg id="Layer_2" data-name="Layer 2" xmlns="http://www.w3.org/2000/svg" viewBox="0 0 92.16 92.16">
  <defs>
    <style>
      .cls-1 {
        fill: #fff;
        fill-rule: evenodd;
      }
    </style>
  </defs>
  <g id="Layer_1-2" data-name="Layer 1">
    <path class="cls-1" d="M19.24,0h53.67c10.59,0,19.24,8.65,19.24,19.24v53.67c0,10.59-8.66,19.24-19.24,19.24H19.24c-10.59,0-19.24-8.65-19.24-19.24V19.24C0,8.65,8.65,0,19.24,0ZM74.76,13.08c-5.69,0-5.69,8.64,0,8.64s5.69-8.64,0-8.64ZM46.08,17.52c-15.77,0-28.56,12.79-28.56,28.56,0,25.36,30.81,38.15,48.75,20.19,17.95-17.95,5.16-48.75-20.19-48.75ZM62.2,29.96c-14.32-14.32-38.92-4.13-38.92,16.12s24.6,30.44,38.92,16.12c8.91-8.9,8.91-23.34,0-32.24ZM72.91,5.76H19.24c-7.41,0-13.48,6.07-13.48,13.48v53.67c0,7.41,6.07,13.48,13.48,13.48h53.67c7.41,0,13.48-6.07,13.48-13.48V19.24c0-7.41-6.07-13.48-13.48-13.48Z"/>
  </g>
</svg>