<?xml version="1.0" encoding="UTF-8"?>
<svg id="Layer_2" data-name="Layer 2" xmlns="http://www.w3.org/2000/svg" viewBox="0 0 926.06 582.6">
  <defs>
    <style>
      .cls-1 {
        fill: none;
        stroke: #99d2c6;
        stroke-width: 3px;
      }

      .cls-1, .cls-2 {
        stroke-miterlimit: 10;
      }

      .cls-3 {
        fill: #1c574e;
      }

      .cls-4 {
        fill: #89b698;
      }

      .cls-2 {
        stroke: #fff7e7;
        stroke-width: .75px;
      }

      .cls-2, .cls-5 {
        fill: #fff7e7;
      }

      .cls-6 {
        isolation: isolate;
      }

      .cls-7 {
        fill: #eb9922;
      }

      .cls-8 {
        fill: #eaddc7;
      }
    </style>
  </defs>
  <g id="Layer_1-2" data-name="Layer 1">
    <rect class="cls-8" width="926.06" height="582.6"/>
    <rect class="cls-3" x="41.65" y="26.2" width="842.76" height="530.2" rx="42.68" ry="42.68"/>
    <polygon class="cls-4" points="11.03 84.6 420.67 84.6 392.99 164.74 62.14 164.74 11.03 84.6"/>
    <g>
      <path class="cls-2" d="M50.44,131.65c1.8-3.64,4.23-9.73,6.65-21h4.06l1.12,23.42,7.3-23.42h3.01c-4.42,13.69-9.24,28.93-9.44,30.37h-3.93l-1.34-22.18c-2,7.17-3.87,12.02-4.98,14.32-2.55,5.41-6.09,8.55-9.76,8.45l-.56-3.15c1.77,0,5.57-2.19,7.86-6.81Z"/>
      <path class="cls-2" d="M69.48,134.92l2.82-.03c-.1,2.36,1.34,3.64,3.67,3.64s3.96-1.34,3.96-3.7c0-1.9-.98-3.21-2.55-5.21-1.54-1.97-4.52-4.68-4.52-8.98,0-5.54,4.23-10.22,9.96-10.22,3.77,0,6,2.19,6,5.73,0,1.97-.49,3.87-1.57,5.63l-2.75-1.47c.72-1.21,1.38-2.82,1.38-4.52,0-2.33-1.18-3.34-2.88-3.34-2.29,0-5.9,3.01-5.9,7.8,0,3.41,2.69,5.96,4.26,7.93,1.54,1.93,2.82,3.96,2.82,6.39,0,3.77-3.34,7.04-7.86,7.04s-7.34-2.88-6.81-6.68Z"/>
      <path class="cls-2" d="M100.37,129.62h-4.29c-.26.39-.46.75-.69,1.08-5.24,8.26-8.52,10.88-11.4,10.88l-.59-3.11c1.87-.07,5.24-1.87,9.79-8.85h-3.8v-2.16h5.21c2.78-4.36,5.7-9.11,9.37-16.58h4.65c-.26,1.47-.85,3.21-1.28,4.98-.75,3.01-1.77,7.27-2.59,11.6h5.28v2.16h-5.67c-.82,4.62-1.34,9.11-1.05,12.06h-4.22c-.13-3.21.43-7.57,1.28-12.06ZM100.79,127.45c.75-3.57,1.61-7.14,2.39-10.12-1.87,3.41-4,7.11-5.8,10.12h3.41Z"/>
      <path class="cls-2" d="M109.54,132.37c.43-11.34,7.11-21.95,14.19-21.95,3.57,0,5.28,2.19,5.21,5.44-.03,2.23-.75,4.62-2.06,6.81l-3.28-1.08c1.38-2.52,2.06-4.36,2.1-6.55.03-1.44-.49-2.56-1.9-2.56-3.77,0-9.44,10.75-9.83,19.07-.23,4.19.98,6.58,3.64,6.58,2,0,4.13-1.57,5.67-4.36l2.1,1.08c-2.16,3.8-4.65,6.42-8.42,6.42-4.78,0-7.6-3.51-7.4-8.91Z"/>
      <path class="cls-2" d="M146.89,138.69c-.95,0-1.57.95-1.96,1.93l-.13.39h-4.23l9.76-26.67h4.23l-8.03,21.92c.26-.1.49-.16.75-.16,2.56,0,2.16,2.36,4.16,2.36,3.9,0,8.98-8.58,9.14-17.82.1-5.24-1.87-8.19-6.03-8.19-3.47,0-6.55,2-8.22,4.06-2.55,3.18-3.47,6.39-2.92,9.99l-3.01,1.57c-2.16-3.77-.82-8.91,2.98-13.1,2.13-2.36,6.19-4.55,11.43-4.55,6.78,0,10.09,4.36,9.93,11.47-.2,8.09-5.54,19.56-12.78,19.56-3.87,0-3.41-2.75-5.08-2.75Z"/>
      <path class="cls-2" d="M163.24,138.23c0-2,.98-4.06,3.05-10.78h3.73c-.95,2.72-3.14,8.58-3.14,9.73,0,.66.33,1.05.85,1.05,1.7,0,3.77-3.08,4.62-4.42l2.03,1.05c-2.56,4.23-4.88,6.26-7.63,6.26-1.93,0-3.51-1.21-3.51-2.88ZM169.43,121.85c.95,0,1.7.72,1.7,1.7-.03,1.34-1.15,2.46-2.42,2.46-.95,0-1.7-.75-1.7-1.74.03-1.34,1.15-2.42,2.42-2.42Z"/>
      <path class="cls-2" d="M171.92,135.09c1.7-2.59,3.24-5.44,4.39-7.99h5.01c-1.41,1.74-.69,3.44-.1,4.75.52,1.15,1.31,2.52,1.31,4.36v.36c1.61-.29,2.49-1.38,3.34-2.75l2.03,1.05c-1.18,2.13-3.01,3.87-5.83,3.87h-.33c-.92,1.38-2.65,2.29-4.82,2.29-3.96,0-5.4-3.31-5.01-5.93ZM176.5,138.59c.59,0,1.12-.2,1.51-.49-1.54-.52-2.79-1.24-3.7-1.87.16,1.44.95,2.36,2.2,2.36ZM179.06,136.33c.03-.13.03-.26.03-.39,0-1.7-1.15-3.54-1.47-5.44-.98,1.54-2,3.05-2.56,3.9,1.08.79,2.36,1.54,4,1.93Z"/>
      <path class="cls-2" d="M185.48,137.64c0-1.38.88-4.32,2.23-8.42h-1.7v-1.77h2.29c1.18-3.54,2.62-7.73,4.09-12.45h3.74c-1.18,3.57-2.85,8.26-4.29,12.45h3.9v1.77h-4.49c-1.28,3.83-2.26,6.98-2.26,7.96,0,.66.33,1.05,1.02,1.05,2.75,0,5.18-3.08,6.03-4.42l2.03,1.05c-2.55,4.23-5.57,6.26-8.81,6.26-2.26,0-3.77-1.02-3.77-3.47Z"/>
      <path class="cls-2" d="M201.3,137.9c0-1.7.59-4.13,2.16-7.67-1.02-.1-1.93-.33-2.69-.62-.56,2.06-1.67,4.16-2.29,5.24-.13.23-1.15,1.8-2.16,2.59l-1.51-1.31c.59-.69,1.08-1.44,1.67-2.59,1.02-1.93,1.31-3.8,1.28-6.88l3.5-.79c.92,1.31,2.82,2.23,5.47,2.23.53,0,.98-.03,1.51-.07-2.75,4.98-3.31,8.09-3.31,9.11,0,.56.29,1.08.92,1.08,1.18,0,2.78-1.9,4.39-4.42l2.03,1.05c-2.55,4.23-4.95,6.26-7.27,6.26-2.06,0-3.7-1.15-3.7-3.21Z"/>
      <path class="cls-2" d="M210.21,136.17c.03-5.21,3.73-8.81,6.95-8.81,2.65,0,4.16,1.38,4.03,3.37l-2.82.62c.16-1.34-.29-2.03-1.02-2.03-1.67,0-3.24,3.83-3.24,6.62,0,1.28.88,2.29,2.29,2.29,1.64,0,4.03-1.34,5.8-4.42l2.03,1.05c-2.19,3.7-5.47,6.26-8.75,6.26s-5.31-1.9-5.28-4.95Z"/>
      <path class="cls-2" d="M221.52,138.23c0-2,.98-4.06,3.05-10.78h3.73c-.95,2.72-3.14,8.58-3.14,9.73,0,.66.33,1.05.85,1.05,1.71,0,3.77-3.08,4.62-4.42l2.03,1.05c-2.55,4.23-4.88,6.26-7.63,6.26-1.93,0-3.51-1.21-3.51-2.88ZM227.71,121.85c.95,0,1.7.72,1.7,1.7-.03,1.34-1.15,2.46-2.43,2.46-.95,0-1.7-.75-1.7-1.74.03-1.34,1.15-2.42,2.43-2.42Z"/>
      <path class="cls-2" d="M230.23,137.64c0-1.38.88-4.32,2.23-8.42h-1.7v-1.77h2.29c1.18-3.54,2.62-7.73,4.09-12.45h3.74c-1.18,3.57-2.85,8.26-4.29,12.45h3.9v1.77h-4.49c-1.28,3.83-2.26,6.98-2.26,7.96,0,.66.33,1.05,1.02,1.05,2.75,0,5.18-3.08,6.03-4.42l2.03,1.05c-2.55,4.23-5.57,6.26-8.81,6.26-2.26,0-3.77-1.02-3.77-3.47Z"/>
      <path class="cls-2" d="M267.32,130.17h-13.07v-2.03c5.44-1.34,11.07-10.71,12.32-17.49h4c-1.18,6.52-5.83,14.12-10.84,17.43h8.29l5.7-17.43h4.03l-5.7,17.43h4.03v2.1h-4.72l-3.54,10.84h-4.03l3.54-10.84Z"/>
      <path class="cls-2" d="M291.69,141.02l2.59-30.34h4.13l-2.23,24.6,10.81-24.6h4.26l-1.38,24.6,9.96-24.6h3.04l-12.81,30.34h-4.49l1.18-23.16-10.58,23.16h-4.49Z"/>
      <path class="cls-2" d="M316.03,138.23c0-2,.98-4.06,3.05-10.78h3.73c-.95,2.72-3.14,8.58-3.14,9.73,0,.66.33,1.05.85,1.05,1.7,0,3.77-3.08,4.62-4.42l2.03,1.05c-2.56,4.23-4.88,6.26-7.63,6.26-1.93,0-3.51-1.21-3.51-2.88ZM322.22,121.85c.95,0,1.7.72,1.7,1.7-.03,1.34-1.15,2.46-2.42,2.46-.95,0-1.7-.75-1.7-1.74.03-1.34,1.15-2.42,2.42-2.42Z"/>
      <path class="cls-2" d="M333.66,133.94c1.28-3.37,1.47-4.36.72-4.36-1.57,0-5.41,5.54-7.44,11.43h-3.7c1.74-5.5,3.77-12.02,4.22-13.56h3.64c-.26.69-.75,2.16-1.34,4,1.9-2.62,3.9-4.23,6.03-4.23,2.59,0,3.47,1.9,2.33,4.82-1.87,4.75-2,6.19-.79,6.19s2.65-1.9,4.26-4.42l2.03,1.05c-2.29,3.83-5.04,6.26-7.77,6.26-3.08,0-3.9-2.65-2.19-7.17Z"/>
      <path class="cls-2" d="M350.1,133.94c1.28-3.37,1.47-4.36.72-4.36-1.57,0-5.4,5.54-7.44,11.43h-3.7c1.74-5.5,3.77-12.02,4.23-13.56h3.64c-.26.69-.75,2.16-1.34,4,1.9-2.62,3.9-4.23,6.03-4.23,2.59,0,3.47,1.9,2.33,4.82-1.87,4.75-2,6.19-.79,6.19s2.65-1.9,4.26-4.42l2.03,1.05c-2.29,3.83-5.04,6.26-7.76,6.26-3.08,0-3.9-2.65-2.2-7.17Z"/>
      <path class="cls-2" d="M358.1,136.23c0-5.47,3.87-8.88,7.04-8.88,2.36,0,3.74,1.15,3.74,3.08,0,1.34-.66,2.92-1.9,3.96-1.7,1.41-3.41,2.1-4.95,2.26.29,1.15,1.08,1.57,2.26,1.57,2.46,0,5.21-1.34,7.14-4.42l2.03,1.05c-3.08,4.68-6.49,6.26-9.93,6.26s-5.44-1.8-5.44-4.88ZM365.11,133.06c.92-.82,1.34-1.93,1.31-2.88-.03-.49-.36-.85-.88-.85-1.71,0-3.18,2.75-3.54,5.24,1.08-.2,2.2-.69,3.11-1.51Z"/>
      <path class="cls-2" d="M376.7,137.9c0-1.7.59-4.13,2.16-7.67-1.02-.1-1.93-.33-2.69-.62-.56,2.06-1.67,4.16-2.29,5.24-.13.23-1.15,1.8-2.16,2.59l-1.51-1.31c.59-.69,1.08-1.44,1.67-2.59,1.02-1.93,1.31-3.8,1.28-6.88l3.5-.79c.92,1.31,2.82,2.23,5.47,2.23.53,0,.98-.03,1.51-.07-2.75,4.98-3.31,8.09-3.31,9.11,0,.56.29,1.08.92,1.08,1.18,0,2.78-1.9,4.39-4.42l2.03,1.05c-2.55,4.23-4.95,6.26-7.27,6.26-2.06,0-3.7-1.15-3.7-3.21Z"/>
      <path class="cls-2" d="M389.78,136.95c.95,0,1.7.72,1.7,1.7-.03,1.34-1.05,2.46-2.42,2.46-.95,0-1.7-.75-1.7-1.74.03-1.34,1.05-2.42,2.42-2.42ZM396.26,111.5h4.29l-8.45,23.13h-2.85l7.01-23.13Z"/>
    </g>
    <g>
      <g class="cls-6">
        <polygon class="cls-7" points="247 239.26 248.91 264.88 241.52 266.87 239.61 241.24 247 239.26"/>
        <path class="cls-7" d="M239.69,269.58l-1.91-25.62c-.09-1.16.5-2.36,1.83-2.71l1.91,25.62c-1.32.35-1.91,1.55-1.83,2.71Z"/>
        <polygon class="cls-7" points="210.06 249.17 211.97 274.79 208.12 261.11 206.22 235.48 210.06 249.17"/>
        <polygon class="cls-7" points="216.26 247.5 218.17 273.12 211.97 274.79 210.06 249.17 216.26 247.5"/>
        <path class="cls-7" d="M219.46,249.11l1.91,25.62c-.29-1.03-1.3-1.74-2.47-1.72-.23,0-.48.04-.72.1l-1.91-25.62c.24-.07.48-.1.72-.1,1.18-.02,2.19.68,2.47,1.72Z"/>
        <polygon class="cls-7" points="206.05 250.24 207.95 275.86 201.94 277.47 200.03 251.85 206.05 250.24"/>
        <polygon class="cls-7" points="275.62 245.82 277.53 271.44 264.58 274.91 262.67 249.29 275.62 245.82"/>
        <path class="cls-7" d="M262.67,249.29l1.91,25.62c-1.74-6.2-7.38-10.51-13.08-10.4-.87.02-1.73.13-2.59.36l-1.91-25.62c.86-.23,1.72-.35,2.59-.36,5.7-.11,11.34,4.2,13.08,10.4Z"/>
        <path class="cls-7" d="M200.04,279.96l-1.91-25.62c-.08-1.09.62-2.15,1.9-2.49l1.91,25.62c-1.28.34-1.98,1.41-1.9,2.49Z"/>
        <polygon class="cls-7" points="172.49 259.24 174.39 284.86 170.54 271.18 168.63 245.55 172.49 259.24"/>
        <polygon class="cls-7" points="176.49 258.16 178.4 283.78 174.39 284.86 172.49 259.24 176.49 258.16"/>
        <polygon class="cls-7" points="171.02 259.62 172.93 285.25 168.46 286.45 166.55 260.82 171.02 259.62"/>
        <path class="cls-7" d="M180.16,260.03l1.91,25.62c-.34-1.23-1.36-2.03-2.73-2-.3,0-.61.05-.94.14l-1.91-25.62c.33-.09.64-.13.94-.14,1.37-.03,2.38.77,2.73,2Z"/>
        <path class="cls-7" d="M166.64,289.15l-1.91-25.62c-.09-1.16.5-2.34,1.82-2.7l1.91,25.62c-1.32.36-1.91,1.54-1.82,2.7Z"/>
        <polygon class="cls-7" points="143.38 267.04 145.29 292.66 139.36 294.25 137.46 268.63 143.38 267.04"/>
        <polygon class="cls-7" points="137.46 268.63 139.36 294.25 135.52 280.57 133.61 254.95 137.46 268.63"/>
        <path class="cls-7" d="M146.58,268.65l1.91,25.62c-.29-1.03-1.3-1.73-2.48-1.71-.24,0-.48.04-.72.1l-1.91-25.62c.24-.07.48-.1.72-.1,1.18-.02,2.2.68,2.48,1.71Z"/>
        <path class="cls-7" d="M265.41,260.09l1.91,25.62c-.07-.95-.24-1.9-.5-2.85l-1.91-25.62c.27.95.43,1.9.5,2.85Z"/>
        <polygon class="cls-7" points="182.29 267.61 184.2 293.24 182.06 285.65 180.16 260.03 182.29 267.61"/>
        <polygon class="cls-7" points="255.82 263.28 257.72 288.9 245.95 292.06 244.05 266.43 255.82 263.28"/>
        <polygon class="cls-7" points="227.74 278.59 229.65 304.21 221.36 274.73 219.46 249.11 227.74 278.59"/>
        <polygon class="cls-7" points="137.22 283.11 139.12 308.73 125.8 312.31 123.9 286.68 137.22 283.11"/>
        <path class="cls-7" d="M114.86,303.37l-1.91-25.62c-.11-1.52.77-2.09,1.6-2.31.3-.08.59-.12.88-.13,4.55-.08,7.69,8.64,8.46,11.38l1.91,25.62c-.77-2.74-3.91-11.46-8.46-11.38-.29,0-.58.05-.88.13-.84.23-1.72.79-1.6,2.31Z"/>
        <path class="cls-7" d="M227.86,279.23l1.91,25.62c-.02-.21-.05-.43-.11-.64l-1.91-25.62c.06.21.1.43.11.64Z"/>
        <path class="cls-7" d="M90.55,315.47l-1.91-25.62c-.27-3.63.21-7.52,3.2-8.33.21-.06.44-.09.67-.1.86-.02,1.78.44,2.29,2.25l1.91,25.62c-.51-1.81-1.43-2.27-2.29-2.25-.23,0-.46.04-.67.1-2.99.8-3.47,4.69-3.2,8.33Z"/>
        <polygon class="cls-7" points="186.21 281.56 188.12 307.18 172.8 311.29 170.89 285.67 186.21 281.56"/>
        <polygon class="cls-7" points="188.35 289.15 190.26 314.77 188.12 307.18 186.21 281.56 188.35 289.15"/>
        <path class="cls-7" d="M188.46,289.78l1.91,25.62c-.02-.21-.05-.42-.11-.63l-1.91-25.62c.06.21.09.42.11.63Z"/>
        <polygon class="cls-7" points="89.69 295.85 91.6 321.48 78.28 325.05 76.37 299.43 89.69 295.85"/>
        <polygon class="cls-7" points="76.37 299.43 78.28 325.05 70.67 297.96 68.76 272.34 76.37 299.43"/>
        <polygon class="cls-7" points="154.87 298.12 156.78 323.74 148.49 294.27 146.58 268.65 154.87 298.12"/>
        <path class="cls-7" d="M154.98,298.76l1.91,25.62c-.02-.21-.05-.43-.11-.64l-1.91-25.62c.06.21.1.43.11.64Z"/>
        <polygon class="cls-7" points="223.58 297.25 225.49 322.88 221.64 309.2 219.74 283.58 223.58 297.25"/>
        <path class="cls-7" d="M268.06,218.9l7.56,26.92-12.95,3.47c-1.74-6.2-7.38-10.51-13.08-10.4-.87.02-1.73.13-2.59.36l-7.39,1.99c-1.55.41-2.09,1.98-1.72,3.3l2.04,7.24,11.77-3.16,4.12,14.66-11.77,3.15,2.13,7.59c.29,1.04,1.25,1.76,2.41,1.73.23,0,.46-.04.7-.1l7.39-1.98c6.48-1.74,10.24-9.29,8.23-16.44l12.95-3.47,7.56,26.91-61.84,16.58-3.84-13.68,6.2-1.66c1.64-.44,2.2-1.92,1.8-3.33l-8.29-29.48c-.29-1.03-1.3-1.74-2.47-1.72-.23,0-.48.04-.72.1l-6.2,1.67-3.84-13.68,61.84-16.58Z"/>
        <polygon class="cls-7" points="285.42 280.67 287.33 306.3 225.49 322.88 223.58 297.25 285.42 280.67"/>
        <polygon class="cls-7" points="102.79 312.08 104.7 337.71 96.71 309.29 94.8 283.67 102.79 312.08"/>
        <path class="cls-7" d="M102.9,312.7l1.91,25.62c-.01-.2-.05-.41-.11-.61l-1.91-25.62c.06.21.1.41.11.61Z"/>
        <polygon class="cls-7" points="219.56 298.33 221.47 323.95 187.91 332.96 186.01 307.33 219.56 298.33"/>
        <polygon class="cls-7" points="186.01 307.33 187.91 332.96 184.06 319.27 182.15 293.65 186.01 307.33"/>
        <path class="cls-7" d="M202.2,236.56l3.84,13.68-6.01,1.61c-1.46.39-2.17,1.72-1.82,2.95l8.29,29.48c.33,1.21,1.31,2.11,2.55,2.08.21,0,.43-.03.65-.09l6.01-1.61,3.84,13.68-33.56,9-3.85-13.68,4.38-1.17c1.64-.44,2.2-1.92,1.81-3.33l-2.14-7.59-15.32,4.11,2.13,7.59c.34,1.21,1.31,2.11,2.55,2.08.21,0,.43-.03.65-.09l4.47-1.2,3.84,13.68-33.57,9-3.84-13.68,5.92-1.59c1.64-.44,2.21-1.92,1.81-3.33l-8.29-29.48c-.29-1.03-1.3-1.73-2.48-1.71-.24,0-.48.04-.72.1l-5.92,1.59-3.84-13.68,33.57-9,3.84,13.68-4.47,1.2c-1.55.42-2.09,1.98-1.71,3.31l2.13,7.59,15.32-4.11-2.13-7.59c-.34-1.23-1.36-2.03-2.73-2-.3,0-.61.05-.94.14l-4.01,1.08-3.85-13.68,33.57-8.99Z"/>
        <polygon class="cls-7" points="150.98 316.72 152.88 342.34 149.04 328.67 147.13 303.04 150.98 316.72"/>
        <polygon class="cls-7" points="184.54 307.72 186.45 333.34 152.88 342.34 150.98 316.72 184.54 307.72"/>
        <polygon class="cls-7" points="134.47 321.15 136.38 346.77 100.53 356.38 98.62 330.76 134.47 321.15"/>
        <polygon class="cls-7" points="98.62 330.76 100.53 356.38 96.68 342.7 94.78 317.07 98.62 330.76"/>
        <path class="cls-7" d="M129.6,256.02l7.62,27.09-13.32,3.57c-.77-2.74-3.91-11.46-8.46-11.38-.29,0-.58.05-.88.13-1,.27-2.06,1.02-1.42,3.32l8.09,28.76c.37,1.04,1.3,1.72,2.5,1.7.2,0,.4-.03.61-.07l6.29-1.68,3.85,13.68-35.85,9.61-3.84-13.68,6.2-1.66c1.59-.61,2.21-1.92,1.81-3.33l-7.99-28.42c-.51-1.81-1.43-2.27-2.29-2.25-.23,0-.46.04-.67.1-5.02,1.35-2.97,11.42-2.15,14.34l-13.32,3.57-7.61-27.09,60.84-16.32Z"/>
      </g>
      <g class="cls-6">
        <polygon class="cls-7" points="798.04 105.97 799.95 131.59 786.63 135.16 784.72 109.53 798.04 105.97"/>
        <path class="cls-7" d="M775.67,126.22l-1.91-25.62c-.11-1.52.77-2.09,1.61-2.32.3-.08.59-.12.88-.13,4.54-.08,7.69,8.65,8.46,11.38l1.91,25.62c-.77-2.73-3.92-11.46-8.46-11.38-.29,0-.58.05-.88.13-.84.23-1.73.8-1.61,2.32Z"/>
        <path class="cls-7" d="M751.37,138.32l-1.91-25.62c-.27-3.63.21-7.52,3.2-8.33.21-.06.44-.09.67-.1.86-.02,1.78.44,2.29,2.25l1.91,25.62c-.51-1.81-1.43-2.26-2.29-2.25-.23,0-.46.04-.67.1-2.99.8-3.47,4.69-3.2,8.33Z"/>
        <polygon class="cls-7" points="737.19 122.28 739.1 147.9 731.49 120.81 729.58 95.19 737.19 122.28"/>
        <polygon class="cls-7" points="731.51 118.1 733.42 143.73 719.82 147.37 717.92 121.75 731.51 118.1"/>
        <path class="cls-7" d="M697.85,147.54l-1.91-25.62c-.14-1.94,2.1-3.76,6.14-4.84,1.12-.3,2.56-.49,4.11-.52,4.64-.09,10.32,1.24,11.72,5.2l1.91,25.62c-1.4-3.96-7.08-5.29-11.72-5.2-1.55.03-2.99.22-4.11.52-4.04,1.08-6.29,2.9-6.14,4.84Z"/>
        <polygon class="cls-7" points="750.51 118.7 752.42 144.33 739.1 147.9 737.19 122.28 750.51 118.7"/>
        <polygon class="cls-7" points="649.51 131.36 651.42 156.98 644.03 158.96 642.12 133.34 649.51 131.36"/>
        <path class="cls-7" d="M642.2,161.68l-1.91-25.62c-.09-1.17.5-2.36,1.83-2.72l1.91,25.62c-1.32.36-1.91,1.55-1.83,2.72Z"/>
        <polygon class="cls-7" points="612.57 141.26 614.48 166.88 610.63 153.21 608.73 127.58 612.57 141.26"/>
        <polygon class="cls-7" points="618.77 139.6 620.68 165.22 614.48 166.88 612.57 141.26 618.77 139.6"/>
        <path class="cls-7" d="M621.97,141.2l1.91,25.62c-.29-1.03-1.3-1.73-2.48-1.71-.23,0-.47.04-.72.1l-1.91-25.62c.24-.07.48-.1.72-.1,1.17-.02,2.19.68,2.48,1.71Z"/>
        <polygon class="cls-7" points="678.13 137.92 680.04 163.55 667.08 167.02 665.18 141.39 678.13 137.92"/>
        <path class="cls-7" d="M665.18,141.39l1.91,25.62c-1.74-6.2-7.38-10.51-13.08-10.4-.87.02-1.73.13-2.59.36l-1.91-25.62c.86-.23,1.72-.35,2.59-.36,5.7-.11,11.34,4.2,13.08,10.4Z"/>
        <polygon class="cls-7" points="763.61 134.93 765.52 160.56 757.53 132.14 755.62 106.52 763.61 134.93"/>
        <path class="cls-7" d="M763.72,135.54l1.91,25.62c-.01-.2-.05-.4-.11-.6l-1.91-25.62c.06.2.09.41.11.6Z"/>
        <polygon class="cls-7" points="586.67 148.2 588.57 173.82 583.19 175.27 581.29 149.64 586.67 148.2"/>
        <path class="cls-7" d="M580.84,177.91l-1.91-25.62c-.09-1.16.8-2.23,2.35-2.65l1.91,25.62c-1.55.42-2.44,1.49-2.35,2.65Z"/>
        <polygon class="cls-7" points="550.91 157.79 552.82 183.42 548.97 169.73 547.07 144.11 550.91 157.79"/>
        <polygon class="cls-7" points="557.11 156.12 559.02 181.75 552.82 183.42 550.91 157.79 557.11 156.12"/>
        <path class="cls-7" d="M724.34,145.49l1.91,25.62c-.01-.19-.05-.38-.1-.58-.62-2.19-3.53-2.7-7.41-2.63-2.06.04-4.4.24-6.81.45-2.41.21-4.89.41-7.25.46-.84.02-1.67.01-2.47-.02-9.92-.38-17.62-4.38-20.07-13.13-.48-1.7-.77-3.34-.89-4.91l-1.91-25.62c.12,1.58.41,3.22.89,4.91,2.45,8.74,10.16,12.75,20.07,13.13.8.03,1.62.04,2.47.02,2.36-.04,4.84-.25,7.25-.46,2.41-.21,4.75-.41,6.81-.45,3.88-.07,6.79.44,7.41,2.63.06.2.09.39.1.58Z"/>
        <path class="cls-7" d="M560.31,157.74l1.91,25.62c-.29-1.04-1.31-1.74-2.49-1.71-.23,0-.47.04-.71.1l-1.91-25.62c.24-.06.48-.1.71-.1,1.18-.02,2.2.68,2.49,1.71Z"/>
        <path class="cls-7" d="M667.92,152.19l1.91,25.62c-.07-.95-.24-1.9-.5-2.85l-1.91-25.62c.27.95.43,1.9.5,2.85Z"/>
        <polygon class="cls-7" points="518.62 166.45 520.53 192.07 514.87 193.58 512.97 167.96 518.62 166.45"/>
        <polygon class="cls-7" points="658.32 155.37 660.23 181 648.46 184.15 646.56 158.53 658.32 155.37"/>
        <path class="cls-7" d="M512.6,196.42l-1.91-25.62c-.09-1.27.7-2.42,2.28-2.84l1.91,25.62c-1.58.42-2.37,1.56-2.28,2.84Z"/>
        <polygon class="cls-7" points="795.29 144 797.19 169.62 761.35 179.23 759.44 153.61 795.29 144"/>
        <path class="cls-7" d="M790.42,78.88l7.62,27.09-13.32,3.56c-.77-2.73-3.92-11.46-8.46-11.38-.29,0-.58.05-.88.13-1,.27-2.07,1.03-1.43,3.32l8.09,28.77c.38,1.04,1.31,1.72,2.52,1.7.19,0,.39-.03.6-.07l6.29-1.69,3.84,13.68-35.85,9.61-3.84-13.68,6.2-1.67c1.59-.61,2.2-1.92,1.81-3.33l-7.99-28.42c-.51-1.81-1.43-2.26-2.29-2.25-.23,0-.46.04-.67.1-5.02,1.35-2.97,11.42-2.15,14.34l-13.32,3.57-7.61-27.09,60.84-16.31Z"/>
        <polygon class="cls-7" points="759.44 153.61 761.35 179.23 757.5 165.55 755.6 139.93 759.44 153.61"/>
        <path class="cls-7" d="M527.43,170.92l1.91,25.62c-.03-.34-.09-.68-.18-1-.58-2.06-2.51-3.95-5.92-3.88-.82.02-1.72.14-2.71.41l-1.91-25.62c.99-.27,1.89-.39,2.71-.41,3.4-.06,5.33,1.82,5.92,3.88.09.32.15.66.18,1Z"/>
        <polygon class="cls-7" points="489.16 174.34 491.07 199.97 484.86 201.63 482.96 176 489.16 174.34"/>
        <polygon class="cls-7" points="482.96 176 484.86 201.63 481.02 187.95 479.11 162.33 482.96 176"/>
        <path class="cls-7" d="M492.46,176.3l1.91,25.62c-.32-1.13-1.3-2.08-2.61-2.06-.22,0-.45.04-.69.1l-1.91-25.62c.24-.06.47-.1.69-.1,1.31-.02,2.29.93,2.61,2.06Z"/>
        <polygon class="cls-7" points="478.95 177.08 480.86 202.71 475.57 204.12 473.66 178.5 478.95 177.08"/>
        <path class="cls-7" d="M602.06,169.84l1.91,25.62c-.07-.95-.24-1.9-.5-2.85l-1.91-25.62c.27.95.43,1.9.5,2.85Z"/>
        <path class="cls-7" d="M473.74,206.84l-1.91-25.62c-.09-1.17.5-2.36,1.83-2.72l1.91,25.62c-1.32.35-1.91,1.55-1.83,2.72Z"/>
        <polygon class="cls-7" points="630.25 170.68 632.16 196.3 623.87 166.83 621.97 141.2 630.25 170.68"/>
        <path class="cls-7" d="M630.37,171.33l1.91,25.62c-.02-.21-.05-.43-.12-.64l-1.91-25.62c.06.21.1.43.12.64Z"/>
        <path class="cls-7" d="M741.21,142.37l1.91,25.62c.86,11.53-8.44,18.58-20.67,21.86-2.46.66-4.92,1.05-7.29,1.09-.45,0-.89,0-1.33-.01-.14,0-.27,0-.41,0-.81.02-1.5.13-1.97.26-1.73.47-2.77,2.09-2.82,2.18l-1.91-25.62c.05-.09,1.09-1.71,2.82-2.18.47-.12,1.17-.24,1.97-.26.13,0,.27,0,.41,0,.44.02.89.02,1.33.01,2.38-.04,4.83-.43,7.29-1.09,12.22-3.28,21.52-10.33,20.67-21.86Z"/>
        <polygon class="cls-7" points="692.03 171.68 693.94 197.3 687.61 174.8 685.71 149.17 692.03 171.68"/>
        <path class="cls-7" d="M725.39,96.31l6.13,21.79-13.6,3.65c-1.4-3.96-7.08-5.29-11.72-5.2-1.55.03-2.99.22-4.11.52-4.37,1.17-6.65,3.21-6.06,5.33.48,1.72,2.92,2.14,6.26,2.08,2.03-.04,4.4-.26,6.86-.48,2.48-.22,5.05-.44,7.48-.49.61-.01,1.2-.01,1.78,0,9.6.28,19,3.74,21.96,14.23,4.02,14.3-6.05,22.79-19.83,26.48-2.46.66-4.92,1.05-7.29,1.09-.45,0-.89,0-1.33-.01-.14,0-.27,0-.41,0-.81.02-1.5.13-1.97.26-1.73.47-2.77,2.09-2.82,2.18l-14.68,3.94-6.33-22.5,13.68-3.67c3.23,3.99,7.89,5.77,12.87,5.67,1.74-.03,3.51-.29,5.28-.77,2.55-.68,7.62-2.23,6.69-5.5-.62-2.19-3.53-2.7-7.41-2.63-2.06.04-4.4.24-6.81.45-2.41.21-4.89.41-7.25.46-.84.02-1.67.01-2.47-.02-9.92-.38-17.62-4.38-20.07-13.13-3.67-13.06,3.6-22.79,17.46-26.51,3.33-.89,5.63-1.24,8.06-1.29.1,0,.2,0,.3,0,1.19-.02,1.97-.14,2.56-.3,1.73-.47,2.18-1.35,2.26-1.75l14.5-3.88Z"/>
        <polygon class="cls-7" points="706.72 167.74 708.62 193.36 693.94 197.3 692.03 171.68 706.72 167.74"/>
        <polygon class="cls-7" points="408.25 196.03 410.16 221.66 403.78 223.36 401.87 197.74 408.25 196.03"/>
        <polygon class="cls-7" points="401.87 197.74 403.78 223.36 399.94 209.69 398.03 184.07 401.87 197.74"/>
        <path class="cls-7" d="M411.56,197.99l1.91,25.62c-.33-1.13-1.31-2.08-2.61-2.06-.22,0-.45.04-.69.1l-1.91-25.62c.24-.06.47-.1.69-.1,1.31-.02,2.29.93,2.61,2.06Z"/>
        <polygon class="cls-7" points="397.87 198.82 399.77 224.44 393.47 226.13 391.56 200.51 397.87 198.82"/>
        <polygon class="cls-7" points="568.7 187.56 570.6 213.18 562.22 183.36 560.31 157.74 568.7 187.56"/>
        <path class="cls-7" d="M549.34,169.21l1.91,25.62c1.04,14.02-13.19,19.39-22.52,21.89l-1.91-25.62c9.33-2.5,23.56-7.86,22.52-21.89Z"/>
        <path class="cls-7" d="M568.77,187.99l1.91,25.62c-.01-.14-.04-.29-.08-.43l-1.91-25.62c.04.14.07.29.08.43Z"/>
        <polygon class="cls-7" points="526.83 191.1 528.73 216.72 518.97 219.34 517.07 193.72 526.83 191.1"/>
        <path class="cls-7" d="M391.65,228.84l-1.91-25.62c-.09-1.16.5-2.35,1.82-2.71l1.91,25.62c-1.32.35-1.91,1.54-1.82,2.71Z"/>
        <polygon class="cls-7" points="362.01 208.43 363.92 234.05 360.07 220.37 358.17 194.75 362.01 208.43"/>
        <polygon class="cls-7" points="368.21 206.76 370.12 232.39 363.92 234.05 362.01 208.43 368.21 206.76"/>
        <polygon class="cls-7" points="687.93 172.78 689.84 198.4 628 214.98 626.09 189.35 687.93 172.78"/>
        <polygon class="cls-7" points="626.09 189.35 628 214.98 624.15 201.3 622.25 175.68 626.09 189.35"/>
        <path class="cls-7" d="M670.57,111.01l7.56,26.92-12.95,3.47c-1.74-6.2-7.38-10.51-13.08-10.4-.87.02-1.73.13-2.59.36l-7.39,1.98c-1.55.42-2.09,1.98-1.72,3.31l2.04,7.23,11.77-3.15,4.12,14.65-11.77,3.15,2.13,7.6c.29,1.03,1.25,1.76,2.41,1.73.23,0,.46-.04.7-.1l7.39-1.98c6.48-1.74,10.24-9.29,8.23-16.44l12.95-3.48,7.56,26.92-61.84,16.58-3.84-13.68,6.2-1.67c1.64-.44,2.2-1.92,1.8-3.33l-8.29-29.48c-.29-1.03-1.3-1.73-2.48-1.71-.23,0-.47.04-.72.1l-6.2,1.66-3.84-13.68,61.84-16.58Z"/>
        <path class="cls-7" d="M371.42,208.38l1.91,25.62c-.29-1.04-1.31-1.74-2.49-1.71-.23,0-.47.04-.71.1l-1.91-25.62c.24-.06.48-.1.71-.1,1.18-.02,2.2.68,2.49,1.71Z"/>
        <polygon class="cls-7" points="500.74 205.78 502.65 231.4 494.36 201.93 492.46 176.3 500.74 205.78"/>
        <path class="cls-7" d="M500.82,206.21l1.91,25.62c-.01-.14-.04-.29-.08-.43l-1.91-25.62c.04.14.07.29.08.43Z"/>
        <polygon class="cls-7" points="357.64 218.33 359.55 243.95 345.95 247.6 344.05 221.98 357.64 218.33"/>
        <path class="cls-7" d="M323.98,247.76l-1.91-25.62c-.14-1.94,2.1-3.76,6.14-4.84,1.12-.3,2.57-.49,4.12-.52,4.64-.09,10.31,1.24,11.71,5.2l1.91,25.62c-1.4-3.96-7.07-5.29-11.71-5.2-1.56.03-3,.22-4.12.52-4.04,1.08-6.29,2.9-6.14,4.84Z"/>
        <polygon class="cls-7" points="622.08 190.43 623.99 216.06 566.34 231.51 564.43 205.89 622.08 190.43"/>
        <path class="cls-7" d="M582.82,134.52l3.84,13.68-5.38,1.44c-1.74.47-2.65,1.76-2.28,3.08l8.38,29.83c.3,1.05,1.28,1.68,2.55,1.66.32,0,.66-.05,1.02-.15l2.37-.64c6.48-1.74,10.24-9.29,8.23-16.44l12.95-3.47,7.57,26.92-57.65,15.45-3.84-13.68,6.2-1.66c1.46-.39,2.26-1.74,1.91-2.98l-8.38-29.82c-.29-1.04-1.31-1.74-2.49-1.71-.23,0-.47.04-.71.1l-6.2,1.67-3.84-13.68,35.76-9.58Z"/>
        <polygon class="cls-7" points="564.43 205.89 566.34 231.51 562.49 217.83 560.59 192.2 564.43 205.89"/>
        <polygon class="cls-7" points="462.07 215.77 463.98 241.39 456.78 215.8 454.88 190.18 462.07 215.77"/>
        <path class="cls-7" d="M462.18,216.4l1.91,25.62c-.02-.21-.05-.42-.11-.63l-1.91-25.62c.06.21.09.42.11.63Z"/>
        <polygon class="cls-7" points="419.74 227.11 421.65 252.74 413.47 223.62 411.56 197.99 419.74 227.11"/>
        <path class="cls-7" d="M419.86,227.75l1.91,25.62c-.02-.21-.05-.43-.11-.64l-1.91-25.62c.06.21.1.43.11.64Z"/>
        <path class="cls-7" d="M548.49,164.52c4.93,17.56-11.36,23.82-21.66,26.58l-9.76,2.63,1.91,6.79c.35,1.23,1.37,2.03,2.73,2,.3,0,.61-.05.93-.14l5.84-1.57,3.85,13.68-35.85,9.61-3.84-13.68,6.2-1.67c1.46-.38,2.26-1.74,1.91-2.97l-8.29-29.48c-.32-1.13-1.3-2.08-2.61-2.06-.22,0-.45.04-.69.1l-6.2,1.66-3.84-13.68,36.85-9.88c3.62-.97,8.1-1.94,12.61-2.02,8.32-.16,16.72,2.69,19.92,14.09ZM521.65,177.21c5.11-1.37,6.33-4.73,5.6-7.29-.58-2.06-2.51-3.95-5.92-3.88-.82.02-1.72.14-2.71.41l-5.66,1.51c-1.82.49-2.6,1.93-2.17,3.43l2.28,8.12,8.57-2.3"/>
        <polygon class="cls-7" points="532.33 214.49 534.24 240.11 498.38 249.72 496.48 224.1 532.33 214.49"/>
        <polygon class="cls-7" points="496.48 224.1 498.38 249.72 494.54 236.05 492.63 210.42 496.48 224.1"/>
        <polygon class="cls-7" points="379.7 237.85 381.61 263.47 373.32 234 371.42 208.38 379.7 237.85"/>
        <path class="cls-7" d="M379.82,238.49l1.91,25.62c-.02-.21-.05-.43-.11-.64l-1.91-25.62c.06.21.1.43.11.64Z"/>
        <polygon class="cls-7" points="492.47 225.18 494.38 250.8 460.9 259.77 458.99 234.15 492.47 225.18"/>
        <polygon class="cls-7" points="454.88 190.18 456.78 215.8 454.7 261.43 452.79 235.81 454.88 190.18"/>
        <polygon class="cls-7" points="458.99 234.15 460.9 259.77 457.05 246.09 455.15 220.47 458.99 234.15"/>
        <polygon class="cls-7" points="451.69 236.1 453.6 261.72 427.87 223.56 425.96 197.93 451.69 236.1"/>
        <polygon class="cls-7" points="452.79 235.81 454.7 261.43 453.6 261.72 451.69 236.1 452.79 235.81"/>
        <path class="cls-7" d="M350.47,245.72l1.91,25.62c-.01-.19-.05-.38-.1-.57-.62-2.19-3.53-2.7-7.41-2.63-2.06.04-4.4.24-6.81.45-2.41.21-4.89.41-7.25.46-.84.02-1.67.01-2.47-.02-9.91-.38-17.62-4.38-20.07-13.13-.48-1.7-.77-3.34-.89-4.91l-1.91-25.62c.12,1.58.41,3.22.89,4.91,2.45,8.74,10.16,12.75,20.07,13.13.8.03,1.62.04,2.47.02,2.36-.04,4.84-.25,7.25-.46,2.41-.21,4.75-.41,6.81-.45,3.88-.07,6.79.44,7.41,2.63.06.2.09.39.1.57Z"/>
        <path class="cls-7" d="M475.11,163.4l3.84,13.68-5.29,1.42c-1.55.41-2.09,1.98-1.72,3.31l8.29,29.48c.3,1.05,1.29,1.68,2.55,1.66.32,0,.66-.05,1.01-.15l4.84-1.3,3.84,13.68-33.48,8.97-3.84-13.68,5.11-1.37c1.64-.44,2.2-1.92,1.81-3.33l-7.19-25.59-2.09,45.63-1.09.29-25.73-38.17,7.29,25.94c.3,1.04,1.26,1.76,2.42,1.74.22,0,.46-.04.69-.1l4.92-1.32,3.85,13.68-29.74,7.97-3.84-13.68,6.38-1.72c1.64-.44,2.21-1.92,1.81-3.33l-8.18-29.12c-.33-1.13-1.31-2.08-2.61-2.06-.22,0-.45.04-.69.1l-6.38,1.71-3.84-13.68,33.38-8.96c.49.66,9.78,13.14,10.27,13.86l.49-16.74,32.93-8.83Z"/>
        <polygon class="cls-7" points="445.13 237.86 447.04 263.49 417.3 271.46 415.39 245.84 445.13 237.86"/>
        <polygon class="cls-7" points="415.39 245.84 417.3 271.46 413.46 257.78 411.55 232.16 415.39 245.84"/>
        <polygon class="cls-7" points="375.54 256.52 377.45 282.14 373.59 268.46 371.69 242.84 375.54 256.52"/>
        <path class="cls-7" d="M394.01,185.13l3.85,13.68-6.3,1.69c-1.55.41-2.08,1.98-1.71,3.3l8.29,29.48c.29,1.04,1.25,1.76,2.4,1.73.23,0,.46-.04.7-.1l6.29-1.69,3.85,13.68-35.85,9.6-3.85-13.68,6.2-1.66c1.64-.44,2.21-1.92,1.81-3.33l-8.29-29.48c-.29-1.04-1.31-1.74-2.49-1.71-.23,0-.47.04-.71.1l-6.2,1.67-3.84-13.68,35.85-9.61Z"/>
        <polygon class="cls-7" points="411.39 246.91 413.29 272.54 377.45 282.14 375.54 256.52 411.39 246.91"/>
        <path class="cls-7" d="M367.34,242.59l1.91,25.62c.86,11.53-8.44,18.58-20.67,21.85-2.43.66-4.88,1.05-7.24,1.09-.46,0-.93,0-1.38-.01l-1.91-25.62c.46.02.92.02,1.38.01,2.36-.04,4.81-.43,7.24-1.09,12.22-3.27,21.52-10.32,20.67-21.85Z"/>
        <path class="cls-7" d="M338.05,265.52l1.91,25.62c-.12,0-.24,0-.36,0-.83.02-1.54.13-2.02.26-1.73.46-2.77,2.09-2.82,2.18l-1.91-25.62c.05-.09,1.09-1.72,2.82-2.18.48-.13,1.19-.25,2.02-.26.12,0,.24,0,.36,0Z"/>
        <polygon class="cls-7" points="318.16 271.9 320.07 297.53 313.74 275.02 311.84 249.4 318.16 271.9"/>
        <path class="cls-7" d="M351.52,196.53l6.13,21.8-13.6,3.65c-1.4-3.96-7.07-5.29-11.71-5.2-1.56.03-3,.22-4.12.52-4.37,1.17-6.65,3.2-6.06,5.33.48,1.72,2.92,2.14,6.27,2.08,2.03-.04,4.4-.26,6.86-.48,2.47-.22,5.05-.44,7.48-.49.61-.01,1.2-.01,1.79,0,9.59.28,18.99,3.73,21.95,14.23,4.02,14.3-6.05,22.79-19.83,26.48-2.43.66-4.88,1.05-7.24,1.09-.46,0-.93,0-1.38-.01-.12,0-.24,0-.36,0-.83.02-1.54.13-2.02.26-1.73.46-2.77,2.09-2.82,2.18l-14.68,3.94-6.33-22.5,13.68-3.67c3.24,3.99,7.9,5.76,12.88,5.67,1.74-.03,3.51-.29,5.28-.76,2.55-.68,7.62-2.24,6.69-5.5-.62-2.19-3.53-2.7-7.41-2.63-2.06.04-4.4.24-6.81.45-2.41.21-4.89.41-7.25.46-.84.02-1.67.01-2.47-.02-9.91-.38-17.62-4.38-20.07-13.13-3.67-13.06,3.6-22.79,17.46-26.51,3.33-.89,5.63-1.24,8.06-1.29.1,0,.2,0,.3,0,1.19-.02,1.97-.14,2.56-.31,1.73-.46,2.18-1.34,2.26-1.74l14.5-3.89Z"/>
        <polygon class="cls-7" points="332.85 267.97 334.75 293.59 320.07 297.53 318.16 271.9 332.85 267.97"/>
      </g>
    </g>
    <g>
      <g class="cls-6">
        <polygon class="cls-7" points="298.42 310.91 300.33 336.54 295.68 337.79 293.77 312.17 298.42 310.91"/>
        <path class="cls-7" d="M293.77,312.17l1.91,25.62c-2.29.61-3.26,3.05-3.58,3.99l-1.91-25.62c.33-.94,1.3-3.38,3.58-3.99Z"/>
        <polygon class="cls-7" points="268.41 318.96 270.32 344.58 266.48 330.91 264.57 305.28 268.41 318.96"/>
        <polygon class="cls-7" points="273.16 317.69 275.06 343.32 270.32 344.58 268.41 318.96 273.16 317.69"/>
        <path class="cls-7" d="M275.06,318.51l1.91,25.62c-.15-.5-.65-.91-1.38-.9-.16,0-.34.03-.53.08l-1.91-25.62c.19-.05.36-.07.53-.08.73-.01,1.23.39,1.38.9Z"/>
        <path class="cls-7" d="M275.1,318.77l1.91,25.62c0-.1-.02-.18-.04-.26l-1.91-25.62c.02.08.04.16.04.26Z"/>
        <polygon class="cls-7" points="266.77 319.4 268.68 345.02 264.21 346.22 262.3 320.6 266.77 319.4"/>
        <path class="cls-7" d="M262.97,347.65l-1.91-25.62c-.04-.57.35-1.19,1.24-1.43l1.91,25.62c-.89.24-1.28.86-1.24,1.43Z"/>
        <polygon class="cls-7" points="234.76 327.99 236.66 353.61 232.1 354.83 230.19 329.21 234.76 327.99"/>
        <polygon class="cls-7" points="230.19 329.21 232.1 354.83 228.26 341.16 226.35 315.53 230.19 329.21"/>
        <path class="cls-7" d="M239.93,329.64l1.91,25.62c-.66-.55-2.31-1.82-4.2-1.78-.32,0-.64.05-.97.14l-1.91-25.62c.33-.09.65-.13.97-.14,1.89-.04,3.54,1.23,4.2,1.78Z"/>
        <polygon class="cls-7" points="182.86 341.9 184.76 367.52 183.03 367.99 181.13 342.37 182.86 341.9"/>
        <polygon class="cls-7" points="159.6 348.13 161.5 373.76 158.22 374.64 156.32 349.01 159.6 348.13"/>
        <polygon class="cls-7" points="156.32 349.01 158.22 374.64 154.38 360.95 152.47 335.33 156.32 349.01"/>
        <polygon class="cls-7" points="154.85 349.41 156.76 375.03 154.4 375.66 152.49 350.04 154.85 349.41"/>
        <path class="cls-7" d="M181.13,342.37l1.91,25.62c-3.1.83-4.18,3.58-4.34,6.19l-1.91-25.62c.16-2.61,1.24-5.37,4.34-6.19Z"/>
        <path class="cls-7" d="M162.36,349.71l1.91,25.62c0-.11-.02-.21-.05-.31-.25-.92-1.08-1.38-2.01-1.37-.23,0-.46.04-.7.1l-1.91-25.62c.24-.06.47-.1.7-.1.93-.02,1.76.45,2.01,1.37.03.1.04.21.05.31Z"/>
        <path class="cls-7" d="M152.74,377.68l-1.91-25.62c-.07-.97.6-1.74,1.65-2.02l1.91,25.62c-1.05.28-1.72,1.06-1.65,2.02Z"/>
        <polygon class="cls-7" points="290.19 316.16 292.09 341.78 282.71 368.41 280.8 342.79 290.19 316.16"/>
        <polygon class="cls-7" points="130.23 356.01 132.14 381.63 129.4 382.36 127.49 356.74 130.23 356.01"/>
        <polygon class="cls-7" points="127.49 356.74 129.4 382.36 125.55 368.69 123.65 343.07 127.49 356.74"/>
        <polygon class="cls-7" points="126.04 357.14 127.94 382.76 125.02 383.54 123.11 357.91 126.04 357.14"/>
        <path class="cls-7" d="M132.99,357.55l1.91,25.62c0-.1-.02-.19-.05-.28-.26-.92-1.08-1.38-2.01-1.37-.23,0-.47.04-.7.1l-1.91-25.62c.24-.06.47-.1.7-.1.93-.02,1.75.44,2.01,1.37.03.09.04.18.05.28Z"/>
        <polygon class="cls-7" points="262.45 347.99 264.35 373.61 241.84 355.26 239.93 329.64 262.45 347.99"/>
        <path class="cls-7" d="M123.37,385.55l-1.91-25.62c-.07-.97.61-1.73,1.65-2.01l1.91,25.62c-1.04.28-1.72,1.05-1.65,2.01Z"/>
        <polygon class="cls-7" points="213.73 353.65 215.63 379.27 209.02 370.42 207.11 344.8 213.73 353.65"/>
        <polygon class="cls-7" points="207.11 344.8 209.02 370.42 207.88 381.35 205.97 355.72 207.11 344.8"/>
        <polygon class="cls-7" points="94.93 365.47 96.84 391.09 92.99 377.41 91.08 351.79 94.93 365.47"/>
        <polygon class="cls-7" points="97.12 364.88 99.03 390.5 96.84 391.09 94.93 365.47 97.12 364.88"/>
        <polygon class="cls-7" points="264.21 354.25 266.11 379.87 264.35 373.61 262.45 347.99 264.21 354.25"/>
        <path class="cls-7" d="M264.32,354.9l1.91,25.62c-.02-.21-.05-.43-.11-.64l-1.91-25.62c.06.21.1.43.11.64Z"/>
        <path class="cls-7" d="M103.91,368.09l1.91,25.62c-1.25-1.77-3.12-3.44-5.5-3.4-.41,0-.84.07-1.29.19l-1.91-25.62c.44-.12.87-.18,1.29-.19,2.39-.04,4.25,1.63,5.5,3.4Z"/>
        <polygon class="cls-7" points="222.64 365.49 224.55 391.11 223.11 389.12 221.2 363.5 222.64 365.49"/>
        <path class="cls-7" d="M223.05,366.24l1.91,25.62c-.06-.18-.22-.41-.41-.75l-1.91-25.62c.19.34.35.57.41.75Z"/>
        <polygon class="cls-7" points="221.2 363.5 223.11 389.12 206.6 393.55 204.69 367.93 221.2 363.5"/>
        <path class="cls-7" d="M223.12,366.66l1.91,25.62c-.01-.14-.03-.28-.07-.42l-1.91-25.62c.04.14.06.28.07.42Z"/>
        <polygon class="cls-7" points="204.69 367.93 206.6 393.55 206.4 395.98 204.49 370.35 204.69 367.93"/>
        <path class="cls-7" d="M206.4,396.2l-1.91-25.62c0-.07,0-.15,0-.22l1.91,25.62c0,.08,0,.15,0,.22Z"/>
        <polygon class="cls-7" points="259.95 372.95 261.86 398.58 258.01 384.89 256.1 359.27 259.95 372.95"/>
        <polygon class="cls-7" points="295.71 363.37 297.62 388.99 261.86 398.58 259.95 372.95 295.71 363.37"/>
        <path class="cls-7" d="M294.58,297.24l3.84,13.68-4.65,1.26c-2.29.61-3.26,3.05-3.58,3.99l-9.39,26.63,1.93,6.88c.29,1.04,1.25,1.76,2.41,1.73.23,0,.46-.04.7-.1l6.01-1.61,3.85,13.68-35.76,9.58-3.85-13.68,6.3-1.68c1.64-.44,2.2-1.92,1.8-3.34l-1.76-6.26-22.52-18.35c-.66-.55-2.31-1.82-4.2-1.78-.32,0-.64.05-.97.14l-4.56,1.22-3.84-13.68,36.58-9.81,3.84,13.68-4.47,1.2c-1,.27-1.38,1.04-1.2,1.65.07.26.38.66.63.87l9.29,7.58,3.94-11.12c.17-.42.16-.81.09-1.07-.15-.5-.65-.91-1.38-.9-.16,0-.34.03-.53.08l-4.74,1.27-3.84-13.68,30.01-8.05Z"/>
        <polygon class="cls-7" points="255.21 374.22 257.12 399.84 221.72 409.33 219.82 383.71 255.21 374.22"/>
        <polygon class="cls-7" points="219.82 383.71 221.72 409.33 217.88 395.66 215.97 370.03 219.82 383.71"/>
        <polygon class="cls-7" points="216.54 384.59 218.44 410.21 188.16 418.33 186.26 392.71 216.54 384.59"/>
        <polygon class="cls-7" points="186.26 392.71 188.16 418.33 184.31 404.65 182.4 379.03 186.26 392.71"/>
        <path class="cls-7" d="M221.91,368.44c1-.26,1.41-1.23,1.15-2.2-.06-.18-.22-.41-.41-.75l-1.44-1.99-16.51,4.43-.2,2.43c-.02.29.05.56.1.73.24.85,1.1,1.47,1.86,1.46.1,0,.21-.02.31-.04l5.93-1.59,3.84,13.68-30.28,8.12-3.85-13.68,4.38-1.17c2.28-.61,2.56-2.39,2.73-4.24l5.1-49.57,16.69-4.47,30,39.69c1.44,1.91,2.54,2.85,3.92,2.83.27,0,.56-.05.85-.13l5.29-1.42,3.85,13.68-35.4,9.49-3.84-13.68,5.93-1.59ZM205.97,355.72l7.75-2.07-6.61-8.85-1.14,10.93"/>
        <polygon class="cls-7" points="176.78 348.56 178.69 374.18 175.94 421.61 174.03 395.98 176.78 348.56"/>
        <polygon class="cls-7" points="160.44 399.62 162.35 425.25 147.98 404.52 146.08 378.9 160.44 399.62"/>
        <polygon class="cls-7" points="174.03 395.98 175.94 421.61 162.35 425.25 160.44 399.62 174.03 395.98"/>
        <polygon class="cls-7" points="146.08 378.9 147.98 404.52 146.57 429.47 144.67 403.85 146.08 378.9"/>
        <polygon class="cls-7" points="131.07 407.5 132.97 433.12 105.82 393.72 103.91 368.09 131.07 407.5"/>
        <polygon class="cls-7" points="144.67 403.85 146.57 429.47 132.97 433.12 131.07 407.5 144.67 403.85"/>
        <path class="cls-7" d="M179.01,328.22l3.84,13.68-1.73.47c-3.1.83-4.18,3.58-4.34,6.19l-2.75,47.43-13.59,3.64-14.36-20.72-1.41,24.95-13.6,3.65-27.16-39.41c-1.25-1.77-3.12-3.44-5.5-3.4-.41,0-.84.07-1.29.19l-2.19.59-3.85-13.68,31.11-8.34,3.84,13.68-2.92.78c-1.18.32-1.9,1.26-1.57,2.42.08.26.24.5.41.74l9.96,14.5,1.08-17.46c.01-.3.04-.58-.04-.84-.26-.92-1.08-1.38-2.01-1.37-.23,0-.47.04-.7.1l-2.74.73-3.84-13.68,27.37-7.34,3.84,13.68-2.37.63c-1.19.32-1.9,1.27-1.58,2.42.08.27.24.5.41.74l9.97,14.51,1.08-17.46c.01-.29.03-.58-.05-.84-.25-.92-1.08-1.38-2.01-1.37-.23,0-.46.04-.7.1l-3.28.88-3.84-13.68,26.54-7.11Z"/>
      </g>
      <g class="cls-6">
        <polygon class="cls-7" points="395.68 299.27 397.59 324.9 384.28 328.46 382.37 302.84 395.68 299.27"/>
        <path class="cls-7" d="M373.32,319.52l-1.91-25.62c-.11-1.52.77-2.09,1.6-2.32.3-.08.59-.12.88-.13,4.55-.08,7.69,8.65,8.47,11.38l1.91,25.62c-.78-2.73-3.92-11.46-8.47-11.38-.29,0-.58.05-.88.13-.84.23-1.72.8-1.6,2.32Z"/>
        <path class="cls-7" d="M349.02,331.63l-1.91-25.62c-.27-3.64.21-7.53,3.2-8.34.21-.06.44-.09.67-.1.86-.02,1.79.44,2.3,2.25l1.91,25.62c-.51-1.81-1.44-2.26-2.3-2.25-.23,0-.46.04-.67.1-2.98.8-3.47,4.7-3.2,8.34Z"/>
        <polygon class="cls-7" points="334.85 315.58 336.75 341.2 329.13 314.11 327.23 288.49 334.85 315.58"/>
        <polygon class="cls-7" points="348.16 312.01 350.06 337.63 336.75 341.2 334.85 315.58 348.16 312.01"/>
        <polygon class="cls-7" points="361.26 328.24 363.16 353.86 355.18 325.44 353.27 299.82 361.26 328.24"/>
        <path class="cls-7" d="M361.37,328.85l1.91,25.62c-.01-.2-.05-.41-.11-.61l-1.91-25.62c.06.21.1.41.11.61Z"/>
        <path class="cls-7" d="M388.07,272.18l7.61,27.09-13.31,3.56c-.78-2.73-3.92-11.46-8.47-11.38-.29,0-.58.05-.88.13-1,.27-2.06,1.03-1.42,3.32l8.09,28.77c.38,1.04,1.31,1.72,2.51,1.7.19,0,.39-.03.59-.07l6.3-1.69,3.84,13.68-35.85,9.61-3.84-13.68,6.19-1.67c1.59-.61,2.21-1.92,1.81-3.33l-7.98-28.42c-.51-1.81-1.44-2.26-2.3-2.25-.23,0-.46.04-.67.1-5.01,1.35-2.97,11.42-2.15,14.34l-13.31,3.57-7.62-27.09,60.84-16.31Z"/>
        <polygon class="cls-7" points="357.09 346.91 359 372.53 355.16 358.86 353.25 333.24 357.09 346.91"/>
        <polygon class="cls-7" points="392.94 337.3 394.85 362.92 359 372.53 357.09 346.91 392.94 337.3"/>
      </g>
      <g class="cls-6">
        <path class="cls-7" d="M445.6,298.64l1.91,25.62c-.2-2.67-.83-5.5-1.6-8.24-2.14-7.6-5.54-15.31-12.91-15.17-.93.02-1.93.16-3,.45-6.44,1.73-8.13,6.21-7.71,11.9l-1.91-25.62c-.42-5.68,1.26-10.17,7.71-11.9,1.07-.29,2.07-.43,3-.45,7.37-.14,10.77,7.57,12.91,15.17.77,2.74,1.41,5.57,1.6,8.24Z"/>
        <path class="cls-7" d="M464.89,284.8c4.54,16.15-2.62,34.29-23.06,39.77-3.18.85-6.24,1.28-9.16,1.34-15.87.3-27.62-10.4-31.45-24.04-4.55-16.16,2.62-34.3,23.05-39.78,3.18-.85,6.24-1.28,9.16-1.33,15.87-.3,27.62,10.4,31.46,24.05ZM438.02,310.98c9.48-2.54,8.39-12.02,5.98-20.58-2.14-7.6-5.54-15.31-12.91-15.17-.93.02-1.93.16-3,.45-9.48,2.55-8.66,11.05-5.98,20.58,2.35,8.36,5.52,15.34,12.68,15.21,1-.02,2.07-.18,3.24-.49"/>
        <path class="cls-7" d="M466.1,291.68l1.91,25.62c1.05,14.11-6.71,28.18-24.27,32.89-3.18.85-6.24,1.28-9.16,1.34-15.87.3-27.62-10.4-31.45-24.04-.64-2.27-1.05-4.58-1.22-6.89l-1.91-25.62c.17,2.31.58,4.62,1.22,6.89,3.83,13.64,15.58,24.34,31.45,24.04,2.92-.06,5.98-.48,9.16-1.34,17.57-4.71,25.32-18.78,24.27-32.89Z"/>
      </g>
      <g class="cls-6">
        <polygon class="cls-7" points="806.22 189.22 808.13 214.84 794.81 218.4 792.9 192.78 806.22 189.22"/>
        <path class="cls-7" d="M783.86,209.47l-1.91-25.62c-.11-1.52.77-2.09,1.6-2.32.3-.08.59-.12.88-.13,4.55-.08,7.69,8.65,8.46,11.38l1.91,25.62c-.77-2.73-3.91-11.46-8.46-11.38-.29,0-.58.05-.88.13-.84.23-1.72.8-1.6,2.32Z"/>
        <path class="cls-7" d="M759.56,221.56l-1.91-25.62c-.27-3.63.21-7.52,3.2-8.33.21-.06.44-.09.67-.1.86-.02,1.78.44,2.29,2.25l1.91,25.62c-.51-1.81-1.43-2.26-2.29-2.25-.23,0-.46.04-.67.1-2.99.8-3.47,4.69-3.2,8.33Z"/>
        <polygon class="cls-7" points="709.23 200.79 711.14 226.42 705.57 227.91 703.67 202.28 709.23 200.79"/>
        <path class="cls-7" d="M703.68,230.41l-1.91-25.62c-.08-1.09.61-2.15,1.9-2.5l1.91,25.62c-1.28.35-1.98,1.41-1.9,2.5Z"/>
        <path class="cls-7" d="M717.96,204.96l1.91,25.62c-.02-.32-.08-.65-.17-.96-.57-2.02-2.4-3.71-5.66-3.65-.86.02-1.82.15-2.89.44l-1.91-25.62c1.07-.29,2.03-.42,2.89-.44,3.27-.06,5.09,1.63,5.66,3.65.09.31.14.63.17.96Z"/>
        <polygon class="cls-7" points="680.32 208.54 682.22 234.16 676.02 235.83 674.11 210.21 680.32 208.54"/>
        <polygon class="cls-7" points="674.11 210.21 676.02 235.83 672.18 222.15 670.27 196.52 674.11 210.21"/>
        <polygon class="cls-7" points="758.7 201.95 760.6 227.58 747.28 231.15 745.38 205.53 758.7 201.95"/>
        <polygon class="cls-7" points="745.38 205.53 747.28 231.15 739.67 204.06 737.77 178.43 745.38 205.53"/>
        <path class="cls-7" d="M683.52,210.15l1.91,25.62c-.29-1.04-1.31-1.74-2.49-1.71-.23,0-.47.04-.71.1l-1.91-25.62c.24-.06.48-.1.71-.1,1.18-.02,2.2.68,2.49,1.71Z"/>
        <path class="cls-7" d="M738.43,199.34l1.91,25.62c.52,6.98-4.33,11.86-10.62,14.87l-1.91-25.62c6.28-3.01,11.14-7.9,10.62-14.87Z"/>
        <polygon class="cls-7" points="771.8 218.18 773.7 243.81 765.71 215.39 763.8 189.76 771.8 218.18"/>
        <path class="cls-7" d="M771.91,218.79l1.91,25.62c-.01-.2-.05-.41-.11-.61l-1.91-25.62c.06.21.1.41.11.61Z"/>
        <polygon class="cls-7" points="708.61 226.86 710.52 252.49 709.88 252.65 707.98 227.03 708.61 226.86"/>
        <path class="cls-7" d="M746.71,224.62l1.91,25.62c-.08-1.06-.42-2.29-.71-3.32l-1.91-25.62c.29,1.03.63,2.25.71,3.32Z"/>
        <polygon class="cls-7" points="642.14 238.8 644.05 264.43 637.43 255.56 635.52 229.94 642.14 238.8"/>
        <polygon class="cls-7" points="635.52 229.94 637.43 255.56 636.29 266.5 634.39 240.88 635.52 229.94"/>
        <polygon class="cls-7" points="612.76 241.08 614.67 266.7 601.35 270.27 599.44 244.65 612.76 241.08"/>
        <path class="cls-7" d="M590.4,261.33l-1.91-25.62c-.11-1.52.76-2.09,1.6-2.32.3-.08.59-.12.88-.13,4.55-.08,7.69,8.65,8.46,11.39l1.91,25.62c-.77-2.74-3.92-11.47-8.46-11.39-.29,0-.58.05-.88.13-.84.23-1.72.8-1.6,2.32Z"/>
        <path class="cls-7" d="M566.1,273.43l-1.91-25.62c-.27-3.64.22-7.53,3.2-8.33.21-.06.44-.1.67-.1.85-.02,1.78.45,2.28,2.25l1.91,25.62c-.51-1.81-1.43-2.27-2.28-2.25-.23,0-.46.04-.67.1-2.99.8-3.47,4.69-3.2,8.33Z"/>
        <polygon class="cls-7" points="691.81 239.63 693.71 265.25 685.43 235.78 683.52 210.15 691.81 239.63"/>
        <path class="cls-7" d="M691.92,240.26l1.91,25.62c-.02-.21-.05-.42-.11-.63l-1.91-25.62c.06.21.09.42.11.63Z"/>
        <path class="cls-7" d="M798.6,162.13l7.62,27.09-13.32,3.56c-.77-2.73-3.91-11.46-8.46-11.38-.29,0-.58.05-.88.13-1,.27-2.06,1.03-1.42,3.32l8.09,28.77c.37,1.04,1.31,1.72,2.51,1.7.19,0,.39-.03.59-.07l6.29-1.69,3.85,13.68-35.85,9.61-3.84-13.68,6.2-1.67c1.59-.61,2.21-1.92,1.81-3.33l-7.99-28.42c-.51-1.81-1.43-2.26-2.29-2.25-.23,0-.46.04-.67.1-5.02,1.35-2.97,11.42-2.15,14.34l-13.32,3.57-7.61-27.09,60.84-16.31Z"/>
        <polygon class="cls-7" points="803.48 227.24 805.39 252.87 769.53 262.48 767.62 236.86 803.48 227.24"/>
        <polygon class="cls-7" points="767.62 236.86 769.53 262.48 765.69 248.8 763.78 223.18 767.62 236.86"/>
        <path class="cls-7" d="M512.58,282.64l-1.91-25.62c-.14-1.94,2.1-3.75,6.14-4.83,1.13-.3,2.57-.49,4.12-.52,4.64-.09,10.3,1.24,11.71,5.19l1.91,25.62c-1.41-3.95-7.07-5.28-11.71-5.19-1.56.03-3,.22-4.12.52-4.05,1.08-6.29,2.9-6.14,4.83Z"/>
        <polygon class="cls-7" points="551.93 257.38 553.83 283.01 546.21 255.92 544.31 230.29 551.93 257.38"/>
        <polygon class="cls-7" points="546.24 253.22 548.14 278.84 534.56 282.48 532.65 256.86 546.24 253.22"/>
        <polygon class="cls-7" points="565.25 253.82 567.15 279.44 553.83 283.01 551.93 257.38 565.25 253.82"/>
        <polygon class="cls-7" points="651.06 250.64 652.97 276.26 651.52 274.28 649.61 248.65 651.06 250.64"/>
        <path class="cls-7" d="M754.31,229.61l1.91,25.62c.52,6.92-3.21,12.16-11.27,14.31-1.86.5-3.72.88-5.58.91-2.15.04-4.3-.37-6.47-1.56-6.94-3.74-6.17-12.49-12.07-16.41-1.07-.73-2.66-.94-4.28-.91-2.63.05-5.34.74-6.02.92l-1.91-25.62c.68-.18,3.39-.87,6.02-.92,1.62-.03,3.21.18,4.28.91,5.9,3.93,5.12,12.68,12.07,16.41,2.17,1.19,4.32,1.6,6.47,1.56,1.86-.04,3.72-.41,5.58-.91,8.06-2.16,11.78-7.39,11.27-14.31Z"/>
        <polygon class="cls-7" points="649.61 248.65 651.52 274.28 635.01 278.7 633.1 253.08 649.61 248.65"/>
        <path class="cls-7" d="M651.54,251.81l1.91,25.62c-.01-.14-.03-.28-.07-.42-.05-.18-.21-.41-.41-.75l-1.91-25.62c.19.34.36.57.41.75.04.14.06.28.07.42Z"/>
        <polygon class="cls-7" points="633.1 253.08 635.01 278.7 634.81 281.13 632.91 255.51 633.1 253.08"/>
        <path class="cls-7" d="M634.82,281.34l-1.91-25.62c0-.07,0-.14,0-.21l1.91,25.62c0,.07,0,.14,0,.21Z"/>
        <polygon class="cls-7" points="723.48 248.69 725.39 274.31 689.54 283.93 687.63 258.3 723.48 248.69"/>
        <path class="cls-7" d="M753.57,225.54c2.5,8.91-.96,15.82-10.53,18.38-1.86.5-3.72.88-5.58.91-2.15.04-4.3-.37-6.47-1.56-6.94-3.74-6.17-12.49-12.07-16.41-1.07-.73-2.66-.94-4.28-.91-2.63.05-5.34.74-6.02.92l-.64.17,2.16,7.68c.34,1.23,1.36,2.02,2.72,2,.3,0,.62-.05.95-.14l5.84-1.56,3.84,13.68-35.85,9.61-3.84-13.68,6.2-1.66c1.64-.44,2.2-1.92,1.81-3.33l-8.29-29.48c-.29-1.04-1.31-1.74-2.49-1.71-.23,0-.47.04-.71.1l-6.2,1.67-3.84-13.68,40.78-10.93c2.57-.69,5.58-1.2,8.67-1.26,7.55-.14,15.5,2.45,18.16,11.9,2.43,8.65-2.88,14.53-10.06,17.97,3.5.2,6.02.85,8,1.56,4,1.69,6.43,5.11,7.48,8.81.19.66.81,2.61,1.93,2.58.08,0,.16-.01.25-.04,2.01-.53,1.14-3.62.52-5.83l5.92-1.59,1.65,5.82ZM712.11,211.03c5.11-1.37,6.39-4.46,5.68-7.02-.57-2.02-2.4-3.71-5.66-3.65-.86.02-1.82.15-2.89.44l-5.57,1.49c-1.46.39-2.16,1.71-1.82,2.95l2.24,7.94,8.02-2.16"/>
        <polygon class="cls-7" points="687.63 258.3 689.54 283.93 685.7 270.24 683.79 244.62 687.63 258.3"/>
        <polygon class="cls-7" points="578.34 270.04 580.24 295.66 572.26 267.25 570.35 241.63 578.34 270.04"/>
        <path class="cls-7" d="M578.45,270.65l1.91,25.62c-.01-.2-.05-.41-.11-.61l-1.91-25.62c.06.21.1.41.11.61Z"/>
        <polygon class="cls-7" points="648.23 268.86 650.14 294.49 646.29 280.81 644.39 255.19 648.23 268.86"/>
        <polygon class="cls-7" points="683.63 259.37 685.53 285 650.14 294.49 648.23 268.86 683.63 259.37"/>
        <path class="cls-7" d="M539.07,280.59l1.91,25.62c-.01-.18-.05-.37-.1-.57-.62-2.18-3.53-2.7-7.4-2.62-2.06.04-4.4.24-6.82.45-2.41.21-4.89.41-7.25.46-.84.02-1.67.01-2.47-.02-9.91-.38-17.62-4.39-20.07-13.13-.48-1.7-.77-3.34-.89-4.91l-1.91-25.62c.12,1.58.41,3.22.89,4.91,2.45,8.73,10.16,12.75,20.07,13.13.8.03,1.62.04,2.47.02,2.36-.04,4.84-.25,7.25-.46,2.41-.21,4.75-.41,6.82-.45,3.87-.07,6.78.44,7.4,2.62.05.2.09.39.1.57Z"/>
        <polygon class="cls-7" points="644.95 269.74 646.86 295.37 616.58 303.49 614.67 277.86 644.95 269.74"/>
        <polygon class="cls-7" points="614.67 277.86 616.58 303.49 612.72 289.8 610.82 264.18 614.67 277.86"/>
        <path class="cls-7" d="M650.32,253.59c1-.27,1.41-1.23,1.15-2.2-.05-.18-.21-.41-.41-.75l-1.44-1.99-16.51,4.43-.2,2.43c-.01.29.05.56.11.73.23.85,1.09,1.47,1.85,1.46.1,0,.21-.02.31-.04l5.93-1.59,3.84,13.68-30.28,8.12-3.85-13.68,4.38-1.17c2.28-.61,2.56-2.39,2.73-4.24l5.1-49.57,16.69-4.47,30,39.69c1.44,1.91,2.54,2.85,3.92,2.83.27,0,.56-.05.86-.13l5.3-1.42,3.84,13.68-35.4,9.49-3.84-13.68,5.93-1.59ZM634.39,240.88l7.75-2.07-6.61-8.86-1.14,10.94"/>
        <polygon class="cls-7" points="574.17 288.71 576.08 314.34 572.23 300.66 570.32 275.04 574.17 288.71"/>
        <polygon class="cls-7" points="610.02 279.1 611.93 304.73 576.08 314.34 574.17 288.71 610.02 279.1"/>
        <path class="cls-7" d="M605.15,213.98l7.61,27.09-13.32,3.57c-.77-2.74-3.92-11.47-8.46-11.39-.29,0-.58.05-.88.13-1,.27-2.06,1.03-1.42,3.33l8.09,28.76c.38,1.04,1.3,1.72,2.5,1.7.2,0,.4-.03.61-.07l6.29-1.69,3.84,13.68-35.85,9.61-3.85-13.68,6.2-1.66c1.59-.62,2.21-1.92,1.81-3.34l-7.98-28.41c-.51-1.81-1.43-2.27-2.28-2.25-.23,0-.46.04-.67.1-5.02,1.34-2.98,11.42-2.15,14.34l-13.32,3.56-7.62-27.09,60.84-16.31Z"/>
        <path class="cls-7" d="M555.93,277.49l1.91,25.62c.86,11.52-8.45,18.57-20.66,21.85-2.46.66-4.92,1.05-7.29,1.09-.45,0-.89,0-1.33-.01l-1.91-25.62c.44.02.88.02,1.33.01,2.37-.04,4.84-.43,7.29-1.09,12.21-3.28,21.52-10.32,20.66-21.85Z"/>
        <path class="cls-7" d="M526.65,300.41l1.91,25.62c-.12,0-.24,0-.36,0-.83.02-1.54.13-2.02.26-1.73.46-2.77,2.09-2.82,2.17l-1.91-25.62c.05-.09,1.09-1.71,2.82-2.17.48-.13,1.19-.25,2.02-.26.12,0,.24,0,.36,0Z"/>
        <polygon class="cls-7" points="506.77 306.78 508.67 332.41 502.35 309.9 500.44 284.28 506.77 306.78"/>
        <polygon class="cls-7" points="521.45 302.85 523.36 328.47 508.67 332.41 506.77 306.78 521.45 302.85"/>
        <path class="cls-7" d="M540.11,231.42l6.13,21.8-13.59,3.64c-1.41-3.95-7.07-5.28-11.71-5.19-1.56.03-3,.22-4.12.52-4.38,1.17-6.65,3.2-6.06,5.32.48,1.72,2.93,2.14,6.29,2.08,2.03-.04,4.39-.25,6.84-.47,2.48-.22,5.04-.44,7.47-.49.6-.01,1.2-.01,1.78,0,9.6.27,19,3.73,21.95,14.23,4.02,14.29-6.05,22.78-19.82,26.48-2.46.66-4.92,1.05-7.29,1.09-.45,0-.89,0-1.33-.01-.12,0-.24,0-.36,0-.83.02-1.54.13-2.02.26-1.73.46-2.77,2.09-2.82,2.17l-14.68,3.94-6.33-22.5,13.68-3.67c3.23,3.99,7.89,5.77,12.87,5.68,1.74-.03,3.52-.29,5.29-.77,2.55-.68,7.61-2.23,6.69-5.5-.62-2.18-3.53-2.7-7.4-2.62-2.06.04-4.4.24-6.82.45-2.41.21-4.89.41-7.25.46-.84.02-1.67.01-2.47-.02-9.91-.38-17.62-4.39-20.07-13.13-3.67-13.06,3.6-22.8,17.46-26.51,3.29-.88,5.58-1.24,7.98-1.29.13,0,.26,0,.38,0,1.13-.02,1.94-.15,2.56-.31,1.73-.47,2.17-1.34,2.25-1.74l14.5-3.89Z"/>
      </g>
    </g>
    <g>
      <path class="cls-5" d="M95.3,317.16l6.21-1.65c1.6-.62,2.22-1.96,1.83-3.42l-7.83-29.42c-.63-2.38-1.94-2.52-2.95-2.25-5.02,1.34-3.03,11.77-2.23,14.78l-13.34,3.55-7.47-28.05,60.94-16.23,7.47,28.05-13.34,3.55c-.8-3.01-4.26-13.05-9.28-11.71-1,.27-2.07,1.04-1.44,3.42l7.93,29.78c.43,1.25,1.61,2.02,3.1,1.72l6.3-1.68,3.77,14.16-35.91,9.56-3.77-14.16Z"/>
      <path class="cls-5" d="M173.34,258.22l-3.77-14.16,33.62-8.95,3.77,14.16-6.03,1.61c-1.46.39-2.17,1.75-1.83,3.03l8.12,30.51c.39,1.46,1.64,2.5,3.2,2.08l6.03-1.61,3.77,14.16-33.62,8.95-3.77-14.16,4.39-1.17c1.64-.44,2.22-1.96,1.83-3.42l-2.09-7.86-15.35,4.09,2.09,7.86c.39,1.46,1.64,2.5,3.2,2.08l4.48-1.19,3.77,14.16-33.62,8.95-3.77-14.16,5.94-1.58c1.64-.44,2.22-1.96,1.83-3.42l-8.12-30.52c-.34-1.28-1.73-2.08-3.19-1.69l-5.94,1.58-3.77-14.16,33.62-8.95,3.77,14.16-4.48,1.19c-1.55.41-2.1,2.03-1.74,3.4l2.09,7.86,15.35-4.09-2.09-7.86c-.41-1.55-1.83-2.45-3.65-1.96l-4.02,1.07Z"/>
      <path class="cls-5" d="M207.2,234.04l61.94-16.49,7.42,27.87-12.97,3.45c-1.97-7.4-9.13-12.24-15.62-10.52l-7.4,1.97c-1.55.41-2.1,2.03-1.74,3.4l2,7.49,11.79-3.14,4.04,15.17-11.79,3.14,2.09,7.86c.34,1.28,1.64,2.11,3.1,1.72l7.4-1.97c6.49-1.73,10.29-9.49,8.32-16.89l12.97-3.45,7.42,27.87-61.94,16.49-3.77-14.16,6.21-1.65c1.64-.44,2.22-1.96,1.83-3.42l-8.12-30.51c-.34-1.28-1.73-2.08-3.19-1.69l-6.21,1.65-3.77-14.16Z"/>
      <path class="cls-5" d="M318.97,272.76l-6.2-23.3,13.7-3.65c4.33,5.6,11.28,7.08,18.13,5.25,2.56-.68,7.62-2.23,6.72-5.61-1.36-5.12-14.4-1.55-23.93-2.04-9.92-.49-17.59-4.71-20-13.75-3.6-13.52,3.72-23.49,17.61-27.19,3.47-.92,5.83-1.26,8.38-1.25,1.08,0,1.92-.12,2.56-.29,1.74-.46,2.18-1.36,2.27-1.78l14.53-3.87,6.01,22.57-13.61,3.62c-1.85-5.48-11.33-6.18-15.81-4.99-4.38,1.17-6.67,3.24-6.09,5.44,1.12,4.2,13.29,1.06,22.38,1.38,9.59.38,18.98,4.05,21.88,14.92,3.94,14.8-6.18,23.46-19.97,27.14-2.92.78-5.85,1.17-8.63,1.03-.99-.03-1.83.1-2.38.24-1.74.46-2.83,2.22-2.83,2.22l-14.71,3.92Z"/>
      <path class="cls-5" d="M392.78,199.79c-1.55.41-2.1,2.03-1.74,3.4l8.12,30.51c.34,1.28,1.64,2.11,3.1,1.72l6.3-1.68,3.77,14.16-35.91,9.56-3.77-14.16,6.21-1.65c1.64-.44,2.22-1.96,1.83-3.42l-8.12-30.51c-.34-1.28-1.73-2.08-3.19-1.69l-6.21,1.65-3.77-14.16,35.9-9.56,3.77,14.16-6.3,1.68Z"/>
      <path class="cls-5" d="M489.78,212.12l3.77,14.16-33.53,8.93-3.77-14.16,5.12-1.36c1.64-.44,2.22-1.96,1.83-3.42l-7.05-26.49-2.33,47.09-1.1.29-25.53-39.67,7.15,26.86c.34,1.28,1.64,2.11,3.1,1.72l4.93-1.31,3.77,14.16-29.78,7.93-3.77-14.16,6.4-1.7c1.64-.44,2.22-1.96,1.83-3.42l-8.03-30.15c-.37-1.37-1.64-2.5-3.29-2.06l-6.4,1.7-3.77-14.16,33.44-8.9s9.7,13.66,10.2,14.41l.59-17.28,32.98-8.78,3.77,14.16-5.3,1.41c-1.55.41-2.1,2.03-1.74,3.4l8.12,30.51c.36,1.37,1.82,2.06,3.56,1.6l4.84-1.29Z"/>
      <path class="cls-5" d="M529.7,201.49l3.77,14.16-35.9,9.56-3.77-14.16,6.21-1.65c1.46-.39,2.27-1.78,1.93-3.06l-8.12-30.51c-.37-1.37-1.64-2.5-3.29-2.06l-6.21,1.65-3.77-14.16,36.91-9.83c10.32-2.75,27.62-5.4,32.46,12.78s-11.48,24.48-21.81,27.23l-9.78,2.6,1.87,7.04c.41,1.55,1.83,2.45,3.65,1.96l5.85-1.56ZM523,177.05c5.12-1.36,6.35-4.82,5.64-7.47-.71-2.65-3.49-5.04-8.61-3.68l-5.67,1.51c-1.83.49-2.61,1.97-2.19,3.52l2.24,8.4,8.59-2.29Z"/>
      <path class="cls-5" d="M594.66,184.19c6.49-1.73,10.29-9.49,8.32-16.89l12.97-3.46,7.42,27.87-57.74,15.38-3.77-14.16,6.21-1.65c1.46-.39,2.27-1.78,1.93-3.06l-8.22-30.88c-.34-1.28-1.73-2.08-3.19-1.69l-6.21,1.65-3.77-14.16,35.81-9.54,3.77,14.16-5.39,1.44c-1.74.46-2.66,1.78-2.29,3.15l8.22,30.88c.36,1.37,1.82,2.06,3.56,1.6l2.38-.63Z"/>
      <path class="cls-5" d="M610.36,126.69l61.94-16.49,7.42,27.87-12.97,3.45c-1.97-7.4-9.13-12.24-15.62-10.52l-7.4,1.97c-1.55.41-2.1,2.03-1.74,3.4l2,7.49,11.79-3.14,4.04,15.17-11.79,3.14,2.09,7.86c.34,1.28,1.64,2.11,3.1,1.72l7.4-1.97c6.49-1.73,10.29-9.49,8.32-16.89l12.97-3.45,7.42,27.87-61.94,16.49-3.77-14.16,6.21-1.65c1.65-.44,2.22-1.96,1.83-3.42l-8.12-30.51c-.34-1.28-1.73-2.08-3.19-1.69l-6.21,1.65-3.77-14.16Z"/>
      <path class="cls-5" d="M693.44,173.05l-6.2-23.3,13.7-3.65c4.33,5.6,11.28,7.08,18.13,5.25,2.56-.68,7.62-2.23,6.72-5.61-1.36-5.12-14.4-1.55-23.93-2.04-9.91-.49-17.59-4.71-20-13.75-3.6-13.52,3.72-23.49,17.61-27.19,3.47-.92,5.83-1.26,8.37-1.25,1.08,0,1.92-.12,2.56-.29,1.74-.46,2.18-1.36,2.27-1.78l14.53-3.87,6.01,22.57-13.61,3.62c-1.85-5.48-11.33-6.18-15.81-4.99-4.39,1.17-6.67,3.24-6.09,5.44,1.12,4.2,13.29,1.06,22.38,1.38,9.59.38,18.98,4.05,21.88,14.92,3.94,14.8-6.18,23.46-19.97,27.14-2.92.78-5.85,1.17-8.63,1.03-.99-.03-1.83.1-2.38.24-1.74.46-2.83,2.22-2.83,2.22l-14.71,3.92Z"/>
      <path class="cls-5" d="M757.18,140.92l6.21-1.65c1.59-.62,2.22-1.96,1.83-3.42l-7.83-29.42c-.63-2.38-1.94-2.52-2.95-2.25-5.03,1.34-3.03,11.76-2.23,14.78l-13.34,3.55-7.47-28.05,60.94-16.23,7.47,28.05-13.34,3.55c-.8-3.01-4.26-13.05-9.28-11.71-1,.27-2.07,1.04-1.44,3.42l7.93,29.78c.43,1.25,1.61,2.02,3.1,1.72l6.3-1.68,3.77,14.16-35.9,9.56-3.77-14.16Z"/>
    </g>
    <g>
      <path class="cls-5" d="M160.29,363.58l1.34-18.01c.02-.3.04-.6-.03-.87-.3-1.19-1.5-1.66-2.69-1.36l-3.3.84-3.64-14.2,26.65-6.83,3.64,14.2-1.74.45c-3.11.8-4.24,3.62-4.43,6.31l-3.47,48.91-13.65,3.5-14.05-21.68-1.8,25.74-13.65,3.5-26.57-41.21c-1.43-2.17-3.72-4.22-6.74-3.45l-2.2.56-3.64-14.2,31.23-8,3.64,14.2-2.93.75c-1.19.3-1.92,1.27-1.61,2.46.07.28.23.53.39.78l9.74,15.17,1.34-18.01c.02-.3.04-.6-.03-.87-.3-1.19-1.5-1.66-2.69-1.36l-2.75.7-3.64-14.2,27.48-7.04,3.64,14.2-2.38.61c-1.19.31-1.92,1.27-1.61,2.46.07.28.23.53.39.78l9.74,15.17Z"/>
      <path class="cls-5" d="M181.24,375.68l4.4-1.13c2.29-.59,2.6-2.42,2.79-4.33l5.85-51.08,16.76-4.29,29.39,41.56c1.69,2.4,2.91,3.35,4.74,2.88l5.31-1.36,3.64,14.2-35.54,9.11-3.64-14.2,5.95-1.53c1.01-.26,1.44-1.25,1.18-2.25-.05-.18-.21-.43-.39-.78l-1.41-2.08-16.58,4.25-.24,2.5c-.02.3.05.57.1.76.26,1.01,1.32,1.71,2.14,1.5l5.95-1.53,3.64,14.2-30.41,7.79-3.64-14.2ZM205.16,352.08l7.78-2-6.47-9.27-1.31,11.27Z"/>
      <path class="cls-5" d="M262.03,316.92c-1.01.26-1.39,1.04-1.23,1.68.07.27.37.69.62.91l9.17,8,4.11-11.4c.18-.44.18-.83.11-1.1-.16-.64-.88-1.14-1.88-.88l-4.76,1.22-3.64-14.2,30.13-7.72,3.64,14.2-4.67,1.2c-2.29.59-3.31,3.09-3.64,4.06l-9.79,27.3,1.83,7.14c.33,1.28,1.62,2.12,3.08,1.75l6.04-1.55,3.64,14.2-35.9,9.2-3.64-14.2,6.32-1.62c1.65-.42,2.24-1.94,1.86-3.4l-1.67-6.5-22.24-19.38c-.76-.68-2.86-2.39-5.15-1.8l-4.58,1.17-3.64-14.2,36.73-9.41,3.64,14.2-4.49,1.15Z"/>
      <path class="cls-5" d="M352.78,331.72l6.23-1.6c1.6-.61,2.24-1.94,1.86-3.4l-7.56-29.49c-.61-2.38-1.92-2.53-2.93-2.28-5.04,1.29-3.14,11.74-2.37,14.76l-13.37,3.43-7.21-28.12,61.09-15.65,7.21,28.12-13.37,3.43c-.77-3.02-4.14-13.09-9.17-11.8-1.01.26-2.08,1.02-1.47,3.4l7.65,29.86c.42,1.26,1.59,2.03,3.08,1.75l6.32-1.62,3.64,14.2-35.99,9.22-3.64-14.2Z"/>
      <path class="cls-5" d="M465.15,283.9c4.29,16.76-3.14,35.35-23.66,40.61-20.52,5.26-35.98-7.47-40.27-24.23-4.29-16.76,3.14-35.35,23.66-40.61s35.98,7.47,40.27,24.23ZM422.2,294.9c2.53,9.89,6.16,17.94,15.68,15.5,9.52-2.44,8.57-12.25,6.3-21.13-2.28-8.88-6.16-17.94-15.68-15.5-9.52,2.44-8.83,11.24-6.3,21.13Z"/>
      <path class="cls-5" d="M506.7,307.41l-5.98-23.35,13.74-3.52c4.27,5.64,11.21,7.18,18.08,5.42,2.56-.66,7.65-2.15,6.78-5.54-1.31-5.13-14.39-1.68-23.91-2.27-9.91-.58-17.55-4.87-19.87-13.94-3.47-13.55,3.94-23.46,17.87-27.03,3.48-.89,5.84-1.2,8.39-1.17,1.08.02,1.93-.1,2.57-.27,1.74-.45,2.19-1.34,2.28-1.76l14.56-3.73,5.8,22.62-13.65,3.5c-1.8-5.49-11.27-6.29-15.76-5.13-4.4,1.13-6.7,3.18-6.14,5.38,1.08,4.21,13.28,1.18,22.37,1.59,9.59.47,18.94,4.22,21.73,15.12,3.8,14.84-6.4,23.4-20.23,26.95-2.93.75-5.86,1.11-8.64.95-.99-.04-1.83.08-2.38.22-1.74.45-2.85,2.19-2.85,2.19l-14.75,3.78Z"/>
      <path class="cls-5" d="M570.74,275.87l6.23-1.6c1.6-.61,2.24-1.94,1.86-3.4l-7.56-29.49c-.61-2.38-1.92-2.53-2.92-2.28-5.04,1.29-3.14,11.74-2.37,14.76l-13.37,3.43-7.2-28.12,61.09-15.65,7.2,28.12-13.37,3.43c-.77-3.02-4.13-13.09-9.17-11.8-1.01.26-2.08,1.02-1.47,3.4l7.65,29.86c.42,1.26,1.59,2.03,3.08,1.75l6.32-1.62,3.64,14.2-35.99,9.22-3.64-14.2Z"/>
      <path class="cls-5" d="M611.4,265.45l4.4-1.13c2.29-.59,2.6-2.42,2.79-4.33l5.85-51.08,16.76-4.29,29.39,41.56c1.69,2.4,2.91,3.35,4.74,2.88l5.31-1.36,3.64,14.2-35.53,9.1-3.64-14.2,5.95-1.53c1.01-.26,1.44-1.25,1.18-2.25-.05-.18-.21-.43-.39-.78l-1.41-2.08-16.58,4.25-.24,2.5c-.02.3.05.57.1.76.26,1.01,1.32,1.71,2.14,1.5l5.95-1.53,3.64,14.2-30.41,7.79-3.64-14.2ZM635.32,241.86l7.78-1.99-6.47-9.27-1.31,11.27Z"/>
      <path class="cls-5" d="M720.66,237.46l3.64,14.2-35.99,9.22-3.64-14.2,6.23-1.6c1.65-.42,2.24-1.94,1.86-3.4l-7.84-30.59c-.33-1.28-1.71-2.1-3.17-1.72l-6.23,1.6-3.64-14.2,40.94-10.49c8.88-2.28,23.12-2.31,26.67,11.52,2.3,8.98-3.1,14.95-10.32,18.36,3.49.28,6.01,1,7.97,1.76,3.98,1.81,6.36,5.4,7.35,9.24.19.73.87,3,2.15,2.67,2.01-.52,1.19-3.72.61-6.01l5.95-1.53,1.55,6.04c2.37,9.25-1.19,16.31-10.8,18.77-4.03,1.03-8.02,1.47-12.04-.92-6.88-4-5.97-13.01-11.82-17.17-2.76-2.03-9.2-.47-10.3-.19l-.64.16,2.04,7.97c.4,1.56,1.8,2.47,3.63,2l5.86-1.5ZM713.5,212.55c5.13-1.31,6.46-4.49,5.78-7.14-.68-2.66-3.38-4.8-8.5-3.48l-5.59,1.43c-1.47.38-2.19,1.73-1.86,3.01l2.11,8.24,8.06-2.06Z"/>
      <path class="cls-5" d="M764.98,226.1l6.23-1.6c1.6-.61,2.24-1.94,1.86-3.4l-7.56-29.49c-.61-2.38-1.92-2.53-2.92-2.28-5.04,1.29-3.14,11.74-2.37,14.76l-13.37,3.43-7.2-28.12,61.09-15.65,7.2,28.12-13.37,3.43c-.77-3.02-4.13-13.09-9.17-11.8-1.01.26-2.08,1.02-1.47,3.4l7.65,29.86c.42,1.26,1.59,2.03,3.08,1.75l6.32-1.62,3.64,14.2-35.99,9.22-3.64-14.2Z"/>
    </g>
    <g>
      <path class="cls-2" d="M77.19,508.99l3.16-37.03h5.04l-2.72,30.04,13.2-30.04h5.2l-1.68,30.04,12.16-30.04h3.72l-15.64,37.03h-5.48l1.44-28.28-12.92,28.28h-5.48Z"/>
      <path class="cls-2" d="M106.9,505.59c0-2.44,1.2-4.96,3.72-13.16h4.56c-1.16,3.32-3.84,10.48-3.84,11.88,0,.8.4,1.28,1.04,1.28,2.08,0,4.6-3.76,5.64-5.4l2.48,1.28c-3.12,5.16-5.96,7.64-9.32,7.64-2.36,0-4.28-1.48-4.28-3.52ZM114.45,485.6c1.16,0,2.08.88,2.08,2.08-.04,1.64-1.4,3-2.96,3-1.16,0-2.08-.92-2.08-2.12.04-1.64,1.4-2.96,2.96-2.96Z"/>
      <path class="cls-2" d="M117.49,501.75c2.08-3.16,3.96-6.64,5.36-9.76h6.12c-1.72,2.12-.84,4.2-.12,5.8.64,1.4,1.6,3.08,1.6,5.32v.44c1.96-.36,3.04-1.68,4.08-3.36l2.48,1.28c-1.44,2.6-3.68,4.72-7.12,4.72h-.4c-1.12,1.68-3.24,2.8-5.88,2.8-4.84,0-6.6-4.04-6.12-7.24ZM123.09,506.03c.72,0,1.36-.24,1.84-.6-1.88-.64-3.4-1.52-4.52-2.28.2,1.76,1.16,2.88,2.68,2.88ZM126.21,503.27c.04-.16.04-.32.04-.48,0-2.08-1.4-4.32-1.8-6.64-1.2,1.88-2.44,3.72-3.12,4.76,1.32.96,2.88,1.88,4.88,2.36Z"/>
      <path class="cls-2" d="M142.29,477.24h4.88l-5.92,16.76c-.4,1.08-.76,2.2-1.16,3.28,2.32-3.16,4.76-5.12,7.36-5.12,3.16,0,4.24,2.32,2.84,5.88-2.28,5.8-2.44,7.56-.96,7.56s3.24-2.32,5.2-5.4l2.48,1.28c-2.8,4.68-6.16,7.64-9.48,7.64-3.76,0-4.76-3.24-2.68-8.76,1.56-4.12,1.8-5.32.88-5.32-1.12,0-3.16,2.28-5.16,5.6-1.44,2.4-2.88,5.36-3.92,8.36h-4.56l10.2-31.75Z"/>
      <path class="cls-2" d="M165.88,519.43c0-1.48,1.04-3.88,3.36-6.16,1.16-1.16,3.24-2.36,5.6-3.68.28-.88.56-1.84.84-2.84-1.32,1.56-2.68,2.36-4.12,2.36-2.76,0-4.4-1.48-4.4-3.52,0-2.44,1-4.96,3.52-13.16h4.36c-1.16,3.36-3.52,10-3.52,11.88,0,.8.4,1.28,1.04,1.28,2.44,0,4.8-4.8,7.28-13.16h4.48c-.2.8-1.32,4.04-3.44,11.24l-.84,2.88c1.08-.68,2.08-1.4,3.04-2.16,1.68-1.32,2.88-3,3.64-4.2l2.48,1.28c-.92,1.64-2.52,3.56-4.16,4.88-1.76,1.4-3.92,2.56-6.04,3.68-2.68,8.6-4.8,12.8-9.44,12.8-2.08,0-3.68-1.44-3.68-3.4ZM170,519.71c1.16,0,2.16-1.68,3.88-7-1.24.76-2.32,1.56-3.12,2.4-1.2,1.32-1.76,2.44-1.8,3.36-.04.56.36,1.24,1.04,1.24Z"/>
      <path class="cls-2" d="M186.79,502.67c0-5.16,4.04-10.36,9.04-10.36,3.84,0,6.28,2.2,6.28,5.96,0,.96-.12,1.92-.36,2.84.04.92.6,1.52,1.56,1.52,1.08,0,2.36-1.76,2.76-2.44l2.48,1.28c-1.32,2.24-3.24,4.28-5.36,4.28-1.24,0-2.24-.44-2.92-1.16-1.64,2.64-4.24,4.52-7.2,4.52-3.8,0-6.28-2.4-6.28-6.44ZM193.19,505.59c2.4,0,4.28-5.16,4.28-8.6,0-1.36-.44-2.28-1.52-2.28-2.44,0-4.44,5.48-4.44,8.48,0,1.32.6,2.4,1.68,2.4Z"/>
      <path class="cls-2" d="M205.39,505.59c0-2.44,1-4.96,3.52-13.16h4.44c-1.16,3.36-3.52,10-3.52,11.88,0,.8.4,1.28,1.04,1.28,2.24,0,5-4.8,7.48-13.16h4.36c-1.04,3.32-3.88,10.48-3.88,11.88,0,.8.4,1.28,1.04,1.28,2.36,0,4.88-3.76,5.92-5.36l2.48,1.24c-3.12,5.16-5.96,7.64-9.56,7.64-1.92,0-3.8-1.2-4.16-2.88-1.52,1.92-3.12,2.88-4.88,2.88-2.56,0-4.28-1.48-4.28-3.52Z"/>
      <path class="cls-2" d="M247.45,505.91c-1.52,2.16-3.08,3.2-4.76,3.2-2.56,0-4.28-1.48-4.28-3.52,0-2.44,1-4.96,3.52-13.16h4.44c-1.16,3.36-3.52,10-3.52,11.88,0,.8.4,1.28,1.04,1.28,2,0,4.08-3.76,6.24-10.48.28-.8.56-1.72.84-2.68h4.44c-1.16,3.36-3.52,10-3.52,11.88,0,.8.4,1.28,1.04,1.28,1.84,0,4.6-4.8,7.08-13.16h3.68c-.12.4-.28.8-.4,1.2-.76,2.32-1.12,4.36-1.08,5.92,0,1.92.6,3.08,2.04,3.08,1.08,0,1.84-1.16,2.64-2.44l2.48,1.28c-1.68,2.88-3.56,4.28-5.52,4.28-1.84,0-3.48-.92-4.32-2.92-2.24,4.24-4.52,6.28-7.4,6.28s-4.52-1.32-4.68-3.2Z"/>
      <path class="cls-2" d="M266.97,503.15c0-6.68,4.72-10.84,8.6-10.84,2.88,0,4.56,1.4,4.56,3.76,0,1.64-.8,3.56-2.32,4.84-2.08,1.72-4.16,2.56-6.04,2.76.36,1.4,1.32,1.92,2.76,1.92,3,0,6.36-1.64,8.72-5.4l2.48,1.28c-3.76,5.72-7.92,7.64-12.12,7.64s-6.64-2.2-6.64-5.96ZM275.53,499.27c1.12-1,1.64-2.36,1.6-3.52-.04-.6-.44-1.04-1.08-1.04-2.08,0-3.88,3.36-4.32,6.4,1.32-.24,2.68-.84,3.8-1.84Z"/>
      <path class="cls-2" d="M289.68,505.19c0-2.08.72-5.04,2.64-9.36-1.24-.12-2.36-.4-3.28-.76-.68,2.52-2.04,5.08-2.8,6.4-.16.28-1.4,2.2-2.64,3.16l-1.84-1.6c.72-.84,1.32-1.76,2.04-3.16,1.24-2.36,1.6-4.64,1.56-8.4l4.28-.96c1.12,1.6,3.44,2.72,6.68,2.72.64,0,1.2-.04,1.84-.08-3.36,6.08-4.04,9.88-4.04,11.12,0,.68.36,1.32,1.12,1.32,1.44,0,3.4-2.32,5.36-5.4l2.48,1.28c-3.12,5.16-6.04,7.64-8.88,7.64-2.52,0-4.52-1.4-4.52-3.92Z"/>
      <path class="cls-2" d="M300.68,503.15c0-6.68,4.72-10.84,8.6-10.84,2.88,0,4.56,1.4,4.56,3.76,0,1.64-.8,3.56-2.32,4.84-2.08,1.72-4.16,2.56-6.04,2.76.36,1.4,1.32,1.92,2.76,1.92,3,0,6.36-1.64,8.72-5.4l2.48,1.28c-3.76,5.72-7.92,7.64-12.12,7.64s-6.64-2.2-6.64-5.96ZM309.24,499.27c1.12-1,1.64-2.36,1.6-3.52-.04-.6-.44-1.04-1.08-1.04-2.08,0-3.88,3.36-4.32,6.4,1.32-.24,2.68-.84,3.8-1.84Z"/>
      <path class="cls-2" d="M338.03,477.24h4.88l-5.92,16.76c-.4,1.08-.76,2.2-1.16,3.28,2.32-3.16,4.76-5.12,7.36-5.12,3.16,0,4.24,2.32,2.84,5.88-2.28,5.8-2.44,7.56-.96,7.56s3.24-2.32,5.2-5.4l2.48,1.28c-2.8,4.68-6.16,7.64-9.48,7.64-3.76,0-4.76-3.24-2.68-8.76,1.56-4.12,1.8-5.32.88-5.32-1.12,0-3.16,2.28-5.16,5.6-1.44,2.4-2.88,5.36-3.92,8.36h-4.56l10.2-31.75Z"/>
      <path class="cls-2" d="M350.34,503.15c0-6.68,4.72-10.84,8.6-10.84,2.88,0,4.56,1.4,4.56,3.76,0,1.64-.8,3.56-2.32,4.84-2.08,1.72-4.16,2.56-6.04,2.76.36,1.4,1.32,1.92,2.76,1.92,3,0,6.36-1.64,8.72-5.4l2.48,1.28c-3.76,5.72-7.92,7.64-12.12,7.64s-6.64-2.2-6.64-5.96ZM358.9,499.27c1.12-1,1.64-2.36,1.6-3.52-.04-.6-.44-1.04-1.08-1.04-2.08,0-3.88,3.36-4.32,6.4,1.32-.24,2.68-.84,3.8-1.84Z"/>
      <path class="cls-2" d="M373.06,505.19c0-2.08.72-5.04,2.64-9.36-1.24-.12-2.36-.4-3.28-.76-.68,2.52-2.04,5.08-2.8,6.4-.16.28-1.4,2.2-2.64,3.16l-1.84-1.6c.72-.84,1.32-1.76,2.04-3.16,1.24-2.36,1.6-4.64,1.56-8.4l4.28-.96c1.12,1.6,3.44,2.72,6.68,2.72.64,0,1.2-.04,1.84-.08-3.36,6.08-4.04,9.88-4.04,11.12,0,.68.36,1.32,1.12,1.32,1.44,0,3.4-2.32,5.36-5.4l2.48,1.28c-3.12,5.16-6.04,7.64-8.88,7.64-2.52,0-4.52-1.4-4.52-3.92Z"/>
      <path class="cls-2" d="M384.05,503.15c0-6.68,4.72-10.84,8.6-10.84,2.88,0,4.56,1.4,4.56,3.76,0,1.64-.8,3.56-2.32,4.84-2.08,1.72-4.16,2.56-6.04,2.76.36,1.4,1.32,1.92,2.76,1.92,3,0,6.36-1.64,8.72-5.4l2.48,1.28c-3.76,5.72-7.92,7.64-12.12,7.64s-6.64-2.2-6.64-5.96ZM392.61,499.27c1.12-1,1.64-2.36,1.6-3.52-.04-.6-.44-1.04-1.08-1.04-2.08,0-3.88,3.36-4.32,6.4,1.32-.24,2.68-.84,3.8-1.84Z"/>
      <path class="cls-2" d="M418.68,504.03c1.16,0,2.08.88,2.08,2.08-.04,1.64-1.28,3-2.96,3-1.16,0-2.08-.92-2.08-2.12.04-1.64,1.28-2.96,2.96-2.96ZM426.6,472.96h5.24l-10.32,28.24h-3.48l8.56-28.24Z"/>
    </g>
    <g>
      <g>
        <path class="cls-1" d="M793.27,340.89c-.47.29-1.08.43-1.56.08-5-5.43-10.15-9.77-16.33-13.8-58.04-37.94-134.48,15.32-158.76,70.19l-2.48,2.88c.02-1.65-.89-2.47-.85-4.28.14-7.32,6.74-21.79,10.38-28.52,16.23-29.97,44.83-56.5,78.18-65.43,34.84-9.33,72.7,1.75,91.45,33.47.6,1.01,2.14,1.5,1.71,2.98-.14.5-1.31,2.16-1.75,2.43Z"/>
        <path class="cls-1" d="M728.44,417.89c4.4.25,7.79,1.75,7.18,8-1.5,14.65-5.18,29.03-8.26,43.41-3.65,17.05-5.92,35.25-11.77,51.7-3.75,10.54-10.95,24.12-24.11,23-26.78-2.29-21.3-37.96-18.62-56.31,1.7-11.6,3.81-23.16,6.75-34.52,2.14-8.26,5.16-32.05,15.52-33.31,8.63-1.05,17.3-1.66,25.99-1.83,2.43-.05,5.01-.26,7.32-.13Z"/>
      </g>
      <circle class="cls-1" cx="715.37" cy="373.81" r="27.91"/>
    </g>
  </g>
</svg>