<?xml version="1.0" encoding="UTF-8"?>
<svg id="Layer_2" data-name="Layer 2" xmlns="http://www.w3.org/2000/svg" viewBox="0 0 195.48 395.4">
  <defs>
    <style>
      .cls-1 {
        stroke: #1c574e;
      }

      .cls-1, .cls-2, .cls-3 {
        fill: none;
      }

      .cls-1, .cls-2, .cls-3, .cls-4, .cls-5 {
        stroke-miterlimit: 10;
      }

      .cls-1, .cls-2, .cls-5 {
        stroke-width: 3px;
      }

      .cls-2 {
        stroke: #b3dfd9;
      }

      .cls-3 {
        stroke: #17473f;
        stroke-width: 2px;
      }

      .cls-6, .cls-5 {
        fill: #89b698;
      }

      .cls-4 {
        stroke: #fff7e7;
        stroke-width: .75px;
      }

      .cls-4, .cls-7 {
        fill: #fff7e7;
      }

      .cls-8 {
        fill: #b3dfd9;
      }

      .cls-5 {
        stroke: #b4e0d9;
      }
    </style>
  </defs>
  <g id="Layer_1-2" data-name="Layer 1">
    <g>
      <g>
        <g>
          <path class="cls-6" d="M170.46,350.01c-4.03,23.35-22.57,41.86-46.08,44.87-.66.08-1.33.16-2,.22-11.7,1.09-21.59-1.74-29.44-5.81-11.19-5.79-20.01-15.3-25.51-26.64L14.99,254.52c-.9-1.86-1.83-3.71-2.76-5.56-3.61-7.19-17.57-38.45-10.05-78.3,0,0,20.19-119.87,20.23-120.09C28.42,14.94,62.35-10.39,97.63,4.55c13.98,5.92,25.05,17.12,31.52,30.85"/>
          <path class="cls-6" d="M68.13,363.93c10.12,21.43,32.93,34.31,56.39,30.93.66-.09,1.32-.2,1.99-.32,11.57-2.07,20.34-7.44,26.82-13.46,9.24-8.57,15.2-20.09,17.47-32.48l21.65-118.22c.37-2.03.77-4.06,1.17-6.09,1.55-7.89,6.65-41.75-11.24-78.14,0,0-51.47-110.12-51.57-110.32C115.5,3.1,76.04-12.25,46.03,11.57c-11.89,9.44-19.57,23.19-22.13,38.15"/>
        </g>
        <line class="cls-3" x1="40.4" y1="28.28" x2="108.04" y2="19.08"/>
        <line class="cls-1" x1="41.92" y1="26.15" x2="106.02" y2="17.43"/>
        <line class="cls-3" x1="48.42" y1="20.09" x2="97.56" y2="13.41"/>
        <line class="cls-1" x1="49.61" y1="18.21" x2="95.65" y2="11.95"/>
        <line class="cls-3" x1="34.94" y1="36.88" x2="115.8" y2="25.88"/>
        <line class="cls-1" x1="37.07" y1="34.59" x2="113.69" y2="24.16"/>
        <g>
          <line class="cls-3" x1="31.73" y1="44.94" x2="121.73" y2="32.7"/>
          <line class="cls-1" x1="32.8" y1="42.64" x2="119.35" y2="30.86"/>
        </g>
        <g>
          <line class="cls-3" x1="81.65" y1="369.06" x2="159.02" y2="358.54"/>
          <line class="cls-1" x1="80.29" y1="367.09" x2="160.28" y2="356.21"/>
          <line class="cls-3" x1="76.91" y1="362.07" x2="161.56" y2="350.55"/>
          <line class="cls-1" x1="75.43" y1="359.91" x2="162.95" y2="348"/>
        </g>
        <g>
          <line class="cls-3" x1="87.75" y1="375.05" x2="155.41" y2="365.84"/>
          <line class="cls-1" x1="86.01" y1="373.13" x2="156.64" y2="363.52"/>
        </g>
        <g>
          <line class="cls-3" x1="96.56" y1="380.67" x2="148.43" y2="373.61"/>
          <line class="cls-1" x1="93.31" y1="378.95" x2="150.88" y2="371.12"/>
        </g>
        <g>
          <line class="cls-3" x1="107.45" y1="384.96" x2="139.07" y2="380.66"/>
          <line class="cls-1" x1="102.45" y1="383.48" x2="144.03" y2="377.83"/>
        </g>
        <circle class="cls-5" cx="74.66" cy="25.54" r="9.13"/>
        <path class="cls-2" d="M164.34,343.19c-3.39,22.29-19.79,39.83-40.75,42.5-.59.07-1.18.14-1.78.19-10.44.94-19.29-1.85-26.34-5.81-10.04-5.63-18-14.81-23.01-25.69l-47.78-103.86c-.82-1.79-1.67-3.56-2.51-5.34-3.28-6.91-16.02-36.92-9.66-74.96,0,0,16.98-114.44,17.01-114.65C34.57,21.57,64.65-2.36,96.29,12.24c9.27,4.28,17.73,10.52,23.69,18.9,3.63,5.1,6.04,10.91,8.56,16.61,1.72,3.87,3.44,7.75,5.16,11.62,2.36,5.32,4.72,10.64,7.08,15.96,2.7,6.08,5.39,12.16,8.09,18.23s5.46,12.29,8.18,18.44c2.45,5.52,4.9,11.05,7.36,16.57,1.87,4.21,3.74,8.43,5.61,12.64l2.95,6.64.23.52c16.29,34.95,12.04,67.28,10.72,74.81-.34,1.94-.68,3.87-.99,5.82l-18.3,112.84c-1.92,11.83-7.14,22.79-15.31,30.91-5.74,5.69-13.52,10.75-23.83,12.63-.59.11-1.19.21-1.77.29-20.92,3.03-41.4-9.49-50.62-30.07"/>
      </g>
      <g>
        <path class="cls-7" d="M81.6,62.24c-3.33-2.58-7.01-4.87-11.33-5.09-3.93-.2-7.77,1.42-10.67,4-5.16,4.6-6.77,11.79-5.73,18.41.96,6.09,4.78,12.05,11.08,13.53,3.53.83,6.86-.14,9.39-2.73,1.14-1.17,2.08-2.54,2.97-3.9.27-.41,1.24-1.57,1.21-1.89,0,.03-.17.14-.18.14l-1.01.11-.52-.31c.23.05.02.13,0-.04.02.12.17.27.22.39.89,1.85,1.29,4.72,1.71,6.91.93,4.77,1.48,9.61,1.86,14.45.45,5.75,1.05,11.88.2,17.57-.18,1.2-.44,2.39-.82,3.54-.25.75-.78,1.83-1.15,2.28-.61.75-1.04,1.03-1.88,1.18-.01,0-.75.03-1.01-.01-.56-.08-1.3-.31-1.86-.62-3.61-1.99-3.81-7.34-3.19-10.87.77-4.33,2.25-8.52,4.29-12.41,4.07-7.72,10.8-13.58,14.28-21.67,3.18-7.39,4.25-15.44,1.23-23.04-.79-1.98-1.72-3.9-2.73-5.77-1.14-2.13-4.38-.23-3.24,1.89,1.84,3.41,3.56,7.05,3.99,10.95s-.38,7.75-1.55,11.45c-1.31,4.15-3.54,7.9-6.09,11.41s-5.5,6.72-7.76,10.46-4.03,7.8-5.19,12-1.92,8.82-.43,13.02c1.3,3.68,4.12,6.51,8.11,6.93,2.45.26,4.64-.83,6.09-2.78,2.84-3.78,3.01-9.36,3.03-13.89.05-8.23-.77-16.65-2.15-24.75-.48-2.81-.94-5.78-1.85-8.49-.36-1.07-.81-2.29-1.76-2.97-1.33-.95-2.84-.41-3.74.84-1.68,2.34-3.02,5.55-5.82,6.79-2.55,1.12-5.81-.12-7.78-1.87-4.23-3.77-5.31-10.48-4.09-15.8,1.65-7.14,8.71-12.9,16.11-9.82,1.83.76,3.54,1.92,5.1,3.13.81.63,1.86.77,2.65,0,.65-.64.8-2.03,0-2.65h0Z"/>
        <g>
          <path class="cls-7" d="M103.77,64.04c-3.24,5.26-7.73,10.47-14.09,11.66-5.76,1.08-11.41-1.84-15.93-5.11-.83-.6-2.08-.14-2.57.67-.56.94-.14,1.97.67,2.57,5.44,3.93,12.01,6.77,18.82,5.49,7.3-1.37,12.62-7.36,16.34-13.39,1.27-2.06-1.97-3.94-3.24-1.89h0Z"/>
          <g>
            <path class="cls-7" d="M79.34,71.31c1.61,0,1.61-2.5,0-2.5s-1.61,2.5,0,2.5h0Z"/>
            <path class="cls-7" d="M83.45,72.25c1.61,0,1.61-2.5,0-2.5s-1.61,2.5,0,2.5h0Z"/>
          </g>
        </g>
      </g>
      <g>
        <path class="cls-7" d="M83.67,348.62l.36,2.66-6.76.92-.36-2.67,1.17-.16c.31-.04.45-.31.41-.58l-.78-5.74c-.03-.24-.27-.42-.54-.38l-1.17.16-.36-2.67,7.68-1.04c1.67-.23,4.26.07,4.62,2.66.23,1.68-.88,2.66-2.27,3.13.63.12,1.08.31,1.42.49.69.42,1.04,1.12,1.14,1.84.02.14.09.56.33.53.38-.05.3-.65.24-1.08l1.12-.15.16,1.13c.24,1.74-.56,2.95-2.37,3.19-.76.1-1.49.1-2.18-.42-1.17-.87-.81-2.5-1.79-3.38-.46-.43-1.67-.28-1.87-.25l-.12.02.2,1.5c.04.29.28.49.62.44l1.1-.15ZM82.89,343.93c.96-.13,1.27-.68,1.21-1.18-.07-.5-.51-.95-1.48-.81l-1.05.14c-.28.04-.44.27-.4.51l.21,1.55,1.51-.21Z"/>
        <path class="cls-7" d="M102.46,342.65c.43,3.15-1.32,6.38-5.17,6.9-3.85.52-6.4-2.12-6.83-5.27-.43-3.15,1.32-6.38,5.17-6.9s6.4,2.12,6.83,5.27ZM94.4,343.75c.25,1.86.74,3.4,2.53,3.16,1.79-.24,1.82-2.05,1.59-3.72-.23-1.67-.74-3.4-2.53-3.16-1.79.24-1.85,1.86-1.6,3.72Z"/>
        <path class="cls-7" d="M115.39,340.9c.43,3.15-1.32,6.38-5.17,6.9s-6.4-2.12-6.83-5.27c-.43-3.15,1.32-6.38,5.17-6.9,3.85-.52,6.4,2.12,6.83,5.27ZM107.32,341.99c.25,1.86.74,3.4,2.53,3.16s1.82-2.05,1.6-3.72c-.23-1.67-.74-3.4-2.53-3.16-1.79.24-1.85,1.86-1.59,3.72Z"/>
        <path class="cls-7" d="M130.44,342.26l.36,2.67-6.31.86-.36-2.67.96-.13c.31-.04.45-.31.41-.58l-.68-4.99-1.5,8.52-.21.03-3.74-7.81.69,5.05c.03.24.25.42.53.38l.93-.13.36,2.67-5.6.76-.36-2.66,1.2-.16c.31-.04.45-.31.41-.58l-.77-5.67c-.04-.26-.24-.49-.55-.45l-1.2.16-.36-2.66,6.29-.86s1.45,2.71,1.53,2.86l.5-3.13,6.21-.84.36,2.67-1,.14c-.29.04-.43.32-.39.58l.78,5.74c.04.26.28.42.61.37l.91-.12Z"/>
        <path class="cls-7" d="M137.63,344c-.41-.45-.58-1.04-.66-1.62-.62-4.59,5.03-5.1,4.72-7.4-.11-.83-.82-1.38-1.75-1.25-.4.05-1.08.39-1.02.86.04.33.27.42.33.9.12.89-.41,1.65-1.33,1.77-1.03.14-1.7-.77-1.82-1.7-.37-2.73,1.75-3.88,4.09-4.2,2.85-.39,4.94.41,5.29,2.97.5,3.7-3.56,4.3-5.37,5.35-.83.48-1.81,1.33-1.69,2.28.01.09.04.19.07.27.29-1.44,1.59-2.09,2.79-2.25.72-.1,1.52.13,2.23.03.95-.13,1.26-.8,1.11-1.87l1.32-.18.13.95c.33,2.42.26,3.94-2.53,4.32-1.8.25-2.62-.61-3.88-.5-.55.07-.89.24-.83.76.01.1.05.22.08.34l-1.29.17Z"/>
        <path class="cls-7" d="M153.09,341.96c-3.33.45-5.51-1.61-6.02-5.38-.51-3.76,1.03-6.34,4.36-6.79,3.35-.46,5.51,1.62,6.02,5.38.51,3.76-1.01,6.34-4.36,6.79ZM153.57,335.7c-.3-2.24-.53-3.75-1.82-3.57-1.29.17-1.1,1.69-.8,3.93.3,2.23.53,3.75,1.82,3.57,1.29-.17,1.1-1.69.8-3.92Z"/>
      </g>
      <g>
        <path class="cls-8" d="M83.66,334.48l-4.12.56-.83-6.1,4.12-.56.15,1.08-3.02.41.19,1.36,2.64-.36.14,1.03-2.64.36.21,1.54,3.02-.41.15,1.08Z"/>
        <path class="cls-8" d="M89.13,333.73l-.9.12-2.94-3.49.52,3.82-1.1.15-.83-6.1.91-.12,2.94,3.49-.52-3.82,1.09-.15.83,6.1Z"/>
        <path class="cls-8" d="M93.78,331.12c.18,1.31-.46,2.1-1.78,2.28-1.18.16-1.87-.37-2.27-1.37l1.01-.43c.22.53.57.81,1.11.74.7-.1.93-.46.84-1.1l-.56-4.12,1.09-.15.57,4.16Z"/>
        <path class="cls-8" d="M97.55,332.66c-1.83.25-2.73-1.16-2.95-2.78-.22-1.62.27-3.21,2.1-3.46,1.84-.25,2.73,1.15,2.95,2.78.22,1.62-.27,3.21-2.1,3.46ZM96.85,327.5c-1.2.16-1.28,1.28-1.15,2.23.13.95.5,2,1.7,1.84,1.2-.16,1.27-1.28,1.14-2.23-.13-.95-.49-2.01-1.69-1.84Z"/>
        <path class="cls-8" d="M104.5,325.43l-1.46,4.37.27,2.01-1.1.15-.28-2.03-2.58-3.8,1.23-.17,1.74,2.66.95-3.02,1.22-.17Z"/>
        <path class="cls-8" d="M112.46,324.34l-1.46,4.37.27,2.01-1.1.15-.28-2.03-2.58-3.8,1.23-.17,1.74,2.66.95-3.02,1.22-.17Z"/>
        <path class="cls-8" d="M115.95,330.15c-1.84.25-2.73-1.16-2.95-2.78-.22-1.62.27-3.21,2.1-3.46,1.84-.25,2.73,1.15,2.95,2.78.22,1.62-.27,3.21-2.1,3.46ZM115.25,325c-1.2.16-1.28,1.28-1.15,2.23.13.95.5,2,1.7,1.84s1.27-1.28,1.14-2.23c-.13-.95-.49-2.01-1.69-1.84Z"/>
        <path class="cls-8" d="M123.63,326.46c.21,1.56-.28,2.69-1.95,2.92-1.67.23-2.45-.74-2.66-2.29l-.49-3.57,1.09-.15.48,3.51c.12.85.4,1.57,1.43,1.43,1.06-.14,1.12-.88,1-1.76l-.48-3.51,1.09-.15.48,3.57Z"/>
        <path class="cls-8" d="M127.79,325.78c.12.06.25.21.35.34l1.74,2.07-1.28.17-1.52-1.9c-.23-.29-.35-.42-.74-.36l-.44.06.34,2.53-1.1.15-.83-6.1,2.2-.3c1.18-.16,2.16.27,2.34,1.53.11.79-.3,1.48-1.06,1.82ZM126.66,323.49l-1.11.15.21,1.55,1.11-.15c.55-.08.96-.28.87-.92-.08-.62-.55-.7-1.08-.63Z"/>
        <path class="cls-8" d="M135.36,327.53c-1.29.17-2.22-.29-2.69-1.47l1.01-.34c.28.66.85.85,1.54.76.52-.07,1.12-.42,1.04-1.03-.17-1.26-3.46.03-3.76-2.16-.16-1.15.81-1.85,1.84-2,1.08-.15,1.83.16,2.43,1.05l-.89.57c-.36-.5-.76-.68-1.4-.59-.39.05-.95.31-.88.82.15,1.07,3.45-.09,3.76,2.16.17,1.24-.86,2.07-1.99,2.23Z"/>
        <path class="cls-8" d="M141.85,321.45l-1.76.24.68,5.02-1.1.15-.68-5.02-1.76.24-.15-1.08,4.61-.63.15,1.08Z"/>
        <path class="cls-8" d="M147.79,325.75l-1.19.16-.8-1.51-2.15.29-.36,1.67-1.19.16,1.51-6.42.99-.13,3.19,5.78ZM145.32,323.49l-.99-1.87-.45,2.06,1.44-.2Z"/>
        <path class="cls-8" d="M151.45,319.04l-1.46,4.37.27,2.01-1.1.15-.28-2.03-2.58-3.8,1.23-.17,1.74,2.66.95-3.02,1.22-.17Z"/>
      </g>
      <g>
        <path class="cls-4" d="M17.21,195.01l2.19-.3,5.75,14.58c-.8-3.06-1.39-5.87-1.71-8.2-.74-5.47.68-9.11,3.92-9.56,4.04-.55,7.5,3.44,8.08,7.68.82,6.05-2.96,11.55-8.43,11.77,1.05,3.86,2.31,8.05,3.6,12.16l-2.19.3c-1.17-3.19-11.22-28.43-11.22-28.43ZM26.67,209.74c5.3-.75,7.02-5.2,6.36-10.06-.54-4-3.21-7.23-5.95-6.85-1.92.26-2.97,3.5-2.31,8.08.33,2.43,1.02,5.47,1.9,8.83Z"/>
        <path class="cls-4" d="M51.47,214.62c-1.31-4.04-1.79-7.04-3.33-6.83-1.44.2-1.29,5.89-.32,13l-2.16.29c-.28-.55-.94-1.82-1.72-3.42-.4,2.21-1.21,3.93-2.82,4.15-2.19.3-3.6-1.91-4.08-2.58l1.17-.86c.6.79,1.4,1.31,2.59,1.14,1.33-.18,1.88-1.51,2.21-3.75-1.13-2.39-2.38-5.18-3.3-7.6-1.3-3.38-2.87-6.72-3.44-10.96-.41-3.04.06-5.44,1.5-5.64,3.76-.51,5.99,11.03,6.4,14,.51,3.76.47,6.76.38,8.41.36.82.69,1.51.99,2.13-.43-4.71-.24-9.2,2.56-9.58,2.29-.31,3.5,1.65,4.55,5.06,1.23,3.91,2.46,6.07,3.76,5.9,2.12-.29,1.97-3.44,1.75-5.08l1.67.02c.42,3.11-.15,6.85-3.23,7.27-2.5.34-4.2-2.21-5.15-5.08ZM41.58,206.91c.69,1.79,1.28,3.24,1.83,4.45,0-1.29-.04-2.88-.29-4.66-1.29-9.47-3.94-14.1-4.86-13.97-.65.09-.41,2.36-.26,3.45.49,3.59,2.14,7.06,3.58,10.73Z"/>
        <path class="cls-4" d="M57.57,211.04c-.41-3.01.79-5.72,3.63-6.1,2.26-.31,4.31,1.5,5.68,3.86,1.13,1.62,2.41,3.12,3.47,3.25.71.11,1.39-.54,1.26-1.46l1.67.02c.19,1.4-.74,3.27-2.71,3.09-.88-.09-1.62-.41-2.25-.91l.03.21c.41,3.04-1.16,5.28-3.83,5.64-3.45.47-6.46-3.96-6.95-7.59ZM64.36,216.42c1.4-.19,1.95-1.55,1.73-3.13-.36-2.67-2.82-7.38-5.18-7.06-1.61.22-1.75,2.01-1.55,3.49.37,2.7,2.7,7.02,4.99,6.71Z"/>
        <path class="cls-4" d="M72.83,213.6c-.5-1.08-1.83-4.52-3.34-8.43l-2.09.28-.17-1.23,1.81-.25c-2.42-6.29-5.01-13.25-5.01-13.25l2.36-.32c.16.43,2.64,7.37,4.8,13.28l4.14-.56.17,1.23-3.83.52c1.06,2.92,2.03,5.44,2.52,6.48,1.1,2.43,2.07,3.45,3.3,3.28,2.22-.3,2.31-3.48,2.09-5.13l1.67.02c.42,3.11-.49,6.89-3.6,7.32-1.85.25-3.84-1.08-4.83-3.24Z"/>
        <path class="cls-4" d="M78.65,208.18c-.41-3.01.79-5.72,3.63-6.1,2.26-.31,4.31,1.5,5.68,3.86,1.13,1.62,2.41,3.12,3.47,3.25.71.11,1.39-.54,1.26-1.46l1.67.02c.19,1.4-.74,3.27-2.71,3.09-.88-.09-1.62-.41-2.25-.91l.03.21c.41,3.04-1.16,5.28-3.83,5.64-3.45.47-6.46-3.96-6.95-7.59ZM85.44,213.56c1.4-.19,1.95-1.55,1.73-3.13-.36-2.67-2.82-7.38-5.17-7.06-1.61.22-1.75,2.01-1.55,3.48.37,2.7,2.7,7.02,4.99,6.71Z"/>
        <path class="cls-4" d="M92.09,206.35c-.41-3.01.66-5.87,3.02-6.19,1.3-.18,2.6.69,3.72,1.97l-.87-2.08,2.19-.3c1.46,3.53,4.02,8.82,5.57,12.27.84-1.79,1.64-3.81,1.34-6.24l1.67.02c.42,3.11-1.32,5.68-2.36,7.74,0,.07.05.13.06.2,2.06,5.15,3.22,10.39.04,10.83-1.78.24-2.97-1.86-3-4.61-.01-2.4.52-3.87,1.14-5.48l-.05-.1c-.43-1.13-1.45-3.22-2.61-5.64.32,2.88-.35,4.85-2.91,5.2-3.45.47-6.46-3.96-6.95-7.59ZM98.88,211.73c1.4-.19,1.95-1.55,1.73-3.13-.32-2.33-3.18-7.51-5.27-7.22-1.61.22-1.66,2.17-1.46,3.65.37,2.7,2.7,7.02,4.99,6.71ZM106.05,222.7c1.09-.15.27-3.42-.76-6.34-.31,1.09-.54,2.2-.58,3.39-.05,1.92.76,3.03,1.34,2.95Z"/>
        <path class="cls-4" d="M112.12,206.37l-1.93-5.24c-.73.03-1.7.02-2.76-.29.76,1.99,1.16,3.88,1.3,4.94l-1.67-.02c-.31-2.29-1.81-5.12-2.71-6.6l1.97-.86c1.32,1.25,3.11,1.6,4.65,1.39.38-.05.64-.12.78-.18l.13-.05s1.3,3.69,2.12,5.84c.99,2.65,2.02,4.08,3.08,3.94,2.22-.3,1.97-3.44,1.75-5.08l1.67.02c.42,3.11-.15,6.85-3.23,7.27-2.5.34-4.1-2.26-5.15-5.08Z"/>
        <path class="cls-4" d="M128.14,207.05c-.14,1.83-.98,3.06-2.96,3.33-3.45.47-6.46-3.96-6.95-7.59-.41-3.01.82-5.72,3.29-6.06,1.03-.14,2.06.31,2.98,1.16l-.54-1.39,2.19-.3c.23.67,1.61,4.38,2.82,7.7.78,2.12,1.87,3.47,3.03,3.32,2.22-.3,1.97-3.44,1.75-5.08l1.67.02c.42,3.11-.15,6.85-3.26,7.27-1.68.23-3.16-.93-4.02-2.38ZM125.01,208.17c1.4-.19,1.95-1.55,1.73-3.13-.36-2.67-2.82-7.38-5.18-7.06-1.61.22-1.75,2.01-1.55,3.48.37,2.7,2.7,7.02,4.99,6.71Z"/>
        <path class="cls-4" d="M131.2,195.52l2.19-.3.83,2.29c.23-1.67,1.08-2.83,2.89-3.08,3.45-.47,6.48,4.13,6.98,7.76.19,1.37.05,2.67-.44,3.72,3.01-.93,4.11-2.86,3.73-5.63l1.67.02c.66,4.82-2.53,7.28-7.56,7.96-1.74.24-2.98-.43-3.9-1.28l4.36,12.05-1.81.25c-1.14-2.98-8.94-23.76-8.94-23.76ZM136.88,203.21c.76,1.25,1.5,2.06,2.22,2.52.46.29.89.4,1.37.34,1.4-.19,1.95-1.55,1.73-3.13-.36-2.67-2.84-7.56-5.2-7.23-1.61.22-1.72,2.18-1.52,3.66.16,1.16.67,2.59,1.4,3.85Z"/>
        <path class="cls-4" d="M155.87,200.42c-1.32-4.04-1.79-7.04-3.33-6.83-1.44.2-1.29,5.89-.32,13l-2.15.29c-.8-1.49-4.05-7.98-5.94-12.92-1.29-3.38-2.87-6.72-3.44-10.96-.41-3.04.06-5.44,1.5-5.64,3.76-.51,5.99,11.03,6.4,14,.51,3.76.47,6.76.38,8.41.36.82.69,1.51.99,2.13-.43-4.71-.24-9.2,2.56-9.58,2.29-.31,3.5,1.65,4.55,5.06,1.23,3.91,2.46,6.07,3.76,5.9,2.12-.29,1.97-3.44,1.75-5.08l1.67.02c.42,3.11-.15,6.85-3.23,7.27-2.5.34-4.2-2.21-5.15-5.08ZM145.98,192.71c.7,1.79,1.28,3.24,1.83,4.45,0-1.29-.04-2.88-.29-4.66-1.29-9.47-3.94-14.09-4.86-13.97-.65.09-.41,2.36-.26,3.45.49,3.59,2.14,7.06,3.58,10.73Z"/>
        <path class="cls-4" d="M163.62,201.25c-1.14-2.98-3.54-9.66-3.54-9.66l2.19-.3c.23.67,1.4,4.41,2.62,7.72.78,2.12,1.8,3.48,2.96,3.33,1.88-.26,1.48-5.29-1.1-11.66l2.19-.3c1.46,3.53,4.02,8.82,5.57,12.27.84-1.79,1.64-3.81,1.34-6.24l1.67.02c.42,3.11-1.32,5.68-2.36,7.74,0,.07.05.13.06.2,2.06,5.15,3.23,10.39.04,10.83-1.78.24-2.97-1.86-3-4.61-.01-2.4.52-3.87,1.13-5.48l-.05-.1c-.53-1.36-1.88-4.06-3.29-7.01.56,4.14-.39,6.32-2.24,6.58-1.68.23-3.51-1.51-4.21-3.33ZM174.84,213.34c1.09-.15.27-3.42-.76-6.34-.3,1.09-.54,2.2-.58,3.39-.05,1.92.76,3.03,1.34,2.95Z"/>
      </g>
    </g>
  </g>
</svg>